M48
METRIC,TZ
T1C0.400
T2C0.750
T3C0.800
T4C0.900
T5C1.000
T6C1.100
T7C1.600
%
G90
G05
T1
X69900Y-129100
X71800Y-112000
X72300Y-95000
X78100Y-78000
X83800Y-45500
X93500Y-64300
X102200Y-128900
X103000Y-112038
X103400Y-95100
X104169Y-77978
X107900Y-80300
X122700Y-102200
X123200Y-56100
T2
X84455Y-66675
X84455Y-67945
X84455Y-69215
X84455Y-83820
X84455Y-85090
X84455Y-86360
X84455Y-100965
X84455Y-102235
X84455Y-103505
X84455Y-118110
X84455Y-119380
X84455Y-120650
X116206Y-66675
X116206Y-67945
X116206Y-69215
X116206Y-83820
X116206Y-85090
X116206Y-86360
X116206Y-100965
X116206Y-102235
X116206Y-103505
X116206Y-118110
X116206Y-119380
X116206Y-120650
X127660Y-104200
X128930Y-104200
X130200Y-104200
T3
X63374Y-88000
X63474Y-70900
X63474Y-104900
X63474Y-122000
X64362Y-49768
X64373Y-43646
X65914Y-88000
X66014Y-70900
X66014Y-104900
X66014Y-122000
X68693Y-54095
X68706Y-39334
X71755Y-43815
X71755Y-46355
X71763Y-49261
X74813Y-54099
X74813Y-39336
X77500Y-68100
X77586Y-86000
X77586Y-103000
X77586Y-120000
X79146Y-43649
X79146Y-49773
X80040Y-68100
X80126Y-86000
X80126Y-103000
X80126Y-120000
X85300Y-72200
X85300Y-74740
X85300Y-89353
X85300Y-91893
X85300Y-106507
X85300Y-109047
X85300Y-123660
X85300Y-126200
X88054Y-66721
X88054Y-69261
X88054Y-83867
X88054Y-86407
X88054Y-101014
X88054Y-103554
X88054Y-118160
X88054Y-120700
X88340Y-59213
X88340Y-61753
X91500Y-59200
X91500Y-61740
X95174Y-70980
X95174Y-88020
X95174Y-105060
X95174Y-122100
X95247Y-59060
X95247Y-61600
X97714Y-70980
X97714Y-88020
X97714Y-105060
X97714Y-122100
X98400Y-59058
X98400Y-61598
X98505Y-64600
X101045Y-64600
X101590Y-52700
X101590Y-60320
X104125Y-36195
X104125Y-43815
X104130Y-52700
X104130Y-60320
X104155Y-62900
X106360Y-55400
X106665Y-36195
X106665Y-43815
X106670Y-52700
X106670Y-60320
X106695Y-62900
X108900Y-55400
X109060Y-68100
X109060Y-85400
X109060Y-102700
X109060Y-120000
X109205Y-36195
X109205Y-43815
X109210Y-52700
X109210Y-60320
X109700Y-48600
X111255Y-131000
X111600Y-68100
X111600Y-85400
X111600Y-102700
X111600Y-120000
X111745Y-36195
X111745Y-43815
X111750Y-52700
X111750Y-60320
X113795Y-131000
X114285Y-36195
X114285Y-43815
X114290Y-52700
X114290Y-60320
X114700Y-48600
X116100Y-40100
X116825Y-36195
X116825Y-43815
X116830Y-52700
X116830Y-60320
X117100Y-72260
X117100Y-74800
X117100Y-89327
X117100Y-91867
X117100Y-106493
X117100Y-109033
X117100Y-123660
X117100Y-126200
X117420Y-130000
X119365Y-36195
X119365Y-43815
X119800Y-66700
X119800Y-69240
X119800Y-83852
X119800Y-86392
X119800Y-101003
X119800Y-103543
X119800Y-118155
X119800Y-120695
X119960Y-130000
X120000Y-50400
X120000Y-55400
X120000Y-57600
X120000Y-62600
X121100Y-40100
X121905Y-36195
X121905Y-43815
X122500Y-130000
X122800Y-64686
X122800Y-67226
X122860Y-60300
X124290Y-75200
X125400Y-44700
X125400Y-49700
X125400Y-60300
X125400Y-63486
X125400Y-66026
X125605Y-52400
X125860Y-42000
X126000Y-55600
X127660Y-97300
X127905Y-81800
X128145Y-52400
X128247Y-86258
X128300Y-58174
X128300Y-60714
X128400Y-42000
X128400Y-44700
X128400Y-49700
X128540Y-55600
X128945Y-36195
X130055Y-70400
X130200Y-97300
X130445Y-81800
X130787Y-86258
X131445Y-36195
X131910Y-75200
X132595Y-70400
X132856Y-64045
X133149Y-42000
X133460Y-60400
X134660Y-36195
X135060Y-75300
X135200Y-103700
X135689Y-42000
X135955Y-97400
X136000Y-60400
X137160Y-36195
X137600Y-75300
X137740Y-103700
X137856Y-64045
X138495Y-97400
T4
X88900Y-71750
X88900Y-74290
X88900Y-88895
X88900Y-91435
X88900Y-106040
X88900Y-108580
X88900Y-123185
X88900Y-125725
X120650Y-71750
X120650Y-74290
X120650Y-88895
X120650Y-91435
X120650Y-106040
X120650Y-108580
X120650Y-123185
X120650Y-125725
T5
X74930Y-65525
X74930Y-82630
X74930Y-99735
X74930Y-116840
X77430Y-65525
X77430Y-82630
X77430Y-99735
X77430Y-116840
X79930Y-65525
X79930Y-82630
X79930Y-99735
X79930Y-116840
X80700Y-38200
X86000Y-44210
X86000Y-46710
X86000Y-49210
X106681Y-65525
X106681Y-82630
X106681Y-99735
X106681Y-116840
X109181Y-65525
X109181Y-82630
X109181Y-99735
X109181Y-116840
X111681Y-65525
X111681Y-82630
X111681Y-99735
X111681Y-116840
X125392Y-121605
X125392Y-124105
X125392Y-126605
X133360Y-45720
X133360Y-48260
X133360Y-50800
X133360Y-53340
X133360Y-55880
X135900Y-45720
X135900Y-48260
X135900Y-50800
X135900Y-53340
X135900Y-55880
T7
X81700Y-62300
T3
G00X127395Y-66910
M15
G01X127395Y-67710
M16
G05
G00X127395Y-78078
M15
G01X127395Y-78878
M16
G05
G00X127395Y-89245
M15
G01X127395Y-90045
M16
G05
G00X127395Y-100413
M15
G01X127395Y-101212
M16
G05
G00X127395Y-111580
M15
G01X127395Y-112380
M16
G05
G00X129595Y-66910
M15
G01X129595Y-67710
M16
G05
G00X129595Y-78078
M15
G01X129595Y-78878
M16
G05
G00X129595Y-89245
M15
G01X129595Y-90045
M16
G05
G00X129595Y-100413
M15
G01X129595Y-101212
M16
G05
G00X129595Y-111580
M15
G01X129595Y-112380
M16
G05
G00X137795Y-66910
M15
G01X137795Y-67710
M16
G05
G00X137795Y-78078
M15
G01X137795Y-78878
M16
G05
G00X137795Y-89245
M15
G01X137795Y-90045
M16
G05
G00X137795Y-100413
M15
G01X137795Y-101212
M16
G05
G00X137795Y-111580
M15
G01X137795Y-112380
M16
G05
T4
G00X65439Y-77996
M15
G01X66639Y-77996
M16
G05
G00X65439Y-95017
M15
G01X66639Y-95017
M16
G05
G00X65439Y-112038
M15
G01X66639Y-112038
M16
G05
G00X65439Y-129059
M15
G01X66639Y-129059
M16
G05
G00X65440Y-73285
M15
G01X66640Y-73285
M16
G05
G00X65440Y-90306
M15
G01X66640Y-90306
M16
G05
G00X65440Y-107327
M15
G01X66640Y-107327
M16
G05
G00X65440Y-124347
M15
G01X66640Y-124347
M16
G05
G00X65440Y-68583
M15
G01X66640Y-68583
M16
G05
G00X65440Y-85604
M15
G01X66640Y-85604
M16
G05
G00X65440Y-102625
M15
G01X66640Y-102625
M16
G05
G00X65440Y-119646
M15
G01X66640Y-119646
M16
G05
G00X97189Y-77996
M15
G01X98389Y-77996
M16
G05
G00X97189Y-95017
M15
G01X98389Y-95017
M16
G05
G00X97189Y-112038
M15
G01X98389Y-112038
M16
G05
G00X97189Y-129059
M15
G01X98389Y-129059
M16
G05
G00X97190Y-73285
M15
G01X98390Y-73285
M16
G05
G00X97190Y-90306
M15
G01X98390Y-90306
M16
G05
G00X97190Y-107327
M15
G01X98390Y-107327
M16
G05
G00X97190Y-124347
M15
G01X98390Y-124347
M16
G05
G00X97190Y-68583
M15
G01X98390Y-68583
M16
G05
G00X97190Y-85604
M15
G01X98390Y-85604
M16
G05
G00X97190Y-102625
M15
G01X98390Y-102625
M16
G05
G00X97190Y-119646
M15
G01X98390Y-119646
M16
G05
T6
G00X72630Y-72675
M15
G01X72630Y-73375
M16
G05
G00X72630Y-89780
M15
G01X72630Y-90480
M16
G05
G00X72630Y-106885
M15
G01X72630Y-107585
M16
G05
G00X72630Y-123990
M15
G01X72630Y-124690
M16
G05
G00X82230Y-72675
M15
G01X82230Y-73375
M16
G05
G00X82230Y-89780
M15
G01X82230Y-90480
M16
G05
G00X82230Y-106885
M15
G01X82230Y-107585
M16
G05
G00X82230Y-123990
M15
G01X82230Y-124690
M16
G05
G00X93150Y-41910
M15
G01X93850Y-41910
M16
G05
G00X93150Y-51510
M15
G01X93850Y-51510
M16
G05
G00X104381Y-72675
M15
G01X104381Y-73375
M16
G05
G00X104381Y-89780
M15
G01X104381Y-90480
M16
G05
G00X104381Y-106885
M15
G01X104381Y-107585
M16
G05
G00X104381Y-123990
M15
G01X104381Y-124690
M16
G05
G00X113981Y-72675
M15
G01X113981Y-73375
M16
G05
G00X113981Y-89780
M15
G01X113981Y-90480
M16
G05
G00X113981Y-106885
M15
G01X113981Y-107585
M16
G05
G00X113981Y-123990
M15
G01X113981Y-124690
M16
G05
G00X132542Y-119305
M15
G01X133242Y-119305
M16
G05
G00X132542Y-128905
M15
G01X133242Y-128905
M16
G05
M30
