G04 #@! TF.GenerationSoftware,KiCad,Pcbnew,7.0.10*
G04 #@! TF.CreationDate,2024-02-02T08:29:15+10:00*
G04 #@! TF.ProjectId,MK_Seq take 2,4d4b5f53-6571-4207-9461-6b6520322e6b,rev?*
G04 #@! TF.SameCoordinates,Original*
G04 #@! TF.FileFunction,AssemblyDrawing,Top*
%FSLAX46Y46*%
G04 Gerber Fmt 4.6, Leading zero omitted, Abs format (unit mm)*
G04 Created by KiCad (PCBNEW 7.0.10) date 2024-02-02 08:29:15*
%MOMM*%
%LPD*%
G01*
G04 APERTURE LIST*
%ADD10C,0.150000*%
%ADD11C,0.090000*%
%ADD12C,0.100000*%
%ADD13C,0.010000*%
%ADD14C,0.120000*%
G04 APERTURE END LIST*
D10*
X87868592Y-121854819D02*
X87392402Y-121854819D01*
X87392402Y-121854819D02*
X87392402Y-120854819D01*
X88201926Y-121331009D02*
X88535259Y-121331009D01*
X88678116Y-121854819D02*
X88201926Y-121854819D01*
X88201926Y-121854819D02*
X88201926Y-120854819D01*
X88201926Y-120854819D02*
X88678116Y-120854819D01*
X89106688Y-121854819D02*
X89106688Y-120854819D01*
X89106688Y-120854819D02*
X89344783Y-120854819D01*
X89344783Y-120854819D02*
X89487640Y-120902438D01*
X89487640Y-120902438D02*
X89582878Y-120997676D01*
X89582878Y-120997676D02*
X89630497Y-121092914D01*
X89630497Y-121092914D02*
X89678116Y-121283390D01*
X89678116Y-121283390D02*
X89678116Y-121426247D01*
X89678116Y-121426247D02*
X89630497Y-121616723D01*
X89630497Y-121616723D02*
X89582878Y-121711961D01*
X89582878Y-121711961D02*
X89487640Y-121807200D01*
X89487640Y-121807200D02*
X89344783Y-121854819D01*
X89344783Y-121854819D02*
X89106688Y-121854819D01*
X87868592Y-71054819D02*
X87392402Y-71054819D01*
X87392402Y-71054819D02*
X87392402Y-70054819D01*
X88201926Y-70531009D02*
X88535259Y-70531009D01*
X88678116Y-71054819D02*
X88201926Y-71054819D01*
X88201926Y-71054819D02*
X88201926Y-70054819D01*
X88201926Y-70054819D02*
X88678116Y-70054819D01*
X89106688Y-71054819D02*
X89106688Y-70054819D01*
X89106688Y-70054819D02*
X89344783Y-70054819D01*
X89344783Y-70054819D02*
X89487640Y-70102438D01*
X89487640Y-70102438D02*
X89582878Y-70197676D01*
X89582878Y-70197676D02*
X89630497Y-70292914D01*
X89630497Y-70292914D02*
X89678116Y-70483390D01*
X89678116Y-70483390D02*
X89678116Y-70626247D01*
X89678116Y-70626247D02*
X89630497Y-70816723D01*
X89630497Y-70816723D02*
X89582878Y-70911961D01*
X89582878Y-70911961D02*
X89487640Y-71007200D01*
X89487640Y-71007200D02*
X89344783Y-71054819D01*
X89344783Y-71054819D02*
X89106688Y-71054819D01*
X95605298Y-87684295D02*
X95748155Y-87731914D01*
X95748155Y-87731914D02*
X95986250Y-87731914D01*
X95986250Y-87731914D02*
X96081488Y-87684295D01*
X96081488Y-87684295D02*
X96129107Y-87636675D01*
X96129107Y-87636675D02*
X96176726Y-87541437D01*
X96176726Y-87541437D02*
X96176726Y-87446199D01*
X96176726Y-87446199D02*
X96129107Y-87350961D01*
X96129107Y-87350961D02*
X96081488Y-87303342D01*
X96081488Y-87303342D02*
X95986250Y-87255723D01*
X95986250Y-87255723D02*
X95795774Y-87208104D01*
X95795774Y-87208104D02*
X95700536Y-87160485D01*
X95700536Y-87160485D02*
X95652917Y-87112866D01*
X95652917Y-87112866D02*
X95605298Y-87017628D01*
X95605298Y-87017628D02*
X95605298Y-86922390D01*
X95605298Y-86922390D02*
X95652917Y-86827152D01*
X95652917Y-86827152D02*
X95700536Y-86779533D01*
X95700536Y-86779533D02*
X95795774Y-86731914D01*
X95795774Y-86731914D02*
X96033869Y-86731914D01*
X96033869Y-86731914D02*
X96176726Y-86779533D01*
X96605298Y-87731914D02*
X96605298Y-86731914D01*
X96605298Y-86731914D02*
X96986250Y-86731914D01*
X96986250Y-86731914D02*
X97081488Y-86779533D01*
X97081488Y-86779533D02*
X97129107Y-86827152D01*
X97129107Y-86827152D02*
X97176726Y-86922390D01*
X97176726Y-86922390D02*
X97176726Y-87065247D01*
X97176726Y-87065247D02*
X97129107Y-87160485D01*
X97129107Y-87160485D02*
X97081488Y-87208104D01*
X97081488Y-87208104D02*
X96986250Y-87255723D01*
X96986250Y-87255723D02*
X96605298Y-87255723D01*
X97652917Y-87684295D02*
X97652917Y-87731914D01*
X97652917Y-87731914D02*
X97605298Y-87827152D01*
X97605298Y-87827152D02*
X97557679Y-87874771D01*
X98081488Y-87731914D02*
X98081488Y-86731914D01*
X98081488Y-86731914D02*
X98319583Y-86731914D01*
X98319583Y-86731914D02*
X98462440Y-86779533D01*
X98462440Y-86779533D02*
X98557678Y-86874771D01*
X98557678Y-86874771D02*
X98605297Y-86970009D01*
X98605297Y-86970009D02*
X98652916Y-87160485D01*
X98652916Y-87160485D02*
X98652916Y-87303342D01*
X98652916Y-87303342D02*
X98605297Y-87493818D01*
X98605297Y-87493818D02*
X98557678Y-87589056D01*
X98557678Y-87589056D02*
X98462440Y-87684295D01*
X98462440Y-87684295D02*
X98319583Y-87731914D01*
X98319583Y-87731914D02*
X98081488Y-87731914D01*
X98938631Y-86731914D02*
X99510059Y-86731914D01*
X99224345Y-87731914D02*
X99224345Y-86731914D01*
X61595238Y-100007200D02*
X61738095Y-100054819D01*
X61738095Y-100054819D02*
X61976190Y-100054819D01*
X61976190Y-100054819D02*
X62071428Y-100007200D01*
X62071428Y-100007200D02*
X62119047Y-99959580D01*
X62119047Y-99959580D02*
X62166666Y-99864342D01*
X62166666Y-99864342D02*
X62166666Y-99769104D01*
X62166666Y-99769104D02*
X62119047Y-99673866D01*
X62119047Y-99673866D02*
X62071428Y-99626247D01*
X62071428Y-99626247D02*
X61976190Y-99578628D01*
X61976190Y-99578628D02*
X61785714Y-99531009D01*
X61785714Y-99531009D02*
X61690476Y-99483390D01*
X61690476Y-99483390D02*
X61642857Y-99435771D01*
X61642857Y-99435771D02*
X61595238Y-99340533D01*
X61595238Y-99340533D02*
X61595238Y-99245295D01*
X61595238Y-99245295D02*
X61642857Y-99150057D01*
X61642857Y-99150057D02*
X61690476Y-99102438D01*
X61690476Y-99102438D02*
X61785714Y-99054819D01*
X61785714Y-99054819D02*
X62023809Y-99054819D01*
X62023809Y-99054819D02*
X62166666Y-99102438D01*
X62595238Y-100054819D02*
X62595238Y-99054819D01*
X62595238Y-99054819D02*
X62976190Y-99054819D01*
X62976190Y-99054819D02*
X63071428Y-99102438D01*
X63071428Y-99102438D02*
X63119047Y-99150057D01*
X63119047Y-99150057D02*
X63166666Y-99245295D01*
X63166666Y-99245295D02*
X63166666Y-99388152D01*
X63166666Y-99388152D02*
X63119047Y-99483390D01*
X63119047Y-99483390D02*
X63071428Y-99531009D01*
X63071428Y-99531009D02*
X62976190Y-99578628D01*
X62976190Y-99578628D02*
X62595238Y-99578628D01*
X63642857Y-100007200D02*
X63642857Y-100054819D01*
X63642857Y-100054819D02*
X63595238Y-100150057D01*
X63595238Y-100150057D02*
X63547619Y-100197676D01*
X64071428Y-100054819D02*
X64071428Y-99054819D01*
X64071428Y-99054819D02*
X64309523Y-99054819D01*
X64309523Y-99054819D02*
X64452380Y-99102438D01*
X64452380Y-99102438D02*
X64547618Y-99197676D01*
X64547618Y-99197676D02*
X64595237Y-99292914D01*
X64595237Y-99292914D02*
X64642856Y-99483390D01*
X64642856Y-99483390D02*
X64642856Y-99626247D01*
X64642856Y-99626247D02*
X64595237Y-99816723D01*
X64595237Y-99816723D02*
X64547618Y-99911961D01*
X64547618Y-99911961D02*
X64452380Y-100007200D01*
X64452380Y-100007200D02*
X64309523Y-100054819D01*
X64309523Y-100054819D02*
X64071428Y-100054819D01*
X64928571Y-99054819D02*
X65499999Y-99054819D01*
X65214285Y-100054819D02*
X65214285Y-99054819D01*
X108014058Y-111189819D02*
X107442630Y-111189819D01*
X107728344Y-111189819D02*
X107728344Y-110189819D01*
X107728344Y-110189819D02*
X107633106Y-110332676D01*
X107633106Y-110332676D02*
X107537868Y-110427914D01*
X107537868Y-110427914D02*
X107442630Y-110475533D01*
X108633106Y-110189819D02*
X108728344Y-110189819D01*
X108728344Y-110189819D02*
X108823582Y-110237438D01*
X108823582Y-110237438D02*
X108871201Y-110285057D01*
X108871201Y-110285057D02*
X108918820Y-110380295D01*
X108918820Y-110380295D02*
X108966439Y-110570771D01*
X108966439Y-110570771D02*
X108966439Y-110808866D01*
X108966439Y-110808866D02*
X108918820Y-110999342D01*
X108918820Y-110999342D02*
X108871201Y-111094580D01*
X108871201Y-111094580D02*
X108823582Y-111142200D01*
X108823582Y-111142200D02*
X108728344Y-111189819D01*
X108728344Y-111189819D02*
X108633106Y-111189819D01*
X108633106Y-111189819D02*
X108537868Y-111142200D01*
X108537868Y-111142200D02*
X108490249Y-111094580D01*
X108490249Y-111094580D02*
X108442630Y-110999342D01*
X108442630Y-110999342D02*
X108395011Y-110808866D01*
X108395011Y-110808866D02*
X108395011Y-110570771D01*
X108395011Y-110570771D02*
X108442630Y-110380295D01*
X108442630Y-110380295D02*
X108490249Y-110285057D01*
X108490249Y-110285057D02*
X108537868Y-110237438D01*
X108537868Y-110237438D02*
X108633106Y-110189819D01*
X109585487Y-110189819D02*
X109680725Y-110189819D01*
X109680725Y-110189819D02*
X109775963Y-110237438D01*
X109775963Y-110237438D02*
X109823582Y-110285057D01*
X109823582Y-110285057D02*
X109871201Y-110380295D01*
X109871201Y-110380295D02*
X109918820Y-110570771D01*
X109918820Y-110570771D02*
X109918820Y-110808866D01*
X109918820Y-110808866D02*
X109871201Y-110999342D01*
X109871201Y-110999342D02*
X109823582Y-111094580D01*
X109823582Y-111094580D02*
X109775963Y-111142200D01*
X109775963Y-111142200D02*
X109680725Y-111189819D01*
X109680725Y-111189819D02*
X109585487Y-111189819D01*
X109585487Y-111189819D02*
X109490249Y-111142200D01*
X109490249Y-111142200D02*
X109442630Y-111094580D01*
X109442630Y-111094580D02*
X109395011Y-110999342D01*
X109395011Y-110999342D02*
X109347392Y-110808866D01*
X109347392Y-110808866D02*
X109347392Y-110570771D01*
X109347392Y-110570771D02*
X109395011Y-110380295D01*
X109395011Y-110380295D02*
X109442630Y-110285057D01*
X109442630Y-110285057D02*
X109490249Y-110237438D01*
X109490249Y-110237438D02*
X109585487Y-110189819D01*
X110347392Y-111189819D02*
X110347392Y-110189819D01*
X110918820Y-111189819D02*
X110490249Y-110618390D01*
X110918820Y-110189819D02*
X110347392Y-110761247D01*
X107212153Y-107762200D02*
X107355010Y-107809819D01*
X107355010Y-107809819D02*
X107593105Y-107809819D01*
X107593105Y-107809819D02*
X107688343Y-107762200D01*
X107688343Y-107762200D02*
X107735962Y-107714580D01*
X107735962Y-107714580D02*
X107783581Y-107619342D01*
X107783581Y-107619342D02*
X107783581Y-107524104D01*
X107783581Y-107524104D02*
X107735962Y-107428866D01*
X107735962Y-107428866D02*
X107688343Y-107381247D01*
X107688343Y-107381247D02*
X107593105Y-107333628D01*
X107593105Y-107333628D02*
X107402629Y-107286009D01*
X107402629Y-107286009D02*
X107307391Y-107238390D01*
X107307391Y-107238390D02*
X107259772Y-107190771D01*
X107259772Y-107190771D02*
X107212153Y-107095533D01*
X107212153Y-107095533D02*
X107212153Y-107000295D01*
X107212153Y-107000295D02*
X107259772Y-106905057D01*
X107259772Y-106905057D02*
X107307391Y-106857438D01*
X107307391Y-106857438D02*
X107402629Y-106809819D01*
X107402629Y-106809819D02*
X107640724Y-106809819D01*
X107640724Y-106809819D02*
X107783581Y-106857438D01*
X108069296Y-107143152D02*
X108450248Y-107143152D01*
X108212153Y-106809819D02*
X108212153Y-107666961D01*
X108212153Y-107666961D02*
X108259772Y-107762200D01*
X108259772Y-107762200D02*
X108355010Y-107809819D01*
X108355010Y-107809819D02*
X108450248Y-107809819D01*
X109164534Y-107762200D02*
X109069296Y-107809819D01*
X109069296Y-107809819D02*
X108878820Y-107809819D01*
X108878820Y-107809819D02*
X108783582Y-107762200D01*
X108783582Y-107762200D02*
X108735963Y-107666961D01*
X108735963Y-107666961D02*
X108735963Y-107286009D01*
X108735963Y-107286009D02*
X108783582Y-107190771D01*
X108783582Y-107190771D02*
X108878820Y-107143152D01*
X108878820Y-107143152D02*
X109069296Y-107143152D01*
X109069296Y-107143152D02*
X109164534Y-107190771D01*
X109164534Y-107190771D02*
X109212153Y-107286009D01*
X109212153Y-107286009D02*
X109212153Y-107381247D01*
X109212153Y-107381247D02*
X108735963Y-107476485D01*
X109640725Y-107143152D02*
X109640725Y-108143152D01*
X109640725Y-107190771D02*
X109735963Y-107143152D01*
X109735963Y-107143152D02*
X109926439Y-107143152D01*
X109926439Y-107143152D02*
X110021677Y-107190771D01*
X110021677Y-107190771D02*
X110069296Y-107238390D01*
X110069296Y-107238390D02*
X110116915Y-107333628D01*
X110116915Y-107333628D02*
X110116915Y-107619342D01*
X110116915Y-107619342D02*
X110069296Y-107714580D01*
X110069296Y-107714580D02*
X110021677Y-107762200D01*
X110021677Y-107762200D02*
X109926439Y-107809819D01*
X109926439Y-107809819D02*
X109735963Y-107809819D01*
X109735963Y-107809819D02*
X109640725Y-107762200D01*
X110450249Y-106809819D02*
X111116915Y-106809819D01*
X111116915Y-106809819D02*
X110688344Y-107809819D01*
X90333333Y-57527824D02*
X89761905Y-57527824D01*
X90047619Y-57527824D02*
X90047619Y-56527824D01*
X90047619Y-56527824D02*
X89952381Y-56670681D01*
X89952381Y-56670681D02*
X89857143Y-56765919D01*
X89857143Y-56765919D02*
X89761905Y-56813538D01*
X90952381Y-56527824D02*
X91047619Y-56527824D01*
X91047619Y-56527824D02*
X91142857Y-56575443D01*
X91142857Y-56575443D02*
X91190476Y-56623062D01*
X91190476Y-56623062D02*
X91238095Y-56718300D01*
X91238095Y-56718300D02*
X91285714Y-56908776D01*
X91285714Y-56908776D02*
X91285714Y-57146871D01*
X91285714Y-57146871D02*
X91238095Y-57337347D01*
X91238095Y-57337347D02*
X91190476Y-57432585D01*
X91190476Y-57432585D02*
X91142857Y-57480205D01*
X91142857Y-57480205D02*
X91047619Y-57527824D01*
X91047619Y-57527824D02*
X90952381Y-57527824D01*
X90952381Y-57527824D02*
X90857143Y-57480205D01*
X90857143Y-57480205D02*
X90809524Y-57432585D01*
X90809524Y-57432585D02*
X90761905Y-57337347D01*
X90761905Y-57337347D02*
X90714286Y-57146871D01*
X90714286Y-57146871D02*
X90714286Y-56908776D01*
X90714286Y-56908776D02*
X90761905Y-56718300D01*
X90761905Y-56718300D02*
X90809524Y-56623062D01*
X90809524Y-56623062D02*
X90857143Y-56575443D01*
X90857143Y-56575443D02*
X90952381Y-56527824D01*
X91904762Y-56527824D02*
X92000000Y-56527824D01*
X92000000Y-56527824D02*
X92095238Y-56575443D01*
X92095238Y-56575443D02*
X92142857Y-56623062D01*
X92142857Y-56623062D02*
X92190476Y-56718300D01*
X92190476Y-56718300D02*
X92238095Y-56908776D01*
X92238095Y-56908776D02*
X92238095Y-57146871D01*
X92238095Y-57146871D02*
X92190476Y-57337347D01*
X92190476Y-57337347D02*
X92142857Y-57432585D01*
X92142857Y-57432585D02*
X92095238Y-57480205D01*
X92095238Y-57480205D02*
X92000000Y-57527824D01*
X92000000Y-57527824D02*
X91904762Y-57527824D01*
X91904762Y-57527824D02*
X91809524Y-57480205D01*
X91809524Y-57480205D02*
X91761905Y-57432585D01*
X91761905Y-57432585D02*
X91714286Y-57337347D01*
X91714286Y-57337347D02*
X91666667Y-57146871D01*
X91666667Y-57146871D02*
X91666667Y-56908776D01*
X91666667Y-56908776D02*
X91714286Y-56718300D01*
X91714286Y-56718300D02*
X91761905Y-56623062D01*
X91761905Y-56623062D02*
X91809524Y-56575443D01*
X91809524Y-56575443D02*
X91904762Y-56527824D01*
X92666667Y-57527824D02*
X92666667Y-56527824D01*
X93238095Y-57527824D02*
X92809524Y-56956395D01*
X93238095Y-56527824D02*
X92666667Y-57099252D01*
X93054819Y-62242857D02*
X92578628Y-62576190D01*
X93054819Y-62814285D02*
X92054819Y-62814285D01*
X92054819Y-62814285D02*
X92054819Y-62433333D01*
X92054819Y-62433333D02*
X92102438Y-62338095D01*
X92102438Y-62338095D02*
X92150057Y-62290476D01*
X92150057Y-62290476D02*
X92245295Y-62242857D01*
X92245295Y-62242857D02*
X92388152Y-62242857D01*
X92388152Y-62242857D02*
X92483390Y-62290476D01*
X92483390Y-62290476D02*
X92531009Y-62338095D01*
X92531009Y-62338095D02*
X92578628Y-62433333D01*
X92578628Y-62433333D02*
X92578628Y-62814285D01*
X92150057Y-61861904D02*
X92102438Y-61814285D01*
X92102438Y-61814285D02*
X92054819Y-61719047D01*
X92054819Y-61719047D02*
X92054819Y-61480952D01*
X92054819Y-61480952D02*
X92102438Y-61385714D01*
X92102438Y-61385714D02*
X92150057Y-61338095D01*
X92150057Y-61338095D02*
X92245295Y-61290476D01*
X92245295Y-61290476D02*
X92340533Y-61290476D01*
X92340533Y-61290476D02*
X92483390Y-61338095D01*
X92483390Y-61338095D02*
X93054819Y-61909523D01*
X93054819Y-61909523D02*
X93054819Y-61290476D01*
X92054819Y-60957142D02*
X92054819Y-60338095D01*
X92054819Y-60338095D02*
X92435771Y-60671428D01*
X92435771Y-60671428D02*
X92435771Y-60528571D01*
X92435771Y-60528571D02*
X92483390Y-60433333D01*
X92483390Y-60433333D02*
X92531009Y-60385714D01*
X92531009Y-60385714D02*
X92626247Y-60338095D01*
X92626247Y-60338095D02*
X92864342Y-60338095D01*
X92864342Y-60338095D02*
X92959580Y-60385714D01*
X92959580Y-60385714D02*
X93007200Y-60433333D01*
X93007200Y-60433333D02*
X93054819Y-60528571D01*
X93054819Y-60528571D02*
X93054819Y-60814285D01*
X93054819Y-60814285D02*
X93007200Y-60909523D01*
X93007200Y-60909523D02*
X92959580Y-60957142D01*
X125714819Y-48667856D02*
X125714819Y-48572618D01*
X125714819Y-48572618D02*
X125762438Y-48477380D01*
X125762438Y-48477380D02*
X125810057Y-48429761D01*
X125810057Y-48429761D02*
X125905295Y-48382142D01*
X125905295Y-48382142D02*
X126095771Y-48334523D01*
X126095771Y-48334523D02*
X126333866Y-48334523D01*
X126333866Y-48334523D02*
X126524342Y-48382142D01*
X126524342Y-48382142D02*
X126619580Y-48429761D01*
X126619580Y-48429761D02*
X126667200Y-48477380D01*
X126667200Y-48477380D02*
X126714819Y-48572618D01*
X126714819Y-48572618D02*
X126714819Y-48667856D01*
X126714819Y-48667856D02*
X126667200Y-48763094D01*
X126667200Y-48763094D02*
X126619580Y-48810713D01*
X126619580Y-48810713D02*
X126524342Y-48858332D01*
X126524342Y-48858332D02*
X126333866Y-48905951D01*
X126333866Y-48905951D02*
X126095771Y-48905951D01*
X126095771Y-48905951D02*
X125905295Y-48858332D01*
X125905295Y-48858332D02*
X125810057Y-48810713D01*
X125810057Y-48810713D02*
X125762438Y-48763094D01*
X125762438Y-48763094D02*
X125714819Y-48667856D01*
X126619580Y-47905951D02*
X126667200Y-47858332D01*
X126667200Y-47858332D02*
X126714819Y-47905951D01*
X126714819Y-47905951D02*
X126667200Y-47953570D01*
X126667200Y-47953570D02*
X126619580Y-47905951D01*
X126619580Y-47905951D02*
X126714819Y-47905951D01*
X126714819Y-46905952D02*
X126714819Y-47477380D01*
X126714819Y-47191666D02*
X125714819Y-47191666D01*
X125714819Y-47191666D02*
X125857676Y-47286904D01*
X125857676Y-47286904D02*
X125952914Y-47382142D01*
X125952914Y-47382142D02*
X126000533Y-47477380D01*
X126048152Y-46048809D02*
X126714819Y-46048809D01*
X126048152Y-46477380D02*
X126571961Y-46477380D01*
X126571961Y-46477380D02*
X126667200Y-46429761D01*
X126667200Y-46429761D02*
X126714819Y-46334523D01*
X126714819Y-46334523D02*
X126714819Y-46191666D01*
X126714819Y-46191666D02*
X126667200Y-46096428D01*
X126667200Y-46096428D02*
X126619580Y-46048809D01*
X126191009Y-45239285D02*
X126191009Y-45572618D01*
X126714819Y-45572618D02*
X125714819Y-45572618D01*
X125714819Y-45572618D02*
X125714819Y-45096428D01*
X128759580Y-47366666D02*
X128807200Y-47414285D01*
X128807200Y-47414285D02*
X128854819Y-47557142D01*
X128854819Y-47557142D02*
X128854819Y-47652380D01*
X128854819Y-47652380D02*
X128807200Y-47795237D01*
X128807200Y-47795237D02*
X128711961Y-47890475D01*
X128711961Y-47890475D02*
X128616723Y-47938094D01*
X128616723Y-47938094D02*
X128426247Y-47985713D01*
X128426247Y-47985713D02*
X128283390Y-47985713D01*
X128283390Y-47985713D02*
X128092914Y-47938094D01*
X128092914Y-47938094D02*
X127997676Y-47890475D01*
X127997676Y-47890475D02*
X127902438Y-47795237D01*
X127902438Y-47795237D02*
X127854819Y-47652380D01*
X127854819Y-47652380D02*
X127854819Y-47557142D01*
X127854819Y-47557142D02*
X127902438Y-47414285D01*
X127902438Y-47414285D02*
X127950057Y-47366666D01*
X127854819Y-47033332D02*
X127854819Y-46414285D01*
X127854819Y-46414285D02*
X128235771Y-46747618D01*
X128235771Y-46747618D02*
X128235771Y-46604761D01*
X128235771Y-46604761D02*
X128283390Y-46509523D01*
X128283390Y-46509523D02*
X128331009Y-46461904D01*
X128331009Y-46461904D02*
X128426247Y-46414285D01*
X128426247Y-46414285D02*
X128664342Y-46414285D01*
X128664342Y-46414285D02*
X128759580Y-46461904D01*
X128759580Y-46461904D02*
X128807200Y-46509523D01*
X128807200Y-46509523D02*
X128854819Y-46604761D01*
X128854819Y-46604761D02*
X128854819Y-46890475D01*
X128854819Y-46890475D02*
X128807200Y-46985713D01*
X128807200Y-46985713D02*
X128759580Y-47033332D01*
X122614819Y-48602856D02*
X122614819Y-48507618D01*
X122614819Y-48507618D02*
X122662438Y-48412380D01*
X122662438Y-48412380D02*
X122710057Y-48364761D01*
X122710057Y-48364761D02*
X122805295Y-48317142D01*
X122805295Y-48317142D02*
X122995771Y-48269523D01*
X122995771Y-48269523D02*
X123233866Y-48269523D01*
X123233866Y-48269523D02*
X123424342Y-48317142D01*
X123424342Y-48317142D02*
X123519580Y-48364761D01*
X123519580Y-48364761D02*
X123567200Y-48412380D01*
X123567200Y-48412380D02*
X123614819Y-48507618D01*
X123614819Y-48507618D02*
X123614819Y-48602856D01*
X123614819Y-48602856D02*
X123567200Y-48698094D01*
X123567200Y-48698094D02*
X123519580Y-48745713D01*
X123519580Y-48745713D02*
X123424342Y-48793332D01*
X123424342Y-48793332D02*
X123233866Y-48840951D01*
X123233866Y-48840951D02*
X122995771Y-48840951D01*
X122995771Y-48840951D02*
X122805295Y-48793332D01*
X122805295Y-48793332D02*
X122710057Y-48745713D01*
X122710057Y-48745713D02*
X122662438Y-48698094D01*
X122662438Y-48698094D02*
X122614819Y-48602856D01*
X123519580Y-47840951D02*
X123567200Y-47793332D01*
X123567200Y-47793332D02*
X123614819Y-47840951D01*
X123614819Y-47840951D02*
X123567200Y-47888570D01*
X123567200Y-47888570D02*
X123519580Y-47840951D01*
X123519580Y-47840951D02*
X123614819Y-47840951D01*
X123614819Y-46840952D02*
X123614819Y-47412380D01*
X123614819Y-47126666D02*
X122614819Y-47126666D01*
X122614819Y-47126666D02*
X122757676Y-47221904D01*
X122757676Y-47221904D02*
X122852914Y-47317142D01*
X122852914Y-47317142D02*
X122900533Y-47412380D01*
X122948152Y-45983809D02*
X123614819Y-45983809D01*
X122948152Y-46412380D02*
X123471961Y-46412380D01*
X123471961Y-46412380D02*
X123567200Y-46364761D01*
X123567200Y-46364761D02*
X123614819Y-46269523D01*
X123614819Y-46269523D02*
X123614819Y-46126666D01*
X123614819Y-46126666D02*
X123567200Y-46031428D01*
X123567200Y-46031428D02*
X123519580Y-45983809D01*
X123091009Y-45174285D02*
X123091009Y-45507618D01*
X123614819Y-45507618D02*
X122614819Y-45507618D01*
X122614819Y-45507618D02*
X122614819Y-45031428D01*
X125759580Y-47366666D02*
X125807200Y-47414285D01*
X125807200Y-47414285D02*
X125854819Y-47557142D01*
X125854819Y-47557142D02*
X125854819Y-47652380D01*
X125854819Y-47652380D02*
X125807200Y-47795237D01*
X125807200Y-47795237D02*
X125711961Y-47890475D01*
X125711961Y-47890475D02*
X125616723Y-47938094D01*
X125616723Y-47938094D02*
X125426247Y-47985713D01*
X125426247Y-47985713D02*
X125283390Y-47985713D01*
X125283390Y-47985713D02*
X125092914Y-47938094D01*
X125092914Y-47938094D02*
X124997676Y-47890475D01*
X124997676Y-47890475D02*
X124902438Y-47795237D01*
X124902438Y-47795237D02*
X124854819Y-47652380D01*
X124854819Y-47652380D02*
X124854819Y-47557142D01*
X124854819Y-47557142D02*
X124902438Y-47414285D01*
X124902438Y-47414285D02*
X124950057Y-47366666D01*
X125188152Y-46509523D02*
X125854819Y-46509523D01*
X124807200Y-46747618D02*
X125521485Y-46985713D01*
X125521485Y-46985713D02*
X125521485Y-46366666D01*
X124344819Y-53220476D02*
X124344819Y-53791904D01*
X124344819Y-53506190D02*
X123344819Y-53506190D01*
X123344819Y-53506190D02*
X123487676Y-53601428D01*
X123487676Y-53601428D02*
X123582914Y-53696666D01*
X123582914Y-53696666D02*
X123630533Y-53791904D01*
X123344819Y-52601428D02*
X123344819Y-52506190D01*
X123344819Y-52506190D02*
X123392438Y-52410952D01*
X123392438Y-52410952D02*
X123440057Y-52363333D01*
X123440057Y-52363333D02*
X123535295Y-52315714D01*
X123535295Y-52315714D02*
X123725771Y-52268095D01*
X123725771Y-52268095D02*
X123963866Y-52268095D01*
X123963866Y-52268095D02*
X124154342Y-52315714D01*
X124154342Y-52315714D02*
X124249580Y-52363333D01*
X124249580Y-52363333D02*
X124297200Y-52410952D01*
X124297200Y-52410952D02*
X124344819Y-52506190D01*
X124344819Y-52506190D02*
X124344819Y-52601428D01*
X124344819Y-52601428D02*
X124297200Y-52696666D01*
X124297200Y-52696666D02*
X124249580Y-52744285D01*
X124249580Y-52744285D02*
X124154342Y-52791904D01*
X124154342Y-52791904D02*
X123963866Y-52839523D01*
X123963866Y-52839523D02*
X123725771Y-52839523D01*
X123725771Y-52839523D02*
X123535295Y-52791904D01*
X123535295Y-52791904D02*
X123440057Y-52744285D01*
X123440057Y-52744285D02*
X123392438Y-52696666D01*
X123392438Y-52696666D02*
X123344819Y-52601428D01*
X124344819Y-51268095D02*
X123868628Y-51601428D01*
X124344819Y-51839523D02*
X123344819Y-51839523D01*
X123344819Y-51839523D02*
X123344819Y-51458571D01*
X123344819Y-51458571D02*
X123392438Y-51363333D01*
X123392438Y-51363333D02*
X123440057Y-51315714D01*
X123440057Y-51315714D02*
X123535295Y-51268095D01*
X123535295Y-51268095D02*
X123678152Y-51268095D01*
X123678152Y-51268095D02*
X123773390Y-51315714D01*
X123773390Y-51315714D02*
X123821009Y-51363333D01*
X123821009Y-51363333D02*
X123868628Y-51458571D01*
X123868628Y-51458571D02*
X123868628Y-51839523D01*
X132275771Y-42454819D02*
X131704343Y-42454819D01*
X131990057Y-42454819D02*
X131990057Y-41454819D01*
X131990057Y-41454819D02*
X131894819Y-41597676D01*
X131894819Y-41597676D02*
X131799581Y-41692914D01*
X131799581Y-41692914D02*
X131704343Y-41740533D01*
X132704343Y-42454819D02*
X132704343Y-41454819D01*
X132704343Y-41454819D02*
X133275771Y-42454819D01*
X133275771Y-42454819D02*
X133275771Y-41454819D01*
X134228152Y-41454819D02*
X133751962Y-41454819D01*
X133751962Y-41454819D02*
X133704343Y-41931009D01*
X133704343Y-41931009D02*
X133751962Y-41883390D01*
X133751962Y-41883390D02*
X133847200Y-41835771D01*
X133847200Y-41835771D02*
X134085295Y-41835771D01*
X134085295Y-41835771D02*
X134180533Y-41883390D01*
X134180533Y-41883390D02*
X134228152Y-41931009D01*
X134228152Y-41931009D02*
X134275771Y-42026247D01*
X134275771Y-42026247D02*
X134275771Y-42264342D01*
X134275771Y-42264342D02*
X134228152Y-42359580D01*
X134228152Y-42359580D02*
X134180533Y-42407200D01*
X134180533Y-42407200D02*
X134085295Y-42454819D01*
X134085295Y-42454819D02*
X133847200Y-42454819D01*
X133847200Y-42454819D02*
X133751962Y-42407200D01*
X133751962Y-42407200D02*
X133704343Y-42359580D01*
X134847200Y-41883390D02*
X134751962Y-41835771D01*
X134751962Y-41835771D02*
X134704343Y-41788152D01*
X134704343Y-41788152D02*
X134656724Y-41692914D01*
X134656724Y-41692914D02*
X134656724Y-41645295D01*
X134656724Y-41645295D02*
X134704343Y-41550057D01*
X134704343Y-41550057D02*
X134751962Y-41502438D01*
X134751962Y-41502438D02*
X134847200Y-41454819D01*
X134847200Y-41454819D02*
X135037676Y-41454819D01*
X135037676Y-41454819D02*
X135132914Y-41502438D01*
X135132914Y-41502438D02*
X135180533Y-41550057D01*
X135180533Y-41550057D02*
X135228152Y-41645295D01*
X135228152Y-41645295D02*
X135228152Y-41692914D01*
X135228152Y-41692914D02*
X135180533Y-41788152D01*
X135180533Y-41788152D02*
X135132914Y-41835771D01*
X135132914Y-41835771D02*
X135037676Y-41883390D01*
X135037676Y-41883390D02*
X134847200Y-41883390D01*
X134847200Y-41883390D02*
X134751962Y-41931009D01*
X134751962Y-41931009D02*
X134704343Y-41978628D01*
X134704343Y-41978628D02*
X134656724Y-42073866D01*
X134656724Y-42073866D02*
X134656724Y-42264342D01*
X134656724Y-42264342D02*
X134704343Y-42359580D01*
X134704343Y-42359580D02*
X134751962Y-42407200D01*
X134751962Y-42407200D02*
X134847200Y-42454819D01*
X134847200Y-42454819D02*
X135037676Y-42454819D01*
X135037676Y-42454819D02*
X135132914Y-42407200D01*
X135132914Y-42407200D02*
X135180533Y-42359580D01*
X135180533Y-42359580D02*
X135228152Y-42264342D01*
X135228152Y-42264342D02*
X135228152Y-42073866D01*
X135228152Y-42073866D02*
X135180533Y-41978628D01*
X135180533Y-41978628D02*
X135132914Y-41931009D01*
X135132914Y-41931009D02*
X135037676Y-41883390D01*
X136180533Y-42454819D02*
X135609105Y-42454819D01*
X135894819Y-42454819D02*
X135894819Y-41454819D01*
X135894819Y-41454819D02*
X135799581Y-41597676D01*
X135799581Y-41597676D02*
X135704343Y-41692914D01*
X135704343Y-41692914D02*
X135609105Y-41740533D01*
X136656724Y-42454819D02*
X136847200Y-42454819D01*
X136847200Y-42454819D02*
X136942438Y-42407200D01*
X136942438Y-42407200D02*
X136990057Y-42359580D01*
X136990057Y-42359580D02*
X137085295Y-42216723D01*
X137085295Y-42216723D02*
X137132914Y-42026247D01*
X137132914Y-42026247D02*
X137132914Y-41645295D01*
X137132914Y-41645295D02*
X137085295Y-41550057D01*
X137085295Y-41550057D02*
X137037676Y-41502438D01*
X137037676Y-41502438D02*
X136942438Y-41454819D01*
X136942438Y-41454819D02*
X136751962Y-41454819D01*
X136751962Y-41454819D02*
X136656724Y-41502438D01*
X136656724Y-41502438D02*
X136609105Y-41550057D01*
X136609105Y-41550057D02*
X136561486Y-41645295D01*
X136561486Y-41645295D02*
X136561486Y-41883390D01*
X136561486Y-41883390D02*
X136609105Y-41978628D01*
X136609105Y-41978628D02*
X136656724Y-42026247D01*
X136656724Y-42026247D02*
X136751962Y-42073866D01*
X136751962Y-42073866D02*
X136942438Y-42073866D01*
X136942438Y-42073866D02*
X137037676Y-42026247D01*
X137037676Y-42026247D02*
X137085295Y-41978628D01*
X137085295Y-41978628D02*
X137132914Y-41883390D01*
X134200534Y-44599819D02*
X134200534Y-43599819D01*
X134200534Y-43599819D02*
X134438629Y-43599819D01*
X134438629Y-43599819D02*
X134581486Y-43647438D01*
X134581486Y-43647438D02*
X134676724Y-43742676D01*
X134676724Y-43742676D02*
X134724343Y-43837914D01*
X134724343Y-43837914D02*
X134771962Y-44028390D01*
X134771962Y-44028390D02*
X134771962Y-44171247D01*
X134771962Y-44171247D02*
X134724343Y-44361723D01*
X134724343Y-44361723D02*
X134676724Y-44456961D01*
X134676724Y-44456961D02*
X134581486Y-44552200D01*
X134581486Y-44552200D02*
X134438629Y-44599819D01*
X134438629Y-44599819D02*
X134200534Y-44599819D01*
X135152915Y-43695057D02*
X135200534Y-43647438D01*
X135200534Y-43647438D02*
X135295772Y-43599819D01*
X135295772Y-43599819D02*
X135533867Y-43599819D01*
X135533867Y-43599819D02*
X135629105Y-43647438D01*
X135629105Y-43647438D02*
X135676724Y-43695057D01*
X135676724Y-43695057D02*
X135724343Y-43790295D01*
X135724343Y-43790295D02*
X135724343Y-43885533D01*
X135724343Y-43885533D02*
X135676724Y-44028390D01*
X135676724Y-44028390D02*
X135105296Y-44599819D01*
X135105296Y-44599819D02*
X135724343Y-44599819D01*
X131086724Y-42454819D02*
X131086724Y-41454819D01*
X131658152Y-42454819D02*
X131229581Y-41883390D01*
X131658152Y-41454819D02*
X131086724Y-42026247D01*
X99388152Y-60285714D02*
X100054819Y-60285714D01*
X99007200Y-60523809D02*
X99721485Y-60761904D01*
X99721485Y-60761904D02*
X99721485Y-60142857D01*
X99054819Y-59857142D02*
X99054819Y-59190476D01*
X99054819Y-59190476D02*
X100054819Y-59619047D01*
X100054819Y-58809523D02*
X99054819Y-58809523D01*
X100054819Y-58238095D02*
X99483390Y-58666666D01*
X99054819Y-58238095D02*
X99626247Y-58809523D01*
X99454819Y-57342857D02*
X98978628Y-57676190D01*
X99454819Y-57914285D02*
X98454819Y-57914285D01*
X98454819Y-57914285D02*
X98454819Y-57533333D01*
X98454819Y-57533333D02*
X98502438Y-57438095D01*
X98502438Y-57438095D02*
X98550057Y-57390476D01*
X98550057Y-57390476D02*
X98645295Y-57342857D01*
X98645295Y-57342857D02*
X98788152Y-57342857D01*
X98788152Y-57342857D02*
X98883390Y-57390476D01*
X98883390Y-57390476D02*
X98931009Y-57438095D01*
X98931009Y-57438095D02*
X98978628Y-57533333D01*
X98978628Y-57533333D02*
X98978628Y-57914285D01*
X98550057Y-56961904D02*
X98502438Y-56914285D01*
X98502438Y-56914285D02*
X98454819Y-56819047D01*
X98454819Y-56819047D02*
X98454819Y-56580952D01*
X98454819Y-56580952D02*
X98502438Y-56485714D01*
X98502438Y-56485714D02*
X98550057Y-56438095D01*
X98550057Y-56438095D02*
X98645295Y-56390476D01*
X98645295Y-56390476D02*
X98740533Y-56390476D01*
X98740533Y-56390476D02*
X98883390Y-56438095D01*
X98883390Y-56438095D02*
X99454819Y-57009523D01*
X99454819Y-57009523D02*
X99454819Y-56390476D01*
X99454819Y-55914285D02*
X99454819Y-55723809D01*
X99454819Y-55723809D02*
X99407200Y-55628571D01*
X99407200Y-55628571D02*
X99359580Y-55580952D01*
X99359580Y-55580952D02*
X99216723Y-55485714D01*
X99216723Y-55485714D02*
X99026247Y-55438095D01*
X99026247Y-55438095D02*
X98645295Y-55438095D01*
X98645295Y-55438095D02*
X98550057Y-55485714D01*
X98550057Y-55485714D02*
X98502438Y-55533333D01*
X98502438Y-55533333D02*
X98454819Y-55628571D01*
X98454819Y-55628571D02*
X98454819Y-55819047D01*
X98454819Y-55819047D02*
X98502438Y-55914285D01*
X98502438Y-55914285D02*
X98550057Y-55961904D01*
X98550057Y-55961904D02*
X98645295Y-56009523D01*
X98645295Y-56009523D02*
X98883390Y-56009523D01*
X98883390Y-56009523D02*
X98978628Y-55961904D01*
X98978628Y-55961904D02*
X99026247Y-55914285D01*
X99026247Y-55914285D02*
X99073866Y-55819047D01*
X99073866Y-55819047D02*
X99073866Y-55628571D01*
X99073866Y-55628571D02*
X99026247Y-55533333D01*
X99026247Y-55533333D02*
X98978628Y-55485714D01*
X98978628Y-55485714D02*
X98883390Y-55438095D01*
X134527381Y-62530180D02*
X134860714Y-63006371D01*
X135098809Y-62530180D02*
X135098809Y-63530180D01*
X135098809Y-63530180D02*
X134717857Y-63530180D01*
X134717857Y-63530180D02*
X134622619Y-63482561D01*
X134622619Y-63482561D02*
X134575000Y-63434942D01*
X134575000Y-63434942D02*
X134527381Y-63339704D01*
X134527381Y-63339704D02*
X134527381Y-63196847D01*
X134527381Y-63196847D02*
X134575000Y-63101609D01*
X134575000Y-63101609D02*
X134622619Y-63053990D01*
X134622619Y-63053990D02*
X134717857Y-63006371D01*
X134717857Y-63006371D02*
X135098809Y-63006371D01*
X134098809Y-63053990D02*
X133765476Y-63053990D01*
X133622619Y-62530180D02*
X134098809Y-62530180D01*
X134098809Y-62530180D02*
X134098809Y-63530180D01*
X134098809Y-63530180D02*
X133622619Y-63530180D01*
X133241666Y-62577800D02*
X133098809Y-62530180D01*
X133098809Y-62530180D02*
X132860714Y-62530180D01*
X132860714Y-62530180D02*
X132765476Y-62577800D01*
X132765476Y-62577800D02*
X132717857Y-62625419D01*
X132717857Y-62625419D02*
X132670238Y-62720657D01*
X132670238Y-62720657D02*
X132670238Y-62815895D01*
X132670238Y-62815895D02*
X132717857Y-62911133D01*
X132717857Y-62911133D02*
X132765476Y-62958752D01*
X132765476Y-62958752D02*
X132860714Y-63006371D01*
X132860714Y-63006371D02*
X133051190Y-63053990D01*
X133051190Y-63053990D02*
X133146428Y-63101609D01*
X133146428Y-63101609D02*
X133194047Y-63149228D01*
X133194047Y-63149228D02*
X133241666Y-63244466D01*
X133241666Y-63244466D02*
X133241666Y-63339704D01*
X133241666Y-63339704D02*
X133194047Y-63434942D01*
X133194047Y-63434942D02*
X133146428Y-63482561D01*
X133146428Y-63482561D02*
X133051190Y-63530180D01*
X133051190Y-63530180D02*
X132813095Y-63530180D01*
X132813095Y-63530180D02*
X132670238Y-63482561D01*
X132241666Y-63053990D02*
X131908333Y-63053990D01*
X131765476Y-62530180D02*
X132241666Y-62530180D01*
X132241666Y-62530180D02*
X132241666Y-63530180D01*
X132241666Y-63530180D02*
X131765476Y-63530180D01*
X131479761Y-63530180D02*
X130908333Y-63530180D01*
X131194047Y-62530180D02*
X131194047Y-63530180D01*
X94033333Y-64054819D02*
X93461905Y-64054819D01*
X93747619Y-64054819D02*
X93747619Y-63054819D01*
X93747619Y-63054819D02*
X93652381Y-63197676D01*
X93652381Y-63197676D02*
X93557143Y-63292914D01*
X93557143Y-63292914D02*
X93461905Y-63340533D01*
X94652381Y-63054819D02*
X94747619Y-63054819D01*
X94747619Y-63054819D02*
X94842857Y-63102438D01*
X94842857Y-63102438D02*
X94890476Y-63150057D01*
X94890476Y-63150057D02*
X94938095Y-63245295D01*
X94938095Y-63245295D02*
X94985714Y-63435771D01*
X94985714Y-63435771D02*
X94985714Y-63673866D01*
X94985714Y-63673866D02*
X94938095Y-63864342D01*
X94938095Y-63864342D02*
X94890476Y-63959580D01*
X94890476Y-63959580D02*
X94842857Y-64007200D01*
X94842857Y-64007200D02*
X94747619Y-64054819D01*
X94747619Y-64054819D02*
X94652381Y-64054819D01*
X94652381Y-64054819D02*
X94557143Y-64007200D01*
X94557143Y-64007200D02*
X94509524Y-63959580D01*
X94509524Y-63959580D02*
X94461905Y-63864342D01*
X94461905Y-63864342D02*
X94414286Y-63673866D01*
X94414286Y-63673866D02*
X94414286Y-63435771D01*
X94414286Y-63435771D02*
X94461905Y-63245295D01*
X94461905Y-63245295D02*
X94509524Y-63150057D01*
X94509524Y-63150057D02*
X94557143Y-63102438D01*
X94557143Y-63102438D02*
X94652381Y-63054819D01*
X95604762Y-63054819D02*
X95700000Y-63054819D01*
X95700000Y-63054819D02*
X95795238Y-63102438D01*
X95795238Y-63102438D02*
X95842857Y-63150057D01*
X95842857Y-63150057D02*
X95890476Y-63245295D01*
X95890476Y-63245295D02*
X95938095Y-63435771D01*
X95938095Y-63435771D02*
X95938095Y-63673866D01*
X95938095Y-63673866D02*
X95890476Y-63864342D01*
X95890476Y-63864342D02*
X95842857Y-63959580D01*
X95842857Y-63959580D02*
X95795238Y-64007200D01*
X95795238Y-64007200D02*
X95700000Y-64054819D01*
X95700000Y-64054819D02*
X95604762Y-64054819D01*
X95604762Y-64054819D02*
X95509524Y-64007200D01*
X95509524Y-64007200D02*
X95461905Y-63959580D01*
X95461905Y-63959580D02*
X95414286Y-63864342D01*
X95414286Y-63864342D02*
X95366667Y-63673866D01*
X95366667Y-63673866D02*
X95366667Y-63435771D01*
X95366667Y-63435771D02*
X95414286Y-63245295D01*
X95414286Y-63245295D02*
X95461905Y-63150057D01*
X95461905Y-63150057D02*
X95509524Y-63102438D01*
X95509524Y-63102438D02*
X95604762Y-63054819D01*
X96366667Y-64054819D02*
X96366667Y-63054819D01*
X96938095Y-64054819D02*
X96509524Y-63483390D01*
X96938095Y-63054819D02*
X96366667Y-63626247D01*
X76263333Y-94084819D02*
X75691905Y-94084819D01*
X75977619Y-94084819D02*
X75977619Y-93084819D01*
X75977619Y-93084819D02*
X75882381Y-93227676D01*
X75882381Y-93227676D02*
X75787143Y-93322914D01*
X75787143Y-93322914D02*
X75691905Y-93370533D01*
X76882381Y-93084819D02*
X76977619Y-93084819D01*
X76977619Y-93084819D02*
X77072857Y-93132438D01*
X77072857Y-93132438D02*
X77120476Y-93180057D01*
X77120476Y-93180057D02*
X77168095Y-93275295D01*
X77168095Y-93275295D02*
X77215714Y-93465771D01*
X77215714Y-93465771D02*
X77215714Y-93703866D01*
X77215714Y-93703866D02*
X77168095Y-93894342D01*
X77168095Y-93894342D02*
X77120476Y-93989580D01*
X77120476Y-93989580D02*
X77072857Y-94037200D01*
X77072857Y-94037200D02*
X76977619Y-94084819D01*
X76977619Y-94084819D02*
X76882381Y-94084819D01*
X76882381Y-94084819D02*
X76787143Y-94037200D01*
X76787143Y-94037200D02*
X76739524Y-93989580D01*
X76739524Y-93989580D02*
X76691905Y-93894342D01*
X76691905Y-93894342D02*
X76644286Y-93703866D01*
X76644286Y-93703866D02*
X76644286Y-93465771D01*
X76644286Y-93465771D02*
X76691905Y-93275295D01*
X76691905Y-93275295D02*
X76739524Y-93180057D01*
X76739524Y-93180057D02*
X76787143Y-93132438D01*
X76787143Y-93132438D02*
X76882381Y-93084819D01*
X77834762Y-93084819D02*
X77930000Y-93084819D01*
X77930000Y-93084819D02*
X78025238Y-93132438D01*
X78025238Y-93132438D02*
X78072857Y-93180057D01*
X78072857Y-93180057D02*
X78120476Y-93275295D01*
X78120476Y-93275295D02*
X78168095Y-93465771D01*
X78168095Y-93465771D02*
X78168095Y-93703866D01*
X78168095Y-93703866D02*
X78120476Y-93894342D01*
X78120476Y-93894342D02*
X78072857Y-93989580D01*
X78072857Y-93989580D02*
X78025238Y-94037200D01*
X78025238Y-94037200D02*
X77930000Y-94084819D01*
X77930000Y-94084819D02*
X77834762Y-94084819D01*
X77834762Y-94084819D02*
X77739524Y-94037200D01*
X77739524Y-94037200D02*
X77691905Y-93989580D01*
X77691905Y-93989580D02*
X77644286Y-93894342D01*
X77644286Y-93894342D02*
X77596667Y-93703866D01*
X77596667Y-93703866D02*
X77596667Y-93465771D01*
X77596667Y-93465771D02*
X77644286Y-93275295D01*
X77644286Y-93275295D02*
X77691905Y-93180057D01*
X77691905Y-93180057D02*
X77739524Y-93132438D01*
X77739524Y-93132438D02*
X77834762Y-93084819D01*
X78596667Y-94084819D02*
X78596667Y-93084819D01*
X79168095Y-94084819D02*
X78739524Y-93513390D01*
X79168095Y-93084819D02*
X78596667Y-93656247D01*
X75461428Y-90657200D02*
X75604285Y-90704819D01*
X75604285Y-90704819D02*
X75842380Y-90704819D01*
X75842380Y-90704819D02*
X75937618Y-90657200D01*
X75937618Y-90657200D02*
X75985237Y-90609580D01*
X75985237Y-90609580D02*
X76032856Y-90514342D01*
X76032856Y-90514342D02*
X76032856Y-90419104D01*
X76032856Y-90419104D02*
X75985237Y-90323866D01*
X75985237Y-90323866D02*
X75937618Y-90276247D01*
X75937618Y-90276247D02*
X75842380Y-90228628D01*
X75842380Y-90228628D02*
X75651904Y-90181009D01*
X75651904Y-90181009D02*
X75556666Y-90133390D01*
X75556666Y-90133390D02*
X75509047Y-90085771D01*
X75509047Y-90085771D02*
X75461428Y-89990533D01*
X75461428Y-89990533D02*
X75461428Y-89895295D01*
X75461428Y-89895295D02*
X75509047Y-89800057D01*
X75509047Y-89800057D02*
X75556666Y-89752438D01*
X75556666Y-89752438D02*
X75651904Y-89704819D01*
X75651904Y-89704819D02*
X75889999Y-89704819D01*
X75889999Y-89704819D02*
X76032856Y-89752438D01*
X76318571Y-90038152D02*
X76699523Y-90038152D01*
X76461428Y-89704819D02*
X76461428Y-90561961D01*
X76461428Y-90561961D02*
X76509047Y-90657200D01*
X76509047Y-90657200D02*
X76604285Y-90704819D01*
X76604285Y-90704819D02*
X76699523Y-90704819D01*
X77413809Y-90657200D02*
X77318571Y-90704819D01*
X77318571Y-90704819D02*
X77128095Y-90704819D01*
X77128095Y-90704819D02*
X77032857Y-90657200D01*
X77032857Y-90657200D02*
X76985238Y-90561961D01*
X76985238Y-90561961D02*
X76985238Y-90181009D01*
X76985238Y-90181009D02*
X77032857Y-90085771D01*
X77032857Y-90085771D02*
X77128095Y-90038152D01*
X77128095Y-90038152D02*
X77318571Y-90038152D01*
X77318571Y-90038152D02*
X77413809Y-90085771D01*
X77413809Y-90085771D02*
X77461428Y-90181009D01*
X77461428Y-90181009D02*
X77461428Y-90276247D01*
X77461428Y-90276247D02*
X76985238Y-90371485D01*
X77890000Y-90038152D02*
X77890000Y-91038152D01*
X77890000Y-90085771D02*
X77985238Y-90038152D01*
X77985238Y-90038152D02*
X78175714Y-90038152D01*
X78175714Y-90038152D02*
X78270952Y-90085771D01*
X78270952Y-90085771D02*
X78318571Y-90133390D01*
X78318571Y-90133390D02*
X78366190Y-90228628D01*
X78366190Y-90228628D02*
X78366190Y-90514342D01*
X78366190Y-90514342D02*
X78318571Y-90609580D01*
X78318571Y-90609580D02*
X78270952Y-90657200D01*
X78270952Y-90657200D02*
X78175714Y-90704819D01*
X78175714Y-90704819D02*
X77985238Y-90704819D01*
X77985238Y-90704819D02*
X77890000Y-90657200D01*
X78747143Y-89800057D02*
X78794762Y-89752438D01*
X78794762Y-89752438D02*
X78890000Y-89704819D01*
X78890000Y-89704819D02*
X79128095Y-89704819D01*
X79128095Y-89704819D02*
X79223333Y-89752438D01*
X79223333Y-89752438D02*
X79270952Y-89800057D01*
X79270952Y-89800057D02*
X79318571Y-89895295D01*
X79318571Y-89895295D02*
X79318571Y-89990533D01*
X79318571Y-89990533D02*
X79270952Y-90133390D01*
X79270952Y-90133390D02*
X78699524Y-90704819D01*
X78699524Y-90704819D02*
X79318571Y-90704819D01*
X120007927Y-121734819D02*
X119531737Y-121734819D01*
X119531737Y-121734819D02*
X119531737Y-120734819D01*
X120341261Y-121211009D02*
X120674594Y-121211009D01*
X120817451Y-121734819D02*
X120341261Y-121734819D01*
X120341261Y-121734819D02*
X120341261Y-120734819D01*
X120341261Y-120734819D02*
X120817451Y-120734819D01*
X121246023Y-121734819D02*
X121246023Y-120734819D01*
X121246023Y-120734819D02*
X121484118Y-120734819D01*
X121484118Y-120734819D02*
X121626975Y-120782438D01*
X121626975Y-120782438D02*
X121722213Y-120877676D01*
X121722213Y-120877676D02*
X121769832Y-120972914D01*
X121769832Y-120972914D02*
X121817451Y-121163390D01*
X121817451Y-121163390D02*
X121817451Y-121306247D01*
X121817451Y-121306247D02*
X121769832Y-121496723D01*
X121769832Y-121496723D02*
X121722213Y-121591961D01*
X121722213Y-121591961D02*
X121626975Y-121687200D01*
X121626975Y-121687200D02*
X121484118Y-121734819D01*
X121484118Y-121734819D02*
X121246023Y-121734819D01*
X131261905Y-125550057D02*
X131309524Y-125502438D01*
X131309524Y-125502438D02*
X131404762Y-125454819D01*
X131404762Y-125454819D02*
X131642857Y-125454819D01*
X131642857Y-125454819D02*
X131738095Y-125502438D01*
X131738095Y-125502438D02*
X131785714Y-125550057D01*
X131785714Y-125550057D02*
X131833333Y-125645295D01*
X131833333Y-125645295D02*
X131833333Y-125740533D01*
X131833333Y-125740533D02*
X131785714Y-125883390D01*
X131785714Y-125883390D02*
X131214286Y-126454819D01*
X131214286Y-126454819D02*
X131833333Y-126454819D01*
X132738095Y-125454819D02*
X132261905Y-125454819D01*
X132261905Y-125454819D02*
X132214286Y-125931009D01*
X132214286Y-125931009D02*
X132261905Y-125883390D01*
X132261905Y-125883390D02*
X132357143Y-125835771D01*
X132357143Y-125835771D02*
X132595238Y-125835771D01*
X132595238Y-125835771D02*
X132690476Y-125883390D01*
X132690476Y-125883390D02*
X132738095Y-125931009D01*
X132738095Y-125931009D02*
X132785714Y-126026247D01*
X132785714Y-126026247D02*
X132785714Y-126264342D01*
X132785714Y-126264342D02*
X132738095Y-126359580D01*
X132738095Y-126359580D02*
X132690476Y-126407200D01*
X132690476Y-126407200D02*
X132595238Y-126454819D01*
X132595238Y-126454819D02*
X132357143Y-126454819D01*
X132357143Y-126454819D02*
X132261905Y-126407200D01*
X132261905Y-126407200D02*
X132214286Y-126359580D01*
X133404762Y-125454819D02*
X133500000Y-125454819D01*
X133500000Y-125454819D02*
X133595238Y-125502438D01*
X133595238Y-125502438D02*
X133642857Y-125550057D01*
X133642857Y-125550057D02*
X133690476Y-125645295D01*
X133690476Y-125645295D02*
X133738095Y-125835771D01*
X133738095Y-125835771D02*
X133738095Y-126073866D01*
X133738095Y-126073866D02*
X133690476Y-126264342D01*
X133690476Y-126264342D02*
X133642857Y-126359580D01*
X133642857Y-126359580D02*
X133595238Y-126407200D01*
X133595238Y-126407200D02*
X133500000Y-126454819D01*
X133500000Y-126454819D02*
X133404762Y-126454819D01*
X133404762Y-126454819D02*
X133309524Y-126407200D01*
X133309524Y-126407200D02*
X133261905Y-126359580D01*
X133261905Y-126359580D02*
X133214286Y-126264342D01*
X133214286Y-126264342D02*
X133166667Y-126073866D01*
X133166667Y-126073866D02*
X133166667Y-125835771D01*
X133166667Y-125835771D02*
X133214286Y-125645295D01*
X133214286Y-125645295D02*
X133261905Y-125550057D01*
X133261905Y-125550057D02*
X133309524Y-125502438D01*
X133309524Y-125502438D02*
X133404762Y-125454819D01*
X134166667Y-126454819D02*
X134166667Y-125454819D01*
X134738095Y-126454819D02*
X134309524Y-125883390D01*
X134738095Y-125454819D02*
X134166667Y-126026247D01*
X131059740Y-124599819D02*
X130726407Y-124123628D01*
X130488312Y-124599819D02*
X130488312Y-123599819D01*
X130488312Y-123599819D02*
X130869264Y-123599819D01*
X130869264Y-123599819D02*
X130964502Y-123647438D01*
X130964502Y-123647438D02*
X131012121Y-123695057D01*
X131012121Y-123695057D02*
X131059740Y-123790295D01*
X131059740Y-123790295D02*
X131059740Y-123933152D01*
X131059740Y-123933152D02*
X131012121Y-124028390D01*
X131012121Y-124028390D02*
X130964502Y-124076009D01*
X130964502Y-124076009D02*
X130869264Y-124123628D01*
X130869264Y-124123628D02*
X130488312Y-124123628D01*
X131916883Y-124599819D02*
X131916883Y-124076009D01*
X131916883Y-124076009D02*
X131869264Y-123980771D01*
X131869264Y-123980771D02*
X131774026Y-123933152D01*
X131774026Y-123933152D02*
X131583550Y-123933152D01*
X131583550Y-123933152D02*
X131488312Y-123980771D01*
X131916883Y-124552200D02*
X131821645Y-124599819D01*
X131821645Y-124599819D02*
X131583550Y-124599819D01*
X131583550Y-124599819D02*
X131488312Y-124552200D01*
X131488312Y-124552200D02*
X131440693Y-124456961D01*
X131440693Y-124456961D02*
X131440693Y-124361723D01*
X131440693Y-124361723D02*
X131488312Y-124266485D01*
X131488312Y-124266485D02*
X131583550Y-124218866D01*
X131583550Y-124218866D02*
X131821645Y-124218866D01*
X131821645Y-124218866D02*
X131916883Y-124171247D01*
X132393074Y-123933152D02*
X132393074Y-124599819D01*
X132393074Y-124028390D02*
X132440693Y-123980771D01*
X132440693Y-123980771D02*
X132535931Y-123933152D01*
X132535931Y-123933152D02*
X132678788Y-123933152D01*
X132678788Y-123933152D02*
X132774026Y-123980771D01*
X132774026Y-123980771D02*
X132821645Y-124076009D01*
X132821645Y-124076009D02*
X132821645Y-124599819D01*
X133726407Y-123933152D02*
X133726407Y-124742676D01*
X133726407Y-124742676D02*
X133678788Y-124837914D01*
X133678788Y-124837914D02*
X133631169Y-124885533D01*
X133631169Y-124885533D02*
X133535931Y-124933152D01*
X133535931Y-124933152D02*
X133393074Y-124933152D01*
X133393074Y-124933152D02*
X133297836Y-124885533D01*
X133726407Y-124552200D02*
X133631169Y-124599819D01*
X133631169Y-124599819D02*
X133440693Y-124599819D01*
X133440693Y-124599819D02*
X133345455Y-124552200D01*
X133345455Y-124552200D02*
X133297836Y-124504580D01*
X133297836Y-124504580D02*
X133250217Y-124409342D01*
X133250217Y-124409342D02*
X133250217Y-124123628D01*
X133250217Y-124123628D02*
X133297836Y-124028390D01*
X133297836Y-124028390D02*
X133345455Y-123980771D01*
X133345455Y-123980771D02*
X133440693Y-123933152D01*
X133440693Y-123933152D02*
X133631169Y-123933152D01*
X133631169Y-123933152D02*
X133726407Y-123980771D01*
X134583550Y-124552200D02*
X134488312Y-124599819D01*
X134488312Y-124599819D02*
X134297836Y-124599819D01*
X134297836Y-124599819D02*
X134202598Y-124552200D01*
X134202598Y-124552200D02*
X134154979Y-124456961D01*
X134154979Y-124456961D02*
X134154979Y-124076009D01*
X134154979Y-124076009D02*
X134202598Y-123980771D01*
X134202598Y-123980771D02*
X134297836Y-123933152D01*
X134297836Y-123933152D02*
X134488312Y-123933152D01*
X134488312Y-123933152D02*
X134583550Y-123980771D01*
X134583550Y-123980771D02*
X134631169Y-124076009D01*
X134631169Y-124076009D02*
X134631169Y-124171247D01*
X134631169Y-124171247D02*
X134154979Y-124266485D01*
X135583550Y-124599819D02*
X135012122Y-124599819D01*
X135297836Y-124599819D02*
X135297836Y-123599819D01*
X135297836Y-123599819D02*
X135202598Y-123742676D01*
X135202598Y-123742676D02*
X135107360Y-123837914D01*
X135107360Y-123837914D02*
X135012122Y-123885533D01*
X91761905Y-47950057D02*
X91809524Y-47902438D01*
X91809524Y-47902438D02*
X91904762Y-47854819D01*
X91904762Y-47854819D02*
X92142857Y-47854819D01*
X92142857Y-47854819D02*
X92238095Y-47902438D01*
X92238095Y-47902438D02*
X92285714Y-47950057D01*
X92285714Y-47950057D02*
X92333333Y-48045295D01*
X92333333Y-48045295D02*
X92333333Y-48140533D01*
X92333333Y-48140533D02*
X92285714Y-48283390D01*
X92285714Y-48283390D02*
X91714286Y-48854819D01*
X91714286Y-48854819D02*
X92333333Y-48854819D01*
X93238095Y-47854819D02*
X92761905Y-47854819D01*
X92761905Y-47854819D02*
X92714286Y-48331009D01*
X92714286Y-48331009D02*
X92761905Y-48283390D01*
X92761905Y-48283390D02*
X92857143Y-48235771D01*
X92857143Y-48235771D02*
X93095238Y-48235771D01*
X93095238Y-48235771D02*
X93190476Y-48283390D01*
X93190476Y-48283390D02*
X93238095Y-48331009D01*
X93238095Y-48331009D02*
X93285714Y-48426247D01*
X93285714Y-48426247D02*
X93285714Y-48664342D01*
X93285714Y-48664342D02*
X93238095Y-48759580D01*
X93238095Y-48759580D02*
X93190476Y-48807200D01*
X93190476Y-48807200D02*
X93095238Y-48854819D01*
X93095238Y-48854819D02*
X92857143Y-48854819D01*
X92857143Y-48854819D02*
X92761905Y-48807200D01*
X92761905Y-48807200D02*
X92714286Y-48759580D01*
X93904762Y-47854819D02*
X94000000Y-47854819D01*
X94000000Y-47854819D02*
X94095238Y-47902438D01*
X94095238Y-47902438D02*
X94142857Y-47950057D01*
X94142857Y-47950057D02*
X94190476Y-48045295D01*
X94190476Y-48045295D02*
X94238095Y-48235771D01*
X94238095Y-48235771D02*
X94238095Y-48473866D01*
X94238095Y-48473866D02*
X94190476Y-48664342D01*
X94190476Y-48664342D02*
X94142857Y-48759580D01*
X94142857Y-48759580D02*
X94095238Y-48807200D01*
X94095238Y-48807200D02*
X94000000Y-48854819D01*
X94000000Y-48854819D02*
X93904762Y-48854819D01*
X93904762Y-48854819D02*
X93809524Y-48807200D01*
X93809524Y-48807200D02*
X93761905Y-48759580D01*
X93761905Y-48759580D02*
X93714286Y-48664342D01*
X93714286Y-48664342D02*
X93666667Y-48473866D01*
X93666667Y-48473866D02*
X93666667Y-48235771D01*
X93666667Y-48235771D02*
X93714286Y-48045295D01*
X93714286Y-48045295D02*
X93761905Y-47950057D01*
X93761905Y-47950057D02*
X93809524Y-47902438D01*
X93809524Y-47902438D02*
X93904762Y-47854819D01*
X94666667Y-48854819D02*
X94666667Y-47854819D01*
X95238095Y-48854819D02*
X94809524Y-48283390D01*
X95238095Y-47854819D02*
X94666667Y-48426247D01*
X92286666Y-47204819D02*
X91953333Y-46728628D01*
X91715238Y-47204819D02*
X91715238Y-46204819D01*
X91715238Y-46204819D02*
X92096190Y-46204819D01*
X92096190Y-46204819D02*
X92191428Y-46252438D01*
X92191428Y-46252438D02*
X92239047Y-46300057D01*
X92239047Y-46300057D02*
X92286666Y-46395295D01*
X92286666Y-46395295D02*
X92286666Y-46538152D01*
X92286666Y-46538152D02*
X92239047Y-46633390D01*
X92239047Y-46633390D02*
X92191428Y-46681009D01*
X92191428Y-46681009D02*
X92096190Y-46728628D01*
X92096190Y-46728628D02*
X91715238Y-46728628D01*
X93143809Y-47204819D02*
X93143809Y-46681009D01*
X93143809Y-46681009D02*
X93096190Y-46585771D01*
X93096190Y-46585771D02*
X93000952Y-46538152D01*
X93000952Y-46538152D02*
X92810476Y-46538152D01*
X92810476Y-46538152D02*
X92715238Y-46585771D01*
X93143809Y-47157200D02*
X93048571Y-47204819D01*
X93048571Y-47204819D02*
X92810476Y-47204819D01*
X92810476Y-47204819D02*
X92715238Y-47157200D01*
X92715238Y-47157200D02*
X92667619Y-47061961D01*
X92667619Y-47061961D02*
X92667619Y-46966723D01*
X92667619Y-46966723D02*
X92715238Y-46871485D01*
X92715238Y-46871485D02*
X92810476Y-46823866D01*
X92810476Y-46823866D02*
X93048571Y-46823866D01*
X93048571Y-46823866D02*
X93143809Y-46776247D01*
X93477143Y-46538152D02*
X93858095Y-46538152D01*
X93620000Y-46204819D02*
X93620000Y-47061961D01*
X93620000Y-47061961D02*
X93667619Y-47157200D01*
X93667619Y-47157200D02*
X93762857Y-47204819D01*
X93762857Y-47204819D02*
X93858095Y-47204819D01*
X94572381Y-47157200D02*
X94477143Y-47204819D01*
X94477143Y-47204819D02*
X94286667Y-47204819D01*
X94286667Y-47204819D02*
X94191429Y-47157200D01*
X94191429Y-47157200D02*
X94143810Y-47061961D01*
X94143810Y-47061961D02*
X94143810Y-46681009D01*
X94143810Y-46681009D02*
X94191429Y-46585771D01*
X94191429Y-46585771D02*
X94286667Y-46538152D01*
X94286667Y-46538152D02*
X94477143Y-46538152D01*
X94477143Y-46538152D02*
X94572381Y-46585771D01*
X94572381Y-46585771D02*
X94620000Y-46681009D01*
X94620000Y-46681009D02*
X94620000Y-46776247D01*
X94620000Y-46776247D02*
X94143810Y-46871485D01*
X95572381Y-47204819D02*
X95000953Y-47204819D01*
X95286667Y-47204819D02*
X95286667Y-46204819D01*
X95286667Y-46204819D02*
X95191429Y-46347676D01*
X95191429Y-46347676D02*
X95096191Y-46442914D01*
X95096191Y-46442914D02*
X95000953Y-46490533D01*
X108014058Y-94084819D02*
X107442630Y-94084819D01*
X107728344Y-94084819D02*
X107728344Y-93084819D01*
X107728344Y-93084819D02*
X107633106Y-93227676D01*
X107633106Y-93227676D02*
X107537868Y-93322914D01*
X107537868Y-93322914D02*
X107442630Y-93370533D01*
X108633106Y-93084819D02*
X108728344Y-93084819D01*
X108728344Y-93084819D02*
X108823582Y-93132438D01*
X108823582Y-93132438D02*
X108871201Y-93180057D01*
X108871201Y-93180057D02*
X108918820Y-93275295D01*
X108918820Y-93275295D02*
X108966439Y-93465771D01*
X108966439Y-93465771D02*
X108966439Y-93703866D01*
X108966439Y-93703866D02*
X108918820Y-93894342D01*
X108918820Y-93894342D02*
X108871201Y-93989580D01*
X108871201Y-93989580D02*
X108823582Y-94037200D01*
X108823582Y-94037200D02*
X108728344Y-94084819D01*
X108728344Y-94084819D02*
X108633106Y-94084819D01*
X108633106Y-94084819D02*
X108537868Y-94037200D01*
X108537868Y-94037200D02*
X108490249Y-93989580D01*
X108490249Y-93989580D02*
X108442630Y-93894342D01*
X108442630Y-93894342D02*
X108395011Y-93703866D01*
X108395011Y-93703866D02*
X108395011Y-93465771D01*
X108395011Y-93465771D02*
X108442630Y-93275295D01*
X108442630Y-93275295D02*
X108490249Y-93180057D01*
X108490249Y-93180057D02*
X108537868Y-93132438D01*
X108537868Y-93132438D02*
X108633106Y-93084819D01*
X109585487Y-93084819D02*
X109680725Y-93084819D01*
X109680725Y-93084819D02*
X109775963Y-93132438D01*
X109775963Y-93132438D02*
X109823582Y-93180057D01*
X109823582Y-93180057D02*
X109871201Y-93275295D01*
X109871201Y-93275295D02*
X109918820Y-93465771D01*
X109918820Y-93465771D02*
X109918820Y-93703866D01*
X109918820Y-93703866D02*
X109871201Y-93894342D01*
X109871201Y-93894342D02*
X109823582Y-93989580D01*
X109823582Y-93989580D02*
X109775963Y-94037200D01*
X109775963Y-94037200D02*
X109680725Y-94084819D01*
X109680725Y-94084819D02*
X109585487Y-94084819D01*
X109585487Y-94084819D02*
X109490249Y-94037200D01*
X109490249Y-94037200D02*
X109442630Y-93989580D01*
X109442630Y-93989580D02*
X109395011Y-93894342D01*
X109395011Y-93894342D02*
X109347392Y-93703866D01*
X109347392Y-93703866D02*
X109347392Y-93465771D01*
X109347392Y-93465771D02*
X109395011Y-93275295D01*
X109395011Y-93275295D02*
X109442630Y-93180057D01*
X109442630Y-93180057D02*
X109490249Y-93132438D01*
X109490249Y-93132438D02*
X109585487Y-93084819D01*
X110347392Y-94084819D02*
X110347392Y-93084819D01*
X110918820Y-94084819D02*
X110490249Y-93513390D01*
X110918820Y-93084819D02*
X110347392Y-93656247D01*
X107212153Y-90657200D02*
X107355010Y-90704819D01*
X107355010Y-90704819D02*
X107593105Y-90704819D01*
X107593105Y-90704819D02*
X107688343Y-90657200D01*
X107688343Y-90657200D02*
X107735962Y-90609580D01*
X107735962Y-90609580D02*
X107783581Y-90514342D01*
X107783581Y-90514342D02*
X107783581Y-90419104D01*
X107783581Y-90419104D02*
X107735962Y-90323866D01*
X107735962Y-90323866D02*
X107688343Y-90276247D01*
X107688343Y-90276247D02*
X107593105Y-90228628D01*
X107593105Y-90228628D02*
X107402629Y-90181009D01*
X107402629Y-90181009D02*
X107307391Y-90133390D01*
X107307391Y-90133390D02*
X107259772Y-90085771D01*
X107259772Y-90085771D02*
X107212153Y-89990533D01*
X107212153Y-89990533D02*
X107212153Y-89895295D01*
X107212153Y-89895295D02*
X107259772Y-89800057D01*
X107259772Y-89800057D02*
X107307391Y-89752438D01*
X107307391Y-89752438D02*
X107402629Y-89704819D01*
X107402629Y-89704819D02*
X107640724Y-89704819D01*
X107640724Y-89704819D02*
X107783581Y-89752438D01*
X108069296Y-90038152D02*
X108450248Y-90038152D01*
X108212153Y-89704819D02*
X108212153Y-90561961D01*
X108212153Y-90561961D02*
X108259772Y-90657200D01*
X108259772Y-90657200D02*
X108355010Y-90704819D01*
X108355010Y-90704819D02*
X108450248Y-90704819D01*
X109164534Y-90657200D02*
X109069296Y-90704819D01*
X109069296Y-90704819D02*
X108878820Y-90704819D01*
X108878820Y-90704819D02*
X108783582Y-90657200D01*
X108783582Y-90657200D02*
X108735963Y-90561961D01*
X108735963Y-90561961D02*
X108735963Y-90181009D01*
X108735963Y-90181009D02*
X108783582Y-90085771D01*
X108783582Y-90085771D02*
X108878820Y-90038152D01*
X108878820Y-90038152D02*
X109069296Y-90038152D01*
X109069296Y-90038152D02*
X109164534Y-90085771D01*
X109164534Y-90085771D02*
X109212153Y-90181009D01*
X109212153Y-90181009D02*
X109212153Y-90276247D01*
X109212153Y-90276247D02*
X108735963Y-90371485D01*
X109640725Y-90038152D02*
X109640725Y-91038152D01*
X109640725Y-90085771D02*
X109735963Y-90038152D01*
X109735963Y-90038152D02*
X109926439Y-90038152D01*
X109926439Y-90038152D02*
X110021677Y-90085771D01*
X110021677Y-90085771D02*
X110069296Y-90133390D01*
X110069296Y-90133390D02*
X110116915Y-90228628D01*
X110116915Y-90228628D02*
X110116915Y-90514342D01*
X110116915Y-90514342D02*
X110069296Y-90609580D01*
X110069296Y-90609580D02*
X110021677Y-90657200D01*
X110021677Y-90657200D02*
X109926439Y-90704819D01*
X109926439Y-90704819D02*
X109735963Y-90704819D01*
X109735963Y-90704819D02*
X109640725Y-90657200D01*
X110974058Y-89704819D02*
X110783582Y-89704819D01*
X110783582Y-89704819D02*
X110688344Y-89752438D01*
X110688344Y-89752438D02*
X110640725Y-89800057D01*
X110640725Y-89800057D02*
X110545487Y-89942914D01*
X110545487Y-89942914D02*
X110497868Y-90133390D01*
X110497868Y-90133390D02*
X110497868Y-90514342D01*
X110497868Y-90514342D02*
X110545487Y-90609580D01*
X110545487Y-90609580D02*
X110593106Y-90657200D01*
X110593106Y-90657200D02*
X110688344Y-90704819D01*
X110688344Y-90704819D02*
X110878820Y-90704819D01*
X110878820Y-90704819D02*
X110974058Y-90657200D01*
X110974058Y-90657200D02*
X111021677Y-90609580D01*
X111021677Y-90609580D02*
X111069296Y-90514342D01*
X111069296Y-90514342D02*
X111069296Y-90276247D01*
X111069296Y-90276247D02*
X111021677Y-90181009D01*
X111021677Y-90181009D02*
X110974058Y-90133390D01*
X110974058Y-90133390D02*
X110878820Y-90085771D01*
X110878820Y-90085771D02*
X110688344Y-90085771D01*
X110688344Y-90085771D02*
X110593106Y-90133390D01*
X110593106Y-90133390D02*
X110545487Y-90181009D01*
X110545487Y-90181009D02*
X110497868Y-90276247D01*
X61695238Y-65907200D02*
X61838095Y-65954819D01*
X61838095Y-65954819D02*
X62076190Y-65954819D01*
X62076190Y-65954819D02*
X62171428Y-65907200D01*
X62171428Y-65907200D02*
X62219047Y-65859580D01*
X62219047Y-65859580D02*
X62266666Y-65764342D01*
X62266666Y-65764342D02*
X62266666Y-65669104D01*
X62266666Y-65669104D02*
X62219047Y-65573866D01*
X62219047Y-65573866D02*
X62171428Y-65526247D01*
X62171428Y-65526247D02*
X62076190Y-65478628D01*
X62076190Y-65478628D02*
X61885714Y-65431009D01*
X61885714Y-65431009D02*
X61790476Y-65383390D01*
X61790476Y-65383390D02*
X61742857Y-65335771D01*
X61742857Y-65335771D02*
X61695238Y-65240533D01*
X61695238Y-65240533D02*
X61695238Y-65145295D01*
X61695238Y-65145295D02*
X61742857Y-65050057D01*
X61742857Y-65050057D02*
X61790476Y-65002438D01*
X61790476Y-65002438D02*
X61885714Y-64954819D01*
X61885714Y-64954819D02*
X62123809Y-64954819D01*
X62123809Y-64954819D02*
X62266666Y-65002438D01*
X62695238Y-65954819D02*
X62695238Y-64954819D01*
X62695238Y-64954819D02*
X63076190Y-64954819D01*
X63076190Y-64954819D02*
X63171428Y-65002438D01*
X63171428Y-65002438D02*
X63219047Y-65050057D01*
X63219047Y-65050057D02*
X63266666Y-65145295D01*
X63266666Y-65145295D02*
X63266666Y-65288152D01*
X63266666Y-65288152D02*
X63219047Y-65383390D01*
X63219047Y-65383390D02*
X63171428Y-65431009D01*
X63171428Y-65431009D02*
X63076190Y-65478628D01*
X63076190Y-65478628D02*
X62695238Y-65478628D01*
X63742857Y-65907200D02*
X63742857Y-65954819D01*
X63742857Y-65954819D02*
X63695238Y-66050057D01*
X63695238Y-66050057D02*
X63647619Y-66097676D01*
X64171428Y-65954819D02*
X64171428Y-64954819D01*
X64171428Y-64954819D02*
X64409523Y-64954819D01*
X64409523Y-64954819D02*
X64552380Y-65002438D01*
X64552380Y-65002438D02*
X64647618Y-65097676D01*
X64647618Y-65097676D02*
X64695237Y-65192914D01*
X64695237Y-65192914D02*
X64742856Y-65383390D01*
X64742856Y-65383390D02*
X64742856Y-65526247D01*
X64742856Y-65526247D02*
X64695237Y-65716723D01*
X64695237Y-65716723D02*
X64647618Y-65811961D01*
X64647618Y-65811961D02*
X64552380Y-65907200D01*
X64552380Y-65907200D02*
X64409523Y-65954819D01*
X64409523Y-65954819D02*
X64171428Y-65954819D01*
X65028571Y-64954819D02*
X65599999Y-64954819D01*
X65314285Y-65954819D02*
X65314285Y-64954819D01*
X108014058Y-128294819D02*
X107442630Y-128294819D01*
X107728344Y-128294819D02*
X107728344Y-127294819D01*
X107728344Y-127294819D02*
X107633106Y-127437676D01*
X107633106Y-127437676D02*
X107537868Y-127532914D01*
X107537868Y-127532914D02*
X107442630Y-127580533D01*
X108633106Y-127294819D02*
X108728344Y-127294819D01*
X108728344Y-127294819D02*
X108823582Y-127342438D01*
X108823582Y-127342438D02*
X108871201Y-127390057D01*
X108871201Y-127390057D02*
X108918820Y-127485295D01*
X108918820Y-127485295D02*
X108966439Y-127675771D01*
X108966439Y-127675771D02*
X108966439Y-127913866D01*
X108966439Y-127913866D02*
X108918820Y-128104342D01*
X108918820Y-128104342D02*
X108871201Y-128199580D01*
X108871201Y-128199580D02*
X108823582Y-128247200D01*
X108823582Y-128247200D02*
X108728344Y-128294819D01*
X108728344Y-128294819D02*
X108633106Y-128294819D01*
X108633106Y-128294819D02*
X108537868Y-128247200D01*
X108537868Y-128247200D02*
X108490249Y-128199580D01*
X108490249Y-128199580D02*
X108442630Y-128104342D01*
X108442630Y-128104342D02*
X108395011Y-127913866D01*
X108395011Y-127913866D02*
X108395011Y-127675771D01*
X108395011Y-127675771D02*
X108442630Y-127485295D01*
X108442630Y-127485295D02*
X108490249Y-127390057D01*
X108490249Y-127390057D02*
X108537868Y-127342438D01*
X108537868Y-127342438D02*
X108633106Y-127294819D01*
X109585487Y-127294819D02*
X109680725Y-127294819D01*
X109680725Y-127294819D02*
X109775963Y-127342438D01*
X109775963Y-127342438D02*
X109823582Y-127390057D01*
X109823582Y-127390057D02*
X109871201Y-127485295D01*
X109871201Y-127485295D02*
X109918820Y-127675771D01*
X109918820Y-127675771D02*
X109918820Y-127913866D01*
X109918820Y-127913866D02*
X109871201Y-128104342D01*
X109871201Y-128104342D02*
X109823582Y-128199580D01*
X109823582Y-128199580D02*
X109775963Y-128247200D01*
X109775963Y-128247200D02*
X109680725Y-128294819D01*
X109680725Y-128294819D02*
X109585487Y-128294819D01*
X109585487Y-128294819D02*
X109490249Y-128247200D01*
X109490249Y-128247200D02*
X109442630Y-128199580D01*
X109442630Y-128199580D02*
X109395011Y-128104342D01*
X109395011Y-128104342D02*
X109347392Y-127913866D01*
X109347392Y-127913866D02*
X109347392Y-127675771D01*
X109347392Y-127675771D02*
X109395011Y-127485295D01*
X109395011Y-127485295D02*
X109442630Y-127390057D01*
X109442630Y-127390057D02*
X109490249Y-127342438D01*
X109490249Y-127342438D02*
X109585487Y-127294819D01*
X110347392Y-128294819D02*
X110347392Y-127294819D01*
X110918820Y-128294819D02*
X110490249Y-127723390D01*
X110918820Y-127294819D02*
X110347392Y-127866247D01*
X107212153Y-124867200D02*
X107355010Y-124914819D01*
X107355010Y-124914819D02*
X107593105Y-124914819D01*
X107593105Y-124914819D02*
X107688343Y-124867200D01*
X107688343Y-124867200D02*
X107735962Y-124819580D01*
X107735962Y-124819580D02*
X107783581Y-124724342D01*
X107783581Y-124724342D02*
X107783581Y-124629104D01*
X107783581Y-124629104D02*
X107735962Y-124533866D01*
X107735962Y-124533866D02*
X107688343Y-124486247D01*
X107688343Y-124486247D02*
X107593105Y-124438628D01*
X107593105Y-124438628D02*
X107402629Y-124391009D01*
X107402629Y-124391009D02*
X107307391Y-124343390D01*
X107307391Y-124343390D02*
X107259772Y-124295771D01*
X107259772Y-124295771D02*
X107212153Y-124200533D01*
X107212153Y-124200533D02*
X107212153Y-124105295D01*
X107212153Y-124105295D02*
X107259772Y-124010057D01*
X107259772Y-124010057D02*
X107307391Y-123962438D01*
X107307391Y-123962438D02*
X107402629Y-123914819D01*
X107402629Y-123914819D02*
X107640724Y-123914819D01*
X107640724Y-123914819D02*
X107783581Y-123962438D01*
X108069296Y-124248152D02*
X108450248Y-124248152D01*
X108212153Y-123914819D02*
X108212153Y-124771961D01*
X108212153Y-124771961D02*
X108259772Y-124867200D01*
X108259772Y-124867200D02*
X108355010Y-124914819D01*
X108355010Y-124914819D02*
X108450248Y-124914819D01*
X109164534Y-124867200D02*
X109069296Y-124914819D01*
X109069296Y-124914819D02*
X108878820Y-124914819D01*
X108878820Y-124914819D02*
X108783582Y-124867200D01*
X108783582Y-124867200D02*
X108735963Y-124771961D01*
X108735963Y-124771961D02*
X108735963Y-124391009D01*
X108735963Y-124391009D02*
X108783582Y-124295771D01*
X108783582Y-124295771D02*
X108878820Y-124248152D01*
X108878820Y-124248152D02*
X109069296Y-124248152D01*
X109069296Y-124248152D02*
X109164534Y-124295771D01*
X109164534Y-124295771D02*
X109212153Y-124391009D01*
X109212153Y-124391009D02*
X109212153Y-124486247D01*
X109212153Y-124486247D02*
X108735963Y-124581485D01*
X109640725Y-124248152D02*
X109640725Y-125248152D01*
X109640725Y-124295771D02*
X109735963Y-124248152D01*
X109735963Y-124248152D02*
X109926439Y-124248152D01*
X109926439Y-124248152D02*
X110021677Y-124295771D01*
X110021677Y-124295771D02*
X110069296Y-124343390D01*
X110069296Y-124343390D02*
X110116915Y-124438628D01*
X110116915Y-124438628D02*
X110116915Y-124724342D01*
X110116915Y-124724342D02*
X110069296Y-124819580D01*
X110069296Y-124819580D02*
X110021677Y-124867200D01*
X110021677Y-124867200D02*
X109926439Y-124914819D01*
X109926439Y-124914819D02*
X109735963Y-124914819D01*
X109735963Y-124914819D02*
X109640725Y-124867200D01*
X110688344Y-124343390D02*
X110593106Y-124295771D01*
X110593106Y-124295771D02*
X110545487Y-124248152D01*
X110545487Y-124248152D02*
X110497868Y-124152914D01*
X110497868Y-124152914D02*
X110497868Y-124105295D01*
X110497868Y-124105295D02*
X110545487Y-124010057D01*
X110545487Y-124010057D02*
X110593106Y-123962438D01*
X110593106Y-123962438D02*
X110688344Y-123914819D01*
X110688344Y-123914819D02*
X110878820Y-123914819D01*
X110878820Y-123914819D02*
X110974058Y-123962438D01*
X110974058Y-123962438D02*
X111021677Y-124010057D01*
X111021677Y-124010057D02*
X111069296Y-124105295D01*
X111069296Y-124105295D02*
X111069296Y-124152914D01*
X111069296Y-124152914D02*
X111021677Y-124248152D01*
X111021677Y-124248152D02*
X110974058Y-124295771D01*
X110974058Y-124295771D02*
X110878820Y-124343390D01*
X110878820Y-124343390D02*
X110688344Y-124343390D01*
X110688344Y-124343390D02*
X110593106Y-124391009D01*
X110593106Y-124391009D02*
X110545487Y-124438628D01*
X110545487Y-124438628D02*
X110497868Y-124533866D01*
X110497868Y-124533866D02*
X110497868Y-124724342D01*
X110497868Y-124724342D02*
X110545487Y-124819580D01*
X110545487Y-124819580D02*
X110593106Y-124867200D01*
X110593106Y-124867200D02*
X110688344Y-124914819D01*
X110688344Y-124914819D02*
X110878820Y-124914819D01*
X110878820Y-124914819D02*
X110974058Y-124867200D01*
X110974058Y-124867200D02*
X111021677Y-124819580D01*
X111021677Y-124819580D02*
X111069296Y-124724342D01*
X111069296Y-124724342D02*
X111069296Y-124533866D01*
X111069296Y-124533866D02*
X111021677Y-124438628D01*
X111021677Y-124438628D02*
X110974058Y-124391009D01*
X110974058Y-124391009D02*
X110878820Y-124343390D01*
X85903670Y-57564467D02*
X85332242Y-57564467D01*
X85617956Y-57564467D02*
X85617956Y-56564467D01*
X85617956Y-56564467D02*
X85522718Y-56707324D01*
X85522718Y-56707324D02*
X85427480Y-56802562D01*
X85427480Y-56802562D02*
X85332242Y-56850181D01*
X86522718Y-56564467D02*
X86617956Y-56564467D01*
X86617956Y-56564467D02*
X86713194Y-56612086D01*
X86713194Y-56612086D02*
X86760813Y-56659705D01*
X86760813Y-56659705D02*
X86808432Y-56754943D01*
X86808432Y-56754943D02*
X86856051Y-56945419D01*
X86856051Y-56945419D02*
X86856051Y-57183514D01*
X86856051Y-57183514D02*
X86808432Y-57373990D01*
X86808432Y-57373990D02*
X86760813Y-57469228D01*
X86760813Y-57469228D02*
X86713194Y-57516848D01*
X86713194Y-57516848D02*
X86617956Y-57564467D01*
X86617956Y-57564467D02*
X86522718Y-57564467D01*
X86522718Y-57564467D02*
X86427480Y-57516848D01*
X86427480Y-57516848D02*
X86379861Y-57469228D01*
X86379861Y-57469228D02*
X86332242Y-57373990D01*
X86332242Y-57373990D02*
X86284623Y-57183514D01*
X86284623Y-57183514D02*
X86284623Y-56945419D01*
X86284623Y-56945419D02*
X86332242Y-56754943D01*
X86332242Y-56754943D02*
X86379861Y-56659705D01*
X86379861Y-56659705D02*
X86427480Y-56612086D01*
X86427480Y-56612086D02*
X86522718Y-56564467D01*
X87475099Y-56564467D02*
X87570337Y-56564467D01*
X87570337Y-56564467D02*
X87665575Y-56612086D01*
X87665575Y-56612086D02*
X87713194Y-56659705D01*
X87713194Y-56659705D02*
X87760813Y-56754943D01*
X87760813Y-56754943D02*
X87808432Y-56945419D01*
X87808432Y-56945419D02*
X87808432Y-57183514D01*
X87808432Y-57183514D02*
X87760813Y-57373990D01*
X87760813Y-57373990D02*
X87713194Y-57469228D01*
X87713194Y-57469228D02*
X87665575Y-57516848D01*
X87665575Y-57516848D02*
X87570337Y-57564467D01*
X87570337Y-57564467D02*
X87475099Y-57564467D01*
X87475099Y-57564467D02*
X87379861Y-57516848D01*
X87379861Y-57516848D02*
X87332242Y-57469228D01*
X87332242Y-57469228D02*
X87284623Y-57373990D01*
X87284623Y-57373990D02*
X87237004Y-57183514D01*
X87237004Y-57183514D02*
X87237004Y-56945419D01*
X87237004Y-56945419D02*
X87284623Y-56754943D01*
X87284623Y-56754943D02*
X87332242Y-56659705D01*
X87332242Y-56659705D02*
X87379861Y-56612086D01*
X87379861Y-56612086D02*
X87475099Y-56564467D01*
X88237004Y-57564467D02*
X88237004Y-56564467D01*
X88808432Y-57564467D02*
X88379861Y-56993038D01*
X88808432Y-56564467D02*
X88237004Y-57135895D01*
X76263333Y-128294819D02*
X75691905Y-128294819D01*
X75977619Y-128294819D02*
X75977619Y-127294819D01*
X75977619Y-127294819D02*
X75882381Y-127437676D01*
X75882381Y-127437676D02*
X75787143Y-127532914D01*
X75787143Y-127532914D02*
X75691905Y-127580533D01*
X76882381Y-127294819D02*
X76977619Y-127294819D01*
X76977619Y-127294819D02*
X77072857Y-127342438D01*
X77072857Y-127342438D02*
X77120476Y-127390057D01*
X77120476Y-127390057D02*
X77168095Y-127485295D01*
X77168095Y-127485295D02*
X77215714Y-127675771D01*
X77215714Y-127675771D02*
X77215714Y-127913866D01*
X77215714Y-127913866D02*
X77168095Y-128104342D01*
X77168095Y-128104342D02*
X77120476Y-128199580D01*
X77120476Y-128199580D02*
X77072857Y-128247200D01*
X77072857Y-128247200D02*
X76977619Y-128294819D01*
X76977619Y-128294819D02*
X76882381Y-128294819D01*
X76882381Y-128294819D02*
X76787143Y-128247200D01*
X76787143Y-128247200D02*
X76739524Y-128199580D01*
X76739524Y-128199580D02*
X76691905Y-128104342D01*
X76691905Y-128104342D02*
X76644286Y-127913866D01*
X76644286Y-127913866D02*
X76644286Y-127675771D01*
X76644286Y-127675771D02*
X76691905Y-127485295D01*
X76691905Y-127485295D02*
X76739524Y-127390057D01*
X76739524Y-127390057D02*
X76787143Y-127342438D01*
X76787143Y-127342438D02*
X76882381Y-127294819D01*
X77834762Y-127294819D02*
X77930000Y-127294819D01*
X77930000Y-127294819D02*
X78025238Y-127342438D01*
X78025238Y-127342438D02*
X78072857Y-127390057D01*
X78072857Y-127390057D02*
X78120476Y-127485295D01*
X78120476Y-127485295D02*
X78168095Y-127675771D01*
X78168095Y-127675771D02*
X78168095Y-127913866D01*
X78168095Y-127913866D02*
X78120476Y-128104342D01*
X78120476Y-128104342D02*
X78072857Y-128199580D01*
X78072857Y-128199580D02*
X78025238Y-128247200D01*
X78025238Y-128247200D02*
X77930000Y-128294819D01*
X77930000Y-128294819D02*
X77834762Y-128294819D01*
X77834762Y-128294819D02*
X77739524Y-128247200D01*
X77739524Y-128247200D02*
X77691905Y-128199580D01*
X77691905Y-128199580D02*
X77644286Y-128104342D01*
X77644286Y-128104342D02*
X77596667Y-127913866D01*
X77596667Y-127913866D02*
X77596667Y-127675771D01*
X77596667Y-127675771D02*
X77644286Y-127485295D01*
X77644286Y-127485295D02*
X77691905Y-127390057D01*
X77691905Y-127390057D02*
X77739524Y-127342438D01*
X77739524Y-127342438D02*
X77834762Y-127294819D01*
X78596667Y-128294819D02*
X78596667Y-127294819D01*
X79168095Y-128294819D02*
X78739524Y-127723390D01*
X79168095Y-127294819D02*
X78596667Y-127866247D01*
X75501428Y-124747200D02*
X75644285Y-124794819D01*
X75644285Y-124794819D02*
X75882380Y-124794819D01*
X75882380Y-124794819D02*
X75977618Y-124747200D01*
X75977618Y-124747200D02*
X76025237Y-124699580D01*
X76025237Y-124699580D02*
X76072856Y-124604342D01*
X76072856Y-124604342D02*
X76072856Y-124509104D01*
X76072856Y-124509104D02*
X76025237Y-124413866D01*
X76025237Y-124413866D02*
X75977618Y-124366247D01*
X75977618Y-124366247D02*
X75882380Y-124318628D01*
X75882380Y-124318628D02*
X75691904Y-124271009D01*
X75691904Y-124271009D02*
X75596666Y-124223390D01*
X75596666Y-124223390D02*
X75549047Y-124175771D01*
X75549047Y-124175771D02*
X75501428Y-124080533D01*
X75501428Y-124080533D02*
X75501428Y-123985295D01*
X75501428Y-123985295D02*
X75549047Y-123890057D01*
X75549047Y-123890057D02*
X75596666Y-123842438D01*
X75596666Y-123842438D02*
X75691904Y-123794819D01*
X75691904Y-123794819D02*
X75929999Y-123794819D01*
X75929999Y-123794819D02*
X76072856Y-123842438D01*
X76358571Y-124128152D02*
X76739523Y-124128152D01*
X76501428Y-123794819D02*
X76501428Y-124651961D01*
X76501428Y-124651961D02*
X76549047Y-124747200D01*
X76549047Y-124747200D02*
X76644285Y-124794819D01*
X76644285Y-124794819D02*
X76739523Y-124794819D01*
X77453809Y-124747200D02*
X77358571Y-124794819D01*
X77358571Y-124794819D02*
X77168095Y-124794819D01*
X77168095Y-124794819D02*
X77072857Y-124747200D01*
X77072857Y-124747200D02*
X77025238Y-124651961D01*
X77025238Y-124651961D02*
X77025238Y-124271009D01*
X77025238Y-124271009D02*
X77072857Y-124175771D01*
X77072857Y-124175771D02*
X77168095Y-124128152D01*
X77168095Y-124128152D02*
X77358571Y-124128152D01*
X77358571Y-124128152D02*
X77453809Y-124175771D01*
X77453809Y-124175771D02*
X77501428Y-124271009D01*
X77501428Y-124271009D02*
X77501428Y-124366247D01*
X77501428Y-124366247D02*
X77025238Y-124461485D01*
X77930000Y-124128152D02*
X77930000Y-125128152D01*
X77930000Y-124175771D02*
X78025238Y-124128152D01*
X78025238Y-124128152D02*
X78215714Y-124128152D01*
X78215714Y-124128152D02*
X78310952Y-124175771D01*
X78310952Y-124175771D02*
X78358571Y-124223390D01*
X78358571Y-124223390D02*
X78406190Y-124318628D01*
X78406190Y-124318628D02*
X78406190Y-124604342D01*
X78406190Y-124604342D02*
X78358571Y-124699580D01*
X78358571Y-124699580D02*
X78310952Y-124747200D01*
X78310952Y-124747200D02*
X78215714Y-124794819D01*
X78215714Y-124794819D02*
X78025238Y-124794819D01*
X78025238Y-124794819D02*
X77930000Y-124747200D01*
X79263333Y-124128152D02*
X79263333Y-124794819D01*
X79025238Y-123747200D02*
X78787143Y-124461485D01*
X78787143Y-124461485D02*
X79406190Y-124461485D01*
X87868592Y-87564819D02*
X87392402Y-87564819D01*
X87392402Y-87564819D02*
X87392402Y-86564819D01*
X88201926Y-87041009D02*
X88535259Y-87041009D01*
X88678116Y-87564819D02*
X88201926Y-87564819D01*
X88201926Y-87564819D02*
X88201926Y-86564819D01*
X88201926Y-86564819D02*
X88678116Y-86564819D01*
X89106688Y-87564819D02*
X89106688Y-86564819D01*
X89106688Y-86564819D02*
X89344783Y-86564819D01*
X89344783Y-86564819D02*
X89487640Y-86612438D01*
X89487640Y-86612438D02*
X89582878Y-86707676D01*
X89582878Y-86707676D02*
X89630497Y-86802914D01*
X89630497Y-86802914D02*
X89678116Y-86993390D01*
X89678116Y-86993390D02*
X89678116Y-87136247D01*
X89678116Y-87136247D02*
X89630497Y-87326723D01*
X89630497Y-87326723D02*
X89582878Y-87421961D01*
X89582878Y-87421961D02*
X89487640Y-87517200D01*
X89487640Y-87517200D02*
X89344783Y-87564819D01*
X89344783Y-87564819D02*
X89106688Y-87564819D01*
X134844762Y-84960419D02*
X134892381Y-84912800D01*
X134892381Y-84912800D02*
X135035238Y-84865180D01*
X135035238Y-84865180D02*
X135130476Y-84865180D01*
X135130476Y-84865180D02*
X135273333Y-84912800D01*
X135273333Y-84912800D02*
X135368571Y-85008038D01*
X135368571Y-85008038D02*
X135416190Y-85103276D01*
X135416190Y-85103276D02*
X135463809Y-85293752D01*
X135463809Y-85293752D02*
X135463809Y-85436609D01*
X135463809Y-85436609D02*
X135416190Y-85627085D01*
X135416190Y-85627085D02*
X135368571Y-85722323D01*
X135368571Y-85722323D02*
X135273333Y-85817561D01*
X135273333Y-85817561D02*
X135130476Y-85865180D01*
X135130476Y-85865180D02*
X135035238Y-85865180D01*
X135035238Y-85865180D02*
X134892381Y-85817561D01*
X134892381Y-85817561D02*
X134844762Y-85769942D01*
X133940000Y-84865180D02*
X134416190Y-84865180D01*
X134416190Y-84865180D02*
X134416190Y-85865180D01*
X133606666Y-84865180D02*
X133606666Y-85865180D01*
X133035238Y-84865180D02*
X133463809Y-85436609D01*
X133035238Y-85865180D02*
X133606666Y-85293752D01*
X131654285Y-85865180D02*
X131463809Y-85865180D01*
X131463809Y-85865180D02*
X131368571Y-85817561D01*
X131368571Y-85817561D02*
X131273333Y-85722323D01*
X131273333Y-85722323D02*
X131225714Y-85531847D01*
X131225714Y-85531847D02*
X131225714Y-85198514D01*
X131225714Y-85198514D02*
X131273333Y-85008038D01*
X131273333Y-85008038D02*
X131368571Y-84912800D01*
X131368571Y-84912800D02*
X131463809Y-84865180D01*
X131463809Y-84865180D02*
X131654285Y-84865180D01*
X131654285Y-84865180D02*
X131749523Y-84912800D01*
X131749523Y-84912800D02*
X131844761Y-85008038D01*
X131844761Y-85008038D02*
X131892380Y-85198514D01*
X131892380Y-85198514D02*
X131892380Y-85531847D01*
X131892380Y-85531847D02*
X131844761Y-85722323D01*
X131844761Y-85722323D02*
X131749523Y-85817561D01*
X131749523Y-85817561D02*
X131654285Y-85865180D01*
X130797142Y-85865180D02*
X130797142Y-85055657D01*
X130797142Y-85055657D02*
X130749523Y-84960419D01*
X130749523Y-84960419D02*
X130701904Y-84912800D01*
X130701904Y-84912800D02*
X130606666Y-84865180D01*
X130606666Y-84865180D02*
X130416190Y-84865180D01*
X130416190Y-84865180D02*
X130320952Y-84912800D01*
X130320952Y-84912800D02*
X130273333Y-84960419D01*
X130273333Y-84960419D02*
X130225714Y-85055657D01*
X130225714Y-85055657D02*
X130225714Y-85865180D01*
X129892380Y-85865180D02*
X129320952Y-85865180D01*
X129606666Y-84865180D02*
X129606666Y-85865180D01*
X131727494Y-90021599D02*
X131679875Y-90069219D01*
X131679875Y-90069219D02*
X131537018Y-90116838D01*
X131537018Y-90116838D02*
X131441780Y-90116838D01*
X131441780Y-90116838D02*
X131298923Y-90069219D01*
X131298923Y-90069219D02*
X131203685Y-89973980D01*
X131203685Y-89973980D02*
X131156066Y-89878742D01*
X131156066Y-89878742D02*
X131108447Y-89688266D01*
X131108447Y-89688266D02*
X131108447Y-89545409D01*
X131108447Y-89545409D02*
X131156066Y-89354933D01*
X131156066Y-89354933D02*
X131203685Y-89259695D01*
X131203685Y-89259695D02*
X131298923Y-89164457D01*
X131298923Y-89164457D02*
X131441780Y-89116838D01*
X131441780Y-89116838D02*
X131537018Y-89116838D01*
X131537018Y-89116838D02*
X131679875Y-89164457D01*
X131679875Y-89164457D02*
X131727494Y-89212076D01*
X132632256Y-90116838D02*
X132156066Y-90116838D01*
X132156066Y-90116838D02*
X132156066Y-89116838D01*
X132965590Y-90116838D02*
X132965590Y-89116838D01*
X133537018Y-90116838D02*
X133108447Y-89545409D01*
X133537018Y-89116838D02*
X132965590Y-89688266D01*
X133727495Y-90212076D02*
X134489399Y-90212076D01*
X134917971Y-89116838D02*
X135108447Y-89116838D01*
X135108447Y-89116838D02*
X135203685Y-89164457D01*
X135203685Y-89164457D02*
X135298923Y-89259695D01*
X135298923Y-89259695D02*
X135346542Y-89450171D01*
X135346542Y-89450171D02*
X135346542Y-89783504D01*
X135346542Y-89783504D02*
X135298923Y-89973980D01*
X135298923Y-89973980D02*
X135203685Y-90069219D01*
X135203685Y-90069219D02*
X135108447Y-90116838D01*
X135108447Y-90116838D02*
X134917971Y-90116838D01*
X134917971Y-90116838D02*
X134822733Y-90069219D01*
X134822733Y-90069219D02*
X134727495Y-89973980D01*
X134727495Y-89973980D02*
X134679876Y-89783504D01*
X134679876Y-89783504D02*
X134679876Y-89450171D01*
X134679876Y-89450171D02*
X134727495Y-89259695D01*
X134727495Y-89259695D02*
X134822733Y-89164457D01*
X134822733Y-89164457D02*
X134917971Y-89116838D01*
X136298923Y-90116838D02*
X135727495Y-90116838D01*
X136013209Y-90116838D02*
X136013209Y-89116838D01*
X136013209Y-89116838D02*
X135917971Y-89259695D01*
X135917971Y-89259695D02*
X135822733Y-89354933D01*
X135822733Y-89354933D02*
X135727495Y-89402552D01*
X76263333Y-76979819D02*
X75691905Y-76979819D01*
X75977619Y-76979819D02*
X75977619Y-75979819D01*
X75977619Y-75979819D02*
X75882381Y-76122676D01*
X75882381Y-76122676D02*
X75787143Y-76217914D01*
X75787143Y-76217914D02*
X75691905Y-76265533D01*
X76882381Y-75979819D02*
X76977619Y-75979819D01*
X76977619Y-75979819D02*
X77072857Y-76027438D01*
X77072857Y-76027438D02*
X77120476Y-76075057D01*
X77120476Y-76075057D02*
X77168095Y-76170295D01*
X77168095Y-76170295D02*
X77215714Y-76360771D01*
X77215714Y-76360771D02*
X77215714Y-76598866D01*
X77215714Y-76598866D02*
X77168095Y-76789342D01*
X77168095Y-76789342D02*
X77120476Y-76884580D01*
X77120476Y-76884580D02*
X77072857Y-76932200D01*
X77072857Y-76932200D02*
X76977619Y-76979819D01*
X76977619Y-76979819D02*
X76882381Y-76979819D01*
X76882381Y-76979819D02*
X76787143Y-76932200D01*
X76787143Y-76932200D02*
X76739524Y-76884580D01*
X76739524Y-76884580D02*
X76691905Y-76789342D01*
X76691905Y-76789342D02*
X76644286Y-76598866D01*
X76644286Y-76598866D02*
X76644286Y-76360771D01*
X76644286Y-76360771D02*
X76691905Y-76170295D01*
X76691905Y-76170295D02*
X76739524Y-76075057D01*
X76739524Y-76075057D02*
X76787143Y-76027438D01*
X76787143Y-76027438D02*
X76882381Y-75979819D01*
X77834762Y-75979819D02*
X77930000Y-75979819D01*
X77930000Y-75979819D02*
X78025238Y-76027438D01*
X78025238Y-76027438D02*
X78072857Y-76075057D01*
X78072857Y-76075057D02*
X78120476Y-76170295D01*
X78120476Y-76170295D02*
X78168095Y-76360771D01*
X78168095Y-76360771D02*
X78168095Y-76598866D01*
X78168095Y-76598866D02*
X78120476Y-76789342D01*
X78120476Y-76789342D02*
X78072857Y-76884580D01*
X78072857Y-76884580D02*
X78025238Y-76932200D01*
X78025238Y-76932200D02*
X77930000Y-76979819D01*
X77930000Y-76979819D02*
X77834762Y-76979819D01*
X77834762Y-76979819D02*
X77739524Y-76932200D01*
X77739524Y-76932200D02*
X77691905Y-76884580D01*
X77691905Y-76884580D02*
X77644286Y-76789342D01*
X77644286Y-76789342D02*
X77596667Y-76598866D01*
X77596667Y-76598866D02*
X77596667Y-76360771D01*
X77596667Y-76360771D02*
X77644286Y-76170295D01*
X77644286Y-76170295D02*
X77691905Y-76075057D01*
X77691905Y-76075057D02*
X77739524Y-76027438D01*
X77739524Y-76027438D02*
X77834762Y-75979819D01*
X78596667Y-76979819D02*
X78596667Y-75979819D01*
X79168095Y-76979819D02*
X78739524Y-76408390D01*
X79168095Y-75979819D02*
X78596667Y-76551247D01*
X80961904Y-59052438D02*
X80866666Y-59004819D01*
X80866666Y-59004819D02*
X80723809Y-59004819D01*
X80723809Y-59004819D02*
X80580952Y-59052438D01*
X80580952Y-59052438D02*
X80485714Y-59147676D01*
X80485714Y-59147676D02*
X80438095Y-59242914D01*
X80438095Y-59242914D02*
X80390476Y-59433390D01*
X80390476Y-59433390D02*
X80390476Y-59576247D01*
X80390476Y-59576247D02*
X80438095Y-59766723D01*
X80438095Y-59766723D02*
X80485714Y-59861961D01*
X80485714Y-59861961D02*
X80580952Y-59957200D01*
X80580952Y-59957200D02*
X80723809Y-60004819D01*
X80723809Y-60004819D02*
X80819047Y-60004819D01*
X80819047Y-60004819D02*
X80961904Y-59957200D01*
X80961904Y-59957200D02*
X81009523Y-59909580D01*
X81009523Y-59909580D02*
X81009523Y-59576247D01*
X81009523Y-59576247D02*
X80819047Y-59576247D01*
X82009523Y-60004819D02*
X81676190Y-59528628D01*
X81438095Y-60004819D02*
X81438095Y-59004819D01*
X81438095Y-59004819D02*
X81819047Y-59004819D01*
X81819047Y-59004819D02*
X81914285Y-59052438D01*
X81914285Y-59052438D02*
X81961904Y-59100057D01*
X81961904Y-59100057D02*
X82009523Y-59195295D01*
X82009523Y-59195295D02*
X82009523Y-59338152D01*
X82009523Y-59338152D02*
X81961904Y-59433390D01*
X81961904Y-59433390D02*
X81914285Y-59481009D01*
X81914285Y-59481009D02*
X81819047Y-59528628D01*
X81819047Y-59528628D02*
X81438095Y-59528628D01*
X82438095Y-60004819D02*
X82438095Y-59004819D01*
X82438095Y-59004819D02*
X82676190Y-59004819D01*
X82676190Y-59004819D02*
X82819047Y-59052438D01*
X82819047Y-59052438D02*
X82914285Y-59147676D01*
X82914285Y-59147676D02*
X82961904Y-59242914D01*
X82961904Y-59242914D02*
X83009523Y-59433390D01*
X83009523Y-59433390D02*
X83009523Y-59576247D01*
X83009523Y-59576247D02*
X82961904Y-59766723D01*
X82961904Y-59766723D02*
X82914285Y-59861961D01*
X82914285Y-59861961D02*
X82819047Y-59957200D01*
X82819047Y-59957200D02*
X82676190Y-60004819D01*
X82676190Y-60004819D02*
X82438095Y-60004819D01*
D11*
X80942856Y-61972891D02*
X81285714Y-61972891D01*
X81114285Y-62572891D02*
X81114285Y-61972891D01*
X81485714Y-62572891D02*
X81485714Y-61972891D01*
X81485714Y-61972891D02*
X81714285Y-61972891D01*
X81714285Y-61972891D02*
X81771428Y-62001462D01*
X81771428Y-62001462D02*
X81799999Y-62030034D01*
X81799999Y-62030034D02*
X81828571Y-62087177D01*
X81828571Y-62087177D02*
X81828571Y-62172891D01*
X81828571Y-62172891D02*
X81799999Y-62230034D01*
X81799999Y-62230034D02*
X81771428Y-62258605D01*
X81771428Y-62258605D02*
X81714285Y-62287177D01*
X81714285Y-62287177D02*
X81485714Y-62287177D01*
X82399999Y-62572891D02*
X82057142Y-62572891D01*
X82228571Y-62572891D02*
X82228571Y-61972891D01*
X82228571Y-61972891D02*
X82171428Y-62058605D01*
X82171428Y-62058605D02*
X82114285Y-62115748D01*
X82114285Y-62115748D02*
X82057142Y-62144320D01*
D10*
X108271428Y-131031009D02*
X108414285Y-131078628D01*
X108414285Y-131078628D02*
X108461904Y-131126247D01*
X108461904Y-131126247D02*
X108509523Y-131221485D01*
X108509523Y-131221485D02*
X108509523Y-131364342D01*
X108509523Y-131364342D02*
X108461904Y-131459580D01*
X108461904Y-131459580D02*
X108414285Y-131507200D01*
X108414285Y-131507200D02*
X108319047Y-131554819D01*
X108319047Y-131554819D02*
X107938095Y-131554819D01*
X107938095Y-131554819D02*
X107938095Y-130554819D01*
X107938095Y-130554819D02*
X108271428Y-130554819D01*
X108271428Y-130554819D02*
X108366666Y-130602438D01*
X108366666Y-130602438D02*
X108414285Y-130650057D01*
X108414285Y-130650057D02*
X108461904Y-130745295D01*
X108461904Y-130745295D02*
X108461904Y-130840533D01*
X108461904Y-130840533D02*
X108414285Y-130935771D01*
X108414285Y-130935771D02*
X108366666Y-130983390D01*
X108366666Y-130983390D02*
X108271428Y-131031009D01*
X108271428Y-131031009D02*
X107938095Y-131031009D01*
X104238095Y-131654819D02*
X104809523Y-131654819D01*
X104523809Y-132654819D02*
X104523809Y-131654819D01*
X105142857Y-132654819D02*
X105142857Y-131654819D01*
X105142857Y-131654819D02*
X105523809Y-131654819D01*
X105523809Y-131654819D02*
X105619047Y-131702438D01*
X105619047Y-131702438D02*
X105666666Y-131750057D01*
X105666666Y-131750057D02*
X105714285Y-131845295D01*
X105714285Y-131845295D02*
X105714285Y-131988152D01*
X105714285Y-131988152D02*
X105666666Y-132083390D01*
X105666666Y-132083390D02*
X105619047Y-132131009D01*
X105619047Y-132131009D02*
X105523809Y-132178628D01*
X105523809Y-132178628D02*
X105142857Y-132178628D01*
X106095238Y-131750057D02*
X106142857Y-131702438D01*
X106142857Y-131702438D02*
X106238095Y-131654819D01*
X106238095Y-131654819D02*
X106476190Y-131654819D01*
X106476190Y-131654819D02*
X106571428Y-131702438D01*
X106571428Y-131702438D02*
X106619047Y-131750057D01*
X106619047Y-131750057D02*
X106666666Y-131845295D01*
X106666666Y-131845295D02*
X106666666Y-131940533D01*
X106666666Y-131940533D02*
X106619047Y-132083390D01*
X106619047Y-132083390D02*
X106047619Y-132654819D01*
X106047619Y-132654819D02*
X106666666Y-132654819D01*
X121457142Y-104754819D02*
X120980952Y-104754819D01*
X120980952Y-104754819D02*
X120980952Y-103754819D01*
X121790476Y-104231009D02*
X122123809Y-104231009D01*
X122266666Y-104754819D02*
X121790476Y-104754819D01*
X121790476Y-104754819D02*
X121790476Y-103754819D01*
X121790476Y-103754819D02*
X122266666Y-103754819D01*
X122695238Y-104754819D02*
X122695238Y-103754819D01*
X122695238Y-103754819D02*
X122933333Y-103754819D01*
X122933333Y-103754819D02*
X123076190Y-103802438D01*
X123076190Y-103802438D02*
X123171428Y-103897676D01*
X123171428Y-103897676D02*
X123219047Y-103992914D01*
X123219047Y-103992914D02*
X123266666Y-104183390D01*
X123266666Y-104183390D02*
X123266666Y-104326247D01*
X123266666Y-104326247D02*
X123219047Y-104516723D01*
X123219047Y-104516723D02*
X123171428Y-104611961D01*
X123171428Y-104611961D02*
X123076190Y-104707200D01*
X123076190Y-104707200D02*
X122933333Y-104754819D01*
X122933333Y-104754819D02*
X122695238Y-104754819D01*
X87001904Y-130537438D02*
X86906666Y-130489819D01*
X86906666Y-130489819D02*
X86763809Y-130489819D01*
X86763809Y-130489819D02*
X86620952Y-130537438D01*
X86620952Y-130537438D02*
X86525714Y-130632676D01*
X86525714Y-130632676D02*
X86478095Y-130727914D01*
X86478095Y-130727914D02*
X86430476Y-130918390D01*
X86430476Y-130918390D02*
X86430476Y-131061247D01*
X86430476Y-131061247D02*
X86478095Y-131251723D01*
X86478095Y-131251723D02*
X86525714Y-131346961D01*
X86525714Y-131346961D02*
X86620952Y-131442200D01*
X86620952Y-131442200D02*
X86763809Y-131489819D01*
X86763809Y-131489819D02*
X86859047Y-131489819D01*
X86859047Y-131489819D02*
X87001904Y-131442200D01*
X87001904Y-131442200D02*
X87049523Y-131394580D01*
X87049523Y-131394580D02*
X87049523Y-131061247D01*
X87049523Y-131061247D02*
X86859047Y-131061247D01*
X88049523Y-131489819D02*
X87716190Y-131013628D01*
X87478095Y-131489819D02*
X87478095Y-130489819D01*
X87478095Y-130489819D02*
X87859047Y-130489819D01*
X87859047Y-130489819D02*
X87954285Y-130537438D01*
X87954285Y-130537438D02*
X88001904Y-130585057D01*
X88001904Y-130585057D02*
X88049523Y-130680295D01*
X88049523Y-130680295D02*
X88049523Y-130823152D01*
X88049523Y-130823152D02*
X88001904Y-130918390D01*
X88001904Y-130918390D02*
X87954285Y-130966009D01*
X87954285Y-130966009D02*
X87859047Y-131013628D01*
X87859047Y-131013628D02*
X87478095Y-131013628D01*
X88478095Y-131489819D02*
X88478095Y-130489819D01*
X88478095Y-130489819D02*
X88716190Y-130489819D01*
X88716190Y-130489819D02*
X88859047Y-130537438D01*
X88859047Y-130537438D02*
X88954285Y-130632676D01*
X88954285Y-130632676D02*
X89001904Y-130727914D01*
X89001904Y-130727914D02*
X89049523Y-130918390D01*
X89049523Y-130918390D02*
X89049523Y-131061247D01*
X89049523Y-131061247D02*
X89001904Y-131251723D01*
X89001904Y-131251723D02*
X88954285Y-131346961D01*
X88954285Y-131346961D02*
X88859047Y-131442200D01*
X88859047Y-131442200D02*
X88716190Y-131489819D01*
X88716190Y-131489819D02*
X88478095Y-131489819D01*
X83938095Y-128204819D02*
X84509523Y-128204819D01*
X84223809Y-129204819D02*
X84223809Y-128204819D01*
X84842857Y-129204819D02*
X84842857Y-128204819D01*
X84842857Y-128204819D02*
X85223809Y-128204819D01*
X85223809Y-128204819D02*
X85319047Y-128252438D01*
X85319047Y-128252438D02*
X85366666Y-128300057D01*
X85366666Y-128300057D02*
X85414285Y-128395295D01*
X85414285Y-128395295D02*
X85414285Y-128538152D01*
X85414285Y-128538152D02*
X85366666Y-128633390D01*
X85366666Y-128633390D02*
X85319047Y-128681009D01*
X85319047Y-128681009D02*
X85223809Y-128728628D01*
X85223809Y-128728628D02*
X84842857Y-128728628D01*
X85747619Y-128204819D02*
X86414285Y-128204819D01*
X86414285Y-128204819D02*
X85985714Y-129204819D01*
X91685714Y-104881009D02*
X92019047Y-104881009D01*
X92161904Y-105404819D02*
X91685714Y-105404819D01*
X91685714Y-105404819D02*
X91685714Y-104404819D01*
X91685714Y-104404819D02*
X92161904Y-104404819D01*
X90638095Y-101004819D02*
X91209523Y-101004819D01*
X90923809Y-102004819D02*
X90923809Y-101004819D01*
X91542857Y-102004819D02*
X91542857Y-101004819D01*
X91542857Y-101004819D02*
X91923809Y-101004819D01*
X91923809Y-101004819D02*
X92019047Y-101052438D01*
X92019047Y-101052438D02*
X92066666Y-101100057D01*
X92066666Y-101100057D02*
X92114285Y-101195295D01*
X92114285Y-101195295D02*
X92114285Y-101338152D01*
X92114285Y-101338152D02*
X92066666Y-101433390D01*
X92066666Y-101433390D02*
X92019047Y-101481009D01*
X92019047Y-101481009D02*
X91923809Y-101528628D01*
X91923809Y-101528628D02*
X91542857Y-101528628D01*
X92447619Y-101004819D02*
X93066666Y-101004819D01*
X93066666Y-101004819D02*
X92733333Y-101385771D01*
X92733333Y-101385771D02*
X92876190Y-101385771D01*
X92876190Y-101385771D02*
X92971428Y-101433390D01*
X92971428Y-101433390D02*
X93019047Y-101481009D01*
X93019047Y-101481009D02*
X93066666Y-101576247D01*
X93066666Y-101576247D02*
X93066666Y-101814342D01*
X93066666Y-101814342D02*
X93019047Y-101909580D01*
X93019047Y-101909580D02*
X92971428Y-101957200D01*
X92971428Y-101957200D02*
X92876190Y-102004819D01*
X92876190Y-102004819D02*
X92590476Y-102004819D01*
X92590476Y-102004819D02*
X92495238Y-101957200D01*
X92495238Y-101957200D02*
X92447619Y-101909580D01*
X119038095Y-50254819D02*
X119038095Y-49254819D01*
X119038095Y-49254819D02*
X119276190Y-49254819D01*
X119276190Y-49254819D02*
X119419047Y-49302438D01*
X119419047Y-49302438D02*
X119514285Y-49397676D01*
X119514285Y-49397676D02*
X119561904Y-49492914D01*
X119561904Y-49492914D02*
X119609523Y-49683390D01*
X119609523Y-49683390D02*
X119609523Y-49826247D01*
X119609523Y-49826247D02*
X119561904Y-50016723D01*
X119561904Y-50016723D02*
X119514285Y-50111961D01*
X119514285Y-50111961D02*
X119419047Y-50207200D01*
X119419047Y-50207200D02*
X119276190Y-50254819D01*
X119276190Y-50254819D02*
X119038095Y-50254819D01*
X116338095Y-46904819D02*
X116909523Y-46904819D01*
X116623809Y-47904819D02*
X116623809Y-46904819D01*
X117242857Y-47904819D02*
X117242857Y-46904819D01*
X117242857Y-46904819D02*
X117623809Y-46904819D01*
X117623809Y-46904819D02*
X117719047Y-46952438D01*
X117719047Y-46952438D02*
X117766666Y-47000057D01*
X117766666Y-47000057D02*
X117814285Y-47095295D01*
X117814285Y-47095295D02*
X117814285Y-47238152D01*
X117814285Y-47238152D02*
X117766666Y-47333390D01*
X117766666Y-47333390D02*
X117719047Y-47381009D01*
X117719047Y-47381009D02*
X117623809Y-47428628D01*
X117623809Y-47428628D02*
X117242857Y-47428628D01*
X118719047Y-46904819D02*
X118242857Y-46904819D01*
X118242857Y-46904819D02*
X118195238Y-47381009D01*
X118195238Y-47381009D02*
X118242857Y-47333390D01*
X118242857Y-47333390D02*
X118338095Y-47285771D01*
X118338095Y-47285771D02*
X118576190Y-47285771D01*
X118576190Y-47285771D02*
X118671428Y-47333390D01*
X118671428Y-47333390D02*
X118719047Y-47381009D01*
X118719047Y-47381009D02*
X118766666Y-47476247D01*
X118766666Y-47476247D02*
X118766666Y-47714342D01*
X118766666Y-47714342D02*
X118719047Y-47809580D01*
X118719047Y-47809580D02*
X118671428Y-47857200D01*
X118671428Y-47857200D02*
X118576190Y-47904819D01*
X118576190Y-47904819D02*
X118338095Y-47904819D01*
X118338095Y-47904819D02*
X118242857Y-47857200D01*
X118242857Y-47857200D02*
X118195238Y-47809580D01*
X61495238Y-117107200D02*
X61638095Y-117154819D01*
X61638095Y-117154819D02*
X61876190Y-117154819D01*
X61876190Y-117154819D02*
X61971428Y-117107200D01*
X61971428Y-117107200D02*
X62019047Y-117059580D01*
X62019047Y-117059580D02*
X62066666Y-116964342D01*
X62066666Y-116964342D02*
X62066666Y-116869104D01*
X62066666Y-116869104D02*
X62019047Y-116773866D01*
X62019047Y-116773866D02*
X61971428Y-116726247D01*
X61971428Y-116726247D02*
X61876190Y-116678628D01*
X61876190Y-116678628D02*
X61685714Y-116631009D01*
X61685714Y-116631009D02*
X61590476Y-116583390D01*
X61590476Y-116583390D02*
X61542857Y-116535771D01*
X61542857Y-116535771D02*
X61495238Y-116440533D01*
X61495238Y-116440533D02*
X61495238Y-116345295D01*
X61495238Y-116345295D02*
X61542857Y-116250057D01*
X61542857Y-116250057D02*
X61590476Y-116202438D01*
X61590476Y-116202438D02*
X61685714Y-116154819D01*
X61685714Y-116154819D02*
X61923809Y-116154819D01*
X61923809Y-116154819D02*
X62066666Y-116202438D01*
X62495238Y-117154819D02*
X62495238Y-116154819D01*
X62495238Y-116154819D02*
X62876190Y-116154819D01*
X62876190Y-116154819D02*
X62971428Y-116202438D01*
X62971428Y-116202438D02*
X63019047Y-116250057D01*
X63019047Y-116250057D02*
X63066666Y-116345295D01*
X63066666Y-116345295D02*
X63066666Y-116488152D01*
X63066666Y-116488152D02*
X63019047Y-116583390D01*
X63019047Y-116583390D02*
X62971428Y-116631009D01*
X62971428Y-116631009D02*
X62876190Y-116678628D01*
X62876190Y-116678628D02*
X62495238Y-116678628D01*
X63542857Y-117107200D02*
X63542857Y-117154819D01*
X63542857Y-117154819D02*
X63495238Y-117250057D01*
X63495238Y-117250057D02*
X63447619Y-117297676D01*
X63971428Y-117154819D02*
X63971428Y-116154819D01*
X63971428Y-116154819D02*
X64209523Y-116154819D01*
X64209523Y-116154819D02*
X64352380Y-116202438D01*
X64352380Y-116202438D02*
X64447618Y-116297676D01*
X64447618Y-116297676D02*
X64495237Y-116392914D01*
X64495237Y-116392914D02*
X64542856Y-116583390D01*
X64542856Y-116583390D02*
X64542856Y-116726247D01*
X64542856Y-116726247D02*
X64495237Y-116916723D01*
X64495237Y-116916723D02*
X64447618Y-117011961D01*
X64447618Y-117011961D02*
X64352380Y-117107200D01*
X64352380Y-117107200D02*
X64209523Y-117154819D01*
X64209523Y-117154819D02*
X63971428Y-117154819D01*
X64828571Y-116154819D02*
X65399999Y-116154819D01*
X65114285Y-117154819D02*
X65114285Y-116154819D01*
X125279101Y-40537498D02*
X124707673Y-40537498D01*
X124993387Y-40537498D02*
X124993387Y-39537498D01*
X124993387Y-39537498D02*
X124898149Y-39680355D01*
X124898149Y-39680355D02*
X124802911Y-39775593D01*
X124802911Y-39775593D02*
X124707673Y-39823212D01*
X125898149Y-39537498D02*
X125993387Y-39537498D01*
X125993387Y-39537498D02*
X126088625Y-39585117D01*
X126088625Y-39585117D02*
X126136244Y-39632736D01*
X126136244Y-39632736D02*
X126183863Y-39727974D01*
X126183863Y-39727974D02*
X126231482Y-39918450D01*
X126231482Y-39918450D02*
X126231482Y-40156545D01*
X126231482Y-40156545D02*
X126183863Y-40347021D01*
X126183863Y-40347021D02*
X126136244Y-40442259D01*
X126136244Y-40442259D02*
X126088625Y-40489879D01*
X126088625Y-40489879D02*
X125993387Y-40537498D01*
X125993387Y-40537498D02*
X125898149Y-40537498D01*
X125898149Y-40537498D02*
X125802911Y-40489879D01*
X125802911Y-40489879D02*
X125755292Y-40442259D01*
X125755292Y-40442259D02*
X125707673Y-40347021D01*
X125707673Y-40347021D02*
X125660054Y-40156545D01*
X125660054Y-40156545D02*
X125660054Y-39918450D01*
X125660054Y-39918450D02*
X125707673Y-39727974D01*
X125707673Y-39727974D02*
X125755292Y-39632736D01*
X125755292Y-39632736D02*
X125802911Y-39585117D01*
X125802911Y-39585117D02*
X125898149Y-39537498D01*
X127231482Y-40537498D02*
X126898149Y-40061307D01*
X126660054Y-40537498D02*
X126660054Y-39537498D01*
X126660054Y-39537498D02*
X127041006Y-39537498D01*
X127041006Y-39537498D02*
X127136244Y-39585117D01*
X127136244Y-39585117D02*
X127183863Y-39632736D01*
X127183863Y-39632736D02*
X127231482Y-39727974D01*
X127231482Y-39727974D02*
X127231482Y-39870831D01*
X127231482Y-39870831D02*
X127183863Y-39966069D01*
X127183863Y-39966069D02*
X127136244Y-40013688D01*
X127136244Y-40013688D02*
X127041006Y-40061307D01*
X127041006Y-40061307D02*
X126660054Y-40061307D01*
X95604513Y-105228056D02*
X95747370Y-105275675D01*
X95747370Y-105275675D02*
X95985465Y-105275675D01*
X95985465Y-105275675D02*
X96080703Y-105228056D01*
X96080703Y-105228056D02*
X96128322Y-105180436D01*
X96128322Y-105180436D02*
X96175941Y-105085198D01*
X96175941Y-105085198D02*
X96175941Y-104989960D01*
X96175941Y-104989960D02*
X96128322Y-104894722D01*
X96128322Y-104894722D02*
X96080703Y-104847103D01*
X96080703Y-104847103D02*
X95985465Y-104799484D01*
X95985465Y-104799484D02*
X95794989Y-104751865D01*
X95794989Y-104751865D02*
X95699751Y-104704246D01*
X95699751Y-104704246D02*
X95652132Y-104656627D01*
X95652132Y-104656627D02*
X95604513Y-104561389D01*
X95604513Y-104561389D02*
X95604513Y-104466151D01*
X95604513Y-104466151D02*
X95652132Y-104370913D01*
X95652132Y-104370913D02*
X95699751Y-104323294D01*
X95699751Y-104323294D02*
X95794989Y-104275675D01*
X95794989Y-104275675D02*
X96033084Y-104275675D01*
X96033084Y-104275675D02*
X96175941Y-104323294D01*
X96604513Y-105275675D02*
X96604513Y-104275675D01*
X96604513Y-104275675D02*
X96985465Y-104275675D01*
X96985465Y-104275675D02*
X97080703Y-104323294D01*
X97080703Y-104323294D02*
X97128322Y-104370913D01*
X97128322Y-104370913D02*
X97175941Y-104466151D01*
X97175941Y-104466151D02*
X97175941Y-104609008D01*
X97175941Y-104609008D02*
X97128322Y-104704246D01*
X97128322Y-104704246D02*
X97080703Y-104751865D01*
X97080703Y-104751865D02*
X96985465Y-104799484D01*
X96985465Y-104799484D02*
X96604513Y-104799484D01*
X97652132Y-105228056D02*
X97652132Y-105275675D01*
X97652132Y-105275675D02*
X97604513Y-105370913D01*
X97604513Y-105370913D02*
X97556894Y-105418532D01*
X98080703Y-105275675D02*
X98080703Y-104275675D01*
X98080703Y-104275675D02*
X98318798Y-104275675D01*
X98318798Y-104275675D02*
X98461655Y-104323294D01*
X98461655Y-104323294D02*
X98556893Y-104418532D01*
X98556893Y-104418532D02*
X98604512Y-104513770D01*
X98604512Y-104513770D02*
X98652131Y-104704246D01*
X98652131Y-104704246D02*
X98652131Y-104847103D01*
X98652131Y-104847103D02*
X98604512Y-105037579D01*
X98604512Y-105037579D02*
X98556893Y-105132817D01*
X98556893Y-105132817D02*
X98461655Y-105228056D01*
X98461655Y-105228056D02*
X98318798Y-105275675D01*
X98318798Y-105275675D02*
X98080703Y-105275675D01*
X98937846Y-104275675D02*
X99509274Y-104275675D01*
X99223560Y-105275675D02*
X99223560Y-104275675D01*
X108014058Y-76979819D02*
X107442630Y-76979819D01*
X107728344Y-76979819D02*
X107728344Y-75979819D01*
X107728344Y-75979819D02*
X107633106Y-76122676D01*
X107633106Y-76122676D02*
X107537868Y-76217914D01*
X107537868Y-76217914D02*
X107442630Y-76265533D01*
X108633106Y-75979819D02*
X108728344Y-75979819D01*
X108728344Y-75979819D02*
X108823582Y-76027438D01*
X108823582Y-76027438D02*
X108871201Y-76075057D01*
X108871201Y-76075057D02*
X108918820Y-76170295D01*
X108918820Y-76170295D02*
X108966439Y-76360771D01*
X108966439Y-76360771D02*
X108966439Y-76598866D01*
X108966439Y-76598866D02*
X108918820Y-76789342D01*
X108918820Y-76789342D02*
X108871201Y-76884580D01*
X108871201Y-76884580D02*
X108823582Y-76932200D01*
X108823582Y-76932200D02*
X108728344Y-76979819D01*
X108728344Y-76979819D02*
X108633106Y-76979819D01*
X108633106Y-76979819D02*
X108537868Y-76932200D01*
X108537868Y-76932200D02*
X108490249Y-76884580D01*
X108490249Y-76884580D02*
X108442630Y-76789342D01*
X108442630Y-76789342D02*
X108395011Y-76598866D01*
X108395011Y-76598866D02*
X108395011Y-76360771D01*
X108395011Y-76360771D02*
X108442630Y-76170295D01*
X108442630Y-76170295D02*
X108490249Y-76075057D01*
X108490249Y-76075057D02*
X108537868Y-76027438D01*
X108537868Y-76027438D02*
X108633106Y-75979819D01*
X109585487Y-75979819D02*
X109680725Y-75979819D01*
X109680725Y-75979819D02*
X109775963Y-76027438D01*
X109775963Y-76027438D02*
X109823582Y-76075057D01*
X109823582Y-76075057D02*
X109871201Y-76170295D01*
X109871201Y-76170295D02*
X109918820Y-76360771D01*
X109918820Y-76360771D02*
X109918820Y-76598866D01*
X109918820Y-76598866D02*
X109871201Y-76789342D01*
X109871201Y-76789342D02*
X109823582Y-76884580D01*
X109823582Y-76884580D02*
X109775963Y-76932200D01*
X109775963Y-76932200D02*
X109680725Y-76979819D01*
X109680725Y-76979819D02*
X109585487Y-76979819D01*
X109585487Y-76979819D02*
X109490249Y-76932200D01*
X109490249Y-76932200D02*
X109442630Y-76884580D01*
X109442630Y-76884580D02*
X109395011Y-76789342D01*
X109395011Y-76789342D02*
X109347392Y-76598866D01*
X109347392Y-76598866D02*
X109347392Y-76360771D01*
X109347392Y-76360771D02*
X109395011Y-76170295D01*
X109395011Y-76170295D02*
X109442630Y-76075057D01*
X109442630Y-76075057D02*
X109490249Y-76027438D01*
X109490249Y-76027438D02*
X109585487Y-75979819D01*
X110347392Y-76979819D02*
X110347392Y-75979819D01*
X110918820Y-76979819D02*
X110490249Y-76408390D01*
X110918820Y-75979819D02*
X110347392Y-76551247D01*
X107212153Y-73552200D02*
X107355010Y-73599819D01*
X107355010Y-73599819D02*
X107593105Y-73599819D01*
X107593105Y-73599819D02*
X107688343Y-73552200D01*
X107688343Y-73552200D02*
X107735962Y-73504580D01*
X107735962Y-73504580D02*
X107783581Y-73409342D01*
X107783581Y-73409342D02*
X107783581Y-73314104D01*
X107783581Y-73314104D02*
X107735962Y-73218866D01*
X107735962Y-73218866D02*
X107688343Y-73171247D01*
X107688343Y-73171247D02*
X107593105Y-73123628D01*
X107593105Y-73123628D02*
X107402629Y-73076009D01*
X107402629Y-73076009D02*
X107307391Y-73028390D01*
X107307391Y-73028390D02*
X107259772Y-72980771D01*
X107259772Y-72980771D02*
X107212153Y-72885533D01*
X107212153Y-72885533D02*
X107212153Y-72790295D01*
X107212153Y-72790295D02*
X107259772Y-72695057D01*
X107259772Y-72695057D02*
X107307391Y-72647438D01*
X107307391Y-72647438D02*
X107402629Y-72599819D01*
X107402629Y-72599819D02*
X107640724Y-72599819D01*
X107640724Y-72599819D02*
X107783581Y-72647438D01*
X108069296Y-72933152D02*
X108450248Y-72933152D01*
X108212153Y-72599819D02*
X108212153Y-73456961D01*
X108212153Y-73456961D02*
X108259772Y-73552200D01*
X108259772Y-73552200D02*
X108355010Y-73599819D01*
X108355010Y-73599819D02*
X108450248Y-73599819D01*
X109164534Y-73552200D02*
X109069296Y-73599819D01*
X109069296Y-73599819D02*
X108878820Y-73599819D01*
X108878820Y-73599819D02*
X108783582Y-73552200D01*
X108783582Y-73552200D02*
X108735963Y-73456961D01*
X108735963Y-73456961D02*
X108735963Y-73076009D01*
X108735963Y-73076009D02*
X108783582Y-72980771D01*
X108783582Y-72980771D02*
X108878820Y-72933152D01*
X108878820Y-72933152D02*
X109069296Y-72933152D01*
X109069296Y-72933152D02*
X109164534Y-72980771D01*
X109164534Y-72980771D02*
X109212153Y-73076009D01*
X109212153Y-73076009D02*
X109212153Y-73171247D01*
X109212153Y-73171247D02*
X108735963Y-73266485D01*
X109640725Y-72933152D02*
X109640725Y-73933152D01*
X109640725Y-72980771D02*
X109735963Y-72933152D01*
X109735963Y-72933152D02*
X109926439Y-72933152D01*
X109926439Y-72933152D02*
X110021677Y-72980771D01*
X110021677Y-72980771D02*
X110069296Y-73028390D01*
X110069296Y-73028390D02*
X110116915Y-73123628D01*
X110116915Y-73123628D02*
X110116915Y-73409342D01*
X110116915Y-73409342D02*
X110069296Y-73504580D01*
X110069296Y-73504580D02*
X110021677Y-73552200D01*
X110021677Y-73552200D02*
X109926439Y-73599819D01*
X109926439Y-73599819D02*
X109735963Y-73599819D01*
X109735963Y-73599819D02*
X109640725Y-73552200D01*
X111021677Y-72599819D02*
X110545487Y-72599819D01*
X110545487Y-72599819D02*
X110497868Y-73076009D01*
X110497868Y-73076009D02*
X110545487Y-73028390D01*
X110545487Y-73028390D02*
X110640725Y-72980771D01*
X110640725Y-72980771D02*
X110878820Y-72980771D01*
X110878820Y-72980771D02*
X110974058Y-73028390D01*
X110974058Y-73028390D02*
X111021677Y-73076009D01*
X111021677Y-73076009D02*
X111069296Y-73171247D01*
X111069296Y-73171247D02*
X111069296Y-73409342D01*
X111069296Y-73409342D02*
X111021677Y-73504580D01*
X111021677Y-73504580D02*
X110974058Y-73552200D01*
X110974058Y-73552200D02*
X110878820Y-73599819D01*
X110878820Y-73599819D02*
X110640725Y-73599819D01*
X110640725Y-73599819D02*
X110545487Y-73552200D01*
X110545487Y-73552200D02*
X110497868Y-73504580D01*
X68578317Y-39900475D02*
X68530697Y-40043332D01*
X68530697Y-40043332D02*
X68530697Y-40281427D01*
X68530697Y-40281427D02*
X68578317Y-40376665D01*
X68578317Y-40376665D02*
X68625936Y-40424284D01*
X68625936Y-40424284D02*
X68721174Y-40471903D01*
X68721174Y-40471903D02*
X68816412Y-40471903D01*
X68816412Y-40471903D02*
X68911650Y-40424284D01*
X68911650Y-40424284D02*
X68959269Y-40376665D01*
X68959269Y-40376665D02*
X69006888Y-40281427D01*
X69006888Y-40281427D02*
X69054507Y-40090951D01*
X69054507Y-40090951D02*
X69102126Y-39995713D01*
X69102126Y-39995713D02*
X69149745Y-39948094D01*
X69149745Y-39948094D02*
X69244983Y-39900475D01*
X69244983Y-39900475D02*
X69340221Y-39900475D01*
X69340221Y-39900475D02*
X69435459Y-39948094D01*
X69435459Y-39948094D02*
X69483078Y-39995713D01*
X69483078Y-39995713D02*
X69530697Y-40090951D01*
X69530697Y-40090951D02*
X69530697Y-40329046D01*
X69530697Y-40329046D02*
X69483078Y-40471903D01*
X69530697Y-40805237D02*
X68530697Y-41043332D01*
X68530697Y-41043332D02*
X69244983Y-41233808D01*
X69244983Y-41233808D02*
X68530697Y-41424284D01*
X68530697Y-41424284D02*
X69530697Y-41662380D01*
X68435459Y-41805237D02*
X68435459Y-42567141D01*
X68530697Y-43376665D02*
X69006888Y-43043332D01*
X68530697Y-42805237D02*
X69530697Y-42805237D01*
X69530697Y-42805237D02*
X69530697Y-43186189D01*
X69530697Y-43186189D02*
X69483078Y-43281427D01*
X69483078Y-43281427D02*
X69435459Y-43329046D01*
X69435459Y-43329046D02*
X69340221Y-43376665D01*
X69340221Y-43376665D02*
X69197364Y-43376665D01*
X69197364Y-43376665D02*
X69102126Y-43329046D01*
X69102126Y-43329046D02*
X69054507Y-43281427D01*
X69054507Y-43281427D02*
X69006888Y-43186189D01*
X69006888Y-43186189D02*
X69006888Y-42805237D01*
X68530697Y-43948094D02*
X68578317Y-43852856D01*
X68578317Y-43852856D02*
X68625936Y-43805237D01*
X68625936Y-43805237D02*
X68721174Y-43757618D01*
X68721174Y-43757618D02*
X69006888Y-43757618D01*
X69006888Y-43757618D02*
X69102126Y-43805237D01*
X69102126Y-43805237D02*
X69149745Y-43852856D01*
X69149745Y-43852856D02*
X69197364Y-43948094D01*
X69197364Y-43948094D02*
X69197364Y-44090951D01*
X69197364Y-44090951D02*
X69149745Y-44186189D01*
X69149745Y-44186189D02*
X69102126Y-44233808D01*
X69102126Y-44233808D02*
X69006888Y-44281427D01*
X69006888Y-44281427D02*
X68721174Y-44281427D01*
X68721174Y-44281427D02*
X68625936Y-44233808D01*
X68625936Y-44233808D02*
X68578317Y-44186189D01*
X68578317Y-44186189D02*
X68530697Y-44090951D01*
X68530697Y-44090951D02*
X68530697Y-43948094D01*
X69197364Y-44567142D02*
X69197364Y-44948094D01*
X69530697Y-44709999D02*
X68673555Y-44709999D01*
X68673555Y-44709999D02*
X68578317Y-44757618D01*
X68578317Y-44757618D02*
X68530697Y-44852856D01*
X68530697Y-44852856D02*
X68530697Y-44948094D01*
X68530697Y-45709999D02*
X69054507Y-45709999D01*
X69054507Y-45709999D02*
X69149745Y-45662380D01*
X69149745Y-45662380D02*
X69197364Y-45567142D01*
X69197364Y-45567142D02*
X69197364Y-45376666D01*
X69197364Y-45376666D02*
X69149745Y-45281428D01*
X68578317Y-45709999D02*
X68530697Y-45614761D01*
X68530697Y-45614761D02*
X68530697Y-45376666D01*
X68530697Y-45376666D02*
X68578317Y-45281428D01*
X68578317Y-45281428D02*
X68673555Y-45233809D01*
X68673555Y-45233809D02*
X68768793Y-45233809D01*
X68768793Y-45233809D02*
X68864031Y-45281428D01*
X68864031Y-45281428D02*
X68911650Y-45376666D01*
X68911650Y-45376666D02*
X68911650Y-45614761D01*
X68911650Y-45614761D02*
X68959269Y-45709999D01*
X68530697Y-46186190D02*
X69197364Y-46186190D01*
X69006888Y-46186190D02*
X69102126Y-46233809D01*
X69102126Y-46233809D02*
X69149745Y-46281428D01*
X69149745Y-46281428D02*
X69197364Y-46376666D01*
X69197364Y-46376666D02*
X69197364Y-46471904D01*
X69197364Y-46710000D02*
X68530697Y-46948095D01*
X69197364Y-47186190D02*
X68530697Y-46948095D01*
X68530697Y-46948095D02*
X68292602Y-46852857D01*
X68292602Y-46852857D02*
X68244983Y-46805238D01*
X68244983Y-46805238D02*
X68197364Y-46710000D01*
X68435459Y-47329048D02*
X68435459Y-48090952D01*
X68530697Y-48852857D02*
X68530697Y-48281429D01*
X68530697Y-48567143D02*
X69530697Y-48567143D01*
X69530697Y-48567143D02*
X69387840Y-48471905D01*
X69387840Y-48471905D02*
X69292602Y-48376667D01*
X69292602Y-48376667D02*
X69244983Y-48281429D01*
X68530697Y-49186191D02*
X69197364Y-49710000D01*
X69197364Y-49186191D02*
X68530697Y-49710000D01*
X69102126Y-50233810D02*
X69149745Y-50138572D01*
X69149745Y-50138572D02*
X69197364Y-50090953D01*
X69197364Y-50090953D02*
X69292602Y-50043334D01*
X69292602Y-50043334D02*
X69340221Y-50043334D01*
X69340221Y-50043334D02*
X69435459Y-50090953D01*
X69435459Y-50090953D02*
X69483078Y-50138572D01*
X69483078Y-50138572D02*
X69530697Y-50233810D01*
X69530697Y-50233810D02*
X69530697Y-50424286D01*
X69530697Y-50424286D02*
X69483078Y-50519524D01*
X69483078Y-50519524D02*
X69435459Y-50567143D01*
X69435459Y-50567143D02*
X69340221Y-50614762D01*
X69340221Y-50614762D02*
X69292602Y-50614762D01*
X69292602Y-50614762D02*
X69197364Y-50567143D01*
X69197364Y-50567143D02*
X69149745Y-50519524D01*
X69149745Y-50519524D02*
X69102126Y-50424286D01*
X69102126Y-50424286D02*
X69102126Y-50233810D01*
X69102126Y-50233810D02*
X69054507Y-50138572D01*
X69054507Y-50138572D02*
X69006888Y-50090953D01*
X69006888Y-50090953D02*
X68911650Y-50043334D01*
X68911650Y-50043334D02*
X68721174Y-50043334D01*
X68721174Y-50043334D02*
X68625936Y-50090953D01*
X68625936Y-50090953D02*
X68578317Y-50138572D01*
X68578317Y-50138572D02*
X68530697Y-50233810D01*
X68530697Y-50233810D02*
X68530697Y-50424286D01*
X68530697Y-50424286D02*
X68578317Y-50519524D01*
X68578317Y-50519524D02*
X68625936Y-50567143D01*
X68625936Y-50567143D02*
X68721174Y-50614762D01*
X68721174Y-50614762D02*
X68911650Y-50614762D01*
X68911650Y-50614762D02*
X69006888Y-50567143D01*
X69006888Y-50567143D02*
X69054507Y-50519524D01*
X69054507Y-50519524D02*
X69102126Y-50424286D01*
X68435459Y-50805239D02*
X68435459Y-51567143D01*
X68530697Y-51805239D02*
X69530697Y-51805239D01*
X69530697Y-51805239D02*
X68816412Y-52138572D01*
X68816412Y-52138572D02*
X69530697Y-52471905D01*
X69530697Y-52471905D02*
X68530697Y-52471905D01*
X68530697Y-52948096D02*
X69530697Y-52948096D01*
X69530697Y-52948096D02*
X69530697Y-53329048D01*
X69530697Y-53329048D02*
X69483078Y-53424286D01*
X69483078Y-53424286D02*
X69435459Y-53471905D01*
X69435459Y-53471905D02*
X69340221Y-53519524D01*
X69340221Y-53519524D02*
X69197364Y-53519524D01*
X69197364Y-53519524D02*
X69102126Y-53471905D01*
X69102126Y-53471905D02*
X69054507Y-53424286D01*
X69054507Y-53424286D02*
X69006888Y-53329048D01*
X69006888Y-53329048D02*
X69006888Y-52948096D01*
X66394280Y-45376667D02*
X66346660Y-45519524D01*
X66346660Y-45519524D02*
X66346660Y-45757619D01*
X66346660Y-45757619D02*
X66394280Y-45852857D01*
X66394280Y-45852857D02*
X66441899Y-45900476D01*
X66441899Y-45900476D02*
X66537137Y-45948095D01*
X66537137Y-45948095D02*
X66632375Y-45948095D01*
X66632375Y-45948095D02*
X66727613Y-45900476D01*
X66727613Y-45900476D02*
X66775232Y-45852857D01*
X66775232Y-45852857D02*
X66822851Y-45757619D01*
X66822851Y-45757619D02*
X66870470Y-45567143D01*
X66870470Y-45567143D02*
X66918089Y-45471905D01*
X66918089Y-45471905D02*
X66965708Y-45424286D01*
X66965708Y-45424286D02*
X67060946Y-45376667D01*
X67060946Y-45376667D02*
X67156184Y-45376667D01*
X67156184Y-45376667D02*
X67251422Y-45424286D01*
X67251422Y-45424286D02*
X67299041Y-45471905D01*
X67299041Y-45471905D02*
X67346660Y-45567143D01*
X67346660Y-45567143D02*
X67346660Y-45805238D01*
X67346660Y-45805238D02*
X67299041Y-45948095D01*
X67346660Y-46281429D02*
X66346660Y-46519524D01*
X66346660Y-46519524D02*
X67060946Y-46710000D01*
X67060946Y-46710000D02*
X66346660Y-46900476D01*
X66346660Y-46900476D02*
X67346660Y-47138572D01*
X66346660Y-48043333D02*
X66346660Y-47471905D01*
X66346660Y-47757619D02*
X67346660Y-47757619D01*
X67346660Y-47757619D02*
X67203803Y-47662381D01*
X67203803Y-47662381D02*
X67108565Y-47567143D01*
X67108565Y-47567143D02*
X67060946Y-47471905D01*
X62095238Y-83507200D02*
X62238095Y-83554819D01*
X62238095Y-83554819D02*
X62476190Y-83554819D01*
X62476190Y-83554819D02*
X62571428Y-83507200D01*
X62571428Y-83507200D02*
X62619047Y-83459580D01*
X62619047Y-83459580D02*
X62666666Y-83364342D01*
X62666666Y-83364342D02*
X62666666Y-83269104D01*
X62666666Y-83269104D02*
X62619047Y-83173866D01*
X62619047Y-83173866D02*
X62571428Y-83126247D01*
X62571428Y-83126247D02*
X62476190Y-83078628D01*
X62476190Y-83078628D02*
X62285714Y-83031009D01*
X62285714Y-83031009D02*
X62190476Y-82983390D01*
X62190476Y-82983390D02*
X62142857Y-82935771D01*
X62142857Y-82935771D02*
X62095238Y-82840533D01*
X62095238Y-82840533D02*
X62095238Y-82745295D01*
X62095238Y-82745295D02*
X62142857Y-82650057D01*
X62142857Y-82650057D02*
X62190476Y-82602438D01*
X62190476Y-82602438D02*
X62285714Y-82554819D01*
X62285714Y-82554819D02*
X62523809Y-82554819D01*
X62523809Y-82554819D02*
X62666666Y-82602438D01*
X63095238Y-83554819D02*
X63095238Y-82554819D01*
X63095238Y-82554819D02*
X63476190Y-82554819D01*
X63476190Y-82554819D02*
X63571428Y-82602438D01*
X63571428Y-82602438D02*
X63619047Y-82650057D01*
X63619047Y-82650057D02*
X63666666Y-82745295D01*
X63666666Y-82745295D02*
X63666666Y-82888152D01*
X63666666Y-82888152D02*
X63619047Y-82983390D01*
X63619047Y-82983390D02*
X63571428Y-83031009D01*
X63571428Y-83031009D02*
X63476190Y-83078628D01*
X63476190Y-83078628D02*
X63095238Y-83078628D01*
X64142857Y-83507200D02*
X64142857Y-83554819D01*
X64142857Y-83554819D02*
X64095238Y-83650057D01*
X64095238Y-83650057D02*
X64047619Y-83697676D01*
X64571428Y-83554819D02*
X64571428Y-82554819D01*
X64571428Y-82554819D02*
X64809523Y-82554819D01*
X64809523Y-82554819D02*
X64952380Y-82602438D01*
X64952380Y-82602438D02*
X65047618Y-82697676D01*
X65047618Y-82697676D02*
X65095237Y-82792914D01*
X65095237Y-82792914D02*
X65142856Y-82983390D01*
X65142856Y-82983390D02*
X65142856Y-83126247D01*
X65142856Y-83126247D02*
X65095237Y-83316723D01*
X65095237Y-83316723D02*
X65047618Y-83411961D01*
X65047618Y-83411961D02*
X64952380Y-83507200D01*
X64952380Y-83507200D02*
X64809523Y-83554819D01*
X64809523Y-83554819D02*
X64571428Y-83554819D01*
X65428571Y-82554819D02*
X65999999Y-82554819D01*
X65714285Y-83554819D02*
X65714285Y-82554819D01*
X95605298Y-70663475D02*
X95748155Y-70711094D01*
X95748155Y-70711094D02*
X95986250Y-70711094D01*
X95986250Y-70711094D02*
X96081488Y-70663475D01*
X96081488Y-70663475D02*
X96129107Y-70615855D01*
X96129107Y-70615855D02*
X96176726Y-70520617D01*
X96176726Y-70520617D02*
X96176726Y-70425379D01*
X96176726Y-70425379D02*
X96129107Y-70330141D01*
X96129107Y-70330141D02*
X96081488Y-70282522D01*
X96081488Y-70282522D02*
X95986250Y-70234903D01*
X95986250Y-70234903D02*
X95795774Y-70187284D01*
X95795774Y-70187284D02*
X95700536Y-70139665D01*
X95700536Y-70139665D02*
X95652917Y-70092046D01*
X95652917Y-70092046D02*
X95605298Y-69996808D01*
X95605298Y-69996808D02*
X95605298Y-69901570D01*
X95605298Y-69901570D02*
X95652917Y-69806332D01*
X95652917Y-69806332D02*
X95700536Y-69758713D01*
X95700536Y-69758713D02*
X95795774Y-69711094D01*
X95795774Y-69711094D02*
X96033869Y-69711094D01*
X96033869Y-69711094D02*
X96176726Y-69758713D01*
X96605298Y-70711094D02*
X96605298Y-69711094D01*
X96605298Y-69711094D02*
X96986250Y-69711094D01*
X96986250Y-69711094D02*
X97081488Y-69758713D01*
X97081488Y-69758713D02*
X97129107Y-69806332D01*
X97129107Y-69806332D02*
X97176726Y-69901570D01*
X97176726Y-69901570D02*
X97176726Y-70044427D01*
X97176726Y-70044427D02*
X97129107Y-70139665D01*
X97129107Y-70139665D02*
X97081488Y-70187284D01*
X97081488Y-70187284D02*
X96986250Y-70234903D01*
X96986250Y-70234903D02*
X96605298Y-70234903D01*
X97652917Y-70663475D02*
X97652917Y-70711094D01*
X97652917Y-70711094D02*
X97605298Y-70806332D01*
X97605298Y-70806332D02*
X97557679Y-70853951D01*
X98081488Y-70711094D02*
X98081488Y-69711094D01*
X98081488Y-69711094D02*
X98319583Y-69711094D01*
X98319583Y-69711094D02*
X98462440Y-69758713D01*
X98462440Y-69758713D02*
X98557678Y-69853951D01*
X98557678Y-69853951D02*
X98605297Y-69949189D01*
X98605297Y-69949189D02*
X98652916Y-70139665D01*
X98652916Y-70139665D02*
X98652916Y-70282522D01*
X98652916Y-70282522D02*
X98605297Y-70472998D01*
X98605297Y-70472998D02*
X98557678Y-70568236D01*
X98557678Y-70568236D02*
X98462440Y-70663475D01*
X98462440Y-70663475D02*
X98319583Y-70711094D01*
X98319583Y-70711094D02*
X98081488Y-70711094D01*
X98938631Y-69711094D02*
X99510059Y-69711094D01*
X99224345Y-70711094D02*
X99224345Y-69711094D01*
X132559047Y-107930419D02*
X132606666Y-107882800D01*
X132606666Y-107882800D02*
X132749523Y-107835180D01*
X132749523Y-107835180D02*
X132844761Y-107835180D01*
X132844761Y-107835180D02*
X132987618Y-107882800D01*
X132987618Y-107882800D02*
X133082856Y-107978038D01*
X133082856Y-107978038D02*
X133130475Y-108073276D01*
X133130475Y-108073276D02*
X133178094Y-108263752D01*
X133178094Y-108263752D02*
X133178094Y-108406609D01*
X133178094Y-108406609D02*
X133130475Y-108597085D01*
X133130475Y-108597085D02*
X133082856Y-108692323D01*
X133082856Y-108692323D02*
X132987618Y-108787561D01*
X132987618Y-108787561D02*
X132844761Y-108835180D01*
X132844761Y-108835180D02*
X132749523Y-108835180D01*
X132749523Y-108835180D02*
X132606666Y-108787561D01*
X132606666Y-108787561D02*
X132559047Y-108739942D01*
X132273332Y-108835180D02*
X131939999Y-107835180D01*
X131939999Y-107835180D02*
X131606666Y-108835180D01*
X131969999Y-112339580D02*
X131922380Y-112387200D01*
X131922380Y-112387200D02*
X131779523Y-112434819D01*
X131779523Y-112434819D02*
X131684285Y-112434819D01*
X131684285Y-112434819D02*
X131541428Y-112387200D01*
X131541428Y-112387200D02*
X131446190Y-112291961D01*
X131446190Y-112291961D02*
X131398571Y-112196723D01*
X131398571Y-112196723D02*
X131350952Y-112006247D01*
X131350952Y-112006247D02*
X131350952Y-111863390D01*
X131350952Y-111863390D02*
X131398571Y-111672914D01*
X131398571Y-111672914D02*
X131446190Y-111577676D01*
X131446190Y-111577676D02*
X131541428Y-111482438D01*
X131541428Y-111482438D02*
X131684285Y-111434819D01*
X131684285Y-111434819D02*
X131779523Y-111434819D01*
X131779523Y-111434819D02*
X131922380Y-111482438D01*
X131922380Y-111482438D02*
X131969999Y-111530057D01*
X132255714Y-111434819D02*
X132589047Y-112434819D01*
X132589047Y-112434819D02*
X132922380Y-111434819D01*
X133017619Y-112530057D02*
X133779523Y-112530057D01*
X134208095Y-111434819D02*
X134398571Y-111434819D01*
X134398571Y-111434819D02*
X134493809Y-111482438D01*
X134493809Y-111482438D02*
X134589047Y-111577676D01*
X134589047Y-111577676D02*
X134636666Y-111768152D01*
X134636666Y-111768152D02*
X134636666Y-112101485D01*
X134636666Y-112101485D02*
X134589047Y-112291961D01*
X134589047Y-112291961D02*
X134493809Y-112387200D01*
X134493809Y-112387200D02*
X134398571Y-112434819D01*
X134398571Y-112434819D02*
X134208095Y-112434819D01*
X134208095Y-112434819D02*
X134112857Y-112387200D01*
X134112857Y-112387200D02*
X134017619Y-112291961D01*
X134017619Y-112291961D02*
X133970000Y-112101485D01*
X133970000Y-112101485D02*
X133970000Y-111768152D01*
X133970000Y-111768152D02*
X134017619Y-111577676D01*
X134017619Y-111577676D02*
X134112857Y-111482438D01*
X134112857Y-111482438D02*
X134208095Y-111434819D01*
X135589047Y-112434819D02*
X135017619Y-112434819D01*
X135303333Y-112434819D02*
X135303333Y-111434819D01*
X135303333Y-111434819D02*
X135208095Y-111577676D01*
X135208095Y-111577676D02*
X135112857Y-111672914D01*
X135112857Y-111672914D02*
X135017619Y-111720533D01*
X134710000Y-96985061D02*
X134805238Y-97032680D01*
X134805238Y-97032680D02*
X134948095Y-97032680D01*
X134948095Y-97032680D02*
X135090952Y-96985061D01*
X135090952Y-96985061D02*
X135186190Y-96889823D01*
X135186190Y-96889823D02*
X135233809Y-96794585D01*
X135233809Y-96794585D02*
X135281428Y-96604109D01*
X135281428Y-96604109D02*
X135281428Y-96461252D01*
X135281428Y-96461252D02*
X135233809Y-96270776D01*
X135233809Y-96270776D02*
X135186190Y-96175538D01*
X135186190Y-96175538D02*
X135090952Y-96080300D01*
X135090952Y-96080300D02*
X134948095Y-96032680D01*
X134948095Y-96032680D02*
X134852857Y-96032680D01*
X134852857Y-96032680D02*
X134710000Y-96080300D01*
X134710000Y-96080300D02*
X134662381Y-96127919D01*
X134662381Y-96127919D02*
X134662381Y-96461252D01*
X134662381Y-96461252D02*
X134852857Y-96461252D01*
X134281428Y-96318395D02*
X133805238Y-96318395D01*
X134376666Y-96032680D02*
X134043333Y-97032680D01*
X134043333Y-97032680D02*
X133710000Y-96032680D01*
X133519523Y-97032680D02*
X132948095Y-97032680D01*
X133233809Y-96032680D02*
X133233809Y-97032680D01*
X132614761Y-96556490D02*
X132281428Y-96556490D01*
X132138571Y-96032680D02*
X132614761Y-96032680D01*
X132614761Y-96032680D02*
X132614761Y-97032680D01*
X132614761Y-97032680D02*
X132138571Y-97032680D01*
X131969999Y-100314938D02*
X131874761Y-100267319D01*
X131874761Y-100267319D02*
X131731904Y-100267319D01*
X131731904Y-100267319D02*
X131589047Y-100314938D01*
X131589047Y-100314938D02*
X131493809Y-100410176D01*
X131493809Y-100410176D02*
X131446190Y-100505414D01*
X131446190Y-100505414D02*
X131398571Y-100695890D01*
X131398571Y-100695890D02*
X131398571Y-100838747D01*
X131398571Y-100838747D02*
X131446190Y-101029223D01*
X131446190Y-101029223D02*
X131493809Y-101124461D01*
X131493809Y-101124461D02*
X131589047Y-101219700D01*
X131589047Y-101219700D02*
X131731904Y-101267319D01*
X131731904Y-101267319D02*
X131827142Y-101267319D01*
X131827142Y-101267319D02*
X131969999Y-101219700D01*
X131969999Y-101219700D02*
X132017618Y-101172080D01*
X132017618Y-101172080D02*
X132017618Y-100838747D01*
X132017618Y-100838747D02*
X131827142Y-100838747D01*
X132303333Y-100267319D02*
X132874761Y-100267319D01*
X132589047Y-101267319D02*
X132589047Y-100267319D01*
X132970000Y-101362557D02*
X133731904Y-101362557D01*
X134160476Y-100267319D02*
X134350952Y-100267319D01*
X134350952Y-100267319D02*
X134446190Y-100314938D01*
X134446190Y-100314938D02*
X134541428Y-100410176D01*
X134541428Y-100410176D02*
X134589047Y-100600652D01*
X134589047Y-100600652D02*
X134589047Y-100933985D01*
X134589047Y-100933985D02*
X134541428Y-101124461D01*
X134541428Y-101124461D02*
X134446190Y-101219700D01*
X134446190Y-101219700D02*
X134350952Y-101267319D01*
X134350952Y-101267319D02*
X134160476Y-101267319D01*
X134160476Y-101267319D02*
X134065238Y-101219700D01*
X134065238Y-101219700D02*
X133970000Y-101124461D01*
X133970000Y-101124461D02*
X133922381Y-100933985D01*
X133922381Y-100933985D02*
X133922381Y-100600652D01*
X133922381Y-100600652D02*
X133970000Y-100410176D01*
X133970000Y-100410176D02*
X134065238Y-100314938D01*
X134065238Y-100314938D02*
X134160476Y-100267319D01*
X135541428Y-101267319D02*
X134970000Y-101267319D01*
X135255714Y-101267319D02*
X135255714Y-100267319D01*
X135255714Y-100267319D02*
X135160476Y-100410176D01*
X135160476Y-100410176D02*
X135065238Y-100505414D01*
X135065238Y-100505414D02*
X134970000Y-100553033D01*
X76263333Y-111189819D02*
X75691905Y-111189819D01*
X75977619Y-111189819D02*
X75977619Y-110189819D01*
X75977619Y-110189819D02*
X75882381Y-110332676D01*
X75882381Y-110332676D02*
X75787143Y-110427914D01*
X75787143Y-110427914D02*
X75691905Y-110475533D01*
X76882381Y-110189819D02*
X76977619Y-110189819D01*
X76977619Y-110189819D02*
X77072857Y-110237438D01*
X77072857Y-110237438D02*
X77120476Y-110285057D01*
X77120476Y-110285057D02*
X77168095Y-110380295D01*
X77168095Y-110380295D02*
X77215714Y-110570771D01*
X77215714Y-110570771D02*
X77215714Y-110808866D01*
X77215714Y-110808866D02*
X77168095Y-110999342D01*
X77168095Y-110999342D02*
X77120476Y-111094580D01*
X77120476Y-111094580D02*
X77072857Y-111142200D01*
X77072857Y-111142200D02*
X76977619Y-111189819D01*
X76977619Y-111189819D02*
X76882381Y-111189819D01*
X76882381Y-111189819D02*
X76787143Y-111142200D01*
X76787143Y-111142200D02*
X76739524Y-111094580D01*
X76739524Y-111094580D02*
X76691905Y-110999342D01*
X76691905Y-110999342D02*
X76644286Y-110808866D01*
X76644286Y-110808866D02*
X76644286Y-110570771D01*
X76644286Y-110570771D02*
X76691905Y-110380295D01*
X76691905Y-110380295D02*
X76739524Y-110285057D01*
X76739524Y-110285057D02*
X76787143Y-110237438D01*
X76787143Y-110237438D02*
X76882381Y-110189819D01*
X77834762Y-110189819D02*
X77930000Y-110189819D01*
X77930000Y-110189819D02*
X78025238Y-110237438D01*
X78025238Y-110237438D02*
X78072857Y-110285057D01*
X78072857Y-110285057D02*
X78120476Y-110380295D01*
X78120476Y-110380295D02*
X78168095Y-110570771D01*
X78168095Y-110570771D02*
X78168095Y-110808866D01*
X78168095Y-110808866D02*
X78120476Y-110999342D01*
X78120476Y-110999342D02*
X78072857Y-111094580D01*
X78072857Y-111094580D02*
X78025238Y-111142200D01*
X78025238Y-111142200D02*
X77930000Y-111189819D01*
X77930000Y-111189819D02*
X77834762Y-111189819D01*
X77834762Y-111189819D02*
X77739524Y-111142200D01*
X77739524Y-111142200D02*
X77691905Y-111094580D01*
X77691905Y-111094580D02*
X77644286Y-110999342D01*
X77644286Y-110999342D02*
X77596667Y-110808866D01*
X77596667Y-110808866D02*
X77596667Y-110570771D01*
X77596667Y-110570771D02*
X77644286Y-110380295D01*
X77644286Y-110380295D02*
X77691905Y-110285057D01*
X77691905Y-110285057D02*
X77739524Y-110237438D01*
X77739524Y-110237438D02*
X77834762Y-110189819D01*
X78596667Y-111189819D02*
X78596667Y-110189819D01*
X79168095Y-111189819D02*
X78739524Y-110618390D01*
X79168095Y-110189819D02*
X78596667Y-110761247D01*
X75461428Y-107762200D02*
X75604285Y-107809819D01*
X75604285Y-107809819D02*
X75842380Y-107809819D01*
X75842380Y-107809819D02*
X75937618Y-107762200D01*
X75937618Y-107762200D02*
X75985237Y-107714580D01*
X75985237Y-107714580D02*
X76032856Y-107619342D01*
X76032856Y-107619342D02*
X76032856Y-107524104D01*
X76032856Y-107524104D02*
X75985237Y-107428866D01*
X75985237Y-107428866D02*
X75937618Y-107381247D01*
X75937618Y-107381247D02*
X75842380Y-107333628D01*
X75842380Y-107333628D02*
X75651904Y-107286009D01*
X75651904Y-107286009D02*
X75556666Y-107238390D01*
X75556666Y-107238390D02*
X75509047Y-107190771D01*
X75509047Y-107190771D02*
X75461428Y-107095533D01*
X75461428Y-107095533D02*
X75461428Y-107000295D01*
X75461428Y-107000295D02*
X75509047Y-106905057D01*
X75509047Y-106905057D02*
X75556666Y-106857438D01*
X75556666Y-106857438D02*
X75651904Y-106809819D01*
X75651904Y-106809819D02*
X75889999Y-106809819D01*
X75889999Y-106809819D02*
X76032856Y-106857438D01*
X76318571Y-107143152D02*
X76699523Y-107143152D01*
X76461428Y-106809819D02*
X76461428Y-107666961D01*
X76461428Y-107666961D02*
X76509047Y-107762200D01*
X76509047Y-107762200D02*
X76604285Y-107809819D01*
X76604285Y-107809819D02*
X76699523Y-107809819D01*
X77413809Y-107762200D02*
X77318571Y-107809819D01*
X77318571Y-107809819D02*
X77128095Y-107809819D01*
X77128095Y-107809819D02*
X77032857Y-107762200D01*
X77032857Y-107762200D02*
X76985238Y-107666961D01*
X76985238Y-107666961D02*
X76985238Y-107286009D01*
X76985238Y-107286009D02*
X77032857Y-107190771D01*
X77032857Y-107190771D02*
X77128095Y-107143152D01*
X77128095Y-107143152D02*
X77318571Y-107143152D01*
X77318571Y-107143152D02*
X77413809Y-107190771D01*
X77413809Y-107190771D02*
X77461428Y-107286009D01*
X77461428Y-107286009D02*
X77461428Y-107381247D01*
X77461428Y-107381247D02*
X76985238Y-107476485D01*
X77890000Y-107143152D02*
X77890000Y-108143152D01*
X77890000Y-107190771D02*
X77985238Y-107143152D01*
X77985238Y-107143152D02*
X78175714Y-107143152D01*
X78175714Y-107143152D02*
X78270952Y-107190771D01*
X78270952Y-107190771D02*
X78318571Y-107238390D01*
X78318571Y-107238390D02*
X78366190Y-107333628D01*
X78366190Y-107333628D02*
X78366190Y-107619342D01*
X78366190Y-107619342D02*
X78318571Y-107714580D01*
X78318571Y-107714580D02*
X78270952Y-107762200D01*
X78270952Y-107762200D02*
X78175714Y-107809819D01*
X78175714Y-107809819D02*
X77985238Y-107809819D01*
X77985238Y-107809819D02*
X77890000Y-107762200D01*
X78699524Y-106809819D02*
X79318571Y-106809819D01*
X79318571Y-106809819D02*
X78985238Y-107190771D01*
X78985238Y-107190771D02*
X79128095Y-107190771D01*
X79128095Y-107190771D02*
X79223333Y-107238390D01*
X79223333Y-107238390D02*
X79270952Y-107286009D01*
X79270952Y-107286009D02*
X79318571Y-107381247D01*
X79318571Y-107381247D02*
X79318571Y-107619342D01*
X79318571Y-107619342D02*
X79270952Y-107714580D01*
X79270952Y-107714580D02*
X79223333Y-107762200D01*
X79223333Y-107762200D02*
X79128095Y-107809819D01*
X79128095Y-107809819D02*
X78842381Y-107809819D01*
X78842381Y-107809819D02*
X78747143Y-107762200D01*
X78747143Y-107762200D02*
X78699524Y-107714580D01*
X132631457Y-58854819D02*
X132060029Y-58854819D01*
X132345743Y-58854819D02*
X132345743Y-57854819D01*
X132345743Y-57854819D02*
X132250505Y-57997676D01*
X132250505Y-57997676D02*
X132155267Y-58092914D01*
X132155267Y-58092914D02*
X132060029Y-58140533D01*
X133060029Y-58854819D02*
X133060029Y-57854819D01*
X133060029Y-57854819D02*
X133631457Y-58854819D01*
X133631457Y-58854819D02*
X133631457Y-57854819D01*
X134583838Y-57854819D02*
X134107648Y-57854819D01*
X134107648Y-57854819D02*
X134060029Y-58331009D01*
X134060029Y-58331009D02*
X134107648Y-58283390D01*
X134107648Y-58283390D02*
X134202886Y-58235771D01*
X134202886Y-58235771D02*
X134440981Y-58235771D01*
X134440981Y-58235771D02*
X134536219Y-58283390D01*
X134536219Y-58283390D02*
X134583838Y-58331009D01*
X134583838Y-58331009D02*
X134631457Y-58426247D01*
X134631457Y-58426247D02*
X134631457Y-58664342D01*
X134631457Y-58664342D02*
X134583838Y-58759580D01*
X134583838Y-58759580D02*
X134536219Y-58807200D01*
X134536219Y-58807200D02*
X134440981Y-58854819D01*
X134440981Y-58854819D02*
X134202886Y-58854819D01*
X134202886Y-58854819D02*
X134107648Y-58807200D01*
X134107648Y-58807200D02*
X134060029Y-58759580D01*
X135202886Y-58283390D02*
X135107648Y-58235771D01*
X135107648Y-58235771D02*
X135060029Y-58188152D01*
X135060029Y-58188152D02*
X135012410Y-58092914D01*
X135012410Y-58092914D02*
X135012410Y-58045295D01*
X135012410Y-58045295D02*
X135060029Y-57950057D01*
X135060029Y-57950057D02*
X135107648Y-57902438D01*
X135107648Y-57902438D02*
X135202886Y-57854819D01*
X135202886Y-57854819D02*
X135393362Y-57854819D01*
X135393362Y-57854819D02*
X135488600Y-57902438D01*
X135488600Y-57902438D02*
X135536219Y-57950057D01*
X135536219Y-57950057D02*
X135583838Y-58045295D01*
X135583838Y-58045295D02*
X135583838Y-58092914D01*
X135583838Y-58092914D02*
X135536219Y-58188152D01*
X135536219Y-58188152D02*
X135488600Y-58235771D01*
X135488600Y-58235771D02*
X135393362Y-58283390D01*
X135393362Y-58283390D02*
X135202886Y-58283390D01*
X135202886Y-58283390D02*
X135107648Y-58331009D01*
X135107648Y-58331009D02*
X135060029Y-58378628D01*
X135060029Y-58378628D02*
X135012410Y-58473866D01*
X135012410Y-58473866D02*
X135012410Y-58664342D01*
X135012410Y-58664342D02*
X135060029Y-58759580D01*
X135060029Y-58759580D02*
X135107648Y-58807200D01*
X135107648Y-58807200D02*
X135202886Y-58854819D01*
X135202886Y-58854819D02*
X135393362Y-58854819D01*
X135393362Y-58854819D02*
X135488600Y-58807200D01*
X135488600Y-58807200D02*
X135536219Y-58759580D01*
X135536219Y-58759580D02*
X135583838Y-58664342D01*
X135583838Y-58664342D02*
X135583838Y-58473866D01*
X135583838Y-58473866D02*
X135536219Y-58378628D01*
X135536219Y-58378628D02*
X135488600Y-58331009D01*
X135488600Y-58331009D02*
X135393362Y-58283390D01*
X136536219Y-58854819D02*
X135964791Y-58854819D01*
X136250505Y-58854819D02*
X136250505Y-57854819D01*
X136250505Y-57854819D02*
X136155267Y-57997676D01*
X136155267Y-57997676D02*
X136060029Y-58092914D01*
X136060029Y-58092914D02*
X135964791Y-58140533D01*
X137012410Y-58854819D02*
X137202886Y-58854819D01*
X137202886Y-58854819D02*
X137298124Y-58807200D01*
X137298124Y-58807200D02*
X137345743Y-58759580D01*
X137345743Y-58759580D02*
X137440981Y-58616723D01*
X137440981Y-58616723D02*
X137488600Y-58426247D01*
X137488600Y-58426247D02*
X137488600Y-58045295D01*
X137488600Y-58045295D02*
X137440981Y-57950057D01*
X137440981Y-57950057D02*
X137393362Y-57902438D01*
X137393362Y-57902438D02*
X137298124Y-57854819D01*
X137298124Y-57854819D02*
X137107648Y-57854819D01*
X137107648Y-57854819D02*
X137012410Y-57902438D01*
X137012410Y-57902438D02*
X136964791Y-57950057D01*
X136964791Y-57950057D02*
X136917172Y-58045295D01*
X136917172Y-58045295D02*
X136917172Y-58283390D01*
X136917172Y-58283390D02*
X136964791Y-58378628D01*
X136964791Y-58378628D02*
X137012410Y-58426247D01*
X137012410Y-58426247D02*
X137107648Y-58473866D01*
X137107648Y-58473866D02*
X137298124Y-58473866D01*
X137298124Y-58473866D02*
X137393362Y-58426247D01*
X137393362Y-58426247D02*
X137440981Y-58378628D01*
X137440981Y-58378628D02*
X137488600Y-58283390D01*
X137538095Y-60854819D02*
X137538095Y-59854819D01*
X138109523Y-60854819D02*
X137680952Y-60283390D01*
X138109523Y-59854819D02*
X137538095Y-60426247D01*
X103761904Y-38088152D02*
X103761904Y-38754819D01*
X103523809Y-37707200D02*
X103285714Y-38421485D01*
X103285714Y-38421485D02*
X103904761Y-38421485D01*
X104476190Y-37754819D02*
X104571428Y-37754819D01*
X104571428Y-37754819D02*
X104666666Y-37802438D01*
X104666666Y-37802438D02*
X104714285Y-37850057D01*
X104714285Y-37850057D02*
X104761904Y-37945295D01*
X104761904Y-37945295D02*
X104809523Y-38135771D01*
X104809523Y-38135771D02*
X104809523Y-38373866D01*
X104809523Y-38373866D02*
X104761904Y-38564342D01*
X104761904Y-38564342D02*
X104714285Y-38659580D01*
X104714285Y-38659580D02*
X104666666Y-38707200D01*
X104666666Y-38707200D02*
X104571428Y-38754819D01*
X104571428Y-38754819D02*
X104476190Y-38754819D01*
X104476190Y-38754819D02*
X104380952Y-38707200D01*
X104380952Y-38707200D02*
X104333333Y-38659580D01*
X104333333Y-38659580D02*
X104285714Y-38564342D01*
X104285714Y-38564342D02*
X104238095Y-38373866D01*
X104238095Y-38373866D02*
X104238095Y-38135771D01*
X104238095Y-38135771D02*
X104285714Y-37945295D01*
X104285714Y-37945295D02*
X104333333Y-37850057D01*
X104333333Y-37850057D02*
X104380952Y-37802438D01*
X104380952Y-37802438D02*
X104476190Y-37754819D01*
X105761904Y-38754819D02*
X105190476Y-38754819D01*
X105476190Y-38754819D02*
X105476190Y-37754819D01*
X105476190Y-37754819D02*
X105380952Y-37897676D01*
X105380952Y-37897676D02*
X105285714Y-37992914D01*
X105285714Y-37992914D02*
X105190476Y-38040533D01*
X106095238Y-37754819D02*
X106761904Y-37754819D01*
X106761904Y-37754819D02*
X106333333Y-38754819D01*
X103438095Y-39254819D02*
X103438095Y-40064342D01*
X103438095Y-40064342D02*
X103485714Y-40159580D01*
X103485714Y-40159580D02*
X103533333Y-40207200D01*
X103533333Y-40207200D02*
X103628571Y-40254819D01*
X103628571Y-40254819D02*
X103819047Y-40254819D01*
X103819047Y-40254819D02*
X103914285Y-40207200D01*
X103914285Y-40207200D02*
X103961904Y-40159580D01*
X103961904Y-40159580D02*
X104009523Y-40064342D01*
X104009523Y-40064342D02*
X104009523Y-39254819D01*
X105009523Y-40254819D02*
X104438095Y-40254819D01*
X104723809Y-40254819D02*
X104723809Y-39254819D01*
X104723809Y-39254819D02*
X104628571Y-39397676D01*
X104628571Y-39397676D02*
X104533333Y-39492914D01*
X104533333Y-39492914D02*
X104438095Y-39540533D01*
X81009523Y-35759580D02*
X80961904Y-35807200D01*
X80961904Y-35807200D02*
X80819047Y-35854819D01*
X80819047Y-35854819D02*
X80723809Y-35854819D01*
X80723809Y-35854819D02*
X80580952Y-35807200D01*
X80580952Y-35807200D02*
X80485714Y-35711961D01*
X80485714Y-35711961D02*
X80438095Y-35616723D01*
X80438095Y-35616723D02*
X80390476Y-35426247D01*
X80390476Y-35426247D02*
X80390476Y-35283390D01*
X80390476Y-35283390D02*
X80438095Y-35092914D01*
X80438095Y-35092914D02*
X80485714Y-34997676D01*
X80485714Y-34997676D02*
X80580952Y-34902438D01*
X80580952Y-34902438D02*
X80723809Y-34854819D01*
X80723809Y-34854819D02*
X80819047Y-34854819D01*
X80819047Y-34854819D02*
X80961904Y-34902438D01*
X80961904Y-34902438D02*
X81009523Y-34950057D01*
X80138095Y-40154819D02*
X80709523Y-40154819D01*
X80423809Y-41154819D02*
X80423809Y-40154819D01*
X81042857Y-41154819D02*
X81042857Y-40154819D01*
X81042857Y-40154819D02*
X81423809Y-40154819D01*
X81423809Y-40154819D02*
X81519047Y-40202438D01*
X81519047Y-40202438D02*
X81566666Y-40250057D01*
X81566666Y-40250057D02*
X81614285Y-40345295D01*
X81614285Y-40345295D02*
X81614285Y-40488152D01*
X81614285Y-40488152D02*
X81566666Y-40583390D01*
X81566666Y-40583390D02*
X81519047Y-40631009D01*
X81519047Y-40631009D02*
X81423809Y-40678628D01*
X81423809Y-40678628D02*
X81042857Y-40678628D01*
X82471428Y-40154819D02*
X82280952Y-40154819D01*
X82280952Y-40154819D02*
X82185714Y-40202438D01*
X82185714Y-40202438D02*
X82138095Y-40250057D01*
X82138095Y-40250057D02*
X82042857Y-40392914D01*
X82042857Y-40392914D02*
X81995238Y-40583390D01*
X81995238Y-40583390D02*
X81995238Y-40964342D01*
X81995238Y-40964342D02*
X82042857Y-41059580D01*
X82042857Y-41059580D02*
X82090476Y-41107200D01*
X82090476Y-41107200D02*
X82185714Y-41154819D01*
X82185714Y-41154819D02*
X82376190Y-41154819D01*
X82376190Y-41154819D02*
X82471428Y-41107200D01*
X82471428Y-41107200D02*
X82519047Y-41059580D01*
X82519047Y-41059580D02*
X82566666Y-40964342D01*
X82566666Y-40964342D02*
X82566666Y-40726247D01*
X82566666Y-40726247D02*
X82519047Y-40631009D01*
X82519047Y-40631009D02*
X82471428Y-40583390D01*
X82471428Y-40583390D02*
X82376190Y-40535771D01*
X82376190Y-40535771D02*
X82185714Y-40535771D01*
X82185714Y-40535771D02*
X82090476Y-40583390D01*
X82090476Y-40583390D02*
X82042857Y-40631009D01*
X82042857Y-40631009D02*
X81995238Y-40726247D01*
X100680952Y-54154819D02*
X101252380Y-54154819D01*
X100966666Y-55154819D02*
X100966666Y-54154819D01*
X102061904Y-55154819D02*
X101585714Y-55154819D01*
X101585714Y-55154819D02*
X101585714Y-54154819D01*
X102585714Y-54154819D02*
X102680952Y-54154819D01*
X102680952Y-54154819D02*
X102776190Y-54202438D01*
X102776190Y-54202438D02*
X102823809Y-54250057D01*
X102823809Y-54250057D02*
X102871428Y-54345295D01*
X102871428Y-54345295D02*
X102919047Y-54535771D01*
X102919047Y-54535771D02*
X102919047Y-54773866D01*
X102919047Y-54773866D02*
X102871428Y-54964342D01*
X102871428Y-54964342D02*
X102823809Y-55059580D01*
X102823809Y-55059580D02*
X102776190Y-55107200D01*
X102776190Y-55107200D02*
X102680952Y-55154819D01*
X102680952Y-55154819D02*
X102585714Y-55154819D01*
X102585714Y-55154819D02*
X102490476Y-55107200D01*
X102490476Y-55107200D02*
X102442857Y-55059580D01*
X102442857Y-55059580D02*
X102395238Y-54964342D01*
X102395238Y-54964342D02*
X102347619Y-54773866D01*
X102347619Y-54773866D02*
X102347619Y-54535771D01*
X102347619Y-54535771D02*
X102395238Y-54345295D01*
X102395238Y-54345295D02*
X102442857Y-54250057D01*
X102442857Y-54250057D02*
X102490476Y-54202438D01*
X102490476Y-54202438D02*
X102585714Y-54154819D01*
X103252381Y-54154819D02*
X103919047Y-54154819D01*
X103919047Y-54154819D02*
X103490476Y-55154819D01*
X104728571Y-54488152D02*
X104728571Y-55154819D01*
X104490476Y-54107200D02*
X104252381Y-54821485D01*
X104252381Y-54821485D02*
X104871428Y-54821485D01*
X101038095Y-57654819D02*
X101038095Y-58464342D01*
X101038095Y-58464342D02*
X101085714Y-58559580D01*
X101085714Y-58559580D02*
X101133333Y-58607200D01*
X101133333Y-58607200D02*
X101228571Y-58654819D01*
X101228571Y-58654819D02*
X101419047Y-58654819D01*
X101419047Y-58654819D02*
X101514285Y-58607200D01*
X101514285Y-58607200D02*
X101561904Y-58559580D01*
X101561904Y-58559580D02*
X101609523Y-58464342D01*
X101609523Y-58464342D02*
X101609523Y-57654819D01*
X102038095Y-57750057D02*
X102085714Y-57702438D01*
X102085714Y-57702438D02*
X102180952Y-57654819D01*
X102180952Y-57654819D02*
X102419047Y-57654819D01*
X102419047Y-57654819D02*
X102514285Y-57702438D01*
X102514285Y-57702438D02*
X102561904Y-57750057D01*
X102561904Y-57750057D02*
X102609523Y-57845295D01*
X102609523Y-57845295D02*
X102609523Y-57940533D01*
X102609523Y-57940533D02*
X102561904Y-58083390D01*
X102561904Y-58083390D02*
X101990476Y-58654819D01*
X101990476Y-58654819D02*
X102609523Y-58654819D01*
X123915714Y-63124819D02*
X123344286Y-63124819D01*
X123630000Y-63124819D02*
X123630000Y-62124819D01*
X123630000Y-62124819D02*
X123534762Y-62267676D01*
X123534762Y-62267676D02*
X123439524Y-62362914D01*
X123439524Y-62362914D02*
X123344286Y-62410533D01*
X124344286Y-63124819D02*
X124344286Y-62124819D01*
X124915714Y-63124819D02*
X124487143Y-62553390D01*
X124915714Y-62124819D02*
X124344286Y-62696247D01*
X123487142Y-58384819D02*
X123153809Y-57908628D01*
X122915714Y-58384819D02*
X122915714Y-57384819D01*
X122915714Y-57384819D02*
X123296666Y-57384819D01*
X123296666Y-57384819D02*
X123391904Y-57432438D01*
X123391904Y-57432438D02*
X123439523Y-57480057D01*
X123439523Y-57480057D02*
X123487142Y-57575295D01*
X123487142Y-57575295D02*
X123487142Y-57718152D01*
X123487142Y-57718152D02*
X123439523Y-57813390D01*
X123439523Y-57813390D02*
X123391904Y-57861009D01*
X123391904Y-57861009D02*
X123296666Y-57908628D01*
X123296666Y-57908628D02*
X122915714Y-57908628D01*
X123868095Y-57480057D02*
X123915714Y-57432438D01*
X123915714Y-57432438D02*
X124010952Y-57384819D01*
X124010952Y-57384819D02*
X124249047Y-57384819D01*
X124249047Y-57384819D02*
X124344285Y-57432438D01*
X124344285Y-57432438D02*
X124391904Y-57480057D01*
X124391904Y-57480057D02*
X124439523Y-57575295D01*
X124439523Y-57575295D02*
X124439523Y-57670533D01*
X124439523Y-57670533D02*
X124391904Y-57813390D01*
X124391904Y-57813390D02*
X123820476Y-58384819D01*
X123820476Y-58384819D02*
X124439523Y-58384819D01*
X125058571Y-57384819D02*
X125153809Y-57384819D01*
X125153809Y-57384819D02*
X125249047Y-57432438D01*
X125249047Y-57432438D02*
X125296666Y-57480057D01*
X125296666Y-57480057D02*
X125344285Y-57575295D01*
X125344285Y-57575295D02*
X125391904Y-57765771D01*
X125391904Y-57765771D02*
X125391904Y-58003866D01*
X125391904Y-58003866D02*
X125344285Y-58194342D01*
X125344285Y-58194342D02*
X125296666Y-58289580D01*
X125296666Y-58289580D02*
X125249047Y-58337200D01*
X125249047Y-58337200D02*
X125153809Y-58384819D01*
X125153809Y-58384819D02*
X125058571Y-58384819D01*
X125058571Y-58384819D02*
X124963333Y-58337200D01*
X124963333Y-58337200D02*
X124915714Y-58289580D01*
X124915714Y-58289580D02*
X124868095Y-58194342D01*
X124868095Y-58194342D02*
X124820476Y-58003866D01*
X124820476Y-58003866D02*
X124820476Y-57765771D01*
X124820476Y-57765771D02*
X124868095Y-57575295D01*
X124868095Y-57575295D02*
X124915714Y-57480057D01*
X124915714Y-57480057D02*
X124963333Y-57432438D01*
X124963333Y-57432438D02*
X125058571Y-57384819D01*
X95604513Y-122248876D02*
X95747370Y-122296495D01*
X95747370Y-122296495D02*
X95985465Y-122296495D01*
X95985465Y-122296495D02*
X96080703Y-122248876D01*
X96080703Y-122248876D02*
X96128322Y-122201256D01*
X96128322Y-122201256D02*
X96175941Y-122106018D01*
X96175941Y-122106018D02*
X96175941Y-122010780D01*
X96175941Y-122010780D02*
X96128322Y-121915542D01*
X96128322Y-121915542D02*
X96080703Y-121867923D01*
X96080703Y-121867923D02*
X95985465Y-121820304D01*
X95985465Y-121820304D02*
X95794989Y-121772685D01*
X95794989Y-121772685D02*
X95699751Y-121725066D01*
X95699751Y-121725066D02*
X95652132Y-121677447D01*
X95652132Y-121677447D02*
X95604513Y-121582209D01*
X95604513Y-121582209D02*
X95604513Y-121486971D01*
X95604513Y-121486971D02*
X95652132Y-121391733D01*
X95652132Y-121391733D02*
X95699751Y-121344114D01*
X95699751Y-121344114D02*
X95794989Y-121296495D01*
X95794989Y-121296495D02*
X96033084Y-121296495D01*
X96033084Y-121296495D02*
X96175941Y-121344114D01*
X96604513Y-122296495D02*
X96604513Y-121296495D01*
X96604513Y-121296495D02*
X96985465Y-121296495D01*
X96985465Y-121296495D02*
X97080703Y-121344114D01*
X97080703Y-121344114D02*
X97128322Y-121391733D01*
X97128322Y-121391733D02*
X97175941Y-121486971D01*
X97175941Y-121486971D02*
X97175941Y-121629828D01*
X97175941Y-121629828D02*
X97128322Y-121725066D01*
X97128322Y-121725066D02*
X97080703Y-121772685D01*
X97080703Y-121772685D02*
X96985465Y-121820304D01*
X96985465Y-121820304D02*
X96604513Y-121820304D01*
X97652132Y-122248876D02*
X97652132Y-122296495D01*
X97652132Y-122296495D02*
X97604513Y-122391733D01*
X97604513Y-122391733D02*
X97556894Y-122439352D01*
X98080703Y-122296495D02*
X98080703Y-121296495D01*
X98080703Y-121296495D02*
X98318798Y-121296495D01*
X98318798Y-121296495D02*
X98461655Y-121344114D01*
X98461655Y-121344114D02*
X98556893Y-121439352D01*
X98556893Y-121439352D02*
X98604512Y-121534590D01*
X98604512Y-121534590D02*
X98652131Y-121725066D01*
X98652131Y-121725066D02*
X98652131Y-121867923D01*
X98652131Y-121867923D02*
X98604512Y-122058399D01*
X98604512Y-122058399D02*
X98556893Y-122153637D01*
X98556893Y-122153637D02*
X98461655Y-122248876D01*
X98461655Y-122248876D02*
X98318798Y-122296495D01*
X98318798Y-122296495D02*
X98080703Y-122296495D01*
X98937846Y-121296495D02*
X99509274Y-121296495D01*
X99223560Y-122296495D02*
X99223560Y-121296495D01*
X120007927Y-70934819D02*
X119531737Y-70934819D01*
X119531737Y-70934819D02*
X119531737Y-69934819D01*
X120341261Y-70411009D02*
X120674594Y-70411009D01*
X120817451Y-70934819D02*
X120341261Y-70934819D01*
X120341261Y-70934819D02*
X120341261Y-69934819D01*
X120341261Y-69934819D02*
X120817451Y-69934819D01*
X121246023Y-70934819D02*
X121246023Y-69934819D01*
X121246023Y-69934819D02*
X121484118Y-69934819D01*
X121484118Y-69934819D02*
X121626975Y-69982438D01*
X121626975Y-69982438D02*
X121722213Y-70077676D01*
X121722213Y-70077676D02*
X121769832Y-70172914D01*
X121769832Y-70172914D02*
X121817451Y-70363390D01*
X121817451Y-70363390D02*
X121817451Y-70506247D01*
X121817451Y-70506247D02*
X121769832Y-70696723D01*
X121769832Y-70696723D02*
X121722213Y-70791961D01*
X121722213Y-70791961D02*
X121626975Y-70887200D01*
X121626975Y-70887200D02*
X121484118Y-70934819D01*
X121484118Y-70934819D02*
X121246023Y-70934819D01*
X134813095Y-73792919D02*
X134860714Y-73745300D01*
X134860714Y-73745300D02*
X135003571Y-73697680D01*
X135003571Y-73697680D02*
X135098809Y-73697680D01*
X135098809Y-73697680D02*
X135241666Y-73745300D01*
X135241666Y-73745300D02*
X135336904Y-73840538D01*
X135336904Y-73840538D02*
X135384523Y-73935776D01*
X135384523Y-73935776D02*
X135432142Y-74126252D01*
X135432142Y-74126252D02*
X135432142Y-74269109D01*
X135432142Y-74269109D02*
X135384523Y-74459585D01*
X135384523Y-74459585D02*
X135336904Y-74554823D01*
X135336904Y-74554823D02*
X135241666Y-74650061D01*
X135241666Y-74650061D02*
X135098809Y-74697680D01*
X135098809Y-74697680D02*
X135003571Y-74697680D01*
X135003571Y-74697680D02*
X134860714Y-74650061D01*
X134860714Y-74650061D02*
X134813095Y-74602442D01*
X133908333Y-73697680D02*
X134384523Y-73697680D01*
X134384523Y-73697680D02*
X134384523Y-74697680D01*
X133574999Y-73697680D02*
X133574999Y-74697680D01*
X133003571Y-73697680D02*
X133432142Y-74269109D01*
X133003571Y-74697680D02*
X133574999Y-74126252D01*
X131813094Y-73697680D02*
X131813094Y-74697680D01*
X131336904Y-73697680D02*
X131336904Y-74697680D01*
X131336904Y-74697680D02*
X130765476Y-73697680D01*
X130765476Y-73697680D02*
X130765476Y-74697680D01*
X131779523Y-78837080D02*
X131731904Y-78884700D01*
X131731904Y-78884700D02*
X131589047Y-78932319D01*
X131589047Y-78932319D02*
X131493809Y-78932319D01*
X131493809Y-78932319D02*
X131350952Y-78884700D01*
X131350952Y-78884700D02*
X131255714Y-78789461D01*
X131255714Y-78789461D02*
X131208095Y-78694223D01*
X131208095Y-78694223D02*
X131160476Y-78503747D01*
X131160476Y-78503747D02*
X131160476Y-78360890D01*
X131160476Y-78360890D02*
X131208095Y-78170414D01*
X131208095Y-78170414D02*
X131255714Y-78075176D01*
X131255714Y-78075176D02*
X131350952Y-77979938D01*
X131350952Y-77979938D02*
X131493809Y-77932319D01*
X131493809Y-77932319D02*
X131589047Y-77932319D01*
X131589047Y-77932319D02*
X131731904Y-77979938D01*
X131731904Y-77979938D02*
X131779523Y-78027557D01*
X132684285Y-78932319D02*
X132208095Y-78932319D01*
X132208095Y-78932319D02*
X132208095Y-77932319D01*
X133017619Y-78932319D02*
X133017619Y-77932319D01*
X133589047Y-78932319D02*
X133160476Y-78360890D01*
X133589047Y-77932319D02*
X133017619Y-78503747D01*
X133779524Y-79027557D02*
X134541428Y-79027557D01*
X134779524Y-78932319D02*
X134779524Y-77932319D01*
X135779523Y-78932319D02*
X135208095Y-78932319D01*
X135493809Y-78932319D02*
X135493809Y-77932319D01*
X135493809Y-77932319D02*
X135398571Y-78075176D01*
X135398571Y-78075176D02*
X135303333Y-78170414D01*
X135303333Y-78170414D02*
X135208095Y-78218033D01*
X87868592Y-104709819D02*
X87392402Y-104709819D01*
X87392402Y-104709819D02*
X87392402Y-103709819D01*
X88201926Y-104186009D02*
X88535259Y-104186009D01*
X88678116Y-104709819D02*
X88201926Y-104709819D01*
X88201926Y-104709819D02*
X88201926Y-103709819D01*
X88201926Y-103709819D02*
X88678116Y-103709819D01*
X89106688Y-104709819D02*
X89106688Y-103709819D01*
X89106688Y-103709819D02*
X89344783Y-103709819D01*
X89344783Y-103709819D02*
X89487640Y-103757438D01*
X89487640Y-103757438D02*
X89582878Y-103852676D01*
X89582878Y-103852676D02*
X89630497Y-103947914D01*
X89630497Y-103947914D02*
X89678116Y-104138390D01*
X89678116Y-104138390D02*
X89678116Y-104281247D01*
X89678116Y-104281247D02*
X89630497Y-104471723D01*
X89630497Y-104471723D02*
X89582878Y-104566961D01*
X89582878Y-104566961D02*
X89487640Y-104662200D01*
X89487640Y-104662200D02*
X89344783Y-104709819D01*
X89344783Y-104709819D02*
X89106688Y-104709819D01*
X120007927Y-87444819D02*
X119531737Y-87444819D01*
X119531737Y-87444819D02*
X119531737Y-86444819D01*
X120341261Y-86921009D02*
X120674594Y-86921009D01*
X120817451Y-87444819D02*
X120341261Y-87444819D01*
X120341261Y-87444819D02*
X120341261Y-86444819D01*
X120341261Y-86444819D02*
X120817451Y-86444819D01*
X121246023Y-87444819D02*
X121246023Y-86444819D01*
X121246023Y-86444819D02*
X121484118Y-86444819D01*
X121484118Y-86444819D02*
X121626975Y-86492438D01*
X121626975Y-86492438D02*
X121722213Y-86587676D01*
X121722213Y-86587676D02*
X121769832Y-86682914D01*
X121769832Y-86682914D02*
X121817451Y-86873390D01*
X121817451Y-86873390D02*
X121817451Y-87016247D01*
X121817451Y-87016247D02*
X121769832Y-87206723D01*
X121769832Y-87206723D02*
X121722213Y-87301961D01*
X121722213Y-87301961D02*
X121626975Y-87397200D01*
X121626975Y-87397200D02*
X121484118Y-87444819D01*
X121484118Y-87444819D02*
X121246023Y-87444819D01*
D12*
X90066190Y-122955000D02*
X87733810Y-122955000D01*
X87734525Y-122954446D02*
G75*
G03*
X90066190Y-122955001I1165475J-1500554D01*
G01*
X90400000Y-124455000D02*
G75*
G03*
X87400000Y-124455000I-1500000J0D01*
G01*
X87400000Y-124455000D02*
G75*
G03*
X90400000Y-124455000I1500000J0D01*
G01*
X90066190Y-71520000D02*
X87733810Y-71520000D01*
X87734525Y-71519446D02*
G75*
G03*
X90066190Y-71520001I1165475J-1500554D01*
G01*
X90400000Y-73020000D02*
G75*
G03*
X87400000Y-73020000I-1500000J0D01*
G01*
X87400000Y-73020000D02*
G75*
G03*
X90400000Y-73020000I1500000J0D01*
G01*
D13*
X93840000Y-90305820D02*
X101740000Y-90305820D01*
X97790000Y-83705820D02*
X97790000Y-96905820D01*
D12*
X98990000Y-96705820D02*
G75*
G03*
X96590000Y-96705820I-1200000J0D01*
G01*
X96590000Y-96705820D02*
G75*
G03*
X98990000Y-96705820I1200000J0D01*
G01*
X100840000Y-90305820D02*
G75*
G03*
X94740000Y-90305820I-3050000J0D01*
G01*
X94740000Y-90305820D02*
G75*
G03*
X100840000Y-90305820I3050000J0D01*
G01*
D13*
X62090060Y-107326640D02*
X69990060Y-107326640D01*
X66040060Y-100726640D02*
X66040060Y-113926640D01*
D12*
X67240060Y-113726640D02*
G75*
G03*
X64840060Y-113726640I-1200000J0D01*
G01*
X64840060Y-113726640D02*
G75*
G03*
X67240060Y-113726640I1200000J0D01*
G01*
X69090060Y-107326640D02*
G75*
G03*
X62990060Y-107326640I-3050000J0D01*
G01*
X62990060Y-107326640D02*
G75*
G03*
X69090060Y-107326640I3050000J0D01*
G01*
X113930725Y-100735000D02*
X113930725Y-112085000D01*
X104430725Y-100735000D02*
X113930725Y-100735000D01*
X104430725Y-100735000D02*
X104430725Y-112085000D01*
X104430725Y-112085000D02*
X113930725Y-112085000D01*
X112680725Y-107235000D02*
G75*
G03*
X105680725Y-107235000I-3500000J0D01*
G01*
X105680725Y-107235000D02*
G75*
G03*
X112680725Y-107235000I3500000J0D01*
G01*
X91500000Y-59200000D02*
X91500000Y-61740000D01*
X92750000Y-59200000D02*
G75*
G03*
X90250000Y-59200000I-1250000J0D01*
G01*
X90250000Y-59200000D02*
G75*
G03*
X92750000Y-59200000I1250000J0D01*
G01*
X127150000Y-50200000D02*
X129650000Y-50200000D01*
X129650000Y-50200000D02*
X129650000Y-44200000D01*
X127150000Y-44200000D02*
X127150000Y-50200000D01*
X129650000Y-44200000D02*
X127150000Y-44200000D01*
X124150000Y-50200000D02*
X126650000Y-50200000D01*
X126650000Y-50200000D02*
X126650000Y-44200000D01*
X124150000Y-44200000D02*
X124150000Y-50200000D01*
X126650000Y-44200000D02*
X124150000Y-44200000D01*
X128145000Y-52400000D02*
X125605000Y-52400000D01*
X129395000Y-52400000D02*
G75*
G03*
X126895000Y-52400000I-1250000J0D01*
G01*
X126895000Y-52400000D02*
G75*
G03*
X129395000Y-52400000I1250000J0D01*
G01*
X133148629Y-42000000D02*
X135688629Y-42000000D01*
X136688629Y-42000000D02*
G75*
G03*
X134688629Y-42000000I-1000000J0D01*
G01*
X134688629Y-42000000D02*
G75*
G03*
X136688629Y-42000000I1000000J0D01*
G01*
X98400000Y-61597967D02*
X98400000Y-59057967D01*
X99650000Y-61597967D02*
G75*
G03*
X97150000Y-61597967I-1250000J0D01*
G01*
X97150000Y-61597967D02*
G75*
G03*
X99650000Y-61597967I1250000J0D01*
G01*
X134745000Y-67310000D02*
G75*
G03*
X131145000Y-67310000I-1800000J0D01*
G01*
X131145000Y-67310000D02*
G75*
G03*
X134745000Y-67310000I1800000J0D01*
G01*
X135945000Y-67310000D02*
G75*
G03*
X129945000Y-67310000I-3000000J0D01*
G01*
X129945000Y-67310000D02*
G75*
G03*
X135945000Y-67310000I3000000J0D01*
G01*
X95247034Y-61600000D02*
X95247034Y-59060000D01*
X96497034Y-61600000D02*
G75*
G03*
X93997034Y-61600000I-1250000J0D01*
G01*
X93997034Y-61600000D02*
G75*
G03*
X96497034Y-61600000I1250000J0D01*
G01*
X82180000Y-83630000D02*
X82180000Y-94980000D01*
X72680000Y-83630000D02*
X82180000Y-83630000D01*
X72680000Y-83630000D02*
X72680000Y-94980000D01*
X72680000Y-94980000D02*
X82180000Y-94980000D01*
X80930000Y-90130000D02*
G75*
G03*
X73930000Y-90130000I-3500000J0D01*
G01*
X73930000Y-90130000D02*
G75*
G03*
X80930000Y-90130000I3500000J0D01*
G01*
X121816190Y-122955000D02*
X119483810Y-122955000D01*
X119484525Y-122954446D02*
G75*
G03*
X121816190Y-122955001I1165475J-1500554D01*
G01*
X122150000Y-124455000D02*
G75*
G03*
X119150000Y-124455000I-1500000J0D01*
G01*
X119150000Y-124455000D02*
G75*
G03*
X122150000Y-124455000I1500000J0D01*
G01*
X126392122Y-119355000D02*
X137742122Y-119355000D01*
X126392122Y-128855000D02*
X126392122Y-119355000D01*
X126392122Y-128855000D02*
X137742122Y-128855000D01*
X137742122Y-128855000D02*
X137742122Y-119355000D01*
X136392122Y-124105000D02*
G75*
G03*
X129392122Y-124105000I-3500000J0D01*
G01*
X129392122Y-124105000D02*
G75*
G03*
X136392122Y-124105000I3500000J0D01*
G01*
X87000000Y-41960000D02*
X98350000Y-41960000D01*
X87000000Y-51460000D02*
X87000000Y-41960000D01*
X87000000Y-51460000D02*
X98350000Y-51460000D01*
X98350000Y-51460000D02*
X98350000Y-41960000D01*
X97000000Y-46710000D02*
G75*
G03*
X90000000Y-46710000I-3500000J0D01*
G01*
X90000000Y-46710000D02*
G75*
G03*
X97000000Y-46710000I3500000J0D01*
G01*
X113930725Y-83630000D02*
X113930725Y-94980000D01*
X104430725Y-83630000D02*
X113930725Y-83630000D01*
X104430725Y-83630000D02*
X104430725Y-94980000D01*
X104430725Y-94980000D02*
X113930725Y-94980000D01*
X112680725Y-90130000D02*
G75*
G03*
X105680725Y-90130000I-3500000J0D01*
G01*
X105680725Y-90130000D02*
G75*
G03*
X112680725Y-90130000I3500000J0D01*
G01*
D13*
X62090060Y-73285000D02*
X69990060Y-73285000D01*
X66040060Y-66685000D02*
X66040060Y-79885000D01*
D12*
X67240060Y-79685000D02*
G75*
G03*
X64840060Y-79685000I-1200000J0D01*
G01*
X64840060Y-79685000D02*
G75*
G03*
X67240060Y-79685000I1200000J0D01*
G01*
X69090060Y-73285000D02*
G75*
G03*
X62990060Y-73285000I-3050000J0D01*
G01*
X62990060Y-73285000D02*
G75*
G03*
X69090060Y-73285000I3050000J0D01*
G01*
X113930725Y-117840000D02*
X113930725Y-129190000D01*
X104430725Y-117840000D02*
X113930725Y-117840000D01*
X104430725Y-117840000D02*
X104430725Y-129190000D01*
X104430725Y-129190000D02*
X113930725Y-129190000D01*
X112680725Y-124340000D02*
G75*
G03*
X105680725Y-124340000I-3500000J0D01*
G01*
X105680725Y-124340000D02*
G75*
G03*
X112680725Y-124340000I3500000J0D01*
G01*
X88340337Y-59212823D02*
X88340337Y-61752823D01*
X89590337Y-59212823D02*
G75*
G03*
X87090337Y-59212823I-1250000J0D01*
G01*
X87090337Y-59212823D02*
G75*
G03*
X89590337Y-59212823I1250000J0D01*
G01*
X82180000Y-117840000D02*
X82180000Y-129190000D01*
X72680000Y-117840000D02*
X82180000Y-117840000D01*
X72680000Y-117840000D02*
X72680000Y-129190000D01*
X72680000Y-129190000D02*
X82180000Y-129190000D01*
X80930000Y-124340000D02*
G75*
G03*
X73930000Y-124340000I-3500000J0D01*
G01*
X73930000Y-124340000D02*
G75*
G03*
X80930000Y-124340000I3500000J0D01*
G01*
X90066190Y-88665000D02*
X87733810Y-88665000D01*
X87734525Y-88664446D02*
G75*
G03*
X90066190Y-88665001I1165475J-1500554D01*
G01*
X90400000Y-90165000D02*
G75*
G03*
X87400000Y-90165000I-1500000J0D01*
G01*
X87400000Y-90165000D02*
G75*
G03*
X90400000Y-90165000I1500000J0D01*
G01*
X134745000Y-89645000D02*
G75*
G03*
X131145000Y-89645000I-1800000J0D01*
G01*
X131145000Y-89645000D02*
G75*
G03*
X134745000Y-89645000I1800000J0D01*
G01*
X135945000Y-89645000D02*
G75*
G03*
X129945000Y-89645000I-3000000J0D01*
G01*
X129945000Y-89645000D02*
G75*
G03*
X135945000Y-89645000I3000000J0D01*
G01*
X82180000Y-66525000D02*
X82180000Y-77875000D01*
X72680000Y-66525000D02*
X82180000Y-66525000D01*
X72680000Y-66525000D02*
X72680000Y-77875000D01*
X72680000Y-77875000D02*
X82180000Y-77875000D01*
X80930000Y-73025000D02*
G75*
G03*
X73930000Y-73025000I-3500000J0D01*
G01*
X73930000Y-73025000D02*
G75*
G03*
X80930000Y-73025000I3500000J0D01*
G01*
D10*
X82950000Y-62700000D02*
X80450000Y-62700000D01*
X82950000Y-61900000D02*
X82950000Y-62700000D01*
X80450000Y-62700000D02*
X80450000Y-61900000D01*
X80450000Y-61900000D02*
X82950000Y-61900000D01*
X83300000Y-62300000D02*
G75*
G03*
X80100000Y-62300000I-1600000J0D01*
G01*
X80100000Y-62300000D02*
G75*
G03*
X83300000Y-62300000I1600000J0D01*
G01*
D12*
X121816190Y-105810000D02*
X119483810Y-105810000D01*
X119484525Y-105809446D02*
G75*
G03*
X121816190Y-105810001I1165475J-1500554D01*
G01*
X122150000Y-107310000D02*
G75*
G03*
X119150000Y-107310000I-1500000J0D01*
G01*
X119150000Y-107310000D02*
G75*
G03*
X122150000Y-107310000I1500000J0D01*
G01*
D13*
X62090060Y-124347460D02*
X69990060Y-124347460D01*
X66040060Y-117747460D02*
X66040060Y-130947460D01*
D12*
X67240060Y-130747460D02*
G75*
G03*
X64840060Y-130747460I-1200000J0D01*
G01*
X64840060Y-130747460D02*
G75*
G03*
X67240060Y-130747460I1200000J0D01*
G01*
X69090060Y-124347460D02*
G75*
G03*
X62990060Y-124347460I-3050000J0D01*
G01*
X62990060Y-124347460D02*
G75*
G03*
X69090060Y-124347460I3050000J0D01*
G01*
X128400000Y-42000000D02*
X125860000Y-42000000D01*
X129650000Y-42000000D02*
G75*
G03*
X127150000Y-42000000I-1250000J0D01*
G01*
X127150000Y-42000000D02*
G75*
G03*
X129650000Y-42000000I1250000J0D01*
G01*
D13*
X93840000Y-107326640D02*
X101740000Y-107326640D01*
X97790000Y-100726640D02*
X97790000Y-113926640D01*
D12*
X98990000Y-113726640D02*
G75*
G03*
X96590000Y-113726640I-1200000J0D01*
G01*
X96590000Y-113726640D02*
G75*
G03*
X98990000Y-113726640I1200000J0D01*
G01*
X100840000Y-107326640D02*
G75*
G03*
X94740000Y-107326640I-3050000J0D01*
G01*
X94740000Y-107326640D02*
G75*
G03*
X100840000Y-107326640I3050000J0D01*
G01*
X113930725Y-66525000D02*
X113930725Y-77875000D01*
X104430725Y-66525000D02*
X113930725Y-66525000D01*
X104430725Y-66525000D02*
X104430725Y-77875000D01*
X104430725Y-77875000D02*
X113930725Y-77875000D01*
X112680725Y-73025000D02*
G75*
G03*
X105680725Y-73025000I-3500000J0D01*
G01*
X105680725Y-73025000D02*
G75*
G03*
X112680725Y-73025000I3500000J0D01*
G01*
X74755000Y-46710000D02*
G75*
G03*
X68755000Y-46710000I-3000000J0D01*
G01*
X68755000Y-46710000D02*
G75*
G03*
X74755000Y-46710000I3000000J0D01*
G01*
X76305000Y-46710000D02*
G75*
G03*
X67205000Y-46710000I-4550000J0D01*
G01*
X67205000Y-46710000D02*
G75*
G03*
X76305000Y-46710000I4550000J0D01*
G01*
D13*
X62090060Y-90305820D02*
X69990060Y-90305820D01*
X66040060Y-83705820D02*
X66040060Y-96905820D01*
D12*
X67240060Y-96705820D02*
G75*
G03*
X64840060Y-96705820I-1200000J0D01*
G01*
X64840060Y-96705820D02*
G75*
G03*
X67240060Y-96705820I1200000J0D01*
G01*
X69090060Y-90305820D02*
G75*
G03*
X62990060Y-90305820I-3050000J0D01*
G01*
X62990060Y-90305820D02*
G75*
G03*
X69090060Y-90305820I3050000J0D01*
G01*
D13*
X93840000Y-73285000D02*
X101740000Y-73285000D01*
X97790000Y-66685000D02*
X97790000Y-79885000D01*
D12*
X98990000Y-79685000D02*
G75*
G03*
X96590000Y-79685000I-1200000J0D01*
G01*
X96590000Y-79685000D02*
G75*
G03*
X98990000Y-79685000I1200000J0D01*
G01*
X100840000Y-73285000D02*
G75*
G03*
X94740000Y-73285000I-3050000J0D01*
G01*
X94740000Y-73285000D02*
G75*
G03*
X100840000Y-73285000I3050000J0D01*
G01*
X134745000Y-111980000D02*
G75*
G03*
X131145000Y-111980000I-1800000J0D01*
G01*
X131145000Y-111980000D02*
G75*
G03*
X134745000Y-111980000I1800000J0D01*
G01*
X135945000Y-111980000D02*
G75*
G03*
X129945000Y-111980000I-3000000J0D01*
G01*
X129945000Y-111980000D02*
G75*
G03*
X135945000Y-111980000I3000000J0D01*
G01*
X134745000Y-100812500D02*
G75*
G03*
X131145000Y-100812500I-1800000J0D01*
G01*
X131145000Y-100812500D02*
G75*
G03*
X134745000Y-100812500I1800000J0D01*
G01*
X135945000Y-100812500D02*
G75*
G03*
X129945000Y-100812500I-3000000J0D01*
G01*
X129945000Y-100812500D02*
G75*
G03*
X135945000Y-100812500I3000000J0D01*
G01*
X82180000Y-100735000D02*
X82180000Y-112085000D01*
X72680000Y-100735000D02*
X82180000Y-100735000D01*
X72680000Y-100735000D02*
X72680000Y-112085000D01*
X72680000Y-112085000D02*
X82180000Y-112085000D01*
X80930000Y-107235000D02*
G75*
G03*
X73930000Y-107235000I-3500000J0D01*
G01*
X73930000Y-107235000D02*
G75*
G03*
X80930000Y-107235000I3500000J0D01*
G01*
X136000000Y-60400000D02*
X133460000Y-60400000D01*
X134460000Y-60400000D02*
G75*
G03*
X132460000Y-60400000I-1000000J0D01*
G01*
X132460000Y-60400000D02*
G75*
G03*
X134460000Y-60400000I1000000J0D01*
G01*
X122175000Y-36830000D02*
X123175000Y-37830000D01*
X102855000Y-36830000D02*
X122175000Y-36830000D01*
X123175000Y-37830000D02*
X123175000Y-43180000D01*
X123175000Y-43180000D02*
X102855000Y-43180000D01*
X102855000Y-43180000D02*
X102855000Y-36830000D01*
D14*
X79800000Y-38000000D02*
X81600000Y-38000000D01*
X79800000Y-38400000D02*
X79800000Y-38000000D01*
X81600000Y-38000000D02*
X81600000Y-38400000D01*
X81600000Y-38400000D02*
X79800000Y-38400000D01*
X82000000Y-38200000D02*
G75*
G03*
X79400000Y-38200000I-1300000J0D01*
G01*
X79400000Y-38200000D02*
G75*
G03*
X82000000Y-38200000I1300000J0D01*
G01*
D12*
X117100000Y-53335000D02*
X118100000Y-54335000D01*
X100320000Y-53335000D02*
X117100000Y-53335000D01*
X118100000Y-54335000D02*
X118100000Y-59685000D01*
X118100000Y-59685000D02*
X100320000Y-59685000D01*
X100320000Y-59685000D02*
X100320000Y-53335000D01*
X122860000Y-60300000D02*
X125400000Y-60300000D01*
X124110000Y-60300000D02*
G75*
G03*
X121610000Y-60300000I-1250000J0D01*
G01*
X121610000Y-60300000D02*
G75*
G03*
X124110000Y-60300000I1250000J0D01*
G01*
D13*
X93840000Y-124347460D02*
X101740000Y-124347460D01*
X97790000Y-117747460D02*
X97790000Y-130947460D01*
D12*
X98990000Y-130747460D02*
G75*
G03*
X96590000Y-130747460I-1200000J0D01*
G01*
X96590000Y-130747460D02*
G75*
G03*
X98990000Y-130747460I1200000J0D01*
G01*
X100840000Y-124347460D02*
G75*
G03*
X94740000Y-124347460I-3050000J0D01*
G01*
X94740000Y-124347460D02*
G75*
G03*
X100840000Y-124347460I3050000J0D01*
G01*
X121816190Y-71520000D02*
X119483810Y-71520000D01*
X119484525Y-71519446D02*
G75*
G03*
X121816190Y-71520001I1165475J-1500554D01*
G01*
X122150000Y-73020000D02*
G75*
G03*
X119150000Y-73020000I-1500000J0D01*
G01*
X119150000Y-73020000D02*
G75*
G03*
X122150000Y-73020000I1500000J0D01*
G01*
X134745000Y-78477500D02*
G75*
G03*
X131145000Y-78477500I-1800000J0D01*
G01*
X131145000Y-78477500D02*
G75*
G03*
X134745000Y-78477500I1800000J0D01*
G01*
X135945000Y-78477500D02*
G75*
G03*
X129945000Y-78477500I-3000000J0D01*
G01*
X129945000Y-78477500D02*
G75*
G03*
X135945000Y-78477500I3000000J0D01*
G01*
X90066190Y-105810000D02*
X87733810Y-105810000D01*
X87734525Y-105809446D02*
G75*
G03*
X90066190Y-105810001I1165475J-1500554D01*
G01*
X90400000Y-107310000D02*
G75*
G03*
X87400000Y-107310000I-1500000J0D01*
G01*
X87400000Y-107310000D02*
G75*
G03*
X90400000Y-107310000I1500000J0D01*
G01*
X121816190Y-88665000D02*
X119483810Y-88665000D01*
X119484525Y-88664446D02*
G75*
G03*
X121816190Y-88665001I1165475J-1500554D01*
G01*
X122150000Y-90165000D02*
G75*
G03*
X119150000Y-90165000I-1500000J0D01*
G01*
X119150000Y-90165000D02*
G75*
G03*
X122150000Y-90165000I1500000J0D01*
G01*
M02*
