G04 #@! TF.GenerationSoftware,KiCad,Pcbnew,7.0.10*
G04 #@! TF.CreationDate,2024-02-02T08:29:14+10:00*
G04 #@! TF.ProjectId,MK_Seq take 2,4d4b5f53-6571-4207-9461-6b6520322e6b,rev?*
G04 #@! TF.SameCoordinates,Original*
G04 #@! TF.FileFunction,Copper,L2,Bot*
G04 #@! TF.FilePolarity,Positive*
%FSLAX46Y46*%
G04 Gerber Fmt 4.6, Leading zero omitted, Abs format (unit mm)*
G04 Created by KiCad (PCBNEW 7.0.10) date 2024-02-02 08:29:14*
%MOMM*%
%LPD*%
G01*
G04 APERTURE LIST*
G04 Aperture macros list*
%AMRoundRect*
0 Rectangle with rounded corners*
0 $1 Rounding radius*
0 $2 $3 $4 $5 $6 $7 $8 $9 X,Y pos of 4 corners*
0 Add a 4 corners polygon primitive as box body*
4,1,4,$2,$3,$4,$5,$6,$7,$8,$9,$2,$3,0*
0 Add four circle primitives for the rounded corners*
1,1,$1+$1,$2,$3*
1,1,$1+$1,$4,$5*
1,1,$1+$1,$6,$7*
1,1,$1+$1,$8,$9*
0 Add four rect primitives between the rounded corners*
20,1,$1+$1,$2,$3,$4,$5,0*
20,1,$1+$1,$4,$5,$6,$7,0*
20,1,$1+$1,$6,$7,$8,$9,0*
20,1,$1+$1,$8,$9,$2,$3,0*%
G04 Aperture macros list end*
G04 #@! TA.AperFunction,ComponentPad*
%ADD10R,1.800000X1.800000*%
G04 #@! TD*
G04 #@! TA.AperFunction,ComponentPad*
%ADD11C,1.800000*%
G04 #@! TD*
G04 #@! TA.AperFunction,ComponentPad*
%ADD12O,2.500000X1.600000*%
G04 #@! TD*
G04 #@! TA.AperFunction,ComponentPad*
%ADD13O,2.720000X3.240000*%
G04 #@! TD*
G04 #@! TA.AperFunction,ComponentPad*
%ADD14C,1.600000*%
G04 #@! TD*
G04 #@! TA.AperFunction,ComponentPad*
%ADD15O,1.600000X1.600000*%
G04 #@! TD*
G04 #@! TA.AperFunction,ComponentPad*
%ADD16R,1.600000X1.600000*%
G04 #@! TD*
G04 #@! TA.AperFunction,ComponentPad*
%ADD17O,1.500000X2.500000*%
G04 #@! TD*
G04 #@! TA.AperFunction,ComponentPad*
%ADD18O,3.240000X2.720000*%
G04 #@! TD*
G04 #@! TA.AperFunction,ComponentPad*
%ADD19C,2.800000*%
G04 #@! TD*
G04 #@! TA.AperFunction,ComponentPad*
%ADD20RoundRect,0.400000X-0.400000X0.400000X-0.400000X-0.400000X0.400000X-0.400000X0.400000X0.400000X0*%
G04 #@! TD*
G04 #@! TA.AperFunction,ComponentPad*
%ADD21C,2.000000*%
G04 #@! TD*
G04 #@! TA.AperFunction,SMDPad,CuDef*
%ADD22C,1.500000*%
G04 #@! TD*
G04 #@! TA.AperFunction,ComponentPad*
%ADD23C,1.440000*%
G04 #@! TD*
G04 #@! TA.AperFunction,ComponentPad*
%ADD24R,1.500000X1.050000*%
G04 #@! TD*
G04 #@! TA.AperFunction,ComponentPad*
%ADD25O,1.500000X1.050000*%
G04 #@! TD*
G04 #@! TA.AperFunction,ComponentPad*
%ADD26R,1.050000X1.500000*%
G04 #@! TD*
G04 #@! TA.AperFunction,ComponentPad*
%ADD27O,1.050000X1.500000*%
G04 #@! TD*
G04 #@! TA.AperFunction,ComponentPad*
%ADD28C,1.700000*%
G04 #@! TD*
G04 #@! TA.AperFunction,ComponentPad*
%ADD29RoundRect,0.425000X-0.425000X-0.425000X0.425000X-0.425000X0.425000X0.425000X-0.425000X0.425000X0*%
G04 #@! TD*
G04 #@! TA.AperFunction,ViaPad*
%ADD30C,0.800000*%
G04 #@! TD*
G04 #@! TA.AperFunction,Conductor*
%ADD31C,0.300000*%
G04 #@! TD*
G04 #@! TA.AperFunction,Conductor*
%ADD32C,0.250000*%
G04 #@! TD*
G04 APERTURE END LIST*
D10*
X88900000Y-123185000D03*
D11*
X88900000Y-125725000D03*
D10*
X88900000Y-71750000D03*
D11*
X88900000Y-74290000D03*
D12*
X97789275Y-95017095D03*
X97790000Y-90305820D03*
X97790060Y-85604154D03*
X66039335Y-112037915D03*
X66040060Y-107326640D03*
X66040120Y-102624974D03*
D13*
X113980725Y-107235000D03*
X104380725Y-107235000D03*
D10*
X111680725Y-99735000D03*
D11*
X109180725Y-99735000D03*
X106680725Y-99735000D03*
D14*
X91500000Y-59200000D03*
D15*
X91500000Y-61740000D03*
D14*
X128400000Y-49700000D03*
X128400000Y-44700000D03*
X125400000Y-49700000D03*
X125400000Y-44700000D03*
X128145000Y-52400000D03*
D15*
X125605000Y-52400000D03*
D16*
X133148629Y-42000000D03*
D15*
X135688629Y-42000000D03*
D14*
X98400000Y-61597967D03*
D15*
X98400000Y-59057967D03*
D17*
X127395000Y-67310000D03*
X129595000Y-67310000D03*
X137795000Y-67310000D03*
D14*
X95247034Y-61600000D03*
D15*
X95247034Y-59060000D03*
D13*
X82230000Y-90130000D03*
X72630000Y-90130000D03*
D10*
X79930000Y-82630000D03*
D11*
X77430000Y-82630000D03*
X74930000Y-82630000D03*
D10*
X120650000Y-123185000D03*
D11*
X120650000Y-125725000D03*
D18*
X132892122Y-119305000D03*
X132892122Y-128905000D03*
D10*
X125392122Y-121605000D03*
D11*
X125392122Y-124105000D03*
X125392122Y-126605000D03*
D18*
X93500000Y-41910000D03*
X93500000Y-51510000D03*
D10*
X86000000Y-44210000D03*
D11*
X86000000Y-46710000D03*
X86000000Y-49210000D03*
D13*
X113980725Y-90130000D03*
X104380725Y-90130000D03*
D10*
X111680725Y-82630000D03*
D11*
X109180725Y-82630000D03*
X106680725Y-82630000D03*
D12*
X66039335Y-77996275D03*
X66040060Y-73285000D03*
X66040120Y-68583334D03*
D13*
X113980725Y-124340000D03*
X104380725Y-124340000D03*
D10*
X111680725Y-116840000D03*
D11*
X109180725Y-116840000D03*
X106680725Y-116840000D03*
D14*
X88340337Y-59212823D03*
D15*
X88340337Y-61752823D03*
D13*
X82230000Y-124340000D03*
X72630000Y-124340000D03*
D10*
X79930000Y-116840000D03*
D11*
X77430000Y-116840000D03*
X74930000Y-116840000D03*
D10*
X88900000Y-88895000D03*
D11*
X88900000Y-91435000D03*
D17*
X127395000Y-89645000D03*
X129595000Y-89645000D03*
X137795000Y-89645000D03*
D13*
X82230000Y-73025000D03*
X72630000Y-73025000D03*
D10*
X79930000Y-65525000D03*
D11*
X77430000Y-65525000D03*
X74930000Y-65525000D03*
D19*
X81700000Y-62300000D03*
D10*
X120650000Y-106040000D03*
D11*
X120650000Y-108580000D03*
D12*
X66039335Y-129058735D03*
X66040060Y-124347460D03*
X66040120Y-119645794D03*
D14*
X128400000Y-42000000D03*
D15*
X125860000Y-42000000D03*
D12*
X97789275Y-112037915D03*
X97790000Y-107326640D03*
X97790060Y-102624974D03*
D13*
X113980725Y-73025000D03*
X104380725Y-73025000D03*
D10*
X111680725Y-65525000D03*
D11*
X109180725Y-65525000D03*
X106680725Y-65525000D03*
D20*
X64373293Y-43645857D03*
D14*
X68706480Y-39333953D03*
X74813376Y-39335544D03*
X79145517Y-43649240D03*
X79145662Y-49772801D03*
X74813062Y-54099460D03*
X68693053Y-54094640D03*
X64362050Y-49768310D03*
X71763395Y-49260613D03*
D12*
X66039335Y-95017095D03*
X66040060Y-90305820D03*
X66040120Y-85604154D03*
X97789275Y-77996275D03*
X97790000Y-73285000D03*
X97790060Y-68583334D03*
D17*
X127395000Y-111980000D03*
X129595000Y-111980000D03*
X137795000Y-111980000D03*
X127395000Y-100812500D03*
X129595000Y-100812500D03*
X137795000Y-100812500D03*
D13*
X82230000Y-107235000D03*
X72630000Y-107235000D03*
D10*
X79930000Y-99735000D03*
D11*
X77430000Y-99735000D03*
X74930000Y-99735000D03*
D16*
X136000000Y-60400000D03*
D15*
X133460000Y-60400000D03*
D16*
X121905000Y-36195000D03*
D15*
X119365000Y-36195000D03*
X116825000Y-36195000D03*
X114285000Y-36195000D03*
X111745000Y-36195000D03*
X109205000Y-36195000D03*
X106665000Y-36195000D03*
X104125000Y-36195000D03*
X104125000Y-43815000D03*
X106665000Y-43815000D03*
X109205000Y-43815000D03*
X111745000Y-43815000D03*
X114285000Y-43815000D03*
X116825000Y-43815000D03*
X119365000Y-43815000D03*
X121905000Y-43815000D03*
D21*
X80700000Y-38200000D03*
D16*
X116830000Y-52700000D03*
D15*
X114290000Y-52700000D03*
X111750000Y-52700000D03*
X109210000Y-52700000D03*
X106670000Y-52700000D03*
X104130000Y-52700000D03*
X101590000Y-52700000D03*
X101590000Y-60320000D03*
X104130000Y-60320000D03*
X106670000Y-60320000D03*
X109210000Y-60320000D03*
X111750000Y-60320000D03*
X114290000Y-60320000D03*
X116830000Y-60320000D03*
D14*
X122860000Y-60300000D03*
D15*
X125400000Y-60300000D03*
D12*
X97789275Y-129058735D03*
X97790000Y-124347460D03*
X97790060Y-119645794D03*
D10*
X120650000Y-71750000D03*
D11*
X120650000Y-74290000D03*
D17*
X127395000Y-78477500D03*
X129595000Y-78477500D03*
X137795000Y-78477500D03*
D10*
X88900000Y-106040000D03*
D11*
X88900000Y-108580000D03*
D10*
X120650000Y-88895000D03*
D11*
X120650000Y-91435000D03*
D16*
X80125686Y-120000000D03*
D15*
X77585686Y-120000000D03*
D16*
X111600000Y-102700000D03*
D15*
X109060000Y-102700000D03*
D14*
X85300000Y-89353333D03*
D15*
X85300000Y-91893333D03*
D14*
X117100000Y-123660000D03*
D15*
X117100000Y-126200000D03*
D22*
X103800000Y-57700000D03*
D14*
X119800000Y-118155000D03*
D15*
X119800000Y-120695000D03*
D14*
X130445000Y-81800000D03*
D15*
X127905000Y-81800000D03*
D23*
X117420000Y-130000000D03*
X119960000Y-130000000D03*
X122500000Y-130000000D03*
D14*
X88054135Y-83867497D03*
D15*
X88054135Y-86407497D03*
D14*
X117100000Y-89326666D03*
D15*
X117100000Y-91866666D03*
D16*
X111600000Y-68100000D03*
D15*
X109060000Y-68100000D03*
D16*
X128300000Y-58174314D03*
D15*
X128300000Y-60714314D03*
D14*
X130055000Y-70400000D03*
D15*
X132595000Y-70400000D03*
D16*
X95174315Y-105060000D03*
D15*
X97714315Y-105060000D03*
D14*
X106360000Y-55400000D03*
D15*
X108900000Y-55400000D03*
D14*
X114700000Y-48600000D03*
X109700000Y-48600000D03*
D24*
X116205725Y-66675000D03*
D25*
X116205725Y-67945000D03*
X116205725Y-69215000D03*
D24*
X84455000Y-83820000D03*
D25*
X84455000Y-85090000D03*
X84455000Y-86360000D03*
D16*
X122800000Y-67225686D03*
D15*
X122800000Y-64685686D03*
D14*
X117100000Y-106493332D03*
D15*
X117100000Y-109033332D03*
D14*
X88054135Y-66721246D03*
D15*
X88054135Y-69261246D03*
D14*
X85300000Y-106506666D03*
D15*
X85300000Y-109046666D03*
D16*
X63474315Y-104900000D03*
D15*
X66014315Y-104900000D03*
D14*
X104155000Y-62900000D03*
D15*
X106695000Y-62900000D03*
D16*
X137160000Y-36195000D03*
D14*
X134660000Y-36195000D03*
D16*
X95174315Y-88020000D03*
D15*
X97714315Y-88020000D03*
D24*
X116205725Y-100965000D03*
D25*
X116205725Y-102235000D03*
X116205725Y-103505000D03*
D14*
X88054135Y-118160000D03*
D15*
X88054135Y-120700000D03*
D14*
X119800000Y-66700000D03*
D15*
X119800000Y-69240000D03*
D24*
X116205725Y-83820000D03*
D25*
X116205725Y-85090000D03*
X116205725Y-86360000D03*
D16*
X95174315Y-70980000D03*
D15*
X97714315Y-70980000D03*
D16*
X80125686Y-86000000D03*
D15*
X77585686Y-86000000D03*
D14*
X85300000Y-123660000D03*
D15*
X85300000Y-126200000D03*
D14*
X119800000Y-101003332D03*
D15*
X119800000Y-103543332D03*
D16*
X131445000Y-36195000D03*
D14*
X128945000Y-36195000D03*
X126000000Y-55600000D03*
D15*
X128540000Y-55600000D03*
D24*
X84455000Y-100965000D03*
D25*
X84455000Y-102235000D03*
X84455000Y-103505000D03*
D16*
X80125686Y-103000000D03*
D15*
X77585686Y-103000000D03*
D14*
X111255000Y-131000000D03*
D15*
X113795000Y-131000000D03*
D26*
X127660000Y-104200000D03*
D27*
X128930000Y-104200000D03*
X130200000Y-104200000D03*
D14*
X137855839Y-64045436D03*
X132855839Y-64045436D03*
D16*
X63474315Y-122000000D03*
D15*
X66014315Y-122000000D03*
D16*
X71755000Y-43815000D03*
D15*
X71755000Y-46355000D03*
D16*
X63474315Y-70900000D03*
D15*
X66014315Y-70900000D03*
D16*
X63374315Y-88000000D03*
D15*
X65914315Y-88000000D03*
D14*
X128247045Y-86258390D03*
D15*
X130787045Y-86258390D03*
D16*
X135060000Y-75300000D03*
D15*
X137600000Y-75300000D03*
D14*
X117100000Y-72260000D03*
D15*
X117100000Y-74800000D03*
D24*
X116205725Y-118110000D03*
D25*
X116205725Y-119380000D03*
X116205725Y-120650000D03*
D16*
X95174315Y-122100000D03*
D15*
X97714315Y-122100000D03*
D14*
X130200000Y-97300000D03*
D15*
X127660000Y-97300000D03*
D16*
X80040000Y-68100000D03*
D15*
X77500000Y-68100000D03*
D14*
X120000000Y-62600000D03*
X120000000Y-57600000D03*
D16*
X125400000Y-66025686D03*
D15*
X125400000Y-63485686D03*
D14*
X135200000Y-103700000D03*
D15*
X137740000Y-103700000D03*
D16*
X111600000Y-85400000D03*
D15*
X109060000Y-85400000D03*
D14*
X101045000Y-64600000D03*
D15*
X98505000Y-64600000D03*
D24*
X84455000Y-66675000D03*
D25*
X84455000Y-67945000D03*
X84455000Y-69215000D03*
D14*
X124290000Y-75200000D03*
D15*
X131910000Y-75200000D03*
D14*
X121100000Y-40100000D03*
X116100000Y-40100000D03*
X119800000Y-83851666D03*
D15*
X119800000Y-86391666D03*
D14*
X120000000Y-50400000D03*
X120000000Y-55400000D03*
D16*
X111600000Y-120000000D03*
D15*
X109060000Y-120000000D03*
D24*
X84455000Y-118110000D03*
D25*
X84455000Y-119380000D03*
X84455000Y-120650000D03*
D28*
X133360000Y-55880000D03*
X135900000Y-55880000D03*
X133360000Y-53340000D03*
X135900000Y-53340000D03*
X133360000Y-50800000D03*
X135900000Y-50800000D03*
X133360000Y-48260000D03*
X135900000Y-48260000D03*
X133360000Y-45720000D03*
D29*
X135900000Y-45720000D03*
D14*
X135955000Y-97400000D03*
D15*
X138495000Y-97400000D03*
D14*
X88054135Y-101013748D03*
D15*
X88054135Y-103553748D03*
D14*
X85300000Y-72200000D03*
D15*
X85300000Y-74740000D03*
D30*
X123200000Y-56100000D03*
X122700000Y-102200000D03*
X93500000Y-64300000D03*
X107900000Y-80300000D03*
X78100000Y-78000000D03*
X72300000Y-95000000D03*
X71800000Y-112000000D03*
X69900000Y-129100000D03*
X104168807Y-77978193D03*
X103400000Y-95100000D03*
X103000000Y-112037915D03*
X102200000Y-128900000D03*
X83800000Y-45500000D03*
D31*
X82400000Y-116000000D02*
X82400000Y-119800000D01*
X76500000Y-113800000D02*
X76500000Y-110100000D01*
X109000000Y-114300000D02*
X109800000Y-115100000D01*
X82400000Y-102000000D02*
X82400000Y-98900000D01*
X128300000Y-46800000D02*
X129760000Y-48260000D01*
X82400000Y-119800000D02*
X83250000Y-120650000D01*
X123200000Y-56100000D02*
X125500000Y-56100000D01*
X108400000Y-86700000D02*
X115865725Y-86700000D01*
X106695000Y-62900000D02*
X106695000Y-65510725D01*
X77200000Y-87300000D02*
X83515000Y-87300000D01*
X128300000Y-46800000D02*
X125400000Y-49700000D01*
X127100000Y-40540000D02*
X131445000Y-36195000D01*
X104125000Y-36195000D02*
X109780000Y-41850000D01*
X77065000Y-97600000D02*
X74930000Y-99735000D01*
X114000000Y-101849275D02*
X114000000Y-104400000D01*
X77200000Y-114500000D02*
X76500000Y-113800000D01*
X112900000Y-97400000D02*
X114000000Y-98500000D01*
X127395000Y-110805000D02*
X127395000Y-111980000D01*
X107700000Y-87400000D02*
X107700000Y-96500000D01*
X80970000Y-114570000D02*
X82400000Y-116000000D01*
X115800000Y-69620725D02*
X115800000Y-82300725D01*
X127395000Y-89645000D02*
X131400000Y-93650000D01*
X131400000Y-93650000D02*
X131400000Y-97737500D01*
X128995000Y-99212500D02*
X127395000Y-100812500D01*
X125500000Y-56100000D02*
X126000000Y-55600000D01*
X76500000Y-110100000D02*
X82400000Y-104200000D01*
X115800000Y-82300725D02*
X115100000Y-83000725D01*
X83905000Y-103505000D02*
X82400000Y-102000000D01*
X127395000Y-97565000D02*
X127660000Y-97300000D01*
X128400000Y-44700000D02*
X128400000Y-46700000D01*
X127100000Y-43400000D02*
X127100000Y-40540000D01*
X106680725Y-65525000D02*
X106680725Y-82630000D01*
X131445000Y-36195000D02*
X134660000Y-36195000D01*
X114285000Y-48185000D02*
X114700000Y-48600000D01*
X81100000Y-97600000D02*
X77065000Y-97600000D01*
X107700000Y-96500000D02*
X108600000Y-97400000D01*
X81700000Y-62300000D02*
X81700000Y-67010000D01*
X83980000Y-121125000D02*
X84455000Y-120650000D01*
X114100000Y-119094275D02*
X115655725Y-120650000D01*
X74930000Y-116840000D02*
X77200000Y-114570000D01*
X76500000Y-88000000D02*
X76500000Y-97035000D01*
X83250000Y-120650000D02*
X84455000Y-120650000D01*
X75000000Y-65455000D02*
X74930000Y-65525000D01*
X114000000Y-101849275D02*
X115655725Y-103505000D01*
X128260000Y-70700000D02*
X128260000Y-68600000D01*
X127395000Y-78477500D02*
X127395000Y-71565000D01*
X115100000Y-83000725D02*
X115100000Y-85700000D01*
X115800000Y-126858233D02*
X115800000Y-121055725D01*
X131400000Y-103200000D02*
X132600000Y-104400000D01*
X109000000Y-109400000D02*
X109000000Y-114300000D01*
X82400000Y-98900000D02*
X81100000Y-97600000D01*
X129500000Y-87540000D02*
X127395000Y-89645000D01*
X115865725Y-86700000D02*
X116205725Y-86360000D01*
X116205725Y-69215000D02*
X115800000Y-69620725D01*
X130055000Y-70400000D02*
X128260000Y-68605000D01*
X115760000Y-86360000D02*
X116205725Y-86360000D01*
X129760000Y-48260000D02*
X133360000Y-48260000D01*
X128260000Y-68600000D02*
X128260000Y-68175000D01*
X106680725Y-99735000D02*
X106680725Y-99319275D01*
X77200000Y-114570000D02*
X80970000Y-114570000D01*
X114285000Y-41915000D02*
X114350000Y-41850000D01*
X106695000Y-65510725D02*
X106680725Y-65525000D01*
X106680725Y-99319275D02*
X108600000Y-97400000D01*
X128260000Y-68605000D02*
X128260000Y-68600000D01*
X131400000Y-97737500D02*
X129925000Y-99212500D01*
X119960000Y-130000000D02*
X118941767Y-130000000D01*
X109000000Y-114520725D02*
X109000000Y-114300000D01*
X115100000Y-85700000D02*
X115760000Y-86360000D01*
X105392967Y-61597967D02*
X106695000Y-62900000D01*
X114350000Y-41850000D02*
X116100000Y-40100000D01*
X74930000Y-82630000D02*
X74930000Y-85530000D01*
X132600000Y-104400000D02*
X132600000Y-105600000D01*
X114100000Y-116100000D02*
X114100000Y-119094275D01*
X106680725Y-84980725D02*
X108400000Y-86700000D01*
X108400000Y-86700000D02*
X107700000Y-87400000D01*
X128400000Y-44700000D02*
X127100000Y-43400000D01*
X135200000Y-103700000D02*
X133300000Y-103700000D01*
X83515000Y-87300000D02*
X84455000Y-86360000D01*
X109800000Y-115100000D02*
X113100000Y-115100000D01*
X84455000Y-103505000D02*
X83905000Y-103505000D01*
X74930000Y-65525000D02*
X74930000Y-82630000D01*
X132600000Y-105600000D02*
X127395000Y-110805000D01*
X83905000Y-69215000D02*
X84455000Y-69215000D01*
X115655725Y-120650000D02*
X116205725Y-120650000D01*
X127905000Y-78987500D02*
X127395000Y-78477500D01*
X76700000Y-87300000D02*
X77200000Y-87300000D01*
X114000000Y-98500000D02*
X114000000Y-101849275D01*
X131400000Y-97600000D02*
X131400000Y-103200000D01*
X127905000Y-81800000D02*
X127905000Y-78987500D01*
X81700000Y-67010000D02*
X83905000Y-69215000D01*
X109780000Y-41850000D02*
X114350000Y-41850000D01*
X129500000Y-83395000D02*
X129500000Y-87540000D01*
X128260000Y-68175000D02*
X127395000Y-67310000D01*
X114000000Y-104400000D02*
X109000000Y-109400000D01*
X106680725Y-82630000D02*
X106680725Y-84980725D01*
X108600000Y-97400000D02*
X112900000Y-97400000D01*
X127395000Y-100812500D02*
X127395000Y-97565000D01*
X129925000Y-99212500D02*
X128995000Y-99212500D01*
X77200000Y-114570000D02*
X77200000Y-114500000D01*
X76500000Y-97035000D02*
X77065000Y-97600000D01*
X127395000Y-71565000D02*
X128260000Y-70700000D01*
X82400000Y-104200000D02*
X82400000Y-102000000D01*
X114285000Y-43815000D02*
X114285000Y-48185000D01*
X113100000Y-115100000D02*
X114100000Y-116100000D01*
X118941767Y-130000000D02*
X115800000Y-126858233D01*
X74930000Y-85530000D02*
X76700000Y-87300000D01*
X115800000Y-121055725D02*
X116205725Y-120650000D01*
X77200000Y-87300000D02*
X76500000Y-88000000D01*
X127905000Y-81800000D02*
X129500000Y-83395000D01*
X98400000Y-61597967D02*
X105392967Y-61597967D01*
X114285000Y-43815000D02*
X114285000Y-41915000D01*
X128400000Y-46700000D02*
X128300000Y-46800000D01*
X133300000Y-103700000D02*
X132600000Y-104400000D01*
X106680725Y-116840000D02*
X109000000Y-114520725D01*
X115655725Y-103505000D02*
X116205725Y-103505000D01*
X121600000Y-61000000D02*
X121600000Y-56405000D01*
X121600000Y-56405000D02*
X125605000Y-52400000D01*
X125700000Y-52400000D02*
X125605000Y-52400000D01*
X120000000Y-62600000D02*
X121600000Y-61000000D01*
D32*
X133148629Y-42000000D02*
X128400000Y-42000000D01*
D31*
X85300000Y-89353333D02*
X86099999Y-90153332D01*
X100825000Y-50775000D02*
X107285000Y-50775000D01*
X85300000Y-73113654D02*
X85300000Y-72200000D01*
X95200000Y-56400000D02*
X100825000Y-50775000D01*
X90110000Y-124475000D02*
X86115000Y-124475000D01*
X118700000Y-73760000D02*
X117100000Y-72160000D01*
X122700000Y-89200000D02*
X122700000Y-83900000D01*
X90700000Y-89200000D02*
X90700000Y-78513654D01*
X95247034Y-59060000D02*
X95200000Y-59012966D01*
X125860000Y-37653654D02*
X129313654Y-34200000D01*
X121890000Y-107300000D02*
X117906668Y-107300000D01*
X90700000Y-106740000D02*
X90110000Y-107330000D01*
X93500000Y-60807034D02*
X95247034Y-59060000D01*
X86115000Y-124475000D02*
X85300000Y-123660000D01*
X122700000Y-106490000D02*
X122700000Y-123635000D01*
X90700000Y-78513654D02*
X85300000Y-73113654D01*
X107285000Y-50775000D02*
X109210000Y-52700000D01*
X118700000Y-79900000D02*
X118700000Y-73760000D01*
X122700000Y-89200000D02*
X122700000Y-106490000D01*
X118835000Y-42665000D02*
X118000000Y-43500000D01*
X95200000Y-59012966D02*
X95200000Y-56400000D01*
X122700000Y-83900000D02*
X118700000Y-79900000D01*
X122700000Y-123635000D02*
X121900000Y-124435000D01*
X129313654Y-34200000D02*
X135165000Y-34200000D01*
X89996668Y-90153332D02*
X90700000Y-89450000D01*
X122700000Y-106490000D02*
X121890000Y-107300000D01*
X122700000Y-89345000D02*
X122700000Y-89200000D01*
X90700000Y-89200000D02*
X90700000Y-106740000D01*
X90110000Y-107330000D02*
X86123334Y-107330000D01*
X121905000Y-43815000D02*
X121905000Y-40905000D01*
X86099999Y-90153332D02*
X89996668Y-90153332D01*
X121860000Y-90185000D02*
X122700000Y-89345000D01*
X118000000Y-43500000D02*
X118000000Y-48400000D01*
X135165000Y-34200000D02*
X137160000Y-36195000D01*
X93500000Y-64300000D02*
X93500000Y-60807034D01*
X117906668Y-107300000D02*
X117100000Y-106493332D01*
X118000000Y-48400000D02*
X120000000Y-50400000D01*
X121900000Y-124435000D02*
X117875000Y-124435000D01*
X90700000Y-106740000D02*
X90700000Y-123885000D01*
X121905000Y-40905000D02*
X121100000Y-40100000D01*
X125860000Y-42000000D02*
X125860000Y-37653654D01*
X90700000Y-123885000D02*
X90110000Y-124475000D01*
X121905000Y-43815000D02*
X120755000Y-42665000D01*
X117875000Y-124435000D02*
X117100000Y-123660000D01*
X118731668Y-90185000D02*
X121860000Y-90185000D01*
X120755000Y-42665000D02*
X118835000Y-42665000D01*
X117873334Y-89326666D02*
X118731668Y-90185000D01*
X86123334Y-107330000D02*
X85300000Y-106506666D01*
X117100000Y-89326666D02*
X117873334Y-89326666D01*
D32*
X86929135Y-69779135D02*
X88900000Y-71750000D01*
X84455000Y-66675000D02*
X84612082Y-66675000D01*
X86929135Y-68992053D02*
X86929135Y-69779135D01*
X84612082Y-66675000D02*
X86929135Y-68992053D01*
X84680000Y-83820000D02*
X86900000Y-86040000D01*
X86900000Y-86895000D02*
X88900000Y-88895000D01*
X84455000Y-83820000D02*
X84680000Y-83820000D01*
X86900000Y-86040000D02*
X86900000Y-86895000D01*
X86400000Y-102752918D02*
X86400000Y-103600000D01*
X84612082Y-100965000D02*
X86400000Y-102752918D01*
X86460000Y-103600000D02*
X88900000Y-106040000D01*
X84455000Y-100965000D02*
X84612082Y-100965000D01*
X86400000Y-103600000D02*
X86460000Y-103600000D01*
X86929135Y-120359135D02*
X86929135Y-121214135D01*
X84680000Y-118110000D02*
X86929135Y-120359135D01*
X84455000Y-118110000D02*
X84680000Y-118110000D01*
X86929135Y-121214135D02*
X88900000Y-123185000D01*
X116205725Y-66675000D02*
X116362807Y-66675000D01*
X118675000Y-69775000D02*
X120650000Y-71750000D01*
X116362807Y-66675000D02*
X118675000Y-68987193D01*
X118675000Y-68987193D02*
X118675000Y-69775000D01*
X116362807Y-83820000D02*
X118200000Y-85657193D01*
X118200000Y-86445000D02*
X120650000Y-88895000D01*
X116205725Y-83820000D02*
X116362807Y-83820000D01*
X118200000Y-85657193D02*
X118200000Y-86445000D01*
X116205725Y-100965000D02*
X116430725Y-100965000D01*
X118000000Y-102534275D02*
X118000000Y-103390000D01*
X118000000Y-103390000D02*
X120650000Y-106040000D01*
X116430725Y-100965000D02*
X118000000Y-102534275D01*
X118000000Y-119679275D02*
X118000000Y-120535000D01*
X116430725Y-118110000D02*
X118000000Y-119679275D01*
X116205725Y-118110000D02*
X116430725Y-118110000D01*
X118000000Y-120535000D02*
X120650000Y-123185000D01*
X113800000Y-52700000D02*
X114290000Y-52700000D01*
X109700000Y-48600000D02*
X113800000Y-52700000D01*
X107935000Y-57615000D02*
X107935000Y-80265000D01*
X106670000Y-52700000D02*
X107485000Y-53515000D01*
X130445000Y-79915000D02*
X135060000Y-75300000D01*
X130445000Y-81800000D02*
X130445000Y-79915000D01*
X107935000Y-80265000D02*
X107900000Y-80300000D01*
X107485000Y-57165000D02*
X107935000Y-57615000D01*
X107485000Y-53515000D02*
X107485000Y-57165000D01*
X137795000Y-64106275D02*
X137855839Y-64045436D01*
X137795000Y-67310000D02*
X137795000Y-64106275D01*
X97790000Y-124347460D02*
X97790000Y-122175685D01*
X97790000Y-122175685D02*
X97714315Y-122100000D01*
X97790000Y-107326640D02*
X97790000Y-105135685D01*
X97790000Y-105135685D02*
X97714315Y-105060000D01*
X97714315Y-88020000D02*
X97714315Y-90230135D01*
X97714315Y-90230135D02*
X97790000Y-90305820D01*
X97714315Y-70980000D02*
X97714315Y-73209315D01*
X97714315Y-73209315D02*
X97790000Y-73285000D01*
X66040060Y-124347460D02*
X66040060Y-122025745D01*
X66040060Y-122025745D02*
X66014315Y-122000000D01*
X80040000Y-80290000D02*
X81155000Y-81405000D01*
X81155000Y-84085000D02*
X80040000Y-85200000D01*
X111600000Y-80099275D02*
X112905725Y-81405000D01*
X80040000Y-68100000D02*
X80040000Y-80290000D01*
X111255000Y-131000000D02*
X111255000Y-120345000D01*
X112905725Y-84094275D02*
X111600000Y-85400000D01*
X111600000Y-68100000D02*
X111600000Y-80099275D01*
X111255000Y-120345000D02*
X111600000Y-120000000D01*
X112905725Y-81405000D02*
X112905725Y-84094275D01*
X81155000Y-81405000D02*
X81155000Y-84085000D01*
X77500000Y-65595000D02*
X77430000Y-65525000D01*
X77500000Y-68100000D02*
X77500000Y-65595000D01*
X77585686Y-82785686D02*
X77430000Y-82630000D01*
X77585686Y-86000000D02*
X77585686Y-82785686D01*
X77430000Y-102844314D02*
X77585686Y-103000000D01*
X77430000Y-99735000D02*
X77430000Y-102844314D01*
X77430000Y-119844314D02*
X77585686Y-120000000D01*
X77430000Y-116840000D02*
X77430000Y-119844314D01*
X109060000Y-68100000D02*
X109060000Y-65645725D01*
X109060000Y-65645725D02*
X109180725Y-65525000D01*
X109180725Y-82630000D02*
X109180725Y-85279275D01*
X109180725Y-85279275D02*
X109060000Y-85400000D01*
X109054314Y-82756411D02*
X109180725Y-82630000D01*
X109060000Y-99855725D02*
X109180725Y-99735000D01*
X109054314Y-99861411D02*
X109180725Y-99735000D01*
X109060000Y-102700000D02*
X109060000Y-99855725D01*
X109180725Y-116840000D02*
X109180725Y-119879275D01*
X109054314Y-116966411D02*
X109180725Y-116840000D01*
X109180725Y-119879275D02*
X109060000Y-120000000D01*
X66014315Y-107300895D02*
X66040060Y-107326640D01*
X66014315Y-104900000D02*
X66014315Y-107300895D01*
X65914315Y-88000000D02*
X65914315Y-90180075D01*
X65914315Y-90180075D02*
X66040060Y-90305820D01*
X132595000Y-64306275D02*
X132855839Y-64045436D01*
X132595000Y-70400000D02*
X132595000Y-64306275D01*
X66014315Y-73259255D02*
X66040060Y-73285000D01*
X66014315Y-70900000D02*
X66014315Y-73259255D01*
X126320000Y-84331345D02*
X128247045Y-86258390D01*
X125400000Y-66025686D02*
X125400000Y-67600000D01*
X125400000Y-67600000D02*
X126320000Y-68520000D01*
X126320000Y-68520000D02*
X126320000Y-84331345D01*
X101045000Y-64600000D02*
X102455000Y-64600000D01*
X104100000Y-57800000D02*
X106620000Y-60320000D01*
X102455000Y-64600000D02*
X104155000Y-62900000D01*
X106620000Y-60320000D02*
X106670000Y-60320000D01*
X101100000Y-64655000D02*
X101045000Y-64600000D01*
X125870000Y-92970000D02*
X125870000Y-101307780D01*
X128930000Y-103630000D02*
X128930000Y-104200000D01*
X125870000Y-70110000D02*
X125870000Y-92970000D01*
X128400000Y-103100000D02*
X128930000Y-103630000D01*
X125870000Y-92970000D02*
X130200000Y-97300000D01*
X125870000Y-101307780D02*
X127662220Y-103100000D01*
X122800000Y-67040000D02*
X125870000Y-70110000D01*
X127662220Y-103100000D02*
X128400000Y-103100000D01*
X135962211Y-101112324D02*
X135962211Y-101922211D01*
X135955000Y-101105113D02*
X135962211Y-101112324D01*
X135962211Y-101922211D02*
X137740000Y-103700000D01*
X135955000Y-97400000D02*
X135955000Y-101105113D01*
X78915000Y-66540000D02*
X78915000Y-77285000D01*
X79930000Y-64375000D02*
X79930000Y-65525000D01*
X78100000Y-78100000D02*
X78200000Y-78000000D01*
X70300000Y-59200000D02*
X74755000Y-59200000D01*
X74755000Y-59200000D02*
X79930000Y-64375000D01*
X64373293Y-43645857D02*
X63100000Y-44919150D01*
X78200000Y-78000000D02*
X78100000Y-78000000D01*
X63100000Y-44919150D02*
X63100000Y-52000000D01*
X78100000Y-78000000D02*
X78100000Y-78100000D01*
X78915000Y-77285000D02*
X78200000Y-78000000D01*
X79930000Y-65525000D02*
X78915000Y-66540000D01*
X63100000Y-52000000D02*
X70300000Y-59200000D01*
X70800000Y-65300000D02*
X62650000Y-57150000D01*
X70800000Y-93500000D02*
X70800000Y-65300000D01*
X66738839Y-39333953D02*
X68706480Y-39333953D01*
X62650000Y-43422792D02*
X66738839Y-39333953D01*
X62650000Y-57150000D02*
X62650000Y-43422792D01*
X72300000Y-95000000D02*
X70800000Y-93500000D01*
X62200000Y-43236396D02*
X67227443Y-38208953D01*
X81700000Y-101505000D02*
X79930000Y-99735000D01*
X70350000Y-65486396D02*
X62200000Y-57336396D01*
X71800000Y-112000000D02*
X73700000Y-112000000D01*
X70350000Y-110550000D02*
X70350000Y-65486396D01*
X73686785Y-38208953D02*
X74813376Y-39335544D01*
X73700000Y-112000000D02*
X81700000Y-104000000D01*
X62200000Y-57336396D02*
X62200000Y-43236396D01*
X67227443Y-38208953D02*
X73686785Y-38208953D01*
X81700000Y-104000000D02*
X81700000Y-101505000D01*
X71800000Y-112000000D02*
X70350000Y-110550000D01*
X67041047Y-37758953D02*
X61750000Y-43050000D01*
X69800000Y-129100000D02*
X69800000Y-129100000D01*
X69900000Y-65700000D02*
X69900000Y-129100000D01*
X61750000Y-57550000D02*
X69900000Y-65700000D01*
X106665000Y-43815000D02*
X102950000Y-40100000D01*
X102950000Y-40100000D02*
X89740000Y-40100000D01*
X61750000Y-43050000D02*
X61750000Y-57550000D01*
X69900000Y-129100000D02*
X69800000Y-129100000D01*
X74827776Y-37758953D02*
X67041047Y-37758953D01*
X79145517Y-42076694D02*
X74827776Y-37758953D01*
X79145517Y-43649240D02*
X79145517Y-42076694D01*
X79994757Y-42800000D02*
X79145517Y-43649240D01*
X89740000Y-40100000D02*
X87040000Y-42800000D01*
X87040000Y-42800000D02*
X79994757Y-42800000D01*
X69900000Y-129000000D02*
X69900000Y-129000000D01*
X87874346Y-62877823D02*
X87877823Y-62877823D01*
X86400000Y-61403477D02*
X87874346Y-62877823D01*
X79145662Y-49772801D02*
X79145662Y-52245662D01*
X79145662Y-52245662D02*
X86400000Y-59500000D01*
X90725000Y-65725000D02*
X101125000Y-65725000D01*
X86400000Y-59500000D02*
X86400000Y-61403477D01*
X101125000Y-65725000D02*
X102695725Y-67295725D01*
X87877823Y-62877823D02*
X90725000Y-65725000D01*
X102695725Y-76495725D02*
X104200000Y-78000000D01*
X102695725Y-67295725D02*
X102695725Y-76495725D01*
X85950000Y-61589873D02*
X87687950Y-63327823D01*
X102245725Y-93845725D02*
X103400000Y-95000000D01*
X102245725Y-67482121D02*
X102245725Y-93845725D01*
X85950000Y-59686396D02*
X85950000Y-61589873D01*
X87687950Y-63327823D02*
X87691427Y-63327823D01*
X103400000Y-95000000D02*
X103400000Y-95100000D01*
X80363064Y-54099460D02*
X85950000Y-59686396D01*
X90563604Y-66200000D02*
X100963604Y-66200000D01*
X74813062Y-54099460D02*
X80363064Y-54099460D01*
X87691427Y-63327823D02*
X90563604Y-66200000D01*
X100963604Y-66200000D02*
X102245725Y-67482121D01*
X103500000Y-95100000D02*
X103400000Y-95000000D01*
X103400000Y-95100000D02*
X103500000Y-95100000D01*
X101795725Y-110833640D02*
X101795725Y-67668517D01*
X101795725Y-67668517D02*
X100777208Y-66650000D01*
X113300000Y-104200000D02*
X105462085Y-112037915D01*
X100777208Y-66650000D02*
X90377208Y-66650000D01*
X105462085Y-112037915D02*
X103000000Y-112037915D01*
X80851668Y-55224460D02*
X69822873Y-55224460D01*
X111680725Y-99735000D02*
X113300000Y-101354275D01*
X85500000Y-61776269D02*
X85500000Y-59872792D01*
X87505031Y-63777823D02*
X87501554Y-63777823D01*
X103000000Y-112037915D02*
X101795725Y-110833640D01*
X87501554Y-63777823D02*
X85500000Y-61776269D01*
X69822873Y-55224460D02*
X68693053Y-54094640D01*
X90377208Y-66650000D02*
X87505031Y-63777823D01*
X113300000Y-101354275D02*
X113300000Y-104200000D01*
X85500000Y-59872792D02*
X80851668Y-55224460D01*
X65093740Y-50500000D02*
X64362050Y-49768310D01*
X87315158Y-64227823D02*
X87318635Y-64227823D01*
X64362050Y-51354628D02*
X68681882Y-55674460D01*
X68681882Y-55674460D02*
X80665272Y-55674460D01*
X85050000Y-60059188D02*
X85050000Y-61962665D01*
X101300000Y-128000000D02*
X102200000Y-128900000D01*
X80665272Y-55674460D02*
X85050000Y-60059188D01*
X74629999Y-47985000D02*
X72114999Y-50500000D01*
X99955000Y-47985000D02*
X74629999Y-47985000D01*
X104125000Y-43815000D02*
X99955000Y-47985000D01*
X72114999Y-50500000D02*
X65093740Y-50500000D01*
X87318635Y-64227823D02*
X90190812Y-67100000D01*
X101300000Y-67809188D02*
X101300000Y-128000000D01*
X64362050Y-49768310D02*
X64362050Y-51354628D01*
X85050000Y-61962665D02*
X87315158Y-64227823D01*
X100590812Y-67100000D02*
X101300000Y-67809188D01*
X90190812Y-67100000D02*
X100590812Y-67100000D01*
X93000000Y-56109009D02*
X93000000Y-60240000D01*
X111750000Y-52700000D02*
X109350000Y-50300000D01*
X93000000Y-60240000D02*
X91500000Y-61740000D01*
X109350000Y-50300000D02*
X98809009Y-50300000D01*
X98809009Y-50300000D02*
X93000000Y-56109009D01*
X98205000Y-64900000D02*
X98505000Y-64600000D01*
X63374315Y-88000000D02*
X63374315Y-104800000D01*
X63474315Y-104900000D02*
X63474315Y-122000000D01*
X63474315Y-87900000D02*
X63374315Y-88000000D01*
X95174315Y-88020000D02*
X95174315Y-105060000D01*
X63374315Y-104800000D02*
X63474315Y-104900000D01*
X95174315Y-105060000D02*
X95174315Y-122100000D01*
X95174315Y-88020000D02*
X95174315Y-70980000D01*
X63474315Y-70900000D02*
X63474315Y-87900000D01*
X124934009Y-50825000D02*
X119365000Y-45255991D01*
X119365000Y-45255991D02*
X119365000Y-43815000D01*
X127020000Y-52145000D02*
X125700000Y-50825000D01*
X76200000Y-45500000D02*
X74515000Y-43815000D01*
X128540000Y-55600000D02*
X127020000Y-54080000D01*
X127020000Y-54080000D02*
X127020000Y-52145000D01*
X83800000Y-45500000D02*
X76200000Y-45500000D01*
X74515000Y-43815000D02*
X71755000Y-43815000D01*
X125700000Y-50825000D02*
X124934009Y-50825000D01*
X124290000Y-70780000D02*
X121600000Y-68090000D01*
X121600000Y-68090000D02*
X121600000Y-65800000D01*
X118225000Y-54095000D02*
X116830000Y-52700000D01*
X124290000Y-75200000D02*
X124290000Y-70780000D01*
X118225000Y-62425000D02*
X118225000Y-54095000D01*
X121600000Y-65800000D02*
X118225000Y-62425000D01*
X102867967Y-59057967D02*
X104130000Y-60320000D01*
X98400000Y-59057967D02*
X102867967Y-59057967D01*
X71763395Y-46363395D02*
X71755000Y-46355000D01*
X71763395Y-49260613D02*
X71763395Y-46363395D01*
X123000000Y-70400000D02*
X121100000Y-68500000D01*
X121100000Y-68500000D02*
X121100000Y-66400000D01*
X116700000Y-62000000D02*
X113430000Y-62000000D01*
X113430000Y-62000000D02*
X111750000Y-60320000D01*
X125392122Y-79292122D02*
X123000000Y-76900000D01*
X121100000Y-66400000D02*
X116700000Y-62000000D01*
X123000000Y-76900000D02*
X123000000Y-70400000D01*
X125392122Y-121605000D02*
X125392122Y-79292122D01*
X137795000Y-78477500D02*
X137795000Y-75495000D01*
X137795000Y-75495000D02*
X137600000Y-75300000D01*
X129595000Y-77515000D02*
X129595000Y-78477500D01*
X131910000Y-75200000D02*
X129595000Y-77515000D01*
X130787045Y-86258390D02*
X134408390Y-86258390D01*
X134408390Y-86258390D02*
X137795000Y-89645000D01*
X137644314Y-61839314D02*
X139700000Y-63895000D01*
X139700000Y-110075000D02*
X137795000Y-111980000D01*
X139700000Y-63895000D02*
X139700000Y-110075000D01*
X125400000Y-60300000D02*
X126939314Y-61839314D01*
X126939314Y-61839314D02*
X137644314Y-61839314D01*
X137795000Y-100812500D02*
X137795000Y-98100000D01*
X137795000Y-98100000D02*
X138495000Y-97400000D01*
M02*
