G04 #@! TF.GenerationSoftware,KiCad,Pcbnew,7.0.10*
G04 #@! TF.CreationDate,2024-08-23T20:50:03+10:00*
G04 #@! TF.ProjectId,MK_Seq take 2,4d4b5f53-6571-4207-9461-6b6520322e6b,rev?*
G04 #@! TF.SameCoordinates,Original*
G04 #@! TF.FileFunction,AssemblyDrawing,Top*
%FSLAX46Y46*%
G04 Gerber Fmt 4.6, Leading zero omitted, Abs format (unit mm)*
G04 Created by KiCad (PCBNEW 7.0.10) date 2024-08-23 20:50:03*
%MOMM*%
%LPD*%
G01*
G04 APERTURE LIST*
%ADD10C,0.100000*%
%ADD11C,0.150000*%
%ADD12C,0.300000*%
%ADD13C,0.400000*%
%ADD14C,0.010000*%
%ADD15C,0.025000*%
%ADD16C,0.120000*%
G04 #@! TA.AperFunction,Profile*
%ADD17C,0.100000*%
G04 #@! TD*
G04 APERTURE END LIST*
D10*
D11*
X177002200Y-166007200D02*
X285002200Y-166007200D01*
X285002200Y-198007200D01*
X177002200Y-198007200D01*
X177002200Y-166007200D01*
D10*
D11*
X10000000Y-10000000D02*
X287002200Y-10000000D01*
X287002200Y-200007200D01*
X10000000Y-200007200D01*
X10000000Y-10000000D01*
D10*
D11*
X12000000Y-12000000D02*
X285002200Y-12000000D01*
X285002200Y-198007200D01*
X12000000Y-198007200D01*
X12000000Y-12000000D01*
D10*
D11*
X60000000Y-12000000D02*
X60000000Y-10000000D01*
D10*
D11*
X110000000Y-12000000D02*
X110000000Y-10000000D01*
D10*
D11*
X160000000Y-12000000D02*
X160000000Y-10000000D01*
D10*
D11*
X210000000Y-12000000D02*
X210000000Y-10000000D01*
D10*
D11*
X260000000Y-12000000D02*
X260000000Y-10000000D01*
D10*
D11*
X36089160Y-11593604D02*
X35346303Y-11593604D01*
X35717731Y-11593604D02*
X35717731Y-10293604D01*
X35717731Y-10293604D02*
X35593922Y-10479319D01*
X35593922Y-10479319D02*
X35470112Y-10603128D01*
X35470112Y-10603128D02*
X35346303Y-10665033D01*
D10*
D11*
X85346303Y-10417414D02*
X85408207Y-10355509D01*
X85408207Y-10355509D02*
X85532017Y-10293604D01*
X85532017Y-10293604D02*
X85841541Y-10293604D01*
X85841541Y-10293604D02*
X85965350Y-10355509D01*
X85965350Y-10355509D02*
X86027255Y-10417414D01*
X86027255Y-10417414D02*
X86089160Y-10541223D01*
X86089160Y-10541223D02*
X86089160Y-10665033D01*
X86089160Y-10665033D02*
X86027255Y-10850747D01*
X86027255Y-10850747D02*
X85284398Y-11593604D01*
X85284398Y-11593604D02*
X86089160Y-11593604D01*
D10*
D11*
X135284398Y-10293604D02*
X136089160Y-10293604D01*
X136089160Y-10293604D02*
X135655826Y-10788842D01*
X135655826Y-10788842D02*
X135841541Y-10788842D01*
X135841541Y-10788842D02*
X135965350Y-10850747D01*
X135965350Y-10850747D02*
X136027255Y-10912652D01*
X136027255Y-10912652D02*
X136089160Y-11036461D01*
X136089160Y-11036461D02*
X136089160Y-11345985D01*
X136089160Y-11345985D02*
X136027255Y-11469795D01*
X136027255Y-11469795D02*
X135965350Y-11531700D01*
X135965350Y-11531700D02*
X135841541Y-11593604D01*
X135841541Y-11593604D02*
X135470112Y-11593604D01*
X135470112Y-11593604D02*
X135346303Y-11531700D01*
X135346303Y-11531700D02*
X135284398Y-11469795D01*
D10*
D11*
X185965350Y-10726938D02*
X185965350Y-11593604D01*
X185655826Y-10231700D02*
X185346303Y-11160271D01*
X185346303Y-11160271D02*
X186151064Y-11160271D01*
D10*
D11*
X236027255Y-10293604D02*
X235408207Y-10293604D01*
X235408207Y-10293604D02*
X235346303Y-10912652D01*
X235346303Y-10912652D02*
X235408207Y-10850747D01*
X235408207Y-10850747D02*
X235532017Y-10788842D01*
X235532017Y-10788842D02*
X235841541Y-10788842D01*
X235841541Y-10788842D02*
X235965350Y-10850747D01*
X235965350Y-10850747D02*
X236027255Y-10912652D01*
X236027255Y-10912652D02*
X236089160Y-11036461D01*
X236089160Y-11036461D02*
X236089160Y-11345985D01*
X236089160Y-11345985D02*
X236027255Y-11469795D01*
X236027255Y-11469795D02*
X235965350Y-11531700D01*
X235965350Y-11531700D02*
X235841541Y-11593604D01*
X235841541Y-11593604D02*
X235532017Y-11593604D01*
X235532017Y-11593604D02*
X235408207Y-11531700D01*
X235408207Y-11531700D02*
X235346303Y-11469795D01*
D10*
D11*
X285965350Y-10293604D02*
X285717731Y-10293604D01*
X285717731Y-10293604D02*
X285593922Y-10355509D01*
X285593922Y-10355509D02*
X285532017Y-10417414D01*
X285532017Y-10417414D02*
X285408207Y-10603128D01*
X285408207Y-10603128D02*
X285346303Y-10850747D01*
X285346303Y-10850747D02*
X285346303Y-11345985D01*
X285346303Y-11345985D02*
X285408207Y-11469795D01*
X285408207Y-11469795D02*
X285470112Y-11531700D01*
X285470112Y-11531700D02*
X285593922Y-11593604D01*
X285593922Y-11593604D02*
X285841541Y-11593604D01*
X285841541Y-11593604D02*
X285965350Y-11531700D01*
X285965350Y-11531700D02*
X286027255Y-11469795D01*
X286027255Y-11469795D02*
X286089160Y-11345985D01*
X286089160Y-11345985D02*
X286089160Y-11036461D01*
X286089160Y-11036461D02*
X286027255Y-10912652D01*
X286027255Y-10912652D02*
X285965350Y-10850747D01*
X285965350Y-10850747D02*
X285841541Y-10788842D01*
X285841541Y-10788842D02*
X285593922Y-10788842D01*
X285593922Y-10788842D02*
X285470112Y-10850747D01*
X285470112Y-10850747D02*
X285408207Y-10912652D01*
X285408207Y-10912652D02*
X285346303Y-11036461D01*
D10*
D11*
X60000000Y-198007200D02*
X60000000Y-200007200D01*
D10*
D11*
X110000000Y-198007200D02*
X110000000Y-200007200D01*
D10*
D11*
X160000000Y-198007200D02*
X160000000Y-200007200D01*
D10*
D11*
X210000000Y-198007200D02*
X210000000Y-200007200D01*
D10*
D11*
X260000000Y-198007200D02*
X260000000Y-200007200D01*
D10*
D11*
X36089160Y-199600804D02*
X35346303Y-199600804D01*
X35717731Y-199600804D02*
X35717731Y-198300804D01*
X35717731Y-198300804D02*
X35593922Y-198486519D01*
X35593922Y-198486519D02*
X35470112Y-198610328D01*
X35470112Y-198610328D02*
X35346303Y-198672233D01*
D10*
D11*
X85346303Y-198424614D02*
X85408207Y-198362709D01*
X85408207Y-198362709D02*
X85532017Y-198300804D01*
X85532017Y-198300804D02*
X85841541Y-198300804D01*
X85841541Y-198300804D02*
X85965350Y-198362709D01*
X85965350Y-198362709D02*
X86027255Y-198424614D01*
X86027255Y-198424614D02*
X86089160Y-198548423D01*
X86089160Y-198548423D02*
X86089160Y-198672233D01*
X86089160Y-198672233D02*
X86027255Y-198857947D01*
X86027255Y-198857947D02*
X85284398Y-199600804D01*
X85284398Y-199600804D02*
X86089160Y-199600804D01*
D10*
D11*
X135284398Y-198300804D02*
X136089160Y-198300804D01*
X136089160Y-198300804D02*
X135655826Y-198796042D01*
X135655826Y-198796042D02*
X135841541Y-198796042D01*
X135841541Y-198796042D02*
X135965350Y-198857947D01*
X135965350Y-198857947D02*
X136027255Y-198919852D01*
X136027255Y-198919852D02*
X136089160Y-199043661D01*
X136089160Y-199043661D02*
X136089160Y-199353185D01*
X136089160Y-199353185D02*
X136027255Y-199476995D01*
X136027255Y-199476995D02*
X135965350Y-199538900D01*
X135965350Y-199538900D02*
X135841541Y-199600804D01*
X135841541Y-199600804D02*
X135470112Y-199600804D01*
X135470112Y-199600804D02*
X135346303Y-199538900D01*
X135346303Y-199538900D02*
X135284398Y-199476995D01*
D10*
D11*
X185965350Y-198734138D02*
X185965350Y-199600804D01*
X185655826Y-198238900D02*
X185346303Y-199167471D01*
X185346303Y-199167471D02*
X186151064Y-199167471D01*
D10*
D11*
X236027255Y-198300804D02*
X235408207Y-198300804D01*
X235408207Y-198300804D02*
X235346303Y-198919852D01*
X235346303Y-198919852D02*
X235408207Y-198857947D01*
X235408207Y-198857947D02*
X235532017Y-198796042D01*
X235532017Y-198796042D02*
X235841541Y-198796042D01*
X235841541Y-198796042D02*
X235965350Y-198857947D01*
X235965350Y-198857947D02*
X236027255Y-198919852D01*
X236027255Y-198919852D02*
X236089160Y-199043661D01*
X236089160Y-199043661D02*
X236089160Y-199353185D01*
X236089160Y-199353185D02*
X236027255Y-199476995D01*
X236027255Y-199476995D02*
X235965350Y-199538900D01*
X235965350Y-199538900D02*
X235841541Y-199600804D01*
X235841541Y-199600804D02*
X235532017Y-199600804D01*
X235532017Y-199600804D02*
X235408207Y-199538900D01*
X235408207Y-199538900D02*
X235346303Y-199476995D01*
D10*
D11*
X285965350Y-198300804D02*
X285717731Y-198300804D01*
X285717731Y-198300804D02*
X285593922Y-198362709D01*
X285593922Y-198362709D02*
X285532017Y-198424614D01*
X285532017Y-198424614D02*
X285408207Y-198610328D01*
X285408207Y-198610328D02*
X285346303Y-198857947D01*
X285346303Y-198857947D02*
X285346303Y-199353185D01*
X285346303Y-199353185D02*
X285408207Y-199476995D01*
X285408207Y-199476995D02*
X285470112Y-199538900D01*
X285470112Y-199538900D02*
X285593922Y-199600804D01*
X285593922Y-199600804D02*
X285841541Y-199600804D01*
X285841541Y-199600804D02*
X285965350Y-199538900D01*
X285965350Y-199538900D02*
X286027255Y-199476995D01*
X286027255Y-199476995D02*
X286089160Y-199353185D01*
X286089160Y-199353185D02*
X286089160Y-199043661D01*
X286089160Y-199043661D02*
X286027255Y-198919852D01*
X286027255Y-198919852D02*
X285965350Y-198857947D01*
X285965350Y-198857947D02*
X285841541Y-198796042D01*
X285841541Y-198796042D02*
X285593922Y-198796042D01*
X285593922Y-198796042D02*
X285470112Y-198857947D01*
X285470112Y-198857947D02*
X285408207Y-198919852D01*
X285408207Y-198919852D02*
X285346303Y-199043661D01*
D10*
D11*
X10000000Y-60000000D02*
X12000000Y-60000000D01*
D10*
D11*
X10000000Y-110000000D02*
X12000000Y-110000000D01*
D10*
D11*
X10000000Y-160000000D02*
X12000000Y-160000000D01*
D10*
D11*
X10690476Y-35222176D02*
X11309523Y-35222176D01*
X10566666Y-35593604D02*
X10999999Y-34293604D01*
X10999999Y-34293604D02*
X11433333Y-35593604D01*
D10*
D11*
X11092857Y-84912652D02*
X11278571Y-84974557D01*
X11278571Y-84974557D02*
X11340476Y-85036461D01*
X11340476Y-85036461D02*
X11402380Y-85160271D01*
X11402380Y-85160271D02*
X11402380Y-85345985D01*
X11402380Y-85345985D02*
X11340476Y-85469795D01*
X11340476Y-85469795D02*
X11278571Y-85531700D01*
X11278571Y-85531700D02*
X11154761Y-85593604D01*
X11154761Y-85593604D02*
X10659523Y-85593604D01*
X10659523Y-85593604D02*
X10659523Y-84293604D01*
X10659523Y-84293604D02*
X11092857Y-84293604D01*
X11092857Y-84293604D02*
X11216666Y-84355509D01*
X11216666Y-84355509D02*
X11278571Y-84417414D01*
X11278571Y-84417414D02*
X11340476Y-84541223D01*
X11340476Y-84541223D02*
X11340476Y-84665033D01*
X11340476Y-84665033D02*
X11278571Y-84788842D01*
X11278571Y-84788842D02*
X11216666Y-84850747D01*
X11216666Y-84850747D02*
X11092857Y-84912652D01*
X11092857Y-84912652D02*
X10659523Y-84912652D01*
D10*
D11*
X11402380Y-135469795D02*
X11340476Y-135531700D01*
X11340476Y-135531700D02*
X11154761Y-135593604D01*
X11154761Y-135593604D02*
X11030952Y-135593604D01*
X11030952Y-135593604D02*
X10845238Y-135531700D01*
X10845238Y-135531700D02*
X10721428Y-135407890D01*
X10721428Y-135407890D02*
X10659523Y-135284080D01*
X10659523Y-135284080D02*
X10597619Y-135036461D01*
X10597619Y-135036461D02*
X10597619Y-134850747D01*
X10597619Y-134850747D02*
X10659523Y-134603128D01*
X10659523Y-134603128D02*
X10721428Y-134479319D01*
X10721428Y-134479319D02*
X10845238Y-134355509D01*
X10845238Y-134355509D02*
X11030952Y-134293604D01*
X11030952Y-134293604D02*
X11154761Y-134293604D01*
X11154761Y-134293604D02*
X11340476Y-134355509D01*
X11340476Y-134355509D02*
X11402380Y-134417414D01*
D10*
D11*
X10659523Y-185593604D02*
X10659523Y-184293604D01*
X10659523Y-184293604D02*
X10969047Y-184293604D01*
X10969047Y-184293604D02*
X11154761Y-184355509D01*
X11154761Y-184355509D02*
X11278571Y-184479319D01*
X11278571Y-184479319D02*
X11340476Y-184603128D01*
X11340476Y-184603128D02*
X11402380Y-184850747D01*
X11402380Y-184850747D02*
X11402380Y-185036461D01*
X11402380Y-185036461D02*
X11340476Y-185284080D01*
X11340476Y-185284080D02*
X11278571Y-185407890D01*
X11278571Y-185407890D02*
X11154761Y-185531700D01*
X11154761Y-185531700D02*
X10969047Y-185593604D01*
X10969047Y-185593604D02*
X10659523Y-185593604D01*
D10*
D11*
X287002200Y-60000000D02*
X285002200Y-60000000D01*
D10*
D11*
X287002200Y-110000000D02*
X285002200Y-110000000D01*
D10*
D11*
X287002200Y-160000000D02*
X285002200Y-160000000D01*
D10*
D11*
X285692676Y-35222176D02*
X286311723Y-35222176D01*
X285568866Y-35593604D02*
X286002199Y-34293604D01*
X286002199Y-34293604D02*
X286435533Y-35593604D01*
D10*
D11*
X286095057Y-84912652D02*
X286280771Y-84974557D01*
X286280771Y-84974557D02*
X286342676Y-85036461D01*
X286342676Y-85036461D02*
X286404580Y-85160271D01*
X286404580Y-85160271D02*
X286404580Y-85345985D01*
X286404580Y-85345985D02*
X286342676Y-85469795D01*
X286342676Y-85469795D02*
X286280771Y-85531700D01*
X286280771Y-85531700D02*
X286156961Y-85593604D01*
X286156961Y-85593604D02*
X285661723Y-85593604D01*
X285661723Y-85593604D02*
X285661723Y-84293604D01*
X285661723Y-84293604D02*
X286095057Y-84293604D01*
X286095057Y-84293604D02*
X286218866Y-84355509D01*
X286218866Y-84355509D02*
X286280771Y-84417414D01*
X286280771Y-84417414D02*
X286342676Y-84541223D01*
X286342676Y-84541223D02*
X286342676Y-84665033D01*
X286342676Y-84665033D02*
X286280771Y-84788842D01*
X286280771Y-84788842D02*
X286218866Y-84850747D01*
X286218866Y-84850747D02*
X286095057Y-84912652D01*
X286095057Y-84912652D02*
X285661723Y-84912652D01*
D10*
D11*
X286404580Y-135469795D02*
X286342676Y-135531700D01*
X286342676Y-135531700D02*
X286156961Y-135593604D01*
X286156961Y-135593604D02*
X286033152Y-135593604D01*
X286033152Y-135593604D02*
X285847438Y-135531700D01*
X285847438Y-135531700D02*
X285723628Y-135407890D01*
X285723628Y-135407890D02*
X285661723Y-135284080D01*
X285661723Y-135284080D02*
X285599819Y-135036461D01*
X285599819Y-135036461D02*
X285599819Y-134850747D01*
X285599819Y-134850747D02*
X285661723Y-134603128D01*
X285661723Y-134603128D02*
X285723628Y-134479319D01*
X285723628Y-134479319D02*
X285847438Y-134355509D01*
X285847438Y-134355509D02*
X286033152Y-134293604D01*
X286033152Y-134293604D02*
X286156961Y-134293604D01*
X286156961Y-134293604D02*
X286342676Y-134355509D01*
X286342676Y-134355509D02*
X286404580Y-134417414D01*
D10*
D11*
X285661723Y-185593604D02*
X285661723Y-184293604D01*
X285661723Y-184293604D02*
X285971247Y-184293604D01*
X285971247Y-184293604D02*
X286156961Y-184355509D01*
X286156961Y-184355509D02*
X286280771Y-184479319D01*
X286280771Y-184479319D02*
X286342676Y-184603128D01*
X286342676Y-184603128D02*
X286404580Y-184850747D01*
X286404580Y-184850747D02*
X286404580Y-185036461D01*
X286404580Y-185036461D02*
X286342676Y-185284080D01*
X286342676Y-185284080D02*
X286280771Y-185407890D01*
X286280771Y-185407890D02*
X286156961Y-185531700D01*
X286156961Y-185531700D02*
X285971247Y-185593604D01*
X285971247Y-185593604D02*
X285661723Y-185593604D01*
D10*
D11*
X200458026Y-193793328D02*
X200458026Y-192293328D01*
X200458026Y-192293328D02*
X200815169Y-192293328D01*
X200815169Y-192293328D02*
X201029455Y-192364757D01*
X201029455Y-192364757D02*
X201172312Y-192507614D01*
X201172312Y-192507614D02*
X201243741Y-192650471D01*
X201243741Y-192650471D02*
X201315169Y-192936185D01*
X201315169Y-192936185D02*
X201315169Y-193150471D01*
X201315169Y-193150471D02*
X201243741Y-193436185D01*
X201243741Y-193436185D02*
X201172312Y-193579042D01*
X201172312Y-193579042D02*
X201029455Y-193721900D01*
X201029455Y-193721900D02*
X200815169Y-193793328D01*
X200815169Y-193793328D02*
X200458026Y-193793328D01*
X202600884Y-193793328D02*
X202600884Y-193007614D01*
X202600884Y-193007614D02*
X202529455Y-192864757D01*
X202529455Y-192864757D02*
X202386598Y-192793328D01*
X202386598Y-192793328D02*
X202100884Y-192793328D01*
X202100884Y-192793328D02*
X201958026Y-192864757D01*
X202600884Y-193721900D02*
X202458026Y-193793328D01*
X202458026Y-193793328D02*
X202100884Y-193793328D01*
X202100884Y-193793328D02*
X201958026Y-193721900D01*
X201958026Y-193721900D02*
X201886598Y-193579042D01*
X201886598Y-193579042D02*
X201886598Y-193436185D01*
X201886598Y-193436185D02*
X201958026Y-193293328D01*
X201958026Y-193293328D02*
X202100884Y-193221900D01*
X202100884Y-193221900D02*
X202458026Y-193221900D01*
X202458026Y-193221900D02*
X202600884Y-193150471D01*
X203100884Y-192793328D02*
X203672312Y-192793328D01*
X203315169Y-192293328D02*
X203315169Y-193579042D01*
X203315169Y-193579042D02*
X203386598Y-193721900D01*
X203386598Y-193721900D02*
X203529455Y-193793328D01*
X203529455Y-193793328D02*
X203672312Y-193793328D01*
X204743741Y-193721900D02*
X204600884Y-193793328D01*
X204600884Y-193793328D02*
X204315170Y-193793328D01*
X204315170Y-193793328D02*
X204172312Y-193721900D01*
X204172312Y-193721900D02*
X204100884Y-193579042D01*
X204100884Y-193579042D02*
X204100884Y-193007614D01*
X204100884Y-193007614D02*
X204172312Y-192864757D01*
X204172312Y-192864757D02*
X204315170Y-192793328D01*
X204315170Y-192793328D02*
X204600884Y-192793328D01*
X204600884Y-192793328D02*
X204743741Y-192864757D01*
X204743741Y-192864757D02*
X204815170Y-193007614D01*
X204815170Y-193007614D02*
X204815170Y-193150471D01*
X204815170Y-193150471D02*
X204100884Y-193293328D01*
X205458026Y-193650471D02*
X205529455Y-193721900D01*
X205529455Y-193721900D02*
X205458026Y-193793328D01*
X205458026Y-193793328D02*
X205386598Y-193721900D01*
X205386598Y-193721900D02*
X205458026Y-193650471D01*
X205458026Y-193650471D02*
X205458026Y-193793328D01*
X205458026Y-192864757D02*
X205529455Y-192936185D01*
X205529455Y-192936185D02*
X205458026Y-193007614D01*
X205458026Y-193007614D02*
X205386598Y-192936185D01*
X205386598Y-192936185D02*
X205458026Y-192864757D01*
X205458026Y-192864757D02*
X205458026Y-193007614D01*
D10*
D11*
X177002200Y-194507200D02*
X285002200Y-194507200D01*
D10*
D11*
X178458026Y-196593328D02*
X178458026Y-195093328D01*
X179315169Y-196593328D02*
X178672312Y-195736185D01*
X179315169Y-195093328D02*
X178458026Y-195950471D01*
X179958026Y-196593328D02*
X179958026Y-195593328D01*
X179958026Y-195093328D02*
X179886598Y-195164757D01*
X179886598Y-195164757D02*
X179958026Y-195236185D01*
X179958026Y-195236185D02*
X180029455Y-195164757D01*
X180029455Y-195164757D02*
X179958026Y-195093328D01*
X179958026Y-195093328D02*
X179958026Y-195236185D01*
X181529455Y-196450471D02*
X181458027Y-196521900D01*
X181458027Y-196521900D02*
X181243741Y-196593328D01*
X181243741Y-196593328D02*
X181100884Y-196593328D01*
X181100884Y-196593328D02*
X180886598Y-196521900D01*
X180886598Y-196521900D02*
X180743741Y-196379042D01*
X180743741Y-196379042D02*
X180672312Y-196236185D01*
X180672312Y-196236185D02*
X180600884Y-195950471D01*
X180600884Y-195950471D02*
X180600884Y-195736185D01*
X180600884Y-195736185D02*
X180672312Y-195450471D01*
X180672312Y-195450471D02*
X180743741Y-195307614D01*
X180743741Y-195307614D02*
X180886598Y-195164757D01*
X180886598Y-195164757D02*
X181100884Y-195093328D01*
X181100884Y-195093328D02*
X181243741Y-195093328D01*
X181243741Y-195093328D02*
X181458027Y-195164757D01*
X181458027Y-195164757D02*
X181529455Y-195236185D01*
X182815170Y-196593328D02*
X182815170Y-195807614D01*
X182815170Y-195807614D02*
X182743741Y-195664757D01*
X182743741Y-195664757D02*
X182600884Y-195593328D01*
X182600884Y-195593328D02*
X182315170Y-195593328D01*
X182315170Y-195593328D02*
X182172312Y-195664757D01*
X182815170Y-196521900D02*
X182672312Y-196593328D01*
X182672312Y-196593328D02*
X182315170Y-196593328D01*
X182315170Y-196593328D02*
X182172312Y-196521900D01*
X182172312Y-196521900D02*
X182100884Y-196379042D01*
X182100884Y-196379042D02*
X182100884Y-196236185D01*
X182100884Y-196236185D02*
X182172312Y-196093328D01*
X182172312Y-196093328D02*
X182315170Y-196021900D01*
X182315170Y-196021900D02*
X182672312Y-196021900D01*
X182672312Y-196021900D02*
X182815170Y-195950471D01*
X184172313Y-196593328D02*
X184172313Y-195093328D01*
X184172313Y-196521900D02*
X184029455Y-196593328D01*
X184029455Y-196593328D02*
X183743741Y-196593328D01*
X183743741Y-196593328D02*
X183600884Y-196521900D01*
X183600884Y-196521900D02*
X183529455Y-196450471D01*
X183529455Y-196450471D02*
X183458027Y-196307614D01*
X183458027Y-196307614D02*
X183458027Y-195879042D01*
X183458027Y-195879042D02*
X183529455Y-195736185D01*
X183529455Y-195736185D02*
X183600884Y-195664757D01*
X183600884Y-195664757D02*
X183743741Y-195593328D01*
X183743741Y-195593328D02*
X184029455Y-195593328D01*
X184029455Y-195593328D02*
X184172313Y-195664757D01*
X186029455Y-195807614D02*
X186529455Y-195807614D01*
X186743741Y-196593328D02*
X186029455Y-196593328D01*
X186029455Y-196593328D02*
X186029455Y-195093328D01*
X186029455Y-195093328D02*
X186743741Y-195093328D01*
X187386598Y-196450471D02*
X187458027Y-196521900D01*
X187458027Y-196521900D02*
X187386598Y-196593328D01*
X187386598Y-196593328D02*
X187315170Y-196521900D01*
X187315170Y-196521900D02*
X187386598Y-196450471D01*
X187386598Y-196450471D02*
X187386598Y-196593328D01*
X188100884Y-196593328D02*
X188100884Y-195093328D01*
X188100884Y-195093328D02*
X188458027Y-195093328D01*
X188458027Y-195093328D02*
X188672313Y-195164757D01*
X188672313Y-195164757D02*
X188815170Y-195307614D01*
X188815170Y-195307614D02*
X188886599Y-195450471D01*
X188886599Y-195450471D02*
X188958027Y-195736185D01*
X188958027Y-195736185D02*
X188958027Y-195950471D01*
X188958027Y-195950471D02*
X188886599Y-196236185D01*
X188886599Y-196236185D02*
X188815170Y-196379042D01*
X188815170Y-196379042D02*
X188672313Y-196521900D01*
X188672313Y-196521900D02*
X188458027Y-196593328D01*
X188458027Y-196593328D02*
X188100884Y-196593328D01*
X189600884Y-196450471D02*
X189672313Y-196521900D01*
X189672313Y-196521900D02*
X189600884Y-196593328D01*
X189600884Y-196593328D02*
X189529456Y-196521900D01*
X189529456Y-196521900D02*
X189600884Y-196450471D01*
X189600884Y-196450471D02*
X189600884Y-196593328D01*
X190243742Y-196164757D02*
X190958028Y-196164757D01*
X190100885Y-196593328D02*
X190600885Y-195093328D01*
X190600885Y-195093328D02*
X191100885Y-196593328D01*
X191600884Y-196450471D02*
X191672313Y-196521900D01*
X191672313Y-196521900D02*
X191600884Y-196593328D01*
X191600884Y-196593328D02*
X191529456Y-196521900D01*
X191529456Y-196521900D02*
X191600884Y-196450471D01*
X191600884Y-196450471D02*
X191600884Y-196593328D01*
X194600884Y-196593328D02*
X194600884Y-195093328D01*
X194743742Y-196021900D02*
X195172313Y-196593328D01*
X195172313Y-195593328D02*
X194600884Y-196164757D01*
X195815170Y-196593328D02*
X195815170Y-195593328D01*
X195815170Y-195093328D02*
X195743742Y-195164757D01*
X195743742Y-195164757D02*
X195815170Y-195236185D01*
X195815170Y-195236185D02*
X195886599Y-195164757D01*
X195886599Y-195164757D02*
X195815170Y-195093328D01*
X195815170Y-195093328D02*
X195815170Y-195236185D01*
X197172314Y-196521900D02*
X197029456Y-196593328D01*
X197029456Y-196593328D02*
X196743742Y-196593328D01*
X196743742Y-196593328D02*
X196600885Y-196521900D01*
X196600885Y-196521900D02*
X196529456Y-196450471D01*
X196529456Y-196450471D02*
X196458028Y-196307614D01*
X196458028Y-196307614D02*
X196458028Y-195879042D01*
X196458028Y-195879042D02*
X196529456Y-195736185D01*
X196529456Y-195736185D02*
X196600885Y-195664757D01*
X196600885Y-195664757D02*
X196743742Y-195593328D01*
X196743742Y-195593328D02*
X197029456Y-195593328D01*
X197029456Y-195593328D02*
X197172314Y-195664757D01*
X198458028Y-196593328D02*
X198458028Y-195807614D01*
X198458028Y-195807614D02*
X198386599Y-195664757D01*
X198386599Y-195664757D02*
X198243742Y-195593328D01*
X198243742Y-195593328D02*
X197958028Y-195593328D01*
X197958028Y-195593328D02*
X197815170Y-195664757D01*
X198458028Y-196521900D02*
X198315170Y-196593328D01*
X198315170Y-196593328D02*
X197958028Y-196593328D01*
X197958028Y-196593328D02*
X197815170Y-196521900D01*
X197815170Y-196521900D02*
X197743742Y-196379042D01*
X197743742Y-196379042D02*
X197743742Y-196236185D01*
X197743742Y-196236185D02*
X197815170Y-196093328D01*
X197815170Y-196093328D02*
X197958028Y-196021900D01*
X197958028Y-196021900D02*
X198315170Y-196021900D01*
X198315170Y-196021900D02*
X198458028Y-195950471D01*
X199815171Y-196593328D02*
X199815171Y-195093328D01*
X199815171Y-196521900D02*
X199672313Y-196593328D01*
X199672313Y-196593328D02*
X199386599Y-196593328D01*
X199386599Y-196593328D02*
X199243742Y-196521900D01*
X199243742Y-196521900D02*
X199172313Y-196450471D01*
X199172313Y-196450471D02*
X199100885Y-196307614D01*
X199100885Y-196307614D02*
X199100885Y-195879042D01*
X199100885Y-195879042D02*
X199172313Y-195736185D01*
X199172313Y-195736185D02*
X199243742Y-195664757D01*
X199243742Y-195664757D02*
X199386599Y-195593328D01*
X199386599Y-195593328D02*
X199672313Y-195593328D01*
X199672313Y-195593328D02*
X199815171Y-195664757D01*
X201529456Y-195093328D02*
X202529456Y-195093328D01*
X202529456Y-195093328D02*
X201886599Y-196593328D01*
X203100884Y-196450471D02*
X203172313Y-196521900D01*
X203172313Y-196521900D02*
X203100884Y-196593328D01*
X203100884Y-196593328D02*
X203029456Y-196521900D01*
X203029456Y-196521900D02*
X203100884Y-196450471D01*
X203100884Y-196450471D02*
X203100884Y-196593328D01*
X204100885Y-195093328D02*
X204243742Y-195093328D01*
X204243742Y-195093328D02*
X204386599Y-195164757D01*
X204386599Y-195164757D02*
X204458028Y-195236185D01*
X204458028Y-195236185D02*
X204529456Y-195379042D01*
X204529456Y-195379042D02*
X204600885Y-195664757D01*
X204600885Y-195664757D02*
X204600885Y-196021900D01*
X204600885Y-196021900D02*
X204529456Y-196307614D01*
X204529456Y-196307614D02*
X204458028Y-196450471D01*
X204458028Y-196450471D02*
X204386599Y-196521900D01*
X204386599Y-196521900D02*
X204243742Y-196593328D01*
X204243742Y-196593328D02*
X204100885Y-196593328D01*
X204100885Y-196593328D02*
X203958028Y-196521900D01*
X203958028Y-196521900D02*
X203886599Y-196450471D01*
X203886599Y-196450471D02*
X203815170Y-196307614D01*
X203815170Y-196307614D02*
X203743742Y-196021900D01*
X203743742Y-196021900D02*
X203743742Y-195664757D01*
X203743742Y-195664757D02*
X203815170Y-195379042D01*
X203815170Y-195379042D02*
X203886599Y-195236185D01*
X203886599Y-195236185D02*
X203958028Y-195164757D01*
X203958028Y-195164757D02*
X204100885Y-195093328D01*
X205243741Y-196450471D02*
X205315170Y-196521900D01*
X205315170Y-196521900D02*
X205243741Y-196593328D01*
X205243741Y-196593328D02*
X205172313Y-196521900D01*
X205172313Y-196521900D02*
X205243741Y-196450471D01*
X205243741Y-196450471D02*
X205243741Y-196593328D01*
X206743742Y-196593328D02*
X205886599Y-196593328D01*
X206315170Y-196593328D02*
X206315170Y-195093328D01*
X206315170Y-195093328D02*
X206172313Y-195307614D01*
X206172313Y-195307614D02*
X206029456Y-195450471D01*
X206029456Y-195450471D02*
X205886599Y-195521900D01*
X207672313Y-195093328D02*
X207815170Y-195093328D01*
X207815170Y-195093328D02*
X207958027Y-195164757D01*
X207958027Y-195164757D02*
X208029456Y-195236185D01*
X208029456Y-195236185D02*
X208100884Y-195379042D01*
X208100884Y-195379042D02*
X208172313Y-195664757D01*
X208172313Y-195664757D02*
X208172313Y-196021900D01*
X208172313Y-196021900D02*
X208100884Y-196307614D01*
X208100884Y-196307614D02*
X208029456Y-196450471D01*
X208029456Y-196450471D02*
X207958027Y-196521900D01*
X207958027Y-196521900D02*
X207815170Y-196593328D01*
X207815170Y-196593328D02*
X207672313Y-196593328D01*
X207672313Y-196593328D02*
X207529456Y-196521900D01*
X207529456Y-196521900D02*
X207458027Y-196450471D01*
X207458027Y-196450471D02*
X207386598Y-196307614D01*
X207386598Y-196307614D02*
X207315170Y-196021900D01*
X207315170Y-196021900D02*
X207315170Y-195664757D01*
X207315170Y-195664757D02*
X207386598Y-195379042D01*
X207386598Y-195379042D02*
X207458027Y-195236185D01*
X207458027Y-195236185D02*
X207529456Y-195164757D01*
X207529456Y-195164757D02*
X207672313Y-195093328D01*
D10*
D11*
X177002200Y-191507200D02*
X285002200Y-191507200D01*
D10*
D12*
X264413853Y-193785528D02*
X263913853Y-193071242D01*
X263556710Y-193785528D02*
X263556710Y-192285528D01*
X263556710Y-192285528D02*
X264128139Y-192285528D01*
X264128139Y-192285528D02*
X264270996Y-192356957D01*
X264270996Y-192356957D02*
X264342425Y-192428385D01*
X264342425Y-192428385D02*
X264413853Y-192571242D01*
X264413853Y-192571242D02*
X264413853Y-192785528D01*
X264413853Y-192785528D02*
X264342425Y-192928385D01*
X264342425Y-192928385D02*
X264270996Y-192999814D01*
X264270996Y-192999814D02*
X264128139Y-193071242D01*
X264128139Y-193071242D02*
X263556710Y-193071242D01*
X265628139Y-193714100D02*
X265485282Y-193785528D01*
X265485282Y-193785528D02*
X265199568Y-193785528D01*
X265199568Y-193785528D02*
X265056710Y-193714100D01*
X265056710Y-193714100D02*
X264985282Y-193571242D01*
X264985282Y-193571242D02*
X264985282Y-192999814D01*
X264985282Y-192999814D02*
X265056710Y-192856957D01*
X265056710Y-192856957D02*
X265199568Y-192785528D01*
X265199568Y-192785528D02*
X265485282Y-192785528D01*
X265485282Y-192785528D02*
X265628139Y-192856957D01*
X265628139Y-192856957D02*
X265699568Y-192999814D01*
X265699568Y-192999814D02*
X265699568Y-193142671D01*
X265699568Y-193142671D02*
X264985282Y-193285528D01*
X266199567Y-192785528D02*
X266556710Y-193785528D01*
X266556710Y-193785528D02*
X266913853Y-192785528D01*
X267485281Y-193642671D02*
X267556710Y-193714100D01*
X267556710Y-193714100D02*
X267485281Y-193785528D01*
X267485281Y-193785528D02*
X267413853Y-193714100D01*
X267413853Y-193714100D02*
X267485281Y-193642671D01*
X267485281Y-193642671D02*
X267485281Y-193785528D01*
X267485281Y-192856957D02*
X267556710Y-192928385D01*
X267556710Y-192928385D02*
X267485281Y-192999814D01*
X267485281Y-192999814D02*
X267413853Y-192928385D01*
X267413853Y-192928385D02*
X267485281Y-192856957D01*
X267485281Y-192856957D02*
X267485281Y-192999814D01*
D10*
D11*
X178386598Y-193721900D02*
X178600884Y-193793328D01*
X178600884Y-193793328D02*
X178958026Y-193793328D01*
X178958026Y-193793328D02*
X179100884Y-193721900D01*
X179100884Y-193721900D02*
X179172312Y-193650471D01*
X179172312Y-193650471D02*
X179243741Y-193507614D01*
X179243741Y-193507614D02*
X179243741Y-193364757D01*
X179243741Y-193364757D02*
X179172312Y-193221900D01*
X179172312Y-193221900D02*
X179100884Y-193150471D01*
X179100884Y-193150471D02*
X178958026Y-193079042D01*
X178958026Y-193079042D02*
X178672312Y-193007614D01*
X178672312Y-193007614D02*
X178529455Y-192936185D01*
X178529455Y-192936185D02*
X178458026Y-192864757D01*
X178458026Y-192864757D02*
X178386598Y-192721900D01*
X178386598Y-192721900D02*
X178386598Y-192579042D01*
X178386598Y-192579042D02*
X178458026Y-192436185D01*
X178458026Y-192436185D02*
X178529455Y-192364757D01*
X178529455Y-192364757D02*
X178672312Y-192293328D01*
X178672312Y-192293328D02*
X179029455Y-192293328D01*
X179029455Y-192293328D02*
X179243741Y-192364757D01*
X179886597Y-193793328D02*
X179886597Y-192793328D01*
X179886597Y-192293328D02*
X179815169Y-192364757D01*
X179815169Y-192364757D02*
X179886597Y-192436185D01*
X179886597Y-192436185D02*
X179958026Y-192364757D01*
X179958026Y-192364757D02*
X179886597Y-192293328D01*
X179886597Y-192293328D02*
X179886597Y-192436185D01*
X180458026Y-192793328D02*
X181243741Y-192793328D01*
X181243741Y-192793328D02*
X180458026Y-193793328D01*
X180458026Y-193793328D02*
X181243741Y-193793328D01*
X182386598Y-193721900D02*
X182243741Y-193793328D01*
X182243741Y-193793328D02*
X181958027Y-193793328D01*
X181958027Y-193793328D02*
X181815169Y-193721900D01*
X181815169Y-193721900D02*
X181743741Y-193579042D01*
X181743741Y-193579042D02*
X181743741Y-193007614D01*
X181743741Y-193007614D02*
X181815169Y-192864757D01*
X181815169Y-192864757D02*
X181958027Y-192793328D01*
X181958027Y-192793328D02*
X182243741Y-192793328D01*
X182243741Y-192793328D02*
X182386598Y-192864757D01*
X182386598Y-192864757D02*
X182458027Y-193007614D01*
X182458027Y-193007614D02*
X182458027Y-193150471D01*
X182458027Y-193150471D02*
X181743741Y-193293328D01*
X183100883Y-193650471D02*
X183172312Y-193721900D01*
X183172312Y-193721900D02*
X183100883Y-193793328D01*
X183100883Y-193793328D02*
X183029455Y-193721900D01*
X183029455Y-193721900D02*
X183100883Y-193650471D01*
X183100883Y-193650471D02*
X183100883Y-193793328D01*
X183100883Y-192864757D02*
X183172312Y-192936185D01*
X183172312Y-192936185D02*
X183100883Y-193007614D01*
X183100883Y-193007614D02*
X183029455Y-192936185D01*
X183029455Y-192936185D02*
X183100883Y-192864757D01*
X183100883Y-192864757D02*
X183100883Y-193007614D01*
X184886598Y-193364757D02*
X185600884Y-193364757D01*
X184743741Y-193793328D02*
X185243741Y-192293328D01*
X185243741Y-192293328D02*
X185743741Y-193793328D01*
X186886598Y-192793328D02*
X186886598Y-193793328D01*
X186529455Y-192221900D02*
X186172312Y-193293328D01*
X186172312Y-193293328D02*
X187100883Y-193293328D01*
D10*
D11*
X263458026Y-196593328D02*
X263458026Y-195093328D01*
X264815170Y-196593328D02*
X264815170Y-195093328D01*
X264815170Y-196521900D02*
X264672312Y-196593328D01*
X264672312Y-196593328D02*
X264386598Y-196593328D01*
X264386598Y-196593328D02*
X264243741Y-196521900D01*
X264243741Y-196521900D02*
X264172312Y-196450471D01*
X264172312Y-196450471D02*
X264100884Y-196307614D01*
X264100884Y-196307614D02*
X264100884Y-195879042D01*
X264100884Y-195879042D02*
X264172312Y-195736185D01*
X264172312Y-195736185D02*
X264243741Y-195664757D01*
X264243741Y-195664757D02*
X264386598Y-195593328D01*
X264386598Y-195593328D02*
X264672312Y-195593328D01*
X264672312Y-195593328D02*
X264815170Y-195664757D01*
X265529455Y-196450471D02*
X265600884Y-196521900D01*
X265600884Y-196521900D02*
X265529455Y-196593328D01*
X265529455Y-196593328D02*
X265458027Y-196521900D01*
X265458027Y-196521900D02*
X265529455Y-196450471D01*
X265529455Y-196450471D02*
X265529455Y-196593328D01*
X265529455Y-195664757D02*
X265600884Y-195736185D01*
X265600884Y-195736185D02*
X265529455Y-195807614D01*
X265529455Y-195807614D02*
X265458027Y-195736185D01*
X265458027Y-195736185D02*
X265529455Y-195664757D01*
X265529455Y-195664757D02*
X265529455Y-195807614D01*
X268172313Y-196593328D02*
X267315170Y-196593328D01*
X267743741Y-196593328D02*
X267743741Y-195093328D01*
X267743741Y-195093328D02*
X267600884Y-195307614D01*
X267600884Y-195307614D02*
X267458027Y-195450471D01*
X267458027Y-195450471D02*
X267315170Y-195521900D01*
X269886598Y-195021900D02*
X268600884Y-196950471D01*
X271172313Y-196593328D02*
X270315170Y-196593328D01*
X270743741Y-196593328D02*
X270743741Y-195093328D01*
X270743741Y-195093328D02*
X270600884Y-195307614D01*
X270600884Y-195307614D02*
X270458027Y-195450471D01*
X270458027Y-195450471D02*
X270315170Y-195521900D01*
D10*
D11*
X177002200Y-187507200D02*
X285002200Y-187507200D01*
D10*
D13*
X178693928Y-188211638D02*
X179836785Y-188211638D01*
X179015357Y-190211638D02*
X179265357Y-188211638D01*
X180253452Y-190211638D02*
X180420119Y-188878304D01*
X180503452Y-188211638D02*
X180396309Y-188306876D01*
X180396309Y-188306876D02*
X180479643Y-188402114D01*
X180479643Y-188402114D02*
X180586786Y-188306876D01*
X180586786Y-188306876D02*
X180503452Y-188211638D01*
X180503452Y-188211638D02*
X180479643Y-188402114D01*
X181086786Y-188878304D02*
X181848690Y-188878304D01*
X181455833Y-188211638D02*
X181241548Y-189925923D01*
X181241548Y-189925923D02*
X181312976Y-190116400D01*
X181312976Y-190116400D02*
X181491548Y-190211638D01*
X181491548Y-190211638D02*
X181682024Y-190211638D01*
X182634405Y-190211638D02*
X182455833Y-190116400D01*
X182455833Y-190116400D02*
X182384405Y-189925923D01*
X182384405Y-189925923D02*
X182598690Y-188211638D01*
X184170119Y-190116400D02*
X183967738Y-190211638D01*
X183967738Y-190211638D02*
X183586785Y-190211638D01*
X183586785Y-190211638D02*
X183408214Y-190116400D01*
X183408214Y-190116400D02*
X183336785Y-189925923D01*
X183336785Y-189925923D02*
X183432024Y-189164019D01*
X183432024Y-189164019D02*
X183551071Y-188973542D01*
X183551071Y-188973542D02*
X183753452Y-188878304D01*
X183753452Y-188878304D02*
X184134404Y-188878304D01*
X184134404Y-188878304D02*
X184312976Y-188973542D01*
X184312976Y-188973542D02*
X184384404Y-189164019D01*
X184384404Y-189164019D02*
X184360595Y-189354495D01*
X184360595Y-189354495D02*
X183384404Y-189544971D01*
X185134405Y-190021161D02*
X185217738Y-190116400D01*
X185217738Y-190116400D02*
X185110595Y-190211638D01*
X185110595Y-190211638D02*
X185027262Y-190116400D01*
X185027262Y-190116400D02*
X185134405Y-190021161D01*
X185134405Y-190021161D02*
X185110595Y-190211638D01*
X185265357Y-188973542D02*
X185348690Y-189068780D01*
X185348690Y-189068780D02*
X185241548Y-189164019D01*
X185241548Y-189164019D02*
X185158214Y-189068780D01*
X185158214Y-189068780D02*
X185265357Y-188973542D01*
X185265357Y-188973542D02*
X185241548Y-189164019D01*
D10*
D11*
X178958026Y-185607614D02*
X178458026Y-185607614D01*
X178458026Y-186393328D02*
X178458026Y-184893328D01*
X178458026Y-184893328D02*
X179172312Y-184893328D01*
X179743740Y-186393328D02*
X179743740Y-185393328D01*
X179743740Y-184893328D02*
X179672312Y-184964757D01*
X179672312Y-184964757D02*
X179743740Y-185036185D01*
X179743740Y-185036185D02*
X179815169Y-184964757D01*
X179815169Y-184964757D02*
X179743740Y-184893328D01*
X179743740Y-184893328D02*
X179743740Y-185036185D01*
X180672312Y-186393328D02*
X180529455Y-186321900D01*
X180529455Y-186321900D02*
X180458026Y-186179042D01*
X180458026Y-186179042D02*
X180458026Y-184893328D01*
X181815169Y-186321900D02*
X181672312Y-186393328D01*
X181672312Y-186393328D02*
X181386598Y-186393328D01*
X181386598Y-186393328D02*
X181243740Y-186321900D01*
X181243740Y-186321900D02*
X181172312Y-186179042D01*
X181172312Y-186179042D02*
X181172312Y-185607614D01*
X181172312Y-185607614D02*
X181243740Y-185464757D01*
X181243740Y-185464757D02*
X181386598Y-185393328D01*
X181386598Y-185393328D02*
X181672312Y-185393328D01*
X181672312Y-185393328D02*
X181815169Y-185464757D01*
X181815169Y-185464757D02*
X181886598Y-185607614D01*
X181886598Y-185607614D02*
X181886598Y-185750471D01*
X181886598Y-185750471D02*
X181172312Y-185893328D01*
X182529454Y-186250471D02*
X182600883Y-186321900D01*
X182600883Y-186321900D02*
X182529454Y-186393328D01*
X182529454Y-186393328D02*
X182458026Y-186321900D01*
X182458026Y-186321900D02*
X182529454Y-186250471D01*
X182529454Y-186250471D02*
X182529454Y-186393328D01*
X182529454Y-185464757D02*
X182600883Y-185536185D01*
X182600883Y-185536185D02*
X182529454Y-185607614D01*
X182529454Y-185607614D02*
X182458026Y-185536185D01*
X182458026Y-185536185D02*
X182529454Y-185464757D01*
X182529454Y-185464757D02*
X182529454Y-185607614D01*
X184386597Y-186393328D02*
X184386597Y-184893328D01*
X184386597Y-184893328D02*
X184886597Y-185964757D01*
X184886597Y-185964757D02*
X185386597Y-184893328D01*
X185386597Y-184893328D02*
X185386597Y-186393328D01*
X186100883Y-186393328D02*
X186100883Y-184893328D01*
X186958026Y-186393328D02*
X186315169Y-185536185D01*
X186958026Y-184893328D02*
X186100883Y-185750471D01*
X187243741Y-186536185D02*
X188386598Y-186536185D01*
X188672312Y-186321900D02*
X188886598Y-186393328D01*
X188886598Y-186393328D02*
X189243740Y-186393328D01*
X189243740Y-186393328D02*
X189386598Y-186321900D01*
X189386598Y-186321900D02*
X189458026Y-186250471D01*
X189458026Y-186250471D02*
X189529455Y-186107614D01*
X189529455Y-186107614D02*
X189529455Y-185964757D01*
X189529455Y-185964757D02*
X189458026Y-185821900D01*
X189458026Y-185821900D02*
X189386598Y-185750471D01*
X189386598Y-185750471D02*
X189243740Y-185679042D01*
X189243740Y-185679042D02*
X188958026Y-185607614D01*
X188958026Y-185607614D02*
X188815169Y-185536185D01*
X188815169Y-185536185D02*
X188743740Y-185464757D01*
X188743740Y-185464757D02*
X188672312Y-185321900D01*
X188672312Y-185321900D02*
X188672312Y-185179042D01*
X188672312Y-185179042D02*
X188743740Y-185036185D01*
X188743740Y-185036185D02*
X188815169Y-184964757D01*
X188815169Y-184964757D02*
X188958026Y-184893328D01*
X188958026Y-184893328D02*
X189315169Y-184893328D01*
X189315169Y-184893328D02*
X189529455Y-184964757D01*
X190743740Y-186321900D02*
X190600883Y-186393328D01*
X190600883Y-186393328D02*
X190315169Y-186393328D01*
X190315169Y-186393328D02*
X190172311Y-186321900D01*
X190172311Y-186321900D02*
X190100883Y-186179042D01*
X190100883Y-186179042D02*
X190100883Y-185607614D01*
X190100883Y-185607614D02*
X190172311Y-185464757D01*
X190172311Y-185464757D02*
X190315169Y-185393328D01*
X190315169Y-185393328D02*
X190600883Y-185393328D01*
X190600883Y-185393328D02*
X190743740Y-185464757D01*
X190743740Y-185464757D02*
X190815169Y-185607614D01*
X190815169Y-185607614D02*
X190815169Y-185750471D01*
X190815169Y-185750471D02*
X190100883Y-185893328D01*
X192100883Y-185393328D02*
X192100883Y-186893328D01*
X192100883Y-186321900D02*
X191958025Y-186393328D01*
X191958025Y-186393328D02*
X191672311Y-186393328D01*
X191672311Y-186393328D02*
X191529454Y-186321900D01*
X191529454Y-186321900D02*
X191458025Y-186250471D01*
X191458025Y-186250471D02*
X191386597Y-186107614D01*
X191386597Y-186107614D02*
X191386597Y-185679042D01*
X191386597Y-185679042D02*
X191458025Y-185536185D01*
X191458025Y-185536185D02*
X191529454Y-185464757D01*
X191529454Y-185464757D02*
X191672311Y-185393328D01*
X191672311Y-185393328D02*
X191958025Y-185393328D01*
X191958025Y-185393328D02*
X192100883Y-185464757D01*
X193743740Y-185393328D02*
X194315168Y-185393328D01*
X193958025Y-184893328D02*
X193958025Y-186179042D01*
X193958025Y-186179042D02*
X194029454Y-186321900D01*
X194029454Y-186321900D02*
X194172311Y-186393328D01*
X194172311Y-186393328D02*
X194315168Y-186393328D01*
X195458026Y-186393328D02*
X195458026Y-185607614D01*
X195458026Y-185607614D02*
X195386597Y-185464757D01*
X195386597Y-185464757D02*
X195243740Y-185393328D01*
X195243740Y-185393328D02*
X194958026Y-185393328D01*
X194958026Y-185393328D02*
X194815168Y-185464757D01*
X195458026Y-186321900D02*
X195315168Y-186393328D01*
X195315168Y-186393328D02*
X194958026Y-186393328D01*
X194958026Y-186393328D02*
X194815168Y-186321900D01*
X194815168Y-186321900D02*
X194743740Y-186179042D01*
X194743740Y-186179042D02*
X194743740Y-186036185D01*
X194743740Y-186036185D02*
X194815168Y-185893328D01*
X194815168Y-185893328D02*
X194958026Y-185821900D01*
X194958026Y-185821900D02*
X195315168Y-185821900D01*
X195315168Y-185821900D02*
X195458026Y-185750471D01*
X196172311Y-186393328D02*
X196172311Y-184893328D01*
X196315169Y-185821900D02*
X196743740Y-186393328D01*
X196743740Y-185393328D02*
X196172311Y-185964757D01*
X197958026Y-186321900D02*
X197815169Y-186393328D01*
X197815169Y-186393328D02*
X197529455Y-186393328D01*
X197529455Y-186393328D02*
X197386597Y-186321900D01*
X197386597Y-186321900D02*
X197315169Y-186179042D01*
X197315169Y-186179042D02*
X197315169Y-185607614D01*
X197315169Y-185607614D02*
X197386597Y-185464757D01*
X197386597Y-185464757D02*
X197529455Y-185393328D01*
X197529455Y-185393328D02*
X197815169Y-185393328D01*
X197815169Y-185393328D02*
X197958026Y-185464757D01*
X197958026Y-185464757D02*
X198029455Y-185607614D01*
X198029455Y-185607614D02*
X198029455Y-185750471D01*
X198029455Y-185750471D02*
X197315169Y-185893328D01*
X199743740Y-185036185D02*
X199815168Y-184964757D01*
X199815168Y-184964757D02*
X199958026Y-184893328D01*
X199958026Y-184893328D02*
X200315168Y-184893328D01*
X200315168Y-184893328D02*
X200458026Y-184964757D01*
X200458026Y-184964757D02*
X200529454Y-185036185D01*
X200529454Y-185036185D02*
X200600883Y-185179042D01*
X200600883Y-185179042D02*
X200600883Y-185321900D01*
X200600883Y-185321900D02*
X200529454Y-185536185D01*
X200529454Y-185536185D02*
X199672311Y-186393328D01*
X199672311Y-186393328D02*
X200600883Y-186393328D01*
X201243739Y-186250471D02*
X201315168Y-186321900D01*
X201315168Y-186321900D02*
X201243739Y-186393328D01*
X201243739Y-186393328D02*
X201172311Y-186321900D01*
X201172311Y-186321900D02*
X201243739Y-186250471D01*
X201243739Y-186250471D02*
X201243739Y-186393328D01*
X201958025Y-186393328D02*
X201958025Y-184893328D01*
X202100883Y-185821900D02*
X202529454Y-186393328D01*
X202529454Y-185393328D02*
X201958025Y-185964757D01*
X203172311Y-186393328D02*
X203172311Y-185393328D01*
X203172311Y-184893328D02*
X203100883Y-184964757D01*
X203100883Y-184964757D02*
X203172311Y-185036185D01*
X203172311Y-185036185D02*
X203243740Y-184964757D01*
X203243740Y-184964757D02*
X203172311Y-184893328D01*
X203172311Y-184893328D02*
X203172311Y-185036185D01*
X204529455Y-186321900D02*
X204386597Y-186393328D01*
X204386597Y-186393328D02*
X204100883Y-186393328D01*
X204100883Y-186393328D02*
X203958026Y-186321900D01*
X203958026Y-186321900D02*
X203886597Y-186250471D01*
X203886597Y-186250471D02*
X203815169Y-186107614D01*
X203815169Y-186107614D02*
X203815169Y-185679042D01*
X203815169Y-185679042D02*
X203886597Y-185536185D01*
X203886597Y-185536185D02*
X203958026Y-185464757D01*
X203958026Y-185464757D02*
X204100883Y-185393328D01*
X204100883Y-185393328D02*
X204386597Y-185393328D01*
X204386597Y-185393328D02*
X204529455Y-185464757D01*
X205815169Y-186393328D02*
X205815169Y-185607614D01*
X205815169Y-185607614D02*
X205743740Y-185464757D01*
X205743740Y-185464757D02*
X205600883Y-185393328D01*
X205600883Y-185393328D02*
X205315169Y-185393328D01*
X205315169Y-185393328D02*
X205172311Y-185464757D01*
X205815169Y-186321900D02*
X205672311Y-186393328D01*
X205672311Y-186393328D02*
X205315169Y-186393328D01*
X205315169Y-186393328D02*
X205172311Y-186321900D01*
X205172311Y-186321900D02*
X205100883Y-186179042D01*
X205100883Y-186179042D02*
X205100883Y-186036185D01*
X205100883Y-186036185D02*
X205172311Y-185893328D01*
X205172311Y-185893328D02*
X205315169Y-185821900D01*
X205315169Y-185821900D02*
X205672311Y-185821900D01*
X205672311Y-185821900D02*
X205815169Y-185750471D01*
X207172312Y-186393328D02*
X207172312Y-184893328D01*
X207172312Y-186321900D02*
X207029454Y-186393328D01*
X207029454Y-186393328D02*
X206743740Y-186393328D01*
X206743740Y-186393328D02*
X206600883Y-186321900D01*
X206600883Y-186321900D02*
X206529454Y-186250471D01*
X206529454Y-186250471D02*
X206458026Y-186107614D01*
X206458026Y-186107614D02*
X206458026Y-185679042D01*
X206458026Y-185679042D02*
X206529454Y-185536185D01*
X206529454Y-185536185D02*
X206600883Y-185464757D01*
X206600883Y-185464757D02*
X206743740Y-185393328D01*
X206743740Y-185393328D02*
X207029454Y-185393328D01*
X207029454Y-185393328D02*
X207172312Y-185464757D01*
X207529455Y-186536185D02*
X208672312Y-186536185D01*
X209029454Y-185393328D02*
X209029454Y-186893328D01*
X209029454Y-185464757D02*
X209172312Y-185393328D01*
X209172312Y-185393328D02*
X209458026Y-185393328D01*
X209458026Y-185393328D02*
X209600883Y-185464757D01*
X209600883Y-185464757D02*
X209672312Y-185536185D01*
X209672312Y-185536185D02*
X209743740Y-185679042D01*
X209743740Y-185679042D02*
X209743740Y-186107614D01*
X209743740Y-186107614D02*
X209672312Y-186250471D01*
X209672312Y-186250471D02*
X209600883Y-186321900D01*
X209600883Y-186321900D02*
X209458026Y-186393328D01*
X209458026Y-186393328D02*
X209172312Y-186393328D01*
X209172312Y-186393328D02*
X209029454Y-186321900D01*
X211029455Y-186321900D02*
X210886597Y-186393328D01*
X210886597Y-186393328D02*
X210600883Y-186393328D01*
X210600883Y-186393328D02*
X210458026Y-186321900D01*
X210458026Y-186321900D02*
X210386597Y-186250471D01*
X210386597Y-186250471D02*
X210315169Y-186107614D01*
X210315169Y-186107614D02*
X210315169Y-185679042D01*
X210315169Y-185679042D02*
X210386597Y-185536185D01*
X210386597Y-185536185D02*
X210458026Y-185464757D01*
X210458026Y-185464757D02*
X210600883Y-185393328D01*
X210600883Y-185393328D02*
X210886597Y-185393328D01*
X210886597Y-185393328D02*
X211029455Y-185464757D01*
X211672311Y-186393328D02*
X211672311Y-184893328D01*
X211672311Y-185464757D02*
X211815169Y-185393328D01*
X211815169Y-185393328D02*
X212100883Y-185393328D01*
X212100883Y-185393328D02*
X212243740Y-185464757D01*
X212243740Y-185464757D02*
X212315169Y-185536185D01*
X212315169Y-185536185D02*
X212386597Y-185679042D01*
X212386597Y-185679042D02*
X212386597Y-186107614D01*
X212386597Y-186107614D02*
X212315169Y-186250471D01*
X212315169Y-186250471D02*
X212243740Y-186321900D01*
X212243740Y-186321900D02*
X212100883Y-186393328D01*
X212100883Y-186393328D02*
X211815169Y-186393328D01*
X211815169Y-186393328D02*
X211672311Y-186321900D01*
D10*
D11*
X177002200Y-181507200D02*
X285002200Y-181507200D01*
D10*
D11*
X178386598Y-183621900D02*
X178600884Y-183693328D01*
X178600884Y-183693328D02*
X178958026Y-183693328D01*
X178958026Y-183693328D02*
X179100884Y-183621900D01*
X179100884Y-183621900D02*
X179172312Y-183550471D01*
X179172312Y-183550471D02*
X179243741Y-183407614D01*
X179243741Y-183407614D02*
X179243741Y-183264757D01*
X179243741Y-183264757D02*
X179172312Y-183121900D01*
X179172312Y-183121900D02*
X179100884Y-183050471D01*
X179100884Y-183050471D02*
X178958026Y-182979042D01*
X178958026Y-182979042D02*
X178672312Y-182907614D01*
X178672312Y-182907614D02*
X178529455Y-182836185D01*
X178529455Y-182836185D02*
X178458026Y-182764757D01*
X178458026Y-182764757D02*
X178386598Y-182621900D01*
X178386598Y-182621900D02*
X178386598Y-182479042D01*
X178386598Y-182479042D02*
X178458026Y-182336185D01*
X178458026Y-182336185D02*
X178529455Y-182264757D01*
X178529455Y-182264757D02*
X178672312Y-182193328D01*
X178672312Y-182193328D02*
X179029455Y-182193328D01*
X179029455Y-182193328D02*
X179243741Y-182264757D01*
X179886597Y-183693328D02*
X179886597Y-182193328D01*
X180529455Y-183693328D02*
X180529455Y-182907614D01*
X180529455Y-182907614D02*
X180458026Y-182764757D01*
X180458026Y-182764757D02*
X180315169Y-182693328D01*
X180315169Y-182693328D02*
X180100883Y-182693328D01*
X180100883Y-182693328D02*
X179958026Y-182764757D01*
X179958026Y-182764757D02*
X179886597Y-182836185D01*
X181815169Y-183621900D02*
X181672312Y-183693328D01*
X181672312Y-183693328D02*
X181386598Y-183693328D01*
X181386598Y-183693328D02*
X181243740Y-183621900D01*
X181243740Y-183621900D02*
X181172312Y-183479042D01*
X181172312Y-183479042D02*
X181172312Y-182907614D01*
X181172312Y-182907614D02*
X181243740Y-182764757D01*
X181243740Y-182764757D02*
X181386598Y-182693328D01*
X181386598Y-182693328D02*
X181672312Y-182693328D01*
X181672312Y-182693328D02*
X181815169Y-182764757D01*
X181815169Y-182764757D02*
X181886598Y-182907614D01*
X181886598Y-182907614D02*
X181886598Y-183050471D01*
X181886598Y-183050471D02*
X181172312Y-183193328D01*
X183100883Y-183621900D02*
X182958026Y-183693328D01*
X182958026Y-183693328D02*
X182672312Y-183693328D01*
X182672312Y-183693328D02*
X182529454Y-183621900D01*
X182529454Y-183621900D02*
X182458026Y-183479042D01*
X182458026Y-183479042D02*
X182458026Y-182907614D01*
X182458026Y-182907614D02*
X182529454Y-182764757D01*
X182529454Y-182764757D02*
X182672312Y-182693328D01*
X182672312Y-182693328D02*
X182958026Y-182693328D01*
X182958026Y-182693328D02*
X183100883Y-182764757D01*
X183100883Y-182764757D02*
X183172312Y-182907614D01*
X183172312Y-182907614D02*
X183172312Y-183050471D01*
X183172312Y-183050471D02*
X182458026Y-183193328D01*
X183600883Y-182693328D02*
X184172311Y-182693328D01*
X183815168Y-182193328D02*
X183815168Y-183479042D01*
X183815168Y-183479042D02*
X183886597Y-183621900D01*
X183886597Y-183621900D02*
X184029454Y-183693328D01*
X184029454Y-183693328D02*
X184172311Y-183693328D01*
X184672311Y-183550471D02*
X184743740Y-183621900D01*
X184743740Y-183621900D02*
X184672311Y-183693328D01*
X184672311Y-183693328D02*
X184600883Y-183621900D01*
X184600883Y-183621900D02*
X184672311Y-183550471D01*
X184672311Y-183550471D02*
X184672311Y-183693328D01*
X184672311Y-182764757D02*
X184743740Y-182836185D01*
X184743740Y-182836185D02*
X184672311Y-182907614D01*
X184672311Y-182907614D02*
X184600883Y-182836185D01*
X184600883Y-182836185D02*
X184672311Y-182764757D01*
X184672311Y-182764757D02*
X184672311Y-182907614D01*
D10*
D12*
D10*
D11*
D10*
D11*
D10*
D11*
D10*
D11*
D10*
D11*
X197002200Y-191507200D02*
X197002200Y-194507200D01*
D10*
D11*
X261002200Y-191507200D02*
X261002200Y-198007200D01*
D10*
X91150000Y-47300000D02*
X86650000Y-47300000D01*
X86650000Y-47300000D02*
X86650000Y-54300000D01*
X91150000Y-54300000D02*
X91150000Y-47300000D01*
X86650000Y-54300000D02*
X91150000Y-54300000D01*
X95080628Y-32979054D02*
X95080628Y-30479054D01*
X95080628Y-30479054D02*
X89080628Y-30479054D01*
X89080628Y-32979054D02*
X95080628Y-32979054D01*
X89080628Y-30479054D02*
X89080628Y-32979054D01*
X99512500Y-30866395D02*
X99512500Y-31366395D01*
X99762500Y-31116395D02*
X99262500Y-31116395D01*
X100925000Y-33000000D02*
G75*
G03*
X95925000Y-33000000I-2500000J0D01*
G01*
X95925000Y-33000000D02*
G75*
G03*
X100925000Y-33000000I2500000J0D01*
G01*
X45415000Y-35207500D02*
X45415000Y-23857500D01*
X54915000Y-35207500D02*
X45415000Y-35207500D01*
X54915000Y-35207500D02*
X54915000Y-23857500D01*
X54915000Y-23857500D02*
X45415000Y-23857500D01*
X53665000Y-28707500D02*
G75*
G03*
X46665000Y-28707500I-3500000J0D01*
G01*
X46665000Y-28707500D02*
G75*
G03*
X53665000Y-28707500I3500000J0D01*
G01*
X50165000Y-22357500D02*
X50165000Y-22357500D01*
X50564735Y-22370094D02*
X50564735Y-22370094D01*
X50962885Y-22407827D02*
X50962885Y-22407827D01*
X51357870Y-22470548D02*
X51357870Y-22470548D01*
X51748123Y-22558010D02*
X51748123Y-22558010D01*
X52132096Y-22669865D02*
X52132096Y-22669865D01*
X52508267Y-22805669D02*
X52508267Y-22805669D01*
X52875142Y-22964885D02*
X52875142Y-22964885D01*
X53231268Y-23146879D02*
X53231268Y-23146879D01*
X53575230Y-23350931D02*
X53575230Y-23350931D01*
X53905665Y-23576230D02*
X53905665Y-23576230D01*
X54221261Y-23821884D02*
X54221261Y-23821884D01*
X54520768Y-24086918D02*
X54520768Y-24086918D01*
X54802997Y-24370279D02*
X54802997Y-24370279D01*
X55066828Y-24670846D02*
X55066828Y-24670846D01*
X55311216Y-24987424D02*
X55311216Y-24987424D01*
X55535189Y-25318759D02*
X55535189Y-25318759D01*
X55737861Y-25663536D02*
X55737861Y-25663536D01*
X55918427Y-26020388D02*
X55918427Y-26020388D01*
X56076171Y-26387898D02*
X56076171Y-26387898D01*
X56210467Y-26764610D02*
X56210467Y-26764610D01*
X56320783Y-27149029D02*
X56320783Y-27149029D01*
X56406680Y-27539629D02*
X56406680Y-27539629D01*
X56467819Y-27934862D02*
X56467819Y-27934862D01*
X56503956Y-28333160D02*
X56503956Y-28333160D01*
X56514949Y-28732943D02*
X56514949Y-28732943D01*
X56500753Y-29132625D02*
X56500753Y-29132625D01*
X56461425Y-29530620D02*
X56461425Y-29530620D01*
X56397121Y-29925351D02*
X56397121Y-29925351D01*
X56308096Y-30315250D02*
X56308096Y-30315250D01*
X56194704Y-30698772D02*
X56194704Y-30698772D01*
X56057393Y-31074396D02*
X56057393Y-31074396D01*
X55896709Y-31440630D02*
X55896709Y-31440630D01*
X55713289Y-31796023D02*
X55713289Y-31796023D01*
X55507861Y-32139165D02*
X55507861Y-32139165D01*
X55281239Y-32468695D02*
X55281239Y-32468695D01*
X55034323Y-32783305D02*
X55034323Y-32783305D01*
X54768092Y-33081747D02*
X54768092Y-33081747D01*
X54483601Y-33362838D02*
X54483601Y-33362838D01*
X54181980Y-33625463D02*
X54181980Y-33625463D01*
X53864425Y-33868580D02*
X53864425Y-33868580D01*
X53532195Y-34091224D02*
X53532195Y-34091224D01*
X53186609Y-34292513D02*
X53186609Y-34292513D01*
X52829037Y-34471648D02*
X52829037Y-34471648D01*
X52460897Y-34627918D02*
X52460897Y-34627918D01*
X52083650Y-34760704D02*
X52083650Y-34760704D01*
X51698793Y-34869478D02*
X51698793Y-34869478D01*
X51307851Y-34953810D02*
X51307851Y-34953810D01*
X50912376Y-35013364D02*
X50912376Y-35013364D01*
X50513937Y-35047905D02*
X50513937Y-35047905D01*
X50114113Y-35057296D02*
X50114113Y-35057296D01*
X49714492Y-35041498D02*
X49714492Y-35041498D01*
X49316657Y-35000576D02*
X49316657Y-35000576D01*
X48922187Y-34934691D02*
X48922187Y-34934691D01*
X48532648Y-34844105D02*
X48532648Y-34844105D01*
X48149583Y-34729177D02*
X48149583Y-34729177D01*
X47774513Y-34590362D02*
X47774513Y-34590362D01*
X47408925Y-34428212D02*
X47408925Y-34428212D01*
X47054270Y-34243370D02*
X47054270Y-34243370D01*
X46711954Y-34036568D02*
X46711954Y-34036568D01*
X46383335Y-33808628D02*
X46383335Y-33808628D01*
X46069717Y-33560453D02*
X46069717Y-33560453D01*
X45772343Y-33293028D02*
X45772343Y-33293028D01*
X45492394Y-33007413D02*
X45492394Y-33007413D01*
X45230980Y-32704742D02*
X45230980Y-32704742D01*
X44989138Y-32386216D02*
X44989138Y-32386216D01*
X44767826Y-32053097D02*
X44767826Y-32053097D01*
X44567924Y-31706706D02*
X44567924Y-31706706D01*
X44390223Y-31348419D02*
X44390223Y-31348419D01*
X44235429Y-30979657D02*
X44235429Y-30979657D01*
X44104156Y-30601881D02*
X44104156Y-30601881D01*
X43996925Y-30216591D02*
X43996925Y-30216591D01*
X43914160Y-29825314D02*
X43914160Y-29825314D01*
X43856191Y-29429604D02*
X43856191Y-29429604D01*
X43823247Y-29031029D02*
X43823247Y-29031029D01*
X43815458Y-28631171D02*
X43815458Y-28631171D01*
X43832856Y-28231616D02*
X43832856Y-28231616D01*
X43875372Y-27833949D02*
X43875372Y-27833949D01*
X43942837Y-27439746D02*
X43942837Y-27439746D01*
X44034984Y-27050572D02*
X44034984Y-27050572D01*
X44151446Y-26667971D02*
X44151446Y-26667971D01*
X44291762Y-26293460D02*
X44291762Y-26293460D01*
X44455376Y-25928525D02*
X44455376Y-25928525D01*
X44641638Y-25574613D02*
X44641638Y-25574613D01*
X44849809Y-25233129D02*
X44849809Y-25233129D01*
X45079064Y-24905426D02*
X45079064Y-24905426D01*
X45328494Y-24592805D02*
X45328494Y-24592805D01*
X45597108Y-24296505D02*
X45597108Y-24296505D01*
X45883842Y-24017703D02*
X45883842Y-24017703D01*
X46187558Y-23757503D02*
X46187558Y-23757503D01*
X46507052Y-23516939D02*
X46507052Y-23516939D01*
X46841055Y-23296964D02*
X46841055Y-23296964D01*
X47188243Y-23098451D02*
X47188243Y-23098451D01*
X47547239Y-22922188D02*
X47547239Y-22922188D01*
X47916619Y-22768873D02*
X47916619Y-22768873D01*
X48294918Y-22639115D02*
X48294918Y-22639115D01*
X48680635Y-22533428D02*
X48680635Y-22533428D01*
X49072240Y-22452232D02*
X49072240Y-22452232D01*
X49468179Y-22395848D02*
X49468179Y-22395848D01*
X49866882Y-22364501D02*
X49866882Y-22364501D01*
X87455000Y-33000000D02*
X87455000Y-30500000D01*
X87455000Y-30500000D02*
X81455000Y-30500000D01*
X81455000Y-33000000D02*
X87455000Y-33000000D01*
X81455000Y-30500000D02*
X81455000Y-33000000D01*
X85344000Y-24130000D02*
X87884000Y-24130000D01*
X88884000Y-24130000D02*
G75*
G03*
X86884000Y-24130000I-1000000J0D01*
G01*
X86884000Y-24130000D02*
G75*
G03*
X88884000Y-24130000I1000000J0D01*
G01*
X82446190Y-92475000D02*
X80113810Y-92475000D01*
X80114525Y-92474446D02*
G75*
G03*
X82446190Y-92475001I1165475J-1500554D01*
G01*
X82780000Y-93975000D02*
G75*
G03*
X79780000Y-93975000I-1500000J0D01*
G01*
X79780000Y-93975000D02*
G75*
G03*
X82780000Y-93975000I1500000J0D01*
G01*
X82446190Y-75965000D02*
X80113810Y-75965000D01*
X80114525Y-75964446D02*
G75*
G03*
X82446190Y-75965001I1165475J-1500554D01*
G01*
X82780000Y-77465000D02*
G75*
G03*
X79780000Y-77465000I-1500000J0D01*
G01*
X79780000Y-77465000D02*
G75*
G03*
X82780000Y-77465000I1500000J0D01*
G01*
X43462500Y-65710000D02*
X32112500Y-65710000D01*
X43462500Y-56210000D02*
X43462500Y-65710000D01*
X43462500Y-56210000D02*
X32112500Y-56210000D01*
X32112500Y-56210000D02*
X32112500Y-65710000D01*
X40462500Y-60960000D02*
G75*
G03*
X33462500Y-60960000I-3500000J0D01*
G01*
X33462500Y-60960000D02*
G75*
G03*
X40462500Y-60960000I3500000J0D01*
G01*
X30612500Y-60960000D02*
X30612500Y-60960000D01*
X30625094Y-60560264D02*
X30625094Y-60560264D01*
X30662827Y-60162114D02*
X30662827Y-60162114D01*
X30725548Y-59767129D02*
X30725548Y-59767129D01*
X30813010Y-59376876D02*
X30813010Y-59376876D01*
X30924865Y-58992903D02*
X30924865Y-58992903D01*
X31060669Y-58616732D02*
X31060669Y-58616732D01*
X31219885Y-58249857D02*
X31219885Y-58249857D01*
X31401879Y-57893731D02*
X31401879Y-57893731D01*
X31605931Y-57549769D02*
X31605931Y-57549769D01*
X31831230Y-57219334D02*
X31831230Y-57219334D01*
X32076884Y-56903738D02*
X32076884Y-56903738D01*
X32341918Y-56604231D02*
X32341918Y-56604231D01*
X32625279Y-56322002D02*
X32625279Y-56322002D01*
X32925846Y-56058171D02*
X32925846Y-56058171D01*
X33242424Y-55813783D02*
X33242424Y-55813783D01*
X33573759Y-55589810D02*
X33573759Y-55589810D01*
X33918536Y-55387138D02*
X33918536Y-55387138D01*
X34275388Y-55206572D02*
X34275388Y-55206572D01*
X34642898Y-55048828D02*
X34642898Y-55048828D01*
X35019610Y-54914532D02*
X35019610Y-54914532D01*
X35404029Y-54804216D02*
X35404029Y-54804216D01*
X35794629Y-54718319D02*
X35794629Y-54718319D01*
X36189862Y-54657180D02*
X36189862Y-54657180D01*
X36588160Y-54621043D02*
X36588160Y-54621043D01*
X36987943Y-54610050D02*
X36987943Y-54610050D01*
X37387625Y-54624246D02*
X37387625Y-54624246D01*
X37785620Y-54663574D02*
X37785620Y-54663574D01*
X38180351Y-54727878D02*
X38180351Y-54727878D01*
X38570250Y-54816903D02*
X38570250Y-54816903D01*
X38953772Y-54930295D02*
X38953772Y-54930295D01*
X39329396Y-55067606D02*
X39329396Y-55067606D01*
X39695630Y-55228290D02*
X39695630Y-55228290D01*
X40051023Y-55411710D02*
X40051023Y-55411710D01*
X40394165Y-55617138D02*
X40394165Y-55617138D01*
X40723695Y-55843760D02*
X40723695Y-55843760D01*
X41038305Y-56090676D02*
X41038305Y-56090676D01*
X41336747Y-56356907D02*
X41336747Y-56356907D01*
X41617838Y-56641398D02*
X41617838Y-56641398D01*
X41880463Y-56943019D02*
X41880463Y-56943019D01*
X42123580Y-57260574D02*
X42123580Y-57260574D01*
X42346224Y-57592804D02*
X42346224Y-57592804D01*
X42547513Y-57938390D02*
X42547513Y-57938390D01*
X42726648Y-58295962D02*
X42726648Y-58295962D01*
X42882918Y-58664102D02*
X42882918Y-58664102D01*
X43015704Y-59041349D02*
X43015704Y-59041349D01*
X43124478Y-59426206D02*
X43124478Y-59426206D01*
X43208810Y-59817148D02*
X43208810Y-59817148D01*
X43268364Y-60212623D02*
X43268364Y-60212623D01*
X43302905Y-60611062D02*
X43302905Y-60611062D01*
X43312296Y-61010886D02*
X43312296Y-61010886D01*
X43296498Y-61410507D02*
X43296498Y-61410507D01*
X43255576Y-61808342D02*
X43255576Y-61808342D01*
X43189691Y-62202812D02*
X43189691Y-62202812D01*
X43099105Y-62592351D02*
X43099105Y-62592351D01*
X42984177Y-62975416D02*
X42984177Y-62975416D01*
X42845362Y-63350486D02*
X42845362Y-63350486D01*
X42683212Y-63716074D02*
X42683212Y-63716074D01*
X42498370Y-64070729D02*
X42498370Y-64070729D01*
X42291568Y-64413045D02*
X42291568Y-64413045D01*
X42063628Y-64741664D02*
X42063628Y-64741664D01*
X41815453Y-65055282D02*
X41815453Y-65055282D01*
X41548028Y-65352656D02*
X41548028Y-65352656D01*
X41262413Y-65632605D02*
X41262413Y-65632605D01*
X40959742Y-65894019D02*
X40959742Y-65894019D01*
X40641216Y-66135861D02*
X40641216Y-66135861D01*
X40308097Y-66357173D02*
X40308097Y-66357173D01*
X39961706Y-66557075D02*
X39961706Y-66557075D01*
X39603419Y-66734776D02*
X39603419Y-66734776D01*
X39234657Y-66889570D02*
X39234657Y-66889570D01*
X38856881Y-67020843D02*
X38856881Y-67020843D01*
X38471591Y-67128074D02*
X38471591Y-67128074D01*
X38080314Y-67210839D02*
X38080314Y-67210839D01*
X37684604Y-67268808D02*
X37684604Y-67268808D01*
X37286029Y-67301752D02*
X37286029Y-67301752D01*
X36886171Y-67309541D02*
X36886171Y-67309541D01*
X36486616Y-67292143D02*
X36486616Y-67292143D01*
X36088949Y-67249627D02*
X36088949Y-67249627D01*
X35694746Y-67182162D02*
X35694746Y-67182162D01*
X35305572Y-67090015D02*
X35305572Y-67090015D01*
X34922971Y-66973553D02*
X34922971Y-66973553D01*
X34548460Y-66833237D02*
X34548460Y-66833237D01*
X34183525Y-66669623D02*
X34183525Y-66669623D01*
X33829613Y-66483361D02*
X33829613Y-66483361D01*
X33488129Y-66275190D02*
X33488129Y-66275190D01*
X33160426Y-66045935D02*
X33160426Y-66045935D01*
X32847805Y-65796505D02*
X32847805Y-65796505D01*
X32551505Y-65527891D02*
X32551505Y-65527891D01*
X32272703Y-65241157D02*
X32272703Y-65241157D01*
X32012503Y-64937441D02*
X32012503Y-64937441D01*
X31771939Y-64617947D02*
X31771939Y-64617947D01*
X31551964Y-64283944D02*
X31551964Y-64283944D01*
X31353451Y-63936756D02*
X31353451Y-63936756D01*
X31177188Y-63577760D02*
X31177188Y-63577760D01*
X31023873Y-63208380D02*
X31023873Y-63208380D01*
X30894115Y-62830081D02*
X30894115Y-62830081D01*
X30788428Y-62444364D02*
X30788428Y-62444364D01*
X30707232Y-62052759D02*
X30707232Y-62052759D01*
X30650848Y-61656820D02*
X30650848Y-61656820D01*
X30619501Y-61258117D02*
X30619501Y-61258117D01*
X76482500Y-82220000D02*
X65132500Y-82220000D01*
X76482500Y-72720000D02*
X76482500Y-82220000D01*
X76482500Y-72720000D02*
X65132500Y-72720000D01*
X65132500Y-72720000D02*
X65132500Y-82220000D01*
X73482500Y-77470000D02*
G75*
G03*
X66482500Y-77470000I-3500000J0D01*
G01*
X66482500Y-77470000D02*
G75*
G03*
X73482500Y-77470000I3500000J0D01*
G01*
X63632500Y-77470000D02*
X63632500Y-77470000D01*
X63645094Y-77070264D02*
X63645094Y-77070264D01*
X63682827Y-76672114D02*
X63682827Y-76672114D01*
X63745548Y-76277129D02*
X63745548Y-76277129D01*
X63833010Y-75886876D02*
X63833010Y-75886876D01*
X63944865Y-75502903D02*
X63944865Y-75502903D01*
X64080669Y-75126732D02*
X64080669Y-75126732D01*
X64239885Y-74759857D02*
X64239885Y-74759857D01*
X64421879Y-74403731D02*
X64421879Y-74403731D01*
X64625931Y-74059769D02*
X64625931Y-74059769D01*
X64851230Y-73729334D02*
X64851230Y-73729334D01*
X65096884Y-73413738D02*
X65096884Y-73413738D01*
X65361918Y-73114231D02*
X65361918Y-73114231D01*
X65645279Y-72832002D02*
X65645279Y-72832002D01*
X65945846Y-72568171D02*
X65945846Y-72568171D01*
X66262424Y-72323783D02*
X66262424Y-72323783D01*
X66593759Y-72099810D02*
X66593759Y-72099810D01*
X66938536Y-71897138D02*
X66938536Y-71897138D01*
X67295388Y-71716572D02*
X67295388Y-71716572D01*
X67662898Y-71558828D02*
X67662898Y-71558828D01*
X68039610Y-71424532D02*
X68039610Y-71424532D01*
X68424029Y-71314216D02*
X68424029Y-71314216D01*
X68814629Y-71228319D02*
X68814629Y-71228319D01*
X69209862Y-71167180D02*
X69209862Y-71167180D01*
X69608160Y-71131043D02*
X69608160Y-71131043D01*
X70007943Y-71120050D02*
X70007943Y-71120050D01*
X70407625Y-71134246D02*
X70407625Y-71134246D01*
X70805620Y-71173574D02*
X70805620Y-71173574D01*
X71200351Y-71237878D02*
X71200351Y-71237878D01*
X71590250Y-71326903D02*
X71590250Y-71326903D01*
X71973772Y-71440295D02*
X71973772Y-71440295D01*
X72349396Y-71577606D02*
X72349396Y-71577606D01*
X72715630Y-71738290D02*
X72715630Y-71738290D01*
X73071023Y-71921710D02*
X73071023Y-71921710D01*
X73414165Y-72127138D02*
X73414165Y-72127138D01*
X73743695Y-72353760D02*
X73743695Y-72353760D01*
X74058305Y-72600676D02*
X74058305Y-72600676D01*
X74356747Y-72866907D02*
X74356747Y-72866907D01*
X74637838Y-73151398D02*
X74637838Y-73151398D01*
X74900463Y-73453019D02*
X74900463Y-73453019D01*
X75143580Y-73770574D02*
X75143580Y-73770574D01*
X75366224Y-74102804D02*
X75366224Y-74102804D01*
X75567513Y-74448390D02*
X75567513Y-74448390D01*
X75746648Y-74805962D02*
X75746648Y-74805962D01*
X75902918Y-75174102D02*
X75902918Y-75174102D01*
X76035704Y-75551349D02*
X76035704Y-75551349D01*
X76144478Y-75936206D02*
X76144478Y-75936206D01*
X76228810Y-76327148D02*
X76228810Y-76327148D01*
X76288364Y-76722623D02*
X76288364Y-76722623D01*
X76322905Y-77121062D02*
X76322905Y-77121062D01*
X76332296Y-77520886D02*
X76332296Y-77520886D01*
X76316498Y-77920507D02*
X76316498Y-77920507D01*
X76275576Y-78318342D02*
X76275576Y-78318342D01*
X76209691Y-78712812D02*
X76209691Y-78712812D01*
X76119105Y-79102351D02*
X76119105Y-79102351D01*
X76004177Y-79485416D02*
X76004177Y-79485416D01*
X75865362Y-79860486D02*
X75865362Y-79860486D01*
X75703212Y-80226074D02*
X75703212Y-80226074D01*
X75518370Y-80580729D02*
X75518370Y-80580729D01*
X75311568Y-80923045D02*
X75311568Y-80923045D01*
X75083628Y-81251664D02*
X75083628Y-81251664D01*
X74835453Y-81565282D02*
X74835453Y-81565282D01*
X74568028Y-81862656D02*
X74568028Y-81862656D01*
X74282413Y-82142605D02*
X74282413Y-82142605D01*
X73979742Y-82404019D02*
X73979742Y-82404019D01*
X73661216Y-82645861D02*
X73661216Y-82645861D01*
X73328097Y-82867173D02*
X73328097Y-82867173D01*
X72981706Y-83067075D02*
X72981706Y-83067075D01*
X72623419Y-83244776D02*
X72623419Y-83244776D01*
X72254657Y-83399570D02*
X72254657Y-83399570D01*
X71876881Y-83530843D02*
X71876881Y-83530843D01*
X71491591Y-83638074D02*
X71491591Y-83638074D01*
X71100314Y-83720839D02*
X71100314Y-83720839D01*
X70704604Y-83778808D02*
X70704604Y-83778808D01*
X70306029Y-83811752D02*
X70306029Y-83811752D01*
X69906171Y-83819541D02*
X69906171Y-83819541D01*
X69506616Y-83802143D02*
X69506616Y-83802143D01*
X69108949Y-83759627D02*
X69108949Y-83759627D01*
X68714746Y-83692162D02*
X68714746Y-83692162D01*
X68325572Y-83600015D02*
X68325572Y-83600015D01*
X67942971Y-83483553D02*
X67942971Y-83483553D01*
X67568460Y-83343237D02*
X67568460Y-83343237D01*
X67203525Y-83179623D02*
X67203525Y-83179623D01*
X66849613Y-82993361D02*
X66849613Y-82993361D01*
X66508129Y-82785190D02*
X66508129Y-82785190D01*
X66180426Y-82555935D02*
X66180426Y-82555935D01*
X65867805Y-82306505D02*
X65867805Y-82306505D01*
X65571505Y-82037891D02*
X65571505Y-82037891D01*
X65292703Y-81751157D02*
X65292703Y-81751157D01*
X65032503Y-81447441D02*
X65032503Y-81447441D01*
X64791939Y-81127947D02*
X64791939Y-81127947D01*
X64571964Y-80793944D02*
X64571964Y-80793944D01*
X64373451Y-80446756D02*
X64373451Y-80446756D01*
X64197188Y-80087760D02*
X64197188Y-80087760D01*
X64043873Y-79718380D02*
X64043873Y-79718380D01*
X63914115Y-79340081D02*
X63914115Y-79340081D01*
X63808428Y-78954364D02*
X63808428Y-78954364D01*
X63727232Y-78562759D02*
X63727232Y-78562759D01*
X63670848Y-78166820D02*
X63670848Y-78166820D01*
X63639501Y-77768117D02*
X63639501Y-77768117D01*
X82446190Y-108985000D02*
X80113810Y-108985000D01*
X80114525Y-108984446D02*
G75*
G03*
X82446190Y-108985001I1165475J-1500554D01*
G01*
X82780000Y-110485000D02*
G75*
G03*
X79780000Y-110485000I-1500000J0D01*
G01*
X79780000Y-110485000D02*
G75*
G03*
X82780000Y-110485000I1500000J0D01*
G01*
X102235000Y-41050000D02*
X102235000Y-38510000D01*
X103485000Y-41050000D02*
G75*
G03*
X100985000Y-41050000I-1250000J0D01*
G01*
X100985000Y-41050000D02*
G75*
G03*
X103485000Y-41050000I1250000J0D01*
G01*
X105870000Y-52070000D02*
G75*
G03*
X99870000Y-52070000I-3000000J0D01*
G01*
X99870000Y-52070000D02*
G75*
G03*
X105870000Y-52070000I3000000J0D01*
G01*
X97870000Y-52070000D02*
X97870000Y-52070000D01*
X97885991Y-51670426D02*
X97885991Y-51670426D01*
X97933863Y-51273408D02*
X97933863Y-51273408D01*
X98013310Y-50881486D02*
X98013310Y-50881486D01*
X98123822Y-50497167D02*
X98123822Y-50497167D01*
X98264695Y-50122908D02*
X98264695Y-50122908D01*
X98435025Y-49761104D02*
X98435025Y-49761104D01*
X98633724Y-49414069D02*
X98633724Y-49414069D01*
X98859521Y-49084022D02*
X98859521Y-49084022D01*
X99110971Y-48773076D02*
X99110971Y-48773076D01*
X99386466Y-48483219D02*
X99386466Y-48483219D01*
X99684244Y-48216305D02*
X99684244Y-48216305D01*
X100002400Y-47974042D02*
X100002400Y-47974042D01*
X100338898Y-47757978D02*
X100338898Y-47757978D01*
X100691587Y-47569497D02*
X100691587Y-47569497D01*
X101058211Y-47409804D02*
X101058211Y-47409804D01*
X101436423Y-47279920D02*
X101436423Y-47279920D01*
X101823806Y-47180676D02*
X101823806Y-47180676D01*
X102217881Y-47112708D02*
X102217881Y-47112708D01*
X102616127Y-47076449D02*
X102616127Y-47076449D01*
X103015997Y-47072131D02*
X103015997Y-47072131D01*
X103414933Y-47099783D02*
X103414933Y-47099783D01*
X103810384Y-47159228D02*
X103810384Y-47159228D01*
X104199819Y-47250085D02*
X104199819Y-47250085D01*
X104580748Y-47371772D02*
X104580748Y-47371772D01*
X104950734Y-47523512D02*
X104950734Y-47523512D01*
X105307410Y-47704335D02*
X105307410Y-47704335D01*
X105648495Y-47913082D02*
X105648495Y-47913082D01*
X105971808Y-48148420D02*
X105971808Y-48148420D01*
X106275279Y-48408842D02*
X106275279Y-48408842D01*
X106556968Y-48692684D02*
X106556968Y-48692684D01*
X106815073Y-48998128D02*
X106815073Y-48998128D01*
X107047943Y-49323222D02*
X107047943Y-49323222D01*
X107254089Y-49665886D02*
X107254089Y-49665886D01*
X107432191Y-50023929D02*
X107432191Y-50023929D01*
X107581111Y-50395059D02*
X107581111Y-50395059D01*
X107699896Y-50776903D02*
X107699896Y-50776903D01*
X107787786Y-51167018D02*
X107787786Y-51167018D01*
X107844219Y-51562910D02*
X107844219Y-51562910D01*
X107868834Y-51962045D02*
X107868834Y-51962045D01*
X107861473Y-52361870D02*
X107861473Y-52361870D01*
X107822184Y-52759829D02*
X107822184Y-52759829D01*
X107751218Y-53153375D02*
X107751218Y-53153375D01*
X107649029Y-53539991D02*
X107649029Y-53539991D01*
X107516271Y-53917204D02*
X107516271Y-53917204D01*
X107353792Y-54282602D02*
X107353792Y-54282602D01*
X107162632Y-54633846D02*
X107162632Y-54633846D01*
X106944014Y-54968690D02*
X106944014Y-54968690D01*
X106699336Y-55284993D02*
X106699336Y-55284993D01*
X106430163Y-55580731D02*
X106430163Y-55580731D01*
X106138218Y-55854012D02*
X106138218Y-55854012D01*
X105825367Y-56103088D02*
X105825367Y-56103088D01*
X105493611Y-56326367D02*
X105493611Y-56326367D01*
X105145074Y-56522419D02*
X105145074Y-56522419D01*
X104781984Y-56689990D02*
X104781984Y-56689990D01*
X104406664Y-56828010D02*
X104406664Y-56828010D01*
X104021514Y-56935594D02*
X104021514Y-56935594D01*
X103628999Y-57012056D02*
X103628999Y-57012056D01*
X103231628Y-57056905D02*
X103231628Y-57056905D01*
X102831945Y-57069855D02*
X102831945Y-57069855D01*
X102432505Y-57050823D02*
X102432505Y-57050823D01*
X102035863Y-56999930D02*
X102035863Y-56999930D01*
X101644557Y-56917503D02*
X101644557Y-56917503D01*
X101261089Y-56804068D02*
X101261089Y-56804068D01*
X100887913Y-56660352D02*
X100887913Y-56660352D01*
X100527416Y-56487273D02*
X100527416Y-56487273D01*
X100181903Y-56285938D02*
X100181903Y-56285938D01*
X99853585Y-56057636D02*
X99853585Y-56057636D01*
X99544562Y-55803827D02*
X99544562Y-55803827D01*
X99256810Y-55526133D02*
X99256810Y-55526133D01*
X98992170Y-55226333D02*
X98992170Y-55226333D01*
X98752335Y-54906342D02*
X98752335Y-54906342D01*
X98538839Y-54568209D02*
X98538839Y-54568209D01*
X98353048Y-54214096D02*
X98353048Y-54214096D01*
X98196150Y-53846267D02*
X98196150Y-53846267D01*
X98069148Y-53467077D02*
X98069148Y-53467077D01*
X97972856Y-53078950D02*
X97972856Y-53078950D01*
X97907888Y-52684369D02*
X97907888Y-52684369D01*
X97874661Y-52285859D02*
X97874661Y-52285859D01*
D14*
X53698334Y-110490000D02*
X61598334Y-110490000D01*
X57648334Y-103890000D02*
X57648334Y-117090000D01*
D10*
X58848334Y-116890000D02*
G75*
G03*
X56448334Y-116890000I-1200000J0D01*
G01*
X56448334Y-116890000D02*
G75*
G03*
X58848334Y-116890000I1200000J0D01*
G01*
X60698334Y-110490000D02*
G75*
G03*
X54598334Y-110490000I-3050000J0D01*
G01*
X54598334Y-110490000D02*
G75*
G03*
X60698334Y-110490000I3050000J0D01*
G01*
X105820000Y-42545000D02*
X108360000Y-42545000D01*
X107070000Y-42545000D02*
G75*
G03*
X104570000Y-42545000I-1250000J0D01*
G01*
X104570000Y-42545000D02*
G75*
G03*
X107070000Y-42545000I1250000J0D01*
G01*
X43462500Y-98730000D02*
X32112500Y-98730000D01*
X43462500Y-89230000D02*
X43462500Y-98730000D01*
X43462500Y-89230000D02*
X32112500Y-89230000D01*
X32112500Y-89230000D02*
X32112500Y-98730000D01*
X40462500Y-93980000D02*
G75*
G03*
X33462500Y-93980000I-3500000J0D01*
G01*
X33462500Y-93980000D02*
G75*
G03*
X40462500Y-93980000I3500000J0D01*
G01*
X30612500Y-93980000D02*
X30612500Y-93980000D01*
X30625094Y-93580264D02*
X30625094Y-93580264D01*
X30662827Y-93182114D02*
X30662827Y-93182114D01*
X30725548Y-92787129D02*
X30725548Y-92787129D01*
X30813010Y-92396876D02*
X30813010Y-92396876D01*
X30924865Y-92012903D02*
X30924865Y-92012903D01*
X31060669Y-91636732D02*
X31060669Y-91636732D01*
X31219885Y-91269857D02*
X31219885Y-91269857D01*
X31401879Y-90913731D02*
X31401879Y-90913731D01*
X31605931Y-90569769D02*
X31605931Y-90569769D01*
X31831230Y-90239334D02*
X31831230Y-90239334D01*
X32076884Y-89923738D02*
X32076884Y-89923738D01*
X32341918Y-89624231D02*
X32341918Y-89624231D01*
X32625279Y-89342002D02*
X32625279Y-89342002D01*
X32925846Y-89078171D02*
X32925846Y-89078171D01*
X33242424Y-88833783D02*
X33242424Y-88833783D01*
X33573759Y-88609810D02*
X33573759Y-88609810D01*
X33918536Y-88407138D02*
X33918536Y-88407138D01*
X34275388Y-88226572D02*
X34275388Y-88226572D01*
X34642898Y-88068828D02*
X34642898Y-88068828D01*
X35019610Y-87934532D02*
X35019610Y-87934532D01*
X35404029Y-87824216D02*
X35404029Y-87824216D01*
X35794629Y-87738319D02*
X35794629Y-87738319D01*
X36189862Y-87677180D02*
X36189862Y-87677180D01*
X36588160Y-87641043D02*
X36588160Y-87641043D01*
X36987943Y-87630050D02*
X36987943Y-87630050D01*
X37387625Y-87644246D02*
X37387625Y-87644246D01*
X37785620Y-87683574D02*
X37785620Y-87683574D01*
X38180351Y-87747878D02*
X38180351Y-87747878D01*
X38570250Y-87836903D02*
X38570250Y-87836903D01*
X38953772Y-87950295D02*
X38953772Y-87950295D01*
X39329396Y-88087606D02*
X39329396Y-88087606D01*
X39695630Y-88248290D02*
X39695630Y-88248290D01*
X40051023Y-88431710D02*
X40051023Y-88431710D01*
X40394165Y-88637138D02*
X40394165Y-88637138D01*
X40723695Y-88863760D02*
X40723695Y-88863760D01*
X41038305Y-89110676D02*
X41038305Y-89110676D01*
X41336747Y-89376907D02*
X41336747Y-89376907D01*
X41617838Y-89661398D02*
X41617838Y-89661398D01*
X41880463Y-89963019D02*
X41880463Y-89963019D01*
X42123580Y-90280574D02*
X42123580Y-90280574D01*
X42346224Y-90612804D02*
X42346224Y-90612804D01*
X42547513Y-90958390D02*
X42547513Y-90958390D01*
X42726648Y-91315962D02*
X42726648Y-91315962D01*
X42882918Y-91684102D02*
X42882918Y-91684102D01*
X43015704Y-92061349D02*
X43015704Y-92061349D01*
X43124478Y-92446206D02*
X43124478Y-92446206D01*
X43208810Y-92837148D02*
X43208810Y-92837148D01*
X43268364Y-93232623D02*
X43268364Y-93232623D01*
X43302905Y-93631062D02*
X43302905Y-93631062D01*
X43312296Y-94030886D02*
X43312296Y-94030886D01*
X43296498Y-94430507D02*
X43296498Y-94430507D01*
X43255576Y-94828342D02*
X43255576Y-94828342D01*
X43189691Y-95222812D02*
X43189691Y-95222812D01*
X43099105Y-95612351D02*
X43099105Y-95612351D01*
X42984177Y-95995416D02*
X42984177Y-95995416D01*
X42845362Y-96370486D02*
X42845362Y-96370486D01*
X42683212Y-96736074D02*
X42683212Y-96736074D01*
X42498370Y-97090729D02*
X42498370Y-97090729D01*
X42291568Y-97433045D02*
X42291568Y-97433045D01*
X42063628Y-97761664D02*
X42063628Y-97761664D01*
X41815453Y-98075282D02*
X41815453Y-98075282D01*
X41548028Y-98372656D02*
X41548028Y-98372656D01*
X41262413Y-98652605D02*
X41262413Y-98652605D01*
X40959742Y-98914019D02*
X40959742Y-98914019D01*
X40641216Y-99155861D02*
X40641216Y-99155861D01*
X40308097Y-99377173D02*
X40308097Y-99377173D01*
X39961706Y-99577075D02*
X39961706Y-99577075D01*
X39603419Y-99754776D02*
X39603419Y-99754776D01*
X39234657Y-99909570D02*
X39234657Y-99909570D01*
X38856881Y-100040843D02*
X38856881Y-100040843D01*
X38471591Y-100148074D02*
X38471591Y-100148074D01*
X38080314Y-100230839D02*
X38080314Y-100230839D01*
X37684604Y-100288808D02*
X37684604Y-100288808D01*
X37286029Y-100321752D02*
X37286029Y-100321752D01*
X36886171Y-100329541D02*
X36886171Y-100329541D01*
X36486616Y-100312143D02*
X36486616Y-100312143D01*
X36088949Y-100269627D02*
X36088949Y-100269627D01*
X35694746Y-100202162D02*
X35694746Y-100202162D01*
X35305572Y-100110015D02*
X35305572Y-100110015D01*
X34922971Y-99993553D02*
X34922971Y-99993553D01*
X34548460Y-99853237D02*
X34548460Y-99853237D01*
X34183525Y-99689623D02*
X34183525Y-99689623D01*
X33829613Y-99503361D02*
X33829613Y-99503361D01*
X33488129Y-99295190D02*
X33488129Y-99295190D01*
X33160426Y-99065935D02*
X33160426Y-99065935D01*
X32847805Y-98816505D02*
X32847805Y-98816505D01*
X32551505Y-98547891D02*
X32551505Y-98547891D01*
X32272703Y-98261157D02*
X32272703Y-98261157D01*
X32012503Y-97957441D02*
X32012503Y-97957441D01*
X31771939Y-97637947D02*
X31771939Y-97637947D01*
X31551964Y-97303944D02*
X31551964Y-97303944D01*
X31353451Y-96956756D02*
X31353451Y-96956756D01*
X31177188Y-96597760D02*
X31177188Y-96597760D01*
X31023873Y-96228380D02*
X31023873Y-96228380D01*
X30894115Y-95850081D02*
X30894115Y-95850081D01*
X30788428Y-95464364D02*
X30788428Y-95464364D01*
X30707232Y-95072759D02*
X30707232Y-95072759D01*
X30650848Y-94676820D02*
X30650848Y-94676820D01*
X30619501Y-94278117D02*
X30619501Y-94278117D01*
X101190000Y-45720000D02*
X103730000Y-45720000D01*
X102440000Y-45720000D02*
G75*
G03*
X99940000Y-45720000I-1250000J0D01*
G01*
X99940000Y-45720000D02*
G75*
G03*
X102440000Y-45720000I1250000J0D01*
G01*
X104690000Y-113030000D02*
G75*
G03*
X101090000Y-113030000I-1800000J0D01*
G01*
X101090000Y-113030000D02*
G75*
G03*
X104690000Y-113030000I1800000J0D01*
G01*
X105890000Y-113030000D02*
G75*
G03*
X99890000Y-113030000I-3000000J0D01*
G01*
X99890000Y-113030000D02*
G75*
G03*
X105890000Y-113030000I3000000J0D01*
G01*
X104775000Y-35620000D02*
X102235000Y-35620000D01*
X106025000Y-35620000D02*
G75*
G03*
X103525000Y-35620000I-1250000J0D01*
G01*
X103525000Y-35620000D02*
G75*
G03*
X106025000Y-35620000I1250000J0D01*
G01*
D14*
X53698334Y-77470000D02*
X61598334Y-77470000D01*
X57648334Y-70870000D02*
X57648334Y-84070000D01*
D10*
X58848334Y-83870000D02*
G75*
G03*
X56448334Y-83870000I-1200000J0D01*
G01*
X56448334Y-83870000D02*
G75*
G03*
X58848334Y-83870000I1200000J0D01*
G01*
X60698334Y-77470000D02*
G75*
G03*
X54598334Y-77470000I-3050000J0D01*
G01*
X54598334Y-77470000D02*
G75*
G03*
X60698334Y-77470000I3050000J0D01*
G01*
D14*
X20678334Y-110490000D02*
X28578334Y-110490000D01*
X24628334Y-103890000D02*
X24628334Y-117090000D01*
D10*
X25828334Y-116890000D02*
G75*
G03*
X23428334Y-116890000I-1200000J0D01*
G01*
X23428334Y-116890000D02*
G75*
G03*
X25828334Y-116890000I1200000J0D01*
G01*
X27678334Y-110490000D02*
G75*
G03*
X21578334Y-110490000I-3050000J0D01*
G01*
X21578334Y-110490000D02*
G75*
G03*
X27678334Y-110490000I3050000J0D01*
G01*
X76482500Y-115240000D02*
X65132500Y-115240000D01*
X76482500Y-105740000D02*
X76482500Y-115240000D01*
X76482500Y-105740000D02*
X65132500Y-105740000D01*
X65132500Y-105740000D02*
X65132500Y-115240000D01*
X73482500Y-110490000D02*
G75*
G03*
X66482500Y-110490000I-3500000J0D01*
G01*
X66482500Y-110490000D02*
G75*
G03*
X73482500Y-110490000I3500000J0D01*
G01*
X63632500Y-110490000D02*
X63632500Y-110490000D01*
X63645094Y-110090264D02*
X63645094Y-110090264D01*
X63682827Y-109692114D02*
X63682827Y-109692114D01*
X63745548Y-109297129D02*
X63745548Y-109297129D01*
X63833010Y-108906876D02*
X63833010Y-108906876D01*
X63944865Y-108522903D02*
X63944865Y-108522903D01*
X64080669Y-108146732D02*
X64080669Y-108146732D01*
X64239885Y-107779857D02*
X64239885Y-107779857D01*
X64421879Y-107423731D02*
X64421879Y-107423731D01*
X64625931Y-107079769D02*
X64625931Y-107079769D01*
X64851230Y-106749334D02*
X64851230Y-106749334D01*
X65096884Y-106433738D02*
X65096884Y-106433738D01*
X65361918Y-106134231D02*
X65361918Y-106134231D01*
X65645279Y-105852002D02*
X65645279Y-105852002D01*
X65945846Y-105588171D02*
X65945846Y-105588171D01*
X66262424Y-105343783D02*
X66262424Y-105343783D01*
X66593759Y-105119810D02*
X66593759Y-105119810D01*
X66938536Y-104917138D02*
X66938536Y-104917138D01*
X67295388Y-104736572D02*
X67295388Y-104736572D01*
X67662898Y-104578828D02*
X67662898Y-104578828D01*
X68039610Y-104444532D02*
X68039610Y-104444532D01*
X68424029Y-104334216D02*
X68424029Y-104334216D01*
X68814629Y-104248319D02*
X68814629Y-104248319D01*
X69209862Y-104187180D02*
X69209862Y-104187180D01*
X69608160Y-104151043D02*
X69608160Y-104151043D01*
X70007943Y-104140050D02*
X70007943Y-104140050D01*
X70407625Y-104154246D02*
X70407625Y-104154246D01*
X70805620Y-104193574D02*
X70805620Y-104193574D01*
X71200351Y-104257878D02*
X71200351Y-104257878D01*
X71590250Y-104346903D02*
X71590250Y-104346903D01*
X71973772Y-104460295D02*
X71973772Y-104460295D01*
X72349396Y-104597606D02*
X72349396Y-104597606D01*
X72715630Y-104758290D02*
X72715630Y-104758290D01*
X73071023Y-104941710D02*
X73071023Y-104941710D01*
X73414165Y-105147138D02*
X73414165Y-105147138D01*
X73743695Y-105373760D02*
X73743695Y-105373760D01*
X74058305Y-105620676D02*
X74058305Y-105620676D01*
X74356747Y-105886907D02*
X74356747Y-105886907D01*
X74637838Y-106171398D02*
X74637838Y-106171398D01*
X74900463Y-106473019D02*
X74900463Y-106473019D01*
X75143580Y-106790574D02*
X75143580Y-106790574D01*
X75366224Y-107122804D02*
X75366224Y-107122804D01*
X75567513Y-107468390D02*
X75567513Y-107468390D01*
X75746648Y-107825962D02*
X75746648Y-107825962D01*
X75902918Y-108194102D02*
X75902918Y-108194102D01*
X76035704Y-108571349D02*
X76035704Y-108571349D01*
X76144478Y-108956206D02*
X76144478Y-108956206D01*
X76228810Y-109347148D02*
X76228810Y-109347148D01*
X76288364Y-109742623D02*
X76288364Y-109742623D01*
X76322905Y-110141062D02*
X76322905Y-110141062D01*
X76332296Y-110540886D02*
X76332296Y-110540886D01*
X76316498Y-110940507D02*
X76316498Y-110940507D01*
X76275576Y-111338342D02*
X76275576Y-111338342D01*
X76209691Y-111732812D02*
X76209691Y-111732812D01*
X76119105Y-112122351D02*
X76119105Y-112122351D01*
X76004177Y-112505416D02*
X76004177Y-112505416D01*
X75865362Y-112880486D02*
X75865362Y-112880486D01*
X75703212Y-113246074D02*
X75703212Y-113246074D01*
X75518370Y-113600729D02*
X75518370Y-113600729D01*
X75311568Y-113943045D02*
X75311568Y-113943045D01*
X75083628Y-114271664D02*
X75083628Y-114271664D01*
X74835453Y-114585282D02*
X74835453Y-114585282D01*
X74568028Y-114882656D02*
X74568028Y-114882656D01*
X74282413Y-115162605D02*
X74282413Y-115162605D01*
X73979742Y-115424019D02*
X73979742Y-115424019D01*
X73661216Y-115665861D02*
X73661216Y-115665861D01*
X73328097Y-115887173D02*
X73328097Y-115887173D01*
X72981706Y-116087075D02*
X72981706Y-116087075D01*
X72623419Y-116264776D02*
X72623419Y-116264776D01*
X72254657Y-116419570D02*
X72254657Y-116419570D01*
X71876881Y-116550843D02*
X71876881Y-116550843D01*
X71491591Y-116658074D02*
X71491591Y-116658074D01*
X71100314Y-116740839D02*
X71100314Y-116740839D01*
X70704604Y-116798808D02*
X70704604Y-116798808D01*
X70306029Y-116831752D02*
X70306029Y-116831752D01*
X69906171Y-116839541D02*
X69906171Y-116839541D01*
X69506616Y-116822143D02*
X69506616Y-116822143D01*
X69108949Y-116779627D02*
X69108949Y-116779627D01*
X68714746Y-116712162D02*
X68714746Y-116712162D01*
X68325572Y-116620015D02*
X68325572Y-116620015D01*
X67942971Y-116503553D02*
X67942971Y-116503553D01*
X67568460Y-116363237D02*
X67568460Y-116363237D01*
X67203525Y-116199623D02*
X67203525Y-116199623D01*
X66849613Y-116013361D02*
X66849613Y-116013361D01*
X66508129Y-115805190D02*
X66508129Y-115805190D01*
X66180426Y-115575935D02*
X66180426Y-115575935D01*
X65867805Y-115326505D02*
X65867805Y-115326505D01*
X65571505Y-115057891D02*
X65571505Y-115057891D01*
X65292703Y-114771157D02*
X65292703Y-114771157D01*
X65032503Y-114467441D02*
X65032503Y-114467441D01*
X64791939Y-114147947D02*
X64791939Y-114147947D01*
X64571964Y-113813944D02*
X64571964Y-113813944D01*
X64373451Y-113466756D02*
X64373451Y-113466756D01*
X64197188Y-113107760D02*
X64197188Y-113107760D01*
X64043873Y-112738380D02*
X64043873Y-112738380D01*
X63914115Y-112360081D02*
X63914115Y-112360081D01*
X63808428Y-111974364D02*
X63808428Y-111974364D01*
X63727232Y-111582759D02*
X63727232Y-111582759D01*
X63670848Y-111186820D02*
X63670848Y-111186820D01*
X63639501Y-110788117D02*
X63639501Y-110788117D01*
D14*
X53698334Y-60960000D02*
X61598334Y-60960000D01*
X57648334Y-54360000D02*
X57648334Y-67560000D01*
D10*
X58848334Y-67360000D02*
G75*
G03*
X56448334Y-67360000I-1200000J0D01*
G01*
X56448334Y-67360000D02*
G75*
G03*
X58848334Y-67360000I1200000J0D01*
G01*
X60698334Y-60960000D02*
G75*
G03*
X54598334Y-60960000I-3050000J0D01*
G01*
X54598334Y-60960000D02*
G75*
G03*
X60698334Y-60960000I3050000J0D01*
G01*
D15*
X23980063Y-28574665D02*
G75*
G03*
X21980063Y-28574665I-1000000J0D01*
G01*
X21980063Y-28574665D02*
G75*
G03*
X23980063Y-28574665I1000000J0D01*
G01*
D10*
X33480000Y-28575000D02*
X33280582Y-29650517D01*
X33112747Y-30013276D02*
X32422112Y-30861525D01*
X32100906Y-31099412D02*
X31088144Y-31512713D01*
X30692211Y-31567484D02*
X29605282Y-31444646D01*
X29231559Y-31302892D02*
X28336581Y-30673989D01*
X28076569Y-30370416D02*
X27592664Y-29389427D01*
X27510022Y-28998360D02*
X27555667Y-27905464D01*
X27670629Y-27522650D02*
X28234648Y-26585427D01*
X28519069Y-26304592D02*
X29463370Y-25752507D01*
X29847612Y-25642409D02*
X30940999Y-25610631D01*
X31330986Y-25698227D02*
X32305758Y-26194536D01*
X32606009Y-26458379D02*
X33223508Y-27361262D01*
X33360510Y-27736753D02*
X33480000Y-28575000D01*
X35030000Y-28575000D02*
G75*
G03*
X25930000Y-28575000I-4550000J0D01*
G01*
X25930000Y-28575000D02*
G75*
G03*
X35030000Y-28575000I4550000J0D01*
G01*
D14*
X20678334Y-93980000D02*
X28578334Y-93980000D01*
X24628334Y-87380000D02*
X24628334Y-100580000D01*
D10*
X25828334Y-100380000D02*
G75*
G03*
X23428334Y-100380000I-1200000J0D01*
G01*
X23428334Y-100380000D02*
G75*
G03*
X25828334Y-100380000I1200000J0D01*
G01*
X27678334Y-93980000D02*
G75*
G03*
X21578334Y-93980000I-3050000J0D01*
G01*
X21578334Y-93980000D02*
G75*
G03*
X27678334Y-93980000I3050000J0D01*
G01*
X49558690Y-59455000D02*
X47226310Y-59455000D01*
X47227025Y-59454446D02*
G75*
G03*
X49558690Y-59455001I1165475J-1500554D01*
G01*
X49892500Y-60955000D02*
G75*
G03*
X46892500Y-60955000I-1500000J0D01*
G01*
X46892500Y-60955000D02*
G75*
G03*
X49892500Y-60955000I1500000J0D01*
G01*
X49558690Y-108985000D02*
X47226310Y-108985000D01*
X47227025Y-108984446D02*
G75*
G03*
X49558690Y-108985001I1165475J-1500554D01*
G01*
X49892500Y-110485000D02*
G75*
G03*
X46892500Y-110485000I-1500000J0D01*
G01*
X46892500Y-110485000D02*
G75*
G03*
X49892500Y-110485000I1500000J0D01*
G01*
D14*
X20678334Y-60960000D02*
X28578334Y-60960000D01*
X24628334Y-54360000D02*
X24628334Y-67560000D01*
D10*
X25828334Y-67360000D02*
G75*
G03*
X23428334Y-67360000I-1200000J0D01*
G01*
X23428334Y-67360000D02*
G75*
G03*
X25828334Y-67360000I1200000J0D01*
G01*
X27678334Y-60960000D02*
G75*
G03*
X21578334Y-60960000I-3050000J0D01*
G01*
X21578334Y-60960000D02*
G75*
G03*
X27678334Y-60960000I3050000J0D01*
G01*
X49558690Y-75965000D02*
X47226310Y-75965000D01*
X47227025Y-75964446D02*
G75*
G03*
X49558690Y-75965001I1165475J-1500554D01*
G01*
X49892500Y-77465000D02*
G75*
G03*
X46892500Y-77465000I-1500000J0D01*
G01*
X46892500Y-77465000D02*
G75*
G03*
X49892500Y-77465000I1500000J0D01*
G01*
X106172000Y-31750000D02*
X103632000Y-31750000D01*
X104632000Y-31750000D02*
G75*
G03*
X102632000Y-31750000I-1000000J0D01*
G01*
X102632000Y-31750000D02*
G75*
G03*
X104632000Y-31750000I1000000J0D01*
G01*
X87630000Y-28575000D02*
X85090000Y-28575000D01*
X88880000Y-28575000D02*
G75*
G03*
X86380000Y-28575000I-1250000J0D01*
G01*
X86380000Y-28575000D02*
G75*
G03*
X88880000Y-28575000I1250000J0D01*
G01*
X43462500Y-115240000D02*
X32112500Y-115240000D01*
X43462500Y-105740000D02*
X43462500Y-115240000D01*
X43462500Y-105740000D02*
X32112500Y-105740000D01*
X32112500Y-105740000D02*
X32112500Y-115240000D01*
X40462500Y-110490000D02*
G75*
G03*
X33462500Y-110490000I-3500000J0D01*
G01*
X33462500Y-110490000D02*
G75*
G03*
X40462500Y-110490000I3500000J0D01*
G01*
X30612500Y-110490000D02*
X30612500Y-110490000D01*
X30625094Y-110090264D02*
X30625094Y-110090264D01*
X30662827Y-109692114D02*
X30662827Y-109692114D01*
X30725548Y-109297129D02*
X30725548Y-109297129D01*
X30813010Y-108906876D02*
X30813010Y-108906876D01*
X30924865Y-108522903D02*
X30924865Y-108522903D01*
X31060669Y-108146732D02*
X31060669Y-108146732D01*
X31219885Y-107779857D02*
X31219885Y-107779857D01*
X31401879Y-107423731D02*
X31401879Y-107423731D01*
X31605931Y-107079769D02*
X31605931Y-107079769D01*
X31831230Y-106749334D02*
X31831230Y-106749334D01*
X32076884Y-106433738D02*
X32076884Y-106433738D01*
X32341918Y-106134231D02*
X32341918Y-106134231D01*
X32625279Y-105852002D02*
X32625279Y-105852002D01*
X32925846Y-105588171D02*
X32925846Y-105588171D01*
X33242424Y-105343783D02*
X33242424Y-105343783D01*
X33573759Y-105119810D02*
X33573759Y-105119810D01*
X33918536Y-104917138D02*
X33918536Y-104917138D01*
X34275388Y-104736572D02*
X34275388Y-104736572D01*
X34642898Y-104578828D02*
X34642898Y-104578828D01*
X35019610Y-104444532D02*
X35019610Y-104444532D01*
X35404029Y-104334216D02*
X35404029Y-104334216D01*
X35794629Y-104248319D02*
X35794629Y-104248319D01*
X36189862Y-104187180D02*
X36189862Y-104187180D01*
X36588160Y-104151043D02*
X36588160Y-104151043D01*
X36987943Y-104140050D02*
X36987943Y-104140050D01*
X37387625Y-104154246D02*
X37387625Y-104154246D01*
X37785620Y-104193574D02*
X37785620Y-104193574D01*
X38180351Y-104257878D02*
X38180351Y-104257878D01*
X38570250Y-104346903D02*
X38570250Y-104346903D01*
X38953772Y-104460295D02*
X38953772Y-104460295D01*
X39329396Y-104597606D02*
X39329396Y-104597606D01*
X39695630Y-104758290D02*
X39695630Y-104758290D01*
X40051023Y-104941710D02*
X40051023Y-104941710D01*
X40394165Y-105147138D02*
X40394165Y-105147138D01*
X40723695Y-105373760D02*
X40723695Y-105373760D01*
X41038305Y-105620676D02*
X41038305Y-105620676D01*
X41336747Y-105886907D02*
X41336747Y-105886907D01*
X41617838Y-106171398D02*
X41617838Y-106171398D01*
X41880463Y-106473019D02*
X41880463Y-106473019D01*
X42123580Y-106790574D02*
X42123580Y-106790574D01*
X42346224Y-107122804D02*
X42346224Y-107122804D01*
X42547513Y-107468390D02*
X42547513Y-107468390D01*
X42726648Y-107825962D02*
X42726648Y-107825962D01*
X42882918Y-108194102D02*
X42882918Y-108194102D01*
X43015704Y-108571349D02*
X43015704Y-108571349D01*
X43124478Y-108956206D02*
X43124478Y-108956206D01*
X43208810Y-109347148D02*
X43208810Y-109347148D01*
X43268364Y-109742623D02*
X43268364Y-109742623D01*
X43302905Y-110141062D02*
X43302905Y-110141062D01*
X43312296Y-110540886D02*
X43312296Y-110540886D01*
X43296498Y-110940507D02*
X43296498Y-110940507D01*
X43255576Y-111338342D02*
X43255576Y-111338342D01*
X43189691Y-111732812D02*
X43189691Y-111732812D01*
X43099105Y-112122351D02*
X43099105Y-112122351D01*
X42984177Y-112505416D02*
X42984177Y-112505416D01*
X42845362Y-112880486D02*
X42845362Y-112880486D01*
X42683212Y-113246074D02*
X42683212Y-113246074D01*
X42498370Y-113600729D02*
X42498370Y-113600729D01*
X42291568Y-113943045D02*
X42291568Y-113943045D01*
X42063628Y-114271664D02*
X42063628Y-114271664D01*
X41815453Y-114585282D02*
X41815453Y-114585282D01*
X41548028Y-114882656D02*
X41548028Y-114882656D01*
X41262413Y-115162605D02*
X41262413Y-115162605D01*
X40959742Y-115424019D02*
X40959742Y-115424019D01*
X40641216Y-115665861D02*
X40641216Y-115665861D01*
X40308097Y-115887173D02*
X40308097Y-115887173D01*
X39961706Y-116087075D02*
X39961706Y-116087075D01*
X39603419Y-116264776D02*
X39603419Y-116264776D01*
X39234657Y-116419570D02*
X39234657Y-116419570D01*
X38856881Y-116550843D02*
X38856881Y-116550843D01*
X38471591Y-116658074D02*
X38471591Y-116658074D01*
X38080314Y-116740839D02*
X38080314Y-116740839D01*
X37684604Y-116798808D02*
X37684604Y-116798808D01*
X37286029Y-116831752D02*
X37286029Y-116831752D01*
X36886171Y-116839541D02*
X36886171Y-116839541D01*
X36486616Y-116822143D02*
X36486616Y-116822143D01*
X36088949Y-116779627D02*
X36088949Y-116779627D01*
X35694746Y-116712162D02*
X35694746Y-116712162D01*
X35305572Y-116620015D02*
X35305572Y-116620015D01*
X34922971Y-116503553D02*
X34922971Y-116503553D01*
X34548460Y-116363237D02*
X34548460Y-116363237D01*
X34183525Y-116199623D02*
X34183525Y-116199623D01*
X33829613Y-116013361D02*
X33829613Y-116013361D01*
X33488129Y-115805190D02*
X33488129Y-115805190D01*
X33160426Y-115575935D02*
X33160426Y-115575935D01*
X32847805Y-115326505D02*
X32847805Y-115326505D01*
X32551505Y-115057891D02*
X32551505Y-115057891D01*
X32272703Y-114771157D02*
X32272703Y-114771157D01*
X32012503Y-114467441D02*
X32012503Y-114467441D01*
X31771939Y-114147947D02*
X31771939Y-114147947D01*
X31551964Y-113813944D02*
X31551964Y-113813944D01*
X31353451Y-113466756D02*
X31353451Y-113466756D01*
X31177188Y-113107760D02*
X31177188Y-113107760D01*
X31023873Y-112738380D02*
X31023873Y-112738380D01*
X30894115Y-112360081D02*
X30894115Y-112360081D01*
X30788428Y-111974364D02*
X30788428Y-111974364D01*
X30707232Y-111582759D02*
X30707232Y-111582759D01*
X30650848Y-111186820D02*
X30650848Y-111186820D01*
X30619501Y-110788117D02*
X30619501Y-110788117D01*
X49558690Y-92475000D02*
X47226310Y-92475000D01*
X47227025Y-92474446D02*
G75*
G03*
X49558690Y-92475001I1165475J-1500554D01*
G01*
X49892500Y-93975000D02*
G75*
G03*
X46892500Y-93975000I-1500000J0D01*
G01*
X46892500Y-93975000D02*
G75*
G03*
X49892500Y-93975000I1500000J0D01*
G01*
D16*
X93090000Y-113665000D02*
X93090000Y-116205000D01*
D14*
X20678334Y-77470000D02*
X28578334Y-77470000D01*
X24628334Y-70870000D02*
X24628334Y-84070000D01*
D10*
X25828334Y-83870000D02*
G75*
G03*
X23428334Y-83870000I-1200000J0D01*
G01*
X23428334Y-83870000D02*
G75*
G03*
X25828334Y-83870000I1200000J0D01*
G01*
X27678334Y-77470000D02*
G75*
G03*
X21578334Y-77470000I-3050000J0D01*
G01*
X21578334Y-77470000D02*
G75*
G03*
X27678334Y-77470000I3050000J0D01*
G01*
X76482500Y-98730000D02*
X65132500Y-98730000D01*
X76482500Y-89230000D02*
X76482500Y-98730000D01*
X76482500Y-89230000D02*
X65132500Y-89230000D01*
X65132500Y-89230000D02*
X65132500Y-98730000D01*
X73482500Y-93980000D02*
G75*
G03*
X66482500Y-93980000I-3500000J0D01*
G01*
X66482500Y-93980000D02*
G75*
G03*
X73482500Y-93980000I3500000J0D01*
G01*
X63632500Y-93980000D02*
X63632500Y-93980000D01*
X63645094Y-93580264D02*
X63645094Y-93580264D01*
X63682827Y-93182114D02*
X63682827Y-93182114D01*
X63745548Y-92787129D02*
X63745548Y-92787129D01*
X63833010Y-92396876D02*
X63833010Y-92396876D01*
X63944865Y-92012903D02*
X63944865Y-92012903D01*
X64080669Y-91636732D02*
X64080669Y-91636732D01*
X64239885Y-91269857D02*
X64239885Y-91269857D01*
X64421879Y-90913731D02*
X64421879Y-90913731D01*
X64625931Y-90569769D02*
X64625931Y-90569769D01*
X64851230Y-90239334D02*
X64851230Y-90239334D01*
X65096884Y-89923738D02*
X65096884Y-89923738D01*
X65361918Y-89624231D02*
X65361918Y-89624231D01*
X65645279Y-89342002D02*
X65645279Y-89342002D01*
X65945846Y-89078171D02*
X65945846Y-89078171D01*
X66262424Y-88833783D02*
X66262424Y-88833783D01*
X66593759Y-88609810D02*
X66593759Y-88609810D01*
X66938536Y-88407138D02*
X66938536Y-88407138D01*
X67295388Y-88226572D02*
X67295388Y-88226572D01*
X67662898Y-88068828D02*
X67662898Y-88068828D01*
X68039610Y-87934532D02*
X68039610Y-87934532D01*
X68424029Y-87824216D02*
X68424029Y-87824216D01*
X68814629Y-87738319D02*
X68814629Y-87738319D01*
X69209862Y-87677180D02*
X69209862Y-87677180D01*
X69608160Y-87641043D02*
X69608160Y-87641043D01*
X70007943Y-87630050D02*
X70007943Y-87630050D01*
X70407625Y-87644246D02*
X70407625Y-87644246D01*
X70805620Y-87683574D02*
X70805620Y-87683574D01*
X71200351Y-87747878D02*
X71200351Y-87747878D01*
X71590250Y-87836903D02*
X71590250Y-87836903D01*
X71973772Y-87950295D02*
X71973772Y-87950295D01*
X72349396Y-88087606D02*
X72349396Y-88087606D01*
X72715630Y-88248290D02*
X72715630Y-88248290D01*
X73071023Y-88431710D02*
X73071023Y-88431710D01*
X73414165Y-88637138D02*
X73414165Y-88637138D01*
X73743695Y-88863760D02*
X73743695Y-88863760D01*
X74058305Y-89110676D02*
X74058305Y-89110676D01*
X74356747Y-89376907D02*
X74356747Y-89376907D01*
X74637838Y-89661398D02*
X74637838Y-89661398D01*
X74900463Y-89963019D02*
X74900463Y-89963019D01*
X75143580Y-90280574D02*
X75143580Y-90280574D01*
X75366224Y-90612804D02*
X75366224Y-90612804D01*
X75567513Y-90958390D02*
X75567513Y-90958390D01*
X75746648Y-91315962D02*
X75746648Y-91315962D01*
X75902918Y-91684102D02*
X75902918Y-91684102D01*
X76035704Y-92061349D02*
X76035704Y-92061349D01*
X76144478Y-92446206D02*
X76144478Y-92446206D01*
X76228810Y-92837148D02*
X76228810Y-92837148D01*
X76288364Y-93232623D02*
X76288364Y-93232623D01*
X76322905Y-93631062D02*
X76322905Y-93631062D01*
X76332296Y-94030886D02*
X76332296Y-94030886D01*
X76316498Y-94430507D02*
X76316498Y-94430507D01*
X76275576Y-94828342D02*
X76275576Y-94828342D01*
X76209691Y-95222812D02*
X76209691Y-95222812D01*
X76119105Y-95612351D02*
X76119105Y-95612351D01*
X76004177Y-95995416D02*
X76004177Y-95995416D01*
X75865362Y-96370486D02*
X75865362Y-96370486D01*
X75703212Y-96736074D02*
X75703212Y-96736074D01*
X75518370Y-97090729D02*
X75518370Y-97090729D01*
X75311568Y-97433045D02*
X75311568Y-97433045D01*
X75083628Y-97761664D02*
X75083628Y-97761664D01*
X74835453Y-98075282D02*
X74835453Y-98075282D01*
X74568028Y-98372656D02*
X74568028Y-98372656D01*
X74282413Y-98652605D02*
X74282413Y-98652605D01*
X73979742Y-98914019D02*
X73979742Y-98914019D01*
X73661216Y-99155861D02*
X73661216Y-99155861D01*
X73328097Y-99377173D02*
X73328097Y-99377173D01*
X72981706Y-99577075D02*
X72981706Y-99577075D01*
X72623419Y-99754776D02*
X72623419Y-99754776D01*
X72254657Y-99909570D02*
X72254657Y-99909570D01*
X71876881Y-100040843D02*
X71876881Y-100040843D01*
X71491591Y-100148074D02*
X71491591Y-100148074D01*
X71100314Y-100230839D02*
X71100314Y-100230839D01*
X70704604Y-100288808D02*
X70704604Y-100288808D01*
X70306029Y-100321752D02*
X70306029Y-100321752D01*
X69906171Y-100329541D02*
X69906171Y-100329541D01*
X69506616Y-100312143D02*
X69506616Y-100312143D01*
X69108949Y-100269627D02*
X69108949Y-100269627D01*
X68714746Y-100202162D02*
X68714746Y-100202162D01*
X68325572Y-100110015D02*
X68325572Y-100110015D01*
X67942971Y-99993553D02*
X67942971Y-99993553D01*
X67568460Y-99853237D02*
X67568460Y-99853237D01*
X67203525Y-99689623D02*
X67203525Y-99689623D01*
X66849613Y-99503361D02*
X66849613Y-99503361D01*
X66508129Y-99295190D02*
X66508129Y-99295190D01*
X66180426Y-99065935D02*
X66180426Y-99065935D01*
X65867805Y-98816505D02*
X65867805Y-98816505D01*
X65571505Y-98547891D02*
X65571505Y-98547891D01*
X65292703Y-98261157D02*
X65292703Y-98261157D01*
X65032503Y-97957441D02*
X65032503Y-97957441D01*
X64791939Y-97637947D02*
X64791939Y-97637947D01*
X64571964Y-97303944D02*
X64571964Y-97303944D01*
X64373451Y-96956756D02*
X64373451Y-96956756D01*
X64197188Y-96597760D02*
X64197188Y-96597760D01*
X64043873Y-96228380D02*
X64043873Y-96228380D01*
X63914115Y-95850081D02*
X63914115Y-95850081D01*
X63808428Y-95464364D02*
X63808428Y-95464364D01*
X63727232Y-95072759D02*
X63727232Y-95072759D01*
X63670848Y-94676820D02*
X63670848Y-94676820D01*
X63639501Y-94278117D02*
X63639501Y-94278117D01*
X82446190Y-59455000D02*
X80113810Y-59455000D01*
X80114525Y-59454446D02*
G75*
G03*
X82446190Y-59455001I1165475J-1500554D01*
G01*
X82780000Y-60955000D02*
G75*
G03*
X79780000Y-60955000I-1500000J0D01*
G01*
X79780000Y-60955000D02*
G75*
G03*
X82780000Y-60955000I1500000J0D01*
G01*
X104690000Y-88265000D02*
G75*
G03*
X101090000Y-88265000I-1800000J0D01*
G01*
X101090000Y-88265000D02*
G75*
G03*
X104690000Y-88265000I1800000J0D01*
G01*
X105890000Y-88265000D02*
G75*
G03*
X99890000Y-88265000I-3000000J0D01*
G01*
X99890000Y-88265000D02*
G75*
G03*
X105890000Y-88265000I3000000J0D01*
G01*
X65100000Y-35207500D02*
X65100000Y-23857500D01*
X74600000Y-35207500D02*
X65100000Y-35207500D01*
X74600000Y-35207500D02*
X74600000Y-23857500D01*
X74600000Y-23857500D02*
X65100000Y-23857500D01*
X73350000Y-28707500D02*
G75*
G03*
X66350000Y-28707500I-3500000J0D01*
G01*
X66350000Y-28707500D02*
G75*
G03*
X73350000Y-28707500I3500000J0D01*
G01*
X69850000Y-22357500D02*
X69850000Y-22357500D01*
X70249735Y-22370094D02*
X70249735Y-22370094D01*
X70647885Y-22407827D02*
X70647885Y-22407827D01*
X71042870Y-22470548D02*
X71042870Y-22470548D01*
X71433123Y-22558010D02*
X71433123Y-22558010D01*
X71817096Y-22669865D02*
X71817096Y-22669865D01*
X72193267Y-22805669D02*
X72193267Y-22805669D01*
X72560142Y-22964885D02*
X72560142Y-22964885D01*
X72916268Y-23146879D02*
X72916268Y-23146879D01*
X73260230Y-23350931D02*
X73260230Y-23350931D01*
X73590665Y-23576230D02*
X73590665Y-23576230D01*
X73906261Y-23821884D02*
X73906261Y-23821884D01*
X74205768Y-24086918D02*
X74205768Y-24086918D01*
X74487997Y-24370279D02*
X74487997Y-24370279D01*
X74751828Y-24670846D02*
X74751828Y-24670846D01*
X74996216Y-24987424D02*
X74996216Y-24987424D01*
X75220189Y-25318759D02*
X75220189Y-25318759D01*
X75422861Y-25663536D02*
X75422861Y-25663536D01*
X75603427Y-26020388D02*
X75603427Y-26020388D01*
X75761171Y-26387898D02*
X75761171Y-26387898D01*
X75895467Y-26764610D02*
X75895467Y-26764610D01*
X76005783Y-27149029D02*
X76005783Y-27149029D01*
X76091680Y-27539629D02*
X76091680Y-27539629D01*
X76152819Y-27934862D02*
X76152819Y-27934862D01*
X76188956Y-28333160D02*
X76188956Y-28333160D01*
X76199949Y-28732943D02*
X76199949Y-28732943D01*
X76185753Y-29132625D02*
X76185753Y-29132625D01*
X76146425Y-29530620D02*
X76146425Y-29530620D01*
X76082121Y-29925351D02*
X76082121Y-29925351D01*
X75993096Y-30315250D02*
X75993096Y-30315250D01*
X75879704Y-30698772D02*
X75879704Y-30698772D01*
X75742393Y-31074396D02*
X75742393Y-31074396D01*
X75581709Y-31440630D02*
X75581709Y-31440630D01*
X75398289Y-31796023D02*
X75398289Y-31796023D01*
X75192861Y-32139165D02*
X75192861Y-32139165D01*
X74966239Y-32468695D02*
X74966239Y-32468695D01*
X74719323Y-32783305D02*
X74719323Y-32783305D01*
X74453092Y-33081747D02*
X74453092Y-33081747D01*
X74168601Y-33362838D02*
X74168601Y-33362838D01*
X73866980Y-33625463D02*
X73866980Y-33625463D01*
X73549425Y-33868580D02*
X73549425Y-33868580D01*
X73217195Y-34091224D02*
X73217195Y-34091224D01*
X72871609Y-34292513D02*
X72871609Y-34292513D01*
X72514037Y-34471648D02*
X72514037Y-34471648D01*
X72145897Y-34627918D02*
X72145897Y-34627918D01*
X71768650Y-34760704D02*
X71768650Y-34760704D01*
X71383793Y-34869478D02*
X71383793Y-34869478D01*
X70992851Y-34953810D02*
X70992851Y-34953810D01*
X70597376Y-35013364D02*
X70597376Y-35013364D01*
X70198937Y-35047905D02*
X70198937Y-35047905D01*
X69799113Y-35057296D02*
X69799113Y-35057296D01*
X69399492Y-35041498D02*
X69399492Y-35041498D01*
X69001657Y-35000576D02*
X69001657Y-35000576D01*
X68607187Y-34934691D02*
X68607187Y-34934691D01*
X68217648Y-34844105D02*
X68217648Y-34844105D01*
X67834583Y-34729177D02*
X67834583Y-34729177D01*
X67459513Y-34590362D02*
X67459513Y-34590362D01*
X67093925Y-34428212D02*
X67093925Y-34428212D01*
X66739270Y-34243370D02*
X66739270Y-34243370D01*
X66396954Y-34036568D02*
X66396954Y-34036568D01*
X66068335Y-33808628D02*
X66068335Y-33808628D01*
X65754717Y-33560453D02*
X65754717Y-33560453D01*
X65457343Y-33293028D02*
X65457343Y-33293028D01*
X65177394Y-33007413D02*
X65177394Y-33007413D01*
X64915980Y-32704742D02*
X64915980Y-32704742D01*
X64674138Y-32386216D02*
X64674138Y-32386216D01*
X64452826Y-32053097D02*
X64452826Y-32053097D01*
X64252924Y-31706706D02*
X64252924Y-31706706D01*
X64075223Y-31348419D02*
X64075223Y-31348419D01*
X63920429Y-30979657D02*
X63920429Y-30979657D01*
X63789156Y-30601881D02*
X63789156Y-30601881D01*
X63681925Y-30216591D02*
X63681925Y-30216591D01*
X63599160Y-29825314D02*
X63599160Y-29825314D01*
X63541191Y-29429604D02*
X63541191Y-29429604D01*
X63508247Y-29031029D02*
X63508247Y-29031029D01*
X63500458Y-28631171D02*
X63500458Y-28631171D01*
X63517856Y-28231616D02*
X63517856Y-28231616D01*
X63560372Y-27833949D02*
X63560372Y-27833949D01*
X63627837Y-27439746D02*
X63627837Y-27439746D01*
X63719984Y-27050572D02*
X63719984Y-27050572D01*
X63836446Y-26667971D02*
X63836446Y-26667971D01*
X63976762Y-26293460D02*
X63976762Y-26293460D01*
X64140376Y-25928525D02*
X64140376Y-25928525D01*
X64326638Y-25574613D02*
X64326638Y-25574613D01*
X64534809Y-25233129D02*
X64534809Y-25233129D01*
X64764064Y-24905426D02*
X64764064Y-24905426D01*
X65013494Y-24592805D02*
X65013494Y-24592805D01*
X65282108Y-24296505D02*
X65282108Y-24296505D01*
X65568842Y-24017703D02*
X65568842Y-24017703D01*
X65872558Y-23757503D02*
X65872558Y-23757503D01*
X66192052Y-23516939D02*
X66192052Y-23516939D01*
X66526055Y-23296964D02*
X66526055Y-23296964D01*
X66873243Y-23098451D02*
X66873243Y-23098451D01*
X67232239Y-22922188D02*
X67232239Y-22922188D01*
X67601619Y-22768873D02*
X67601619Y-22768873D01*
X67979918Y-22639115D02*
X67979918Y-22639115D01*
X68365635Y-22533428D02*
X68365635Y-22533428D01*
X68757240Y-22452232D02*
X68757240Y-22452232D01*
X69153179Y-22395848D02*
X69153179Y-22395848D01*
X69551882Y-22364501D02*
X69551882Y-22364501D01*
X104690000Y-63500000D02*
G75*
G03*
X101090000Y-63500000I-1800000J0D01*
G01*
X101090000Y-63500000D02*
G75*
G03*
X104690000Y-63500000I1800000J0D01*
G01*
X105890000Y-63500000D02*
G75*
G03*
X99890000Y-63500000I-3000000J0D01*
G01*
X99890000Y-63500000D02*
G75*
G03*
X105890000Y-63500000I3000000J0D01*
G01*
X43462500Y-82220000D02*
X32112500Y-82220000D01*
X43462500Y-72720000D02*
X43462500Y-82220000D01*
X43462500Y-72720000D02*
X32112500Y-72720000D01*
X32112500Y-72720000D02*
X32112500Y-82220000D01*
X40462500Y-77470000D02*
G75*
G03*
X33462500Y-77470000I-3500000J0D01*
G01*
X33462500Y-77470000D02*
G75*
G03*
X40462500Y-77470000I3500000J0D01*
G01*
X30612500Y-77470000D02*
X30612500Y-77470000D01*
X30625094Y-77070264D02*
X30625094Y-77070264D01*
X30662827Y-76672114D02*
X30662827Y-76672114D01*
X30725548Y-76277129D02*
X30725548Y-76277129D01*
X30813010Y-75886876D02*
X30813010Y-75886876D01*
X30924865Y-75502903D02*
X30924865Y-75502903D01*
X31060669Y-75126732D02*
X31060669Y-75126732D01*
X31219885Y-74759857D02*
X31219885Y-74759857D01*
X31401879Y-74403731D02*
X31401879Y-74403731D01*
X31605931Y-74059769D02*
X31605931Y-74059769D01*
X31831230Y-73729334D02*
X31831230Y-73729334D01*
X32076884Y-73413738D02*
X32076884Y-73413738D01*
X32341918Y-73114231D02*
X32341918Y-73114231D01*
X32625279Y-72832002D02*
X32625279Y-72832002D01*
X32925846Y-72568171D02*
X32925846Y-72568171D01*
X33242424Y-72323783D02*
X33242424Y-72323783D01*
X33573759Y-72099810D02*
X33573759Y-72099810D01*
X33918536Y-71897138D02*
X33918536Y-71897138D01*
X34275388Y-71716572D02*
X34275388Y-71716572D01*
X34642898Y-71558828D02*
X34642898Y-71558828D01*
X35019610Y-71424532D02*
X35019610Y-71424532D01*
X35404029Y-71314216D02*
X35404029Y-71314216D01*
X35794629Y-71228319D02*
X35794629Y-71228319D01*
X36189862Y-71167180D02*
X36189862Y-71167180D01*
X36588160Y-71131043D02*
X36588160Y-71131043D01*
X36987943Y-71120050D02*
X36987943Y-71120050D01*
X37387625Y-71134246D02*
X37387625Y-71134246D01*
X37785620Y-71173574D02*
X37785620Y-71173574D01*
X38180351Y-71237878D02*
X38180351Y-71237878D01*
X38570250Y-71326903D02*
X38570250Y-71326903D01*
X38953772Y-71440295D02*
X38953772Y-71440295D01*
X39329396Y-71577606D02*
X39329396Y-71577606D01*
X39695630Y-71738290D02*
X39695630Y-71738290D01*
X40051023Y-71921710D02*
X40051023Y-71921710D01*
X40394165Y-72127138D02*
X40394165Y-72127138D01*
X40723695Y-72353760D02*
X40723695Y-72353760D01*
X41038305Y-72600676D02*
X41038305Y-72600676D01*
X41336747Y-72866907D02*
X41336747Y-72866907D01*
X41617838Y-73151398D02*
X41617838Y-73151398D01*
X41880463Y-73453019D02*
X41880463Y-73453019D01*
X42123580Y-73770574D02*
X42123580Y-73770574D01*
X42346224Y-74102804D02*
X42346224Y-74102804D01*
X42547513Y-74448390D02*
X42547513Y-74448390D01*
X42726648Y-74805962D02*
X42726648Y-74805962D01*
X42882918Y-75174102D02*
X42882918Y-75174102D01*
X43015704Y-75551349D02*
X43015704Y-75551349D01*
X43124478Y-75936206D02*
X43124478Y-75936206D01*
X43208810Y-76327148D02*
X43208810Y-76327148D01*
X43268364Y-76722623D02*
X43268364Y-76722623D01*
X43302905Y-77121062D02*
X43302905Y-77121062D01*
X43312296Y-77520886D02*
X43312296Y-77520886D01*
X43296498Y-77920507D02*
X43296498Y-77920507D01*
X43255576Y-78318342D02*
X43255576Y-78318342D01*
X43189691Y-78712812D02*
X43189691Y-78712812D01*
X43099105Y-79102351D02*
X43099105Y-79102351D01*
X42984177Y-79485416D02*
X42984177Y-79485416D01*
X42845362Y-79860486D02*
X42845362Y-79860486D01*
X42683212Y-80226074D02*
X42683212Y-80226074D01*
X42498370Y-80580729D02*
X42498370Y-80580729D01*
X42291568Y-80923045D02*
X42291568Y-80923045D01*
X42063628Y-81251664D02*
X42063628Y-81251664D01*
X41815453Y-81565282D02*
X41815453Y-81565282D01*
X41548028Y-81862656D02*
X41548028Y-81862656D01*
X41262413Y-82142605D02*
X41262413Y-82142605D01*
X40959742Y-82404019D02*
X40959742Y-82404019D01*
X40641216Y-82645861D02*
X40641216Y-82645861D01*
X40308097Y-82867173D02*
X40308097Y-82867173D01*
X39961706Y-83067075D02*
X39961706Y-83067075D01*
X39603419Y-83244776D02*
X39603419Y-83244776D01*
X39234657Y-83399570D02*
X39234657Y-83399570D01*
X38856881Y-83530843D02*
X38856881Y-83530843D01*
X38471591Y-83638074D02*
X38471591Y-83638074D01*
X38080314Y-83720839D02*
X38080314Y-83720839D01*
X37684604Y-83778808D02*
X37684604Y-83778808D01*
X37286029Y-83811752D02*
X37286029Y-83811752D01*
X36886171Y-83819541D02*
X36886171Y-83819541D01*
X36486616Y-83802143D02*
X36486616Y-83802143D01*
X36088949Y-83759627D02*
X36088949Y-83759627D01*
X35694746Y-83692162D02*
X35694746Y-83692162D01*
X35305572Y-83600015D02*
X35305572Y-83600015D01*
X34922971Y-83483553D02*
X34922971Y-83483553D01*
X34548460Y-83343237D02*
X34548460Y-83343237D01*
X34183525Y-83179623D02*
X34183525Y-83179623D01*
X33829613Y-82993361D02*
X33829613Y-82993361D01*
X33488129Y-82785190D02*
X33488129Y-82785190D01*
X33160426Y-82555935D02*
X33160426Y-82555935D01*
X32847805Y-82306505D02*
X32847805Y-82306505D01*
X32551505Y-82037891D02*
X32551505Y-82037891D01*
X32272703Y-81751157D02*
X32272703Y-81751157D01*
X32012503Y-81447441D02*
X32012503Y-81447441D01*
X31771939Y-81127947D02*
X31771939Y-81127947D01*
X31551964Y-80793944D02*
X31551964Y-80793944D01*
X31353451Y-80446756D02*
X31353451Y-80446756D01*
X31177188Y-80087760D02*
X31177188Y-80087760D01*
X31023873Y-79718380D02*
X31023873Y-79718380D01*
X30894115Y-79340081D02*
X30894115Y-79340081D01*
X30788428Y-78954364D02*
X30788428Y-78954364D01*
X30707232Y-78562759D02*
X30707232Y-78562759D01*
X30650848Y-78166820D02*
X30650848Y-78166820D01*
X30619501Y-77768117D02*
X30619501Y-77768117D01*
X104690000Y-75882500D02*
G75*
G03*
X101090000Y-75882500I-1800000J0D01*
G01*
X101090000Y-75882500D02*
G75*
G03*
X104690000Y-75882500I1800000J0D01*
G01*
X105890000Y-75882500D02*
G75*
G03*
X99890000Y-75882500I-3000000J0D01*
G01*
X99890000Y-75882500D02*
G75*
G03*
X105890000Y-75882500I3000000J0D01*
G01*
X82798605Y-28392500D02*
X82298605Y-28392500D01*
X82548605Y-28642500D02*
X82548605Y-28142500D01*
X83165000Y-27305000D02*
G75*
G03*
X78165000Y-27305000I-2500000J0D01*
G01*
X78165000Y-27305000D02*
G75*
G03*
X83165000Y-27305000I2500000J0D01*
G01*
D14*
X53698334Y-93980000D02*
X61598334Y-93980000D01*
X57648334Y-87380000D02*
X57648334Y-100580000D01*
D10*
X58848334Y-100380000D02*
G75*
G03*
X56448334Y-100380000I-1200000J0D01*
G01*
X56448334Y-100380000D02*
G75*
G03*
X58848334Y-100380000I1200000J0D01*
G01*
X60698334Y-93980000D02*
G75*
G03*
X54598334Y-93980000I-3050000J0D01*
G01*
X54598334Y-93980000D02*
G75*
G03*
X60698334Y-93980000I3050000J0D01*
G01*
X104690000Y-100647500D02*
G75*
G03*
X101090000Y-100647500I-1800000J0D01*
G01*
X101090000Y-100647500D02*
G75*
G03*
X104690000Y-100647500I1800000J0D01*
G01*
X105890000Y-100647500D02*
G75*
G03*
X99890000Y-100647500I-3000000J0D01*
G01*
X99890000Y-100647500D02*
G75*
G03*
X105890000Y-100647500I3000000J0D01*
G01*
X76482500Y-65710000D02*
X65132500Y-65710000D01*
X76482500Y-56210000D02*
X76482500Y-65710000D01*
X76482500Y-56210000D02*
X65132500Y-56210000D01*
X65132500Y-56210000D02*
X65132500Y-65710000D01*
X73482500Y-60960000D02*
G75*
G03*
X66482500Y-60960000I-3500000J0D01*
G01*
X66482500Y-60960000D02*
G75*
G03*
X73482500Y-60960000I3500000J0D01*
G01*
X63632500Y-60960000D02*
X63632500Y-60960000D01*
X63645094Y-60560264D02*
X63645094Y-60560264D01*
X63682827Y-60162114D02*
X63682827Y-60162114D01*
X63745548Y-59767129D02*
X63745548Y-59767129D01*
X63833010Y-59376876D02*
X63833010Y-59376876D01*
X63944865Y-58992903D02*
X63944865Y-58992903D01*
X64080669Y-58616732D02*
X64080669Y-58616732D01*
X64239885Y-58249857D02*
X64239885Y-58249857D01*
X64421879Y-57893731D02*
X64421879Y-57893731D01*
X64625931Y-57549769D02*
X64625931Y-57549769D01*
X64851230Y-57219334D02*
X64851230Y-57219334D01*
X65096884Y-56903738D02*
X65096884Y-56903738D01*
X65361918Y-56604231D02*
X65361918Y-56604231D01*
X65645279Y-56322002D02*
X65645279Y-56322002D01*
X65945846Y-56058171D02*
X65945846Y-56058171D01*
X66262424Y-55813783D02*
X66262424Y-55813783D01*
X66593759Y-55589810D02*
X66593759Y-55589810D01*
X66938536Y-55387138D02*
X66938536Y-55387138D01*
X67295388Y-55206572D02*
X67295388Y-55206572D01*
X67662898Y-55048828D02*
X67662898Y-55048828D01*
X68039610Y-54914532D02*
X68039610Y-54914532D01*
X68424029Y-54804216D02*
X68424029Y-54804216D01*
X68814629Y-54718319D02*
X68814629Y-54718319D01*
X69209862Y-54657180D02*
X69209862Y-54657180D01*
X69608160Y-54621043D02*
X69608160Y-54621043D01*
X70007943Y-54610050D02*
X70007943Y-54610050D01*
X70407625Y-54624246D02*
X70407625Y-54624246D01*
X70805620Y-54663574D02*
X70805620Y-54663574D01*
X71200351Y-54727878D02*
X71200351Y-54727878D01*
X71590250Y-54816903D02*
X71590250Y-54816903D01*
X71973772Y-54930295D02*
X71973772Y-54930295D01*
X72349396Y-55067606D02*
X72349396Y-55067606D01*
X72715630Y-55228290D02*
X72715630Y-55228290D01*
X73071023Y-55411710D02*
X73071023Y-55411710D01*
X73414165Y-55617138D02*
X73414165Y-55617138D01*
X73743695Y-55843760D02*
X73743695Y-55843760D01*
X74058305Y-56090676D02*
X74058305Y-56090676D01*
X74356747Y-56356907D02*
X74356747Y-56356907D01*
X74637838Y-56641398D02*
X74637838Y-56641398D01*
X74900463Y-56943019D02*
X74900463Y-56943019D01*
X75143580Y-57260574D02*
X75143580Y-57260574D01*
X75366224Y-57592804D02*
X75366224Y-57592804D01*
X75567513Y-57938390D02*
X75567513Y-57938390D01*
X75746648Y-58295962D02*
X75746648Y-58295962D01*
X75902918Y-58664102D02*
X75902918Y-58664102D01*
X76035704Y-59041349D02*
X76035704Y-59041349D01*
X76144478Y-59426206D02*
X76144478Y-59426206D01*
X76228810Y-59817148D02*
X76228810Y-59817148D01*
X76288364Y-60212623D02*
X76288364Y-60212623D01*
X76322905Y-60611062D02*
X76322905Y-60611062D01*
X76332296Y-61010886D02*
X76332296Y-61010886D01*
X76316498Y-61410507D02*
X76316498Y-61410507D01*
X76275576Y-61808342D02*
X76275576Y-61808342D01*
X76209691Y-62202812D02*
X76209691Y-62202812D01*
X76119105Y-62592351D02*
X76119105Y-62592351D01*
X76004177Y-62975416D02*
X76004177Y-62975416D01*
X75865362Y-63350486D02*
X75865362Y-63350486D01*
X75703212Y-63716074D02*
X75703212Y-63716074D01*
X75518370Y-64070729D02*
X75518370Y-64070729D01*
X75311568Y-64413045D02*
X75311568Y-64413045D01*
X75083628Y-64741664D02*
X75083628Y-64741664D01*
X74835453Y-65055282D02*
X74835453Y-65055282D01*
X74568028Y-65352656D02*
X74568028Y-65352656D01*
X74282413Y-65632605D02*
X74282413Y-65632605D01*
X73979742Y-65894019D02*
X73979742Y-65894019D01*
X73661216Y-66135861D02*
X73661216Y-66135861D01*
X73328097Y-66357173D02*
X73328097Y-66357173D01*
X72981706Y-66557075D02*
X72981706Y-66557075D01*
X72623419Y-66734776D02*
X72623419Y-66734776D01*
X72254657Y-66889570D02*
X72254657Y-66889570D01*
X71876881Y-67020843D02*
X71876881Y-67020843D01*
X71491591Y-67128074D02*
X71491591Y-67128074D01*
X71100314Y-67210839D02*
X71100314Y-67210839D01*
X70704604Y-67268808D02*
X70704604Y-67268808D01*
X70306029Y-67301752D02*
X70306029Y-67301752D01*
X69906171Y-67309541D02*
X69906171Y-67309541D01*
X69506616Y-67292143D02*
X69506616Y-67292143D01*
X69108949Y-67249627D02*
X69108949Y-67249627D01*
X68714746Y-67182162D02*
X68714746Y-67182162D01*
X68325572Y-67090015D02*
X68325572Y-67090015D01*
X67942971Y-66973553D02*
X67942971Y-66973553D01*
X67568460Y-66833237D02*
X67568460Y-66833237D01*
X67203525Y-66669623D02*
X67203525Y-66669623D01*
X66849613Y-66483361D02*
X66849613Y-66483361D01*
X66508129Y-66275190D02*
X66508129Y-66275190D01*
X66180426Y-66045935D02*
X66180426Y-66045935D01*
X65867805Y-65796505D02*
X65867805Y-65796505D01*
X65571505Y-65527891D02*
X65571505Y-65527891D01*
X65292703Y-65241157D02*
X65292703Y-65241157D01*
X65032503Y-64937441D02*
X65032503Y-64937441D01*
X64791939Y-64617947D02*
X64791939Y-64617947D01*
X64571964Y-64283944D02*
X64571964Y-64283944D01*
X64373451Y-63936756D02*
X64373451Y-63936756D01*
X64197188Y-63577760D02*
X64197188Y-63577760D01*
X64043873Y-63208380D02*
X64043873Y-63208380D01*
X63914115Y-62830081D02*
X63914115Y-62830081D01*
X63808428Y-62444364D02*
X63808428Y-62444364D01*
X63727232Y-62052759D02*
X63727232Y-62052759D01*
X63670848Y-61656820D02*
X63670848Y-61656820D01*
X63639501Y-61258117D02*
X63639501Y-61258117D01*
D17*
X19685000Y-19685000D02*
X109685000Y-19685000D01*
X109685000Y-119685000D01*
X19685000Y-119685000D01*
X19685000Y-19685000D01*
M02*
