M48
; DRILL file {KiCad 7.0.10} date Sat Aug  3 17:22:47 2024
; FORMAT={-:-/ absolute / metric / decimal}
; #@! TF.CreationDate,2024-08-03T17:22:47+10:00
; #@! TF.GenerationSoftware,Kicad,Pcbnew,7.0.10
; #@! TF.FileFunction,Plated,1,2,PTH
FMAT,2
METRIC
; #@! TA.AperFunction,Plated,PTH,ViaDrill
T1C0.600
; #@! TA.AperFunction,Plated,PTH,ComponentDrill
T2C0.600
; #@! TA.AperFunction,Plated,PTH,ViaDrill
T3C0.700
; #@! TA.AperFunction,Plated,PTH,ComponentDrill
T4C0.750
; #@! TA.AperFunction,Plated,PTH,ComponentDrill
T5C0.800
; #@! TA.AperFunction,Plated,PTH,ComponentDrill
T6C0.900
; #@! TA.AperFunction,Plated,PTH,ComponentDrill
T7C1.000
; #@! TA.AperFunction,Plated,PTH,ComponentDrill
T8C1.400
%
G90
G05
T1
X27.94Y-63.5
X27.94Y-80.01
X27.94Y-96.52
X27.94Y-101.6
X30.48Y-52.324
X30.48Y-96.52
X30.48Y-101.6
X31.75Y-80.01
X33.02Y-39.37
X33.02Y-52.705
X33.02Y-63.5
X35.56Y-39.37
X38.1Y-39.37
X40.132Y-56.896
X43.468Y-100.296
X44.196Y-68.072
X44.45Y-84.455
X46.355Y-44.45
X50.165Y-45.72
X52.07Y-100.965
X52.832Y-51.816
X54.61Y-100.965
X61.468Y-69.088
X63.5Y-61.468
X66.04Y-47.244
X77.47Y-83.82
X78.232Y-39.624
X78.74Y-34.544
X83.82Y-53.975
X84.328Y-34.544
X84.836Y-63.5
X86.995Y-58.42
X88.9Y-60.96
X88.9Y-63.5
X90.932Y-54.356
X93.98Y-60.96
X93.98Y-63.5
X96.012Y-55.88
X102.616Y-58.42
T3
X20.32Y-21.59
X21.59Y-20.32
X88.265Y-66.675
X96.52Y-66.675
T4
X33.02Y-54.895
X33.02Y-56.895
X33.02Y-58.896
X33.02Y-71.406
X33.02Y-73.406
X33.02Y-75.406
X33.02Y-87.915
X33.02Y-89.915
X33.02Y-91.916
X33.02Y-104.679
X33.02Y-106.679
X33.02Y-108.68
X66.04Y-55.15
X66.04Y-57.15
X66.04Y-59.15
X66.04Y-71.659
X66.04Y-73.659
X66.04Y-75.66
X66.04Y-88.17
X66.04Y-90.17
X66.04Y-92.17
X66.04Y-104.679
X66.04Y-106.679
X66.04Y-108.68
X93.63Y-107.586
X95.63Y-107.586
X97.63Y-107.586
T5
X21.691Y-105.146
X21.691Y-107.686
X21.696Y-88.636
X21.696Y-91.176
X21.793Y-72.238
X21.793Y-74.778
X21.794Y-55.788
X21.794Y-58.328
X26.655Y-41.277
X26.655Y-48.898
X26.895Y-108.204
X27.341Y-55.719
X27.341Y-58.259
X27.488Y-88.712
X27.488Y-91.252
X27.493Y-72.121
X27.493Y-74.661
X28.419Y-28.575
X29.195Y-41.277
X29.195Y-48.898
X29.435Y-108.204
X30.959Y-28.575
X31.735Y-41.277
X31.735Y-48.898
X34.275Y-41.277
X34.275Y-48.898
X36.815Y-41.277
X36.815Y-48.898
X39.355Y-41.277
X39.355Y-48.898
X40.928Y-104.396
X41.431Y-87.63
X41.732Y-71.242
X41.895Y-41.277
X41.895Y-48.898
X41.91Y-54.61
X43.468Y-104.396
X43.971Y-87.63
X44.272Y-71.242
X44.435Y-41.277
X44.435Y-48.898
X44.45Y-54.61
X47.488Y-81.305
X47.488Y-83.845
X47.625Y-65.02
X47.625Y-67.56
X47.665Y-41.275
X48.323Y-97.543
X48.323Y-100.083
X51.059Y-109.347
X51.059Y-111.887
X51.337Y-33.528
X52.665Y-41.275
X53.877Y-33.528
X54.707Y-55.614
X54.707Y-58.154
X54.71Y-105.145
X54.71Y-107.685
X54.711Y-88.66
X54.711Y-91.2
X54.756Y-72.16
X54.756Y-74.7
X58.42Y-31.115
X58.42Y-34.925
X59.055Y-22.86
X59.055Y-50.165
X59.055Y-52.705
X60.578Y-105.129
X60.578Y-107.669
X60.587Y-72.128
X60.587Y-74.668
X60.589Y-88.646
X60.589Y-91.186
X60.624Y-55.512
X60.624Y-58.052
X60.96Y-31.115
X60.96Y-34.925
X61.595Y-22.86
X62.386Y-52.07
X63.5Y-33.02
X63.5Y-35.56
X64.135Y-22.86
X64.926Y-52.07
X68.58Y-25.175
X68.58Y-27.715
X68.58Y-30.509
X68.58Y-33.049
X73.025Y-22.86
X73.816Y-104.14
X74.078Y-71.519
X74.451Y-87.63
X75.184Y-36.576
X75.184Y-51.816
X75.184Y-55.048
X75.184Y-57.588
X75.565Y-22.86
X76.356Y-104.14
X76.618Y-71.519
X76.991Y-87.63
X78.105Y-22.86
X79.415Y-27.305
X81.28Y-65.02
X81.28Y-67.56
X81.28Y-81.28
X81.28Y-83.82
X81.28Y-97.79
X81.28Y-100.33
X81.28Y-114.325
X81.28Y-116.865
X81.915Y-27.305
X81.955Y-31.75
X82.408Y-39.437
X82.408Y-44.437
X85.09Y-28.575
X85.1Y-36.835
X85.1Y-39.375
X85.1Y-41.915
X85.1Y-44.455
X85.1Y-46.995
X85.1Y-49.535
X85.1Y-52.075
X85.344Y-24.13
X86.955Y-31.75
X87.63Y-28.575
X87.884Y-24.13
X88.9Y-48.3
X88.9Y-53.3
X89.581Y-31.729
X92.72Y-36.835
X92.72Y-39.375
X92.72Y-41.915
X92.72Y-44.455
X92.72Y-46.995
X92.72Y-49.535
X92.72Y-52.075
X94.581Y-31.729
X94.585Y-103.505
X94.84Y-85.09
X95.354Y-39.478
X95.354Y-44.478
X96.012Y-47.072
X96.9Y-70.26
X96.9Y-72.8
X97.125Y-103.505
X97.38Y-85.09
X98.425Y-31.75
X98.425Y-34.25
X98.552Y-47.072
X100.075Y-70.329
X100.075Y-72.869
X100.71Y-104.14
X100.71Y-106.68
X101.19Y-45.72
X102.235Y-35.62
X102.235Y-38.51
X102.235Y-41.05
X102.46Y-78.74
X102.616Y-49.53
X102.695Y-69.85
X103.632Y-31.75
X103.73Y-45.72
X103.885Y-104.14
X103.885Y-106.68
X104.775Y-35.62
X105.0Y-78.74
X105.156Y-49.53
X105.38Y-110.49
X105.82Y-42.545
X106.172Y-31.75
X107.695Y-69.85
X107.92Y-110.49
X108.36Y-42.545
T6
X48.392Y-59.685
X48.392Y-62.225
X48.392Y-76.195
X48.392Y-78.735
X48.392Y-92.705
X48.392Y-95.245
X48.392Y-109.215
X48.392Y-111.755
X81.28Y-59.685
X81.28Y-62.225
X81.28Y-76.195
X81.28Y-78.735
X81.28Y-92.705
X81.28Y-95.245
X81.28Y-109.215
X81.28Y-111.755
X94.61Y-94.615
X104.77Y-94.615
T7
X44.462Y-58.46
X44.462Y-60.96
X44.462Y-63.46
X44.462Y-74.97
X44.462Y-77.47
X44.462Y-79.97
X44.462Y-91.48
X44.462Y-93.98
X44.462Y-96.48
X44.462Y-107.99
X44.462Y-110.49
X44.462Y-112.99
X47.665Y-36.207
X50.165Y-36.207
X52.665Y-36.207
X67.35Y-36.207
X69.85Y-36.207
X72.35Y-36.207
X77.483Y-58.46
X77.483Y-60.96
X77.483Y-63.46
X77.483Y-74.97
X77.483Y-77.47
X77.483Y-79.97
X77.483Y-91.48
X77.483Y-93.98
X77.483Y-96.48
X77.483Y-107.99
X77.483Y-110.49
X77.483Y-112.99
X93.09Y-113.665
X93.09Y-116.205
X93.986Y-24.109
X93.986Y-26.649
X96.526Y-24.109
X96.526Y-26.649
X99.066Y-24.109
X99.066Y-26.649
X101.606Y-24.109
X101.606Y-26.649
X104.146Y-24.109
X104.146Y-26.649
T2
G00X23.161Y-31.762
M15
G01X23.047Y-31.485
M16
G05
G00X23.048Y-25.655
M15
G01X23.163Y-25.378
M16
G05
G00X27.277Y-35.899
M15
G01X27.554Y-36.014
M16
G05
G00X27.281Y-21.242
M15
G01X27.558Y-21.127
M16
G05
G00X33.23Y-28.417
M15
G01X33.23Y-28.717
M16
G05
G00X33.677Y-35.911
M15
G01X33.4Y-36.025
M16
G05
G00X33.404Y-21.127
M15
G01X33.681Y-21.242
M16
G05
G00X37.922Y-31.498
M15
G01X37.807Y-31.776
M16
G05
G00X37.812Y-25.378
M15
G01X37.927Y-25.656
M16
G05
T6
G00X97.34Y-63.15
M15
G01X97.34Y-63.85
M16
G05
G00X97.34Y-75.532
M15
G01X97.34Y-76.233
M16
G05
G00X97.34Y-87.915
M15
G01X97.34Y-88.615
M16
G05
G00X97.34Y-100.297
M15
G01X97.34Y-100.998
M16
G05
G00X97.34Y-112.68
M15
G01X97.34Y-113.38
M16
G05
G00X98.17Y-52.67
M15
G01X98.17Y-51.47
M16
G05
G00X99.54Y-63.15
M15
G01X99.54Y-63.85
M16
G05
G00X99.54Y-75.532
M15
G01X99.54Y-76.233
M16
G05
G00X99.54Y-87.915
M15
G01X99.54Y-88.615
M16
G05
G00X99.54Y-100.297
M15
G01X99.54Y-100.998
M16
G05
G00X99.54Y-112.68
M15
G01X99.54Y-113.38
M16
G05
G00X102.87Y-52.67
M15
G01X102.87Y-51.47
M16
G05
G00X107.57Y-52.67
M15
G01X107.57Y-51.47
M16
G05
G00X107.74Y-63.15
M15
G01X107.74Y-63.85
M16
G05
G00X107.74Y-75.532
M15
G01X107.74Y-76.233
M16
G05
G00X107.74Y-87.915
M15
G01X107.74Y-88.615
M16
G05
G00X107.74Y-100.297
M15
G01X107.74Y-100.998
M16
G05
G00X107.74Y-112.68
M15
G01X107.74Y-113.38
M16
G05
T7
G00X23.878Y-65.671
M15
G01X25.378Y-65.671
M16
G05
G00X23.878Y-82.181
M15
G01X25.378Y-82.181
M16
G05
G00X23.878Y-98.691
M15
G01X25.378Y-98.691
M16
G05
G00X23.878Y-115.201
M15
G01X25.378Y-115.201
M16
G05
G00X23.878Y-60.96
M15
G01X25.378Y-60.96
M16
G05
G00X23.878Y-77.47
M15
G01X25.378Y-77.47
M16
G05
G00X23.878Y-93.98
M15
G01X25.378Y-93.98
M16
G05
G00X23.878Y-110.49
M15
G01X25.378Y-110.49
M16
G05
G00X23.878Y-56.258
M15
G01X25.378Y-56.258
M16
G05
G00X23.878Y-72.768
M15
G01X25.378Y-72.768
M16
G05
G00X23.878Y-89.278
M15
G01X25.378Y-89.278
M16
G05
G00X23.878Y-105.788
M15
G01X25.378Y-105.788
M16
G05
G00X56.898Y-65.671
M15
G01X58.398Y-65.671
M16
G05
G00X56.898Y-82.181
M15
G01X58.398Y-82.181
M16
G05
G00X56.898Y-98.691
M15
G01X58.398Y-98.691
M16
G05
G00X56.898Y-115.201
M15
G01X58.398Y-115.201
M16
G05
G00X56.898Y-60.96
M15
G01X58.398Y-60.96
M16
G05
G00X56.898Y-77.47
M15
G01X58.398Y-77.47
M16
G05
G00X56.898Y-93.98
M15
G01X58.398Y-93.98
M16
G05
G00X56.898Y-110.49
M15
G01X58.398Y-110.49
M16
G05
G00X56.898Y-56.258
M15
G01X58.398Y-56.258
M16
G05
G00X56.898Y-72.768
M15
G01X58.398Y-72.768
M16
G05
G00X56.898Y-89.278
M15
G01X58.398Y-89.278
M16
G05
G00X56.898Y-105.788
M15
G01X58.398Y-105.788
M16
G05
T8
G00X37.362Y-56.16
M15
G01X36.562Y-56.16
M16
G05
G00X37.362Y-65.76
M15
G01X36.562Y-65.76
M16
G05
G00X37.362Y-72.67
M15
G01X36.562Y-72.67
M16
G05
G00X37.362Y-82.27
M15
G01X36.562Y-82.27
M16
G05
G00X37.362Y-89.18
M15
G01X36.562Y-89.18
M16
G05
G00X37.362Y-98.78
M15
G01X36.562Y-98.78
M16
G05
G00X37.362Y-105.69
M15
G01X36.562Y-105.69
M16
G05
G00X37.362Y-115.29
M15
G01X36.562Y-115.29
M16
G05
G00X45.365Y-29.107
M15
G01X45.365Y-28.307
M16
G05
G00X54.965Y-29.107
M15
G01X54.965Y-28.307
M16
G05
G00X65.05Y-29.107
M15
G01X65.05Y-28.307
M16
G05
G00X70.382Y-56.16
M15
G01X69.582Y-56.16
M16
G05
G00X70.382Y-65.76
M15
G01X69.582Y-65.76
M16
G05
G00X70.382Y-72.67
M15
G01X69.582Y-72.67
M16
G05
G00X70.382Y-82.27
M15
G01X69.582Y-82.27
M16
G05
G00X70.382Y-89.18
M15
G01X69.582Y-89.18
M16
G05
G00X70.382Y-98.78
M15
G01X69.582Y-98.78
M16
G05
G00X70.382Y-105.69
M15
G01X69.582Y-105.69
M16
G05
G00X70.382Y-115.29
M15
G01X69.582Y-115.29
M16
G05
G00X74.65Y-29.107
M15
G01X74.65Y-28.307
M16
G05
M30
