G04 #@! TF.GenerationSoftware,KiCad,Pcbnew,7.0.10*
G04 #@! TF.CreationDate,2024-08-03T17:22:43+10:00*
G04 #@! TF.ProjectId,MK_Seq take 2,4d4b5f53-6571-4207-9461-6b6520322e6b,rev?*
G04 #@! TF.SameCoordinates,Original*
G04 #@! TF.FileFunction,Legend,Top*
G04 #@! TF.FilePolarity,Positive*
%FSLAX46Y46*%
G04 Gerber Fmt 4.6, Leading zero omitted, Abs format (unit mm)*
G04 Created by KiCad (PCBNEW 7.0.10) date 2024-08-03 17:22:43*
%MOMM*%
%LPD*%
G01*
G04 APERTURE LIST*
G04 Aperture macros list*
%AMRoundRect*
0 Rectangle with rounded corners*
0 $1 Rounding radius*
0 $2 $3 $4 $5 $6 $7 $8 $9 X,Y pos of 4 corners*
0 Add a 4 corners polygon primitive as box body*
4,1,4,$2,$3,$4,$5,$6,$7,$8,$9,$2,$3,0*
0 Add four circle primitives for the rounded corners*
1,1,$1+$1,$2,$3*
1,1,$1+$1,$4,$5*
1,1,$1+$1,$6,$7*
1,1,$1+$1,$8,$9*
0 Add four rect primitives between the rounded corners*
20,1,$1+$1,$2,$3,$4,$5,0*
20,1,$1+$1,$4,$5,$6,$7,0*
20,1,$1+$1,$6,$7,$8,$9,0*
20,1,$1+$1,$8,$9,$2,$3,0*%
%AMHorizOval*
0 Thick line with rounded ends*
0 $1 width*
0 $2 $3 position (X,Y) of the first rounded end (center of the circle)*
0 $4 $5 position (X,Y) of the second rounded end (center of the circle)*
0 Add line between two ends*
20,1,$1,$2,$3,$4,$5,0*
0 Add two circle primitives to create the rounded ends*
1,1,$1,$2,$3*
1,1,$1,$4,$5*%
G04 Aperture macros list end*
%ADD10C,0.300000*%
%ADD11C,0.150000*%
%ADD12C,0.200000*%
%ADD13C,0.100000*%
%ADD14C,0.120000*%
%ADD15O,3.000000X1.800000*%
%ADD16O,2.750000X3.500000*%
%ADD17RoundRect,0.450000X0.450000X0.450000X-0.450000X0.450000X-0.450000X-0.450000X0.450000X-0.450000X0*%
%ADD18C,1.800000*%
%ADD19O,3.500000X2.750000*%
%ADD20RoundRect,0.450000X-0.450000X0.450000X-0.450000X-0.450000X0.450000X-0.450000X0.450000X0.450000X0*%
%ADD21C,1.600000*%
%ADD22R,1.600000X1.600000*%
%ADD23O,1.600000X1.600000*%
%ADD24R,1.800000X1.800000*%
%ADD25C,1.500000*%
%ADD26O,1.800000X2.500000*%
%ADD27O,1.500000X2.500000*%
%ADD28RoundRect,0.250000X0.366269X-0.422312X0.557611X0.039628X-0.366269X0.422312X-0.557611X-0.039628X0*%
%ADD29HorizOval,1.000000X-0.095671X0.230970X0.095671X-0.230970X0*%
%ADD30HorizOval,1.000000X0.095671X0.230970X-0.095671X-0.230970X0*%
%ADD31HorizOval,1.000000X0.230970X0.095671X-0.230970X-0.095671X0*%
%ADD32HorizOval,1.000000X-0.230970X0.095671X0.230970X-0.095671X0*%
%ADD33HorizOval,1.000000X-0.095671X-0.230970X0.095671X0.230970X0*%
%ADD34HorizOval,1.000000X-0.230970X-0.095671X0.230970X0.095671X0*%
%ADD35O,1.000000X1.500000*%
%ADD36C,2.000000*%
%ADD37RoundRect,0.150000X0.600000X-0.400000X0.600000X0.400000X-0.600000X0.400000X-0.600000X-0.400000X0*%
%ADD38O,1.540000X1.100000*%
%ADD39C,1.440000*%
%ADD40RoundRect,0.150000X-0.400000X-0.600000X0.400000X-0.600000X0.400000X0.600000X-0.400000X0.600000X0*%
%ADD41O,1.100000X1.540000*%
%ADD42O,1.800000X1.800000*%
%ADD43RoundRect,0.425000X0.425000X-0.425000X0.425000X0.425000X-0.425000X0.425000X-0.425000X-0.425000X0*%
%ADD44C,1.700000*%
G04 APERTURE END LIST*
D10*
X21083752Y-22635365D02*
X20932229Y-22685873D01*
X20932229Y-22685873D02*
X20780706Y-22837396D01*
X20780706Y-22837396D02*
X20679691Y-23039426D01*
X20679691Y-23039426D02*
X20679691Y-23241457D01*
X20679691Y-23241457D02*
X20730198Y-23392980D01*
X20730198Y-23392980D02*
X20881721Y-23645518D01*
X20881721Y-23645518D02*
X21033244Y-23797041D01*
X21033244Y-23797041D02*
X21285782Y-23948564D01*
X21285782Y-23948564D02*
X21437305Y-23999071D01*
X21437305Y-23999071D02*
X21639336Y-23999071D01*
X21639336Y-23999071D02*
X21841366Y-23898056D01*
X21841366Y-23898056D02*
X21942381Y-23797041D01*
X21942381Y-23797041D02*
X22043397Y-23595010D01*
X22043397Y-23595010D02*
X22043397Y-23493995D01*
X22043397Y-23493995D02*
X21689843Y-23140441D01*
X21689843Y-23140441D02*
X21487813Y-23342472D01*
X23205072Y-22534350D02*
X22346442Y-22382827D01*
X22598981Y-23140441D02*
X21538320Y-22079781D01*
X21538320Y-22079781D02*
X21942381Y-21675720D01*
X21942381Y-21675720D02*
X22093904Y-21625213D01*
X22093904Y-21625213D02*
X22194920Y-21625213D01*
X22194920Y-21625213D02*
X22346442Y-21675720D01*
X22346442Y-21675720D02*
X22497965Y-21827243D01*
X22497965Y-21827243D02*
X22548473Y-21978766D01*
X22548473Y-21978766D02*
X22548473Y-22079781D01*
X22548473Y-22079781D02*
X22497965Y-22231304D01*
X22497965Y-22231304D02*
X22093904Y-22635365D01*
X23659641Y-22079781D02*
X22598981Y-21019121D01*
X22598981Y-21019121D02*
X22851519Y-20766583D01*
X22851519Y-20766583D02*
X23053549Y-20665568D01*
X23053549Y-20665568D02*
X23255580Y-20665568D01*
X23255580Y-20665568D02*
X23407103Y-20716075D01*
X23407103Y-20716075D02*
X23659641Y-20867598D01*
X23659641Y-20867598D02*
X23811164Y-21019121D01*
X23811164Y-21019121D02*
X23962687Y-21271659D01*
X23962687Y-21271659D02*
X24013194Y-21423182D01*
X24013194Y-21423182D02*
X24013194Y-21625213D01*
X24013194Y-21625213D02*
X23912179Y-21827243D01*
X23912179Y-21827243D02*
X23659641Y-22079781D01*
D11*
X56499286Y-112552200D02*
X56642143Y-112599819D01*
X56642143Y-112599819D02*
X56880238Y-112599819D01*
X56880238Y-112599819D02*
X56975476Y-112552200D01*
X56975476Y-112552200D02*
X57023095Y-112504580D01*
X57023095Y-112504580D02*
X57070714Y-112409342D01*
X57070714Y-112409342D02*
X57070714Y-112314104D01*
X57070714Y-112314104D02*
X57023095Y-112218866D01*
X57023095Y-112218866D02*
X56975476Y-112171247D01*
X56975476Y-112171247D02*
X56880238Y-112123628D01*
X56880238Y-112123628D02*
X56689762Y-112076009D01*
X56689762Y-112076009D02*
X56594524Y-112028390D01*
X56594524Y-112028390D02*
X56546905Y-111980771D01*
X56546905Y-111980771D02*
X56499286Y-111885533D01*
X56499286Y-111885533D02*
X56499286Y-111790295D01*
X56499286Y-111790295D02*
X56546905Y-111695057D01*
X56546905Y-111695057D02*
X56594524Y-111647438D01*
X56594524Y-111647438D02*
X56689762Y-111599819D01*
X56689762Y-111599819D02*
X56927857Y-111599819D01*
X56927857Y-111599819D02*
X57070714Y-111647438D01*
X57404048Y-111933152D02*
X57594524Y-112599819D01*
X57594524Y-112599819D02*
X57785000Y-112123628D01*
X57785000Y-112123628D02*
X57975476Y-112599819D01*
X57975476Y-112599819D02*
X58165952Y-111933152D01*
X58689762Y-112028390D02*
X58594524Y-111980771D01*
X58594524Y-111980771D02*
X58546905Y-111933152D01*
X58546905Y-111933152D02*
X58499286Y-111837914D01*
X58499286Y-111837914D02*
X58499286Y-111790295D01*
X58499286Y-111790295D02*
X58546905Y-111695057D01*
X58546905Y-111695057D02*
X58594524Y-111647438D01*
X58594524Y-111647438D02*
X58689762Y-111599819D01*
X58689762Y-111599819D02*
X58880238Y-111599819D01*
X58880238Y-111599819D02*
X58975476Y-111647438D01*
X58975476Y-111647438D02*
X59023095Y-111695057D01*
X59023095Y-111695057D02*
X59070714Y-111790295D01*
X59070714Y-111790295D02*
X59070714Y-111837914D01*
X59070714Y-111837914D02*
X59023095Y-111933152D01*
X59023095Y-111933152D02*
X58975476Y-111980771D01*
X58975476Y-111980771D02*
X58880238Y-112028390D01*
X58880238Y-112028390D02*
X58689762Y-112028390D01*
X58689762Y-112028390D02*
X58594524Y-112076009D01*
X58594524Y-112076009D02*
X58546905Y-112123628D01*
X58546905Y-112123628D02*
X58499286Y-112218866D01*
X58499286Y-112218866D02*
X58499286Y-112409342D01*
X58499286Y-112409342D02*
X58546905Y-112504580D01*
X58546905Y-112504580D02*
X58594524Y-112552200D01*
X58594524Y-112552200D02*
X58689762Y-112599819D01*
X58689762Y-112599819D02*
X58880238Y-112599819D01*
X58880238Y-112599819D02*
X58975476Y-112552200D01*
X58975476Y-112552200D02*
X59023095Y-112504580D01*
X59023095Y-112504580D02*
X59070714Y-112409342D01*
X59070714Y-112409342D02*
X59070714Y-112218866D01*
X59070714Y-112218866D02*
X59023095Y-112123628D01*
X59023095Y-112123628D02*
X58975476Y-112076009D01*
X58975476Y-112076009D02*
X58880238Y-112028390D01*
X56499286Y-79532200D02*
X56642143Y-79579819D01*
X56642143Y-79579819D02*
X56880238Y-79579819D01*
X56880238Y-79579819D02*
X56975476Y-79532200D01*
X56975476Y-79532200D02*
X57023095Y-79484580D01*
X57023095Y-79484580D02*
X57070714Y-79389342D01*
X57070714Y-79389342D02*
X57070714Y-79294104D01*
X57070714Y-79294104D02*
X57023095Y-79198866D01*
X57023095Y-79198866D02*
X56975476Y-79151247D01*
X56975476Y-79151247D02*
X56880238Y-79103628D01*
X56880238Y-79103628D02*
X56689762Y-79056009D01*
X56689762Y-79056009D02*
X56594524Y-79008390D01*
X56594524Y-79008390D02*
X56546905Y-78960771D01*
X56546905Y-78960771D02*
X56499286Y-78865533D01*
X56499286Y-78865533D02*
X56499286Y-78770295D01*
X56499286Y-78770295D02*
X56546905Y-78675057D01*
X56546905Y-78675057D02*
X56594524Y-78627438D01*
X56594524Y-78627438D02*
X56689762Y-78579819D01*
X56689762Y-78579819D02*
X56927857Y-78579819D01*
X56927857Y-78579819D02*
X57070714Y-78627438D01*
X57404048Y-78913152D02*
X57594524Y-79579819D01*
X57594524Y-79579819D02*
X57785000Y-79103628D01*
X57785000Y-79103628D02*
X57975476Y-79579819D01*
X57975476Y-79579819D02*
X58165952Y-78913152D01*
X58975476Y-78579819D02*
X58785000Y-78579819D01*
X58785000Y-78579819D02*
X58689762Y-78627438D01*
X58689762Y-78627438D02*
X58642143Y-78675057D01*
X58642143Y-78675057D02*
X58546905Y-78817914D01*
X58546905Y-78817914D02*
X58499286Y-79008390D01*
X58499286Y-79008390D02*
X58499286Y-79389342D01*
X58499286Y-79389342D02*
X58546905Y-79484580D01*
X58546905Y-79484580D02*
X58594524Y-79532200D01*
X58594524Y-79532200D02*
X58689762Y-79579819D01*
X58689762Y-79579819D02*
X58880238Y-79579819D01*
X58880238Y-79579819D02*
X58975476Y-79532200D01*
X58975476Y-79532200D02*
X59023095Y-79484580D01*
X59023095Y-79484580D02*
X59070714Y-79389342D01*
X59070714Y-79389342D02*
X59070714Y-79151247D01*
X59070714Y-79151247D02*
X59023095Y-79056009D01*
X59023095Y-79056009D02*
X58975476Y-79008390D01*
X58975476Y-79008390D02*
X58880238Y-78960771D01*
X58880238Y-78960771D02*
X58689762Y-78960771D01*
X58689762Y-78960771D02*
X58594524Y-79008390D01*
X58594524Y-79008390D02*
X58546905Y-79056009D01*
X58546905Y-79056009D02*
X58499286Y-79151247D01*
X23479286Y-112552200D02*
X23622143Y-112599819D01*
X23622143Y-112599819D02*
X23860238Y-112599819D01*
X23860238Y-112599819D02*
X23955476Y-112552200D01*
X23955476Y-112552200D02*
X24003095Y-112504580D01*
X24003095Y-112504580D02*
X24050714Y-112409342D01*
X24050714Y-112409342D02*
X24050714Y-112314104D01*
X24050714Y-112314104D02*
X24003095Y-112218866D01*
X24003095Y-112218866D02*
X23955476Y-112171247D01*
X23955476Y-112171247D02*
X23860238Y-112123628D01*
X23860238Y-112123628D02*
X23669762Y-112076009D01*
X23669762Y-112076009D02*
X23574524Y-112028390D01*
X23574524Y-112028390D02*
X23526905Y-111980771D01*
X23526905Y-111980771D02*
X23479286Y-111885533D01*
X23479286Y-111885533D02*
X23479286Y-111790295D01*
X23479286Y-111790295D02*
X23526905Y-111695057D01*
X23526905Y-111695057D02*
X23574524Y-111647438D01*
X23574524Y-111647438D02*
X23669762Y-111599819D01*
X23669762Y-111599819D02*
X23907857Y-111599819D01*
X23907857Y-111599819D02*
X24050714Y-111647438D01*
X24384048Y-111933152D02*
X24574524Y-112599819D01*
X24574524Y-112599819D02*
X24765000Y-112123628D01*
X24765000Y-112123628D02*
X24955476Y-112599819D01*
X24955476Y-112599819D02*
X25145952Y-111933152D01*
X25955476Y-111933152D02*
X25955476Y-112599819D01*
X25717381Y-111552200D02*
X25479286Y-112266485D01*
X25479286Y-112266485D02*
X26098333Y-112266485D01*
X56499286Y-63022200D02*
X56642143Y-63069819D01*
X56642143Y-63069819D02*
X56880238Y-63069819D01*
X56880238Y-63069819D02*
X56975476Y-63022200D01*
X56975476Y-63022200D02*
X57023095Y-62974580D01*
X57023095Y-62974580D02*
X57070714Y-62879342D01*
X57070714Y-62879342D02*
X57070714Y-62784104D01*
X57070714Y-62784104D02*
X57023095Y-62688866D01*
X57023095Y-62688866D02*
X56975476Y-62641247D01*
X56975476Y-62641247D02*
X56880238Y-62593628D01*
X56880238Y-62593628D02*
X56689762Y-62546009D01*
X56689762Y-62546009D02*
X56594524Y-62498390D01*
X56594524Y-62498390D02*
X56546905Y-62450771D01*
X56546905Y-62450771D02*
X56499286Y-62355533D01*
X56499286Y-62355533D02*
X56499286Y-62260295D01*
X56499286Y-62260295D02*
X56546905Y-62165057D01*
X56546905Y-62165057D02*
X56594524Y-62117438D01*
X56594524Y-62117438D02*
X56689762Y-62069819D01*
X56689762Y-62069819D02*
X56927857Y-62069819D01*
X56927857Y-62069819D02*
X57070714Y-62117438D01*
X57404048Y-62403152D02*
X57594524Y-63069819D01*
X57594524Y-63069819D02*
X57785000Y-62593628D01*
X57785000Y-62593628D02*
X57975476Y-63069819D01*
X57975476Y-63069819D02*
X58165952Y-62403152D01*
X59023095Y-62069819D02*
X58546905Y-62069819D01*
X58546905Y-62069819D02*
X58499286Y-62546009D01*
X58499286Y-62546009D02*
X58546905Y-62498390D01*
X58546905Y-62498390D02*
X58642143Y-62450771D01*
X58642143Y-62450771D02*
X58880238Y-62450771D01*
X58880238Y-62450771D02*
X58975476Y-62498390D01*
X58975476Y-62498390D02*
X59023095Y-62546009D01*
X59023095Y-62546009D02*
X59070714Y-62641247D01*
X59070714Y-62641247D02*
X59070714Y-62879342D01*
X59070714Y-62879342D02*
X59023095Y-62974580D01*
X59023095Y-62974580D02*
X58975476Y-63022200D01*
X58975476Y-63022200D02*
X58880238Y-63069819D01*
X58880238Y-63069819D02*
X58642143Y-63069819D01*
X58642143Y-63069819D02*
X58546905Y-63022200D01*
X58546905Y-63022200D02*
X58499286Y-62974580D01*
X23342620Y-95937200D02*
X23485477Y-95984819D01*
X23485477Y-95984819D02*
X23723572Y-95984819D01*
X23723572Y-95984819D02*
X23818810Y-95937200D01*
X23818810Y-95937200D02*
X23866429Y-95889580D01*
X23866429Y-95889580D02*
X23914048Y-95794342D01*
X23914048Y-95794342D02*
X23914048Y-95699104D01*
X23914048Y-95699104D02*
X23866429Y-95603866D01*
X23866429Y-95603866D02*
X23818810Y-95556247D01*
X23818810Y-95556247D02*
X23723572Y-95508628D01*
X23723572Y-95508628D02*
X23533096Y-95461009D01*
X23533096Y-95461009D02*
X23437858Y-95413390D01*
X23437858Y-95413390D02*
X23390239Y-95365771D01*
X23390239Y-95365771D02*
X23342620Y-95270533D01*
X23342620Y-95270533D02*
X23342620Y-95175295D01*
X23342620Y-95175295D02*
X23390239Y-95080057D01*
X23390239Y-95080057D02*
X23437858Y-95032438D01*
X23437858Y-95032438D02*
X23533096Y-94984819D01*
X23533096Y-94984819D02*
X23771191Y-94984819D01*
X23771191Y-94984819D02*
X23914048Y-95032438D01*
X24247382Y-95318152D02*
X24437858Y-95984819D01*
X24437858Y-95984819D02*
X24628334Y-95508628D01*
X24628334Y-95508628D02*
X24818810Y-95984819D01*
X24818810Y-95984819D02*
X25009286Y-95318152D01*
X25295001Y-94984819D02*
X25914048Y-94984819D01*
X25914048Y-94984819D02*
X25580715Y-95365771D01*
X25580715Y-95365771D02*
X25723572Y-95365771D01*
X25723572Y-95365771D02*
X25818810Y-95413390D01*
X25818810Y-95413390D02*
X25866429Y-95461009D01*
X25866429Y-95461009D02*
X25914048Y-95556247D01*
X25914048Y-95556247D02*
X25914048Y-95794342D01*
X25914048Y-95794342D02*
X25866429Y-95889580D01*
X25866429Y-95889580D02*
X25818810Y-95937200D01*
X25818810Y-95937200D02*
X25723572Y-95984819D01*
X25723572Y-95984819D02*
X25437858Y-95984819D01*
X25437858Y-95984819D02*
X25342620Y-95937200D01*
X25342620Y-95937200D02*
X25295001Y-95889580D01*
X23479286Y-63022200D02*
X23622143Y-63069819D01*
X23622143Y-63069819D02*
X23860238Y-63069819D01*
X23860238Y-63069819D02*
X23955476Y-63022200D01*
X23955476Y-63022200D02*
X24003095Y-62974580D01*
X24003095Y-62974580D02*
X24050714Y-62879342D01*
X24050714Y-62879342D02*
X24050714Y-62784104D01*
X24050714Y-62784104D02*
X24003095Y-62688866D01*
X24003095Y-62688866D02*
X23955476Y-62641247D01*
X23955476Y-62641247D02*
X23860238Y-62593628D01*
X23860238Y-62593628D02*
X23669762Y-62546009D01*
X23669762Y-62546009D02*
X23574524Y-62498390D01*
X23574524Y-62498390D02*
X23526905Y-62450771D01*
X23526905Y-62450771D02*
X23479286Y-62355533D01*
X23479286Y-62355533D02*
X23479286Y-62260295D01*
X23479286Y-62260295D02*
X23526905Y-62165057D01*
X23526905Y-62165057D02*
X23574524Y-62117438D01*
X23574524Y-62117438D02*
X23669762Y-62069819D01*
X23669762Y-62069819D02*
X23907857Y-62069819D01*
X23907857Y-62069819D02*
X24050714Y-62117438D01*
X24384048Y-62403152D02*
X24574524Y-63069819D01*
X24574524Y-63069819D02*
X24765000Y-62593628D01*
X24765000Y-62593628D02*
X24955476Y-63069819D01*
X24955476Y-63069819D02*
X25145952Y-62403152D01*
X26050714Y-63069819D02*
X25479286Y-63069819D01*
X25765000Y-63069819D02*
X25765000Y-62069819D01*
X25765000Y-62069819D02*
X25669762Y-62212676D01*
X25669762Y-62212676D02*
X25574524Y-62307914D01*
X25574524Y-62307914D02*
X25479286Y-62355533D01*
X23342620Y-79427200D02*
X23485477Y-79474819D01*
X23485477Y-79474819D02*
X23723572Y-79474819D01*
X23723572Y-79474819D02*
X23818810Y-79427200D01*
X23818810Y-79427200D02*
X23866429Y-79379580D01*
X23866429Y-79379580D02*
X23914048Y-79284342D01*
X23914048Y-79284342D02*
X23914048Y-79189104D01*
X23914048Y-79189104D02*
X23866429Y-79093866D01*
X23866429Y-79093866D02*
X23818810Y-79046247D01*
X23818810Y-79046247D02*
X23723572Y-78998628D01*
X23723572Y-78998628D02*
X23533096Y-78951009D01*
X23533096Y-78951009D02*
X23437858Y-78903390D01*
X23437858Y-78903390D02*
X23390239Y-78855771D01*
X23390239Y-78855771D02*
X23342620Y-78760533D01*
X23342620Y-78760533D02*
X23342620Y-78665295D01*
X23342620Y-78665295D02*
X23390239Y-78570057D01*
X23390239Y-78570057D02*
X23437858Y-78522438D01*
X23437858Y-78522438D02*
X23533096Y-78474819D01*
X23533096Y-78474819D02*
X23771191Y-78474819D01*
X23771191Y-78474819D02*
X23914048Y-78522438D01*
X24247382Y-78808152D02*
X24437858Y-79474819D01*
X24437858Y-79474819D02*
X24628334Y-78998628D01*
X24628334Y-78998628D02*
X24818810Y-79474819D01*
X24818810Y-79474819D02*
X25009286Y-78808152D01*
X25342620Y-78570057D02*
X25390239Y-78522438D01*
X25390239Y-78522438D02*
X25485477Y-78474819D01*
X25485477Y-78474819D02*
X25723572Y-78474819D01*
X25723572Y-78474819D02*
X25818810Y-78522438D01*
X25818810Y-78522438D02*
X25866429Y-78570057D01*
X25866429Y-78570057D02*
X25914048Y-78665295D01*
X25914048Y-78665295D02*
X25914048Y-78760533D01*
X25914048Y-78760533D02*
X25866429Y-78903390D01*
X25866429Y-78903390D02*
X25295001Y-79474819D01*
X25295001Y-79474819D02*
X25914048Y-79474819D01*
X56499286Y-96042200D02*
X56642143Y-96089819D01*
X56642143Y-96089819D02*
X56880238Y-96089819D01*
X56880238Y-96089819D02*
X56975476Y-96042200D01*
X56975476Y-96042200D02*
X57023095Y-95994580D01*
X57023095Y-95994580D02*
X57070714Y-95899342D01*
X57070714Y-95899342D02*
X57070714Y-95804104D01*
X57070714Y-95804104D02*
X57023095Y-95708866D01*
X57023095Y-95708866D02*
X56975476Y-95661247D01*
X56975476Y-95661247D02*
X56880238Y-95613628D01*
X56880238Y-95613628D02*
X56689762Y-95566009D01*
X56689762Y-95566009D02*
X56594524Y-95518390D01*
X56594524Y-95518390D02*
X56546905Y-95470771D01*
X56546905Y-95470771D02*
X56499286Y-95375533D01*
X56499286Y-95375533D02*
X56499286Y-95280295D01*
X56499286Y-95280295D02*
X56546905Y-95185057D01*
X56546905Y-95185057D02*
X56594524Y-95137438D01*
X56594524Y-95137438D02*
X56689762Y-95089819D01*
X56689762Y-95089819D02*
X56927857Y-95089819D01*
X56927857Y-95089819D02*
X57070714Y-95137438D01*
X57404048Y-95423152D02*
X57594524Y-96089819D01*
X57594524Y-96089819D02*
X57785000Y-95613628D01*
X57785000Y-95613628D02*
X57975476Y-96089819D01*
X57975476Y-96089819D02*
X58165952Y-95423152D01*
X58451667Y-95089819D02*
X59118333Y-95089819D01*
X59118333Y-95089819D02*
X58689762Y-96089819D01*
X48831666Y-32662319D02*
X48498333Y-32186128D01*
X48260238Y-32662319D02*
X48260238Y-31662319D01*
X48260238Y-31662319D02*
X48641190Y-31662319D01*
X48641190Y-31662319D02*
X48736428Y-31709938D01*
X48736428Y-31709938D02*
X48784047Y-31757557D01*
X48784047Y-31757557D02*
X48831666Y-31852795D01*
X48831666Y-31852795D02*
X48831666Y-31995652D01*
X48831666Y-31995652D02*
X48784047Y-32090890D01*
X48784047Y-32090890D02*
X48736428Y-32138509D01*
X48736428Y-32138509D02*
X48641190Y-32186128D01*
X48641190Y-32186128D02*
X48260238Y-32186128D01*
X49688809Y-32662319D02*
X49688809Y-32138509D01*
X49688809Y-32138509D02*
X49641190Y-32043271D01*
X49641190Y-32043271D02*
X49545952Y-31995652D01*
X49545952Y-31995652D02*
X49355476Y-31995652D01*
X49355476Y-31995652D02*
X49260238Y-32043271D01*
X49688809Y-32614700D02*
X49593571Y-32662319D01*
X49593571Y-32662319D02*
X49355476Y-32662319D01*
X49355476Y-32662319D02*
X49260238Y-32614700D01*
X49260238Y-32614700D02*
X49212619Y-32519461D01*
X49212619Y-32519461D02*
X49212619Y-32424223D01*
X49212619Y-32424223D02*
X49260238Y-32328985D01*
X49260238Y-32328985D02*
X49355476Y-32281366D01*
X49355476Y-32281366D02*
X49593571Y-32281366D01*
X49593571Y-32281366D02*
X49688809Y-32233747D01*
X50022143Y-31995652D02*
X50403095Y-31995652D01*
X50165000Y-31662319D02*
X50165000Y-32519461D01*
X50165000Y-32519461D02*
X50212619Y-32614700D01*
X50212619Y-32614700D02*
X50307857Y-32662319D01*
X50307857Y-32662319D02*
X50403095Y-32662319D01*
X51117381Y-32614700D02*
X51022143Y-32662319D01*
X51022143Y-32662319D02*
X50831667Y-32662319D01*
X50831667Y-32662319D02*
X50736429Y-32614700D01*
X50736429Y-32614700D02*
X50688810Y-32519461D01*
X50688810Y-32519461D02*
X50688810Y-32138509D01*
X50688810Y-32138509D02*
X50736429Y-32043271D01*
X50736429Y-32043271D02*
X50831667Y-31995652D01*
X50831667Y-31995652D02*
X51022143Y-31995652D01*
X51022143Y-31995652D02*
X51117381Y-32043271D01*
X51117381Y-32043271D02*
X51165000Y-32138509D01*
X51165000Y-32138509D02*
X51165000Y-32233747D01*
X51165000Y-32233747D02*
X50688810Y-32328985D01*
X52117381Y-32662319D02*
X51545953Y-32662319D01*
X51831667Y-32662319D02*
X51831667Y-31662319D01*
X51831667Y-31662319D02*
X51736429Y-31805176D01*
X51736429Y-31805176D02*
X51641191Y-31900414D01*
X51641191Y-31900414D02*
X51545953Y-31948033D01*
X34901428Y-61367200D02*
X35044285Y-61414819D01*
X35044285Y-61414819D02*
X35282380Y-61414819D01*
X35282380Y-61414819D02*
X35377618Y-61367200D01*
X35377618Y-61367200D02*
X35425237Y-61319580D01*
X35425237Y-61319580D02*
X35472856Y-61224342D01*
X35472856Y-61224342D02*
X35472856Y-61129104D01*
X35472856Y-61129104D02*
X35425237Y-61033866D01*
X35425237Y-61033866D02*
X35377618Y-60986247D01*
X35377618Y-60986247D02*
X35282380Y-60938628D01*
X35282380Y-60938628D02*
X35091904Y-60891009D01*
X35091904Y-60891009D02*
X34996666Y-60843390D01*
X34996666Y-60843390D02*
X34949047Y-60795771D01*
X34949047Y-60795771D02*
X34901428Y-60700533D01*
X34901428Y-60700533D02*
X34901428Y-60605295D01*
X34901428Y-60605295D02*
X34949047Y-60510057D01*
X34949047Y-60510057D02*
X34996666Y-60462438D01*
X34996666Y-60462438D02*
X35091904Y-60414819D01*
X35091904Y-60414819D02*
X35329999Y-60414819D01*
X35329999Y-60414819D02*
X35472856Y-60462438D01*
X35758571Y-60748152D02*
X36139523Y-60748152D01*
X35901428Y-60414819D02*
X35901428Y-61271961D01*
X35901428Y-61271961D02*
X35949047Y-61367200D01*
X35949047Y-61367200D02*
X36044285Y-61414819D01*
X36044285Y-61414819D02*
X36139523Y-61414819D01*
X36853809Y-61367200D02*
X36758571Y-61414819D01*
X36758571Y-61414819D02*
X36568095Y-61414819D01*
X36568095Y-61414819D02*
X36472857Y-61367200D01*
X36472857Y-61367200D02*
X36425238Y-61271961D01*
X36425238Y-61271961D02*
X36425238Y-60891009D01*
X36425238Y-60891009D02*
X36472857Y-60795771D01*
X36472857Y-60795771D02*
X36568095Y-60748152D01*
X36568095Y-60748152D02*
X36758571Y-60748152D01*
X36758571Y-60748152D02*
X36853809Y-60795771D01*
X36853809Y-60795771D02*
X36901428Y-60891009D01*
X36901428Y-60891009D02*
X36901428Y-60986247D01*
X36901428Y-60986247D02*
X36425238Y-61081485D01*
X37330000Y-60748152D02*
X37330000Y-61748152D01*
X37330000Y-60795771D02*
X37425238Y-60748152D01*
X37425238Y-60748152D02*
X37615714Y-60748152D01*
X37615714Y-60748152D02*
X37710952Y-60795771D01*
X37710952Y-60795771D02*
X37758571Y-60843390D01*
X37758571Y-60843390D02*
X37806190Y-60938628D01*
X37806190Y-60938628D02*
X37806190Y-61224342D01*
X37806190Y-61224342D02*
X37758571Y-61319580D01*
X37758571Y-61319580D02*
X37710952Y-61367200D01*
X37710952Y-61367200D02*
X37615714Y-61414819D01*
X37615714Y-61414819D02*
X37425238Y-61414819D01*
X37425238Y-61414819D02*
X37330000Y-61367200D01*
X38758571Y-61414819D02*
X38187143Y-61414819D01*
X38472857Y-61414819D02*
X38472857Y-60414819D01*
X38472857Y-60414819D02*
X38377619Y-60557676D01*
X38377619Y-60557676D02*
X38282381Y-60652914D01*
X38282381Y-60652914D02*
X38187143Y-60700533D01*
X67921428Y-77877200D02*
X68064285Y-77924819D01*
X68064285Y-77924819D02*
X68302380Y-77924819D01*
X68302380Y-77924819D02*
X68397618Y-77877200D01*
X68397618Y-77877200D02*
X68445237Y-77829580D01*
X68445237Y-77829580D02*
X68492856Y-77734342D01*
X68492856Y-77734342D02*
X68492856Y-77639104D01*
X68492856Y-77639104D02*
X68445237Y-77543866D01*
X68445237Y-77543866D02*
X68397618Y-77496247D01*
X68397618Y-77496247D02*
X68302380Y-77448628D01*
X68302380Y-77448628D02*
X68111904Y-77401009D01*
X68111904Y-77401009D02*
X68016666Y-77353390D01*
X68016666Y-77353390D02*
X67969047Y-77305771D01*
X67969047Y-77305771D02*
X67921428Y-77210533D01*
X67921428Y-77210533D02*
X67921428Y-77115295D01*
X67921428Y-77115295D02*
X67969047Y-77020057D01*
X67969047Y-77020057D02*
X68016666Y-76972438D01*
X68016666Y-76972438D02*
X68111904Y-76924819D01*
X68111904Y-76924819D02*
X68349999Y-76924819D01*
X68349999Y-76924819D02*
X68492856Y-76972438D01*
X68778571Y-77258152D02*
X69159523Y-77258152D01*
X68921428Y-76924819D02*
X68921428Y-77781961D01*
X68921428Y-77781961D02*
X68969047Y-77877200D01*
X68969047Y-77877200D02*
X69064285Y-77924819D01*
X69064285Y-77924819D02*
X69159523Y-77924819D01*
X69873809Y-77877200D02*
X69778571Y-77924819D01*
X69778571Y-77924819D02*
X69588095Y-77924819D01*
X69588095Y-77924819D02*
X69492857Y-77877200D01*
X69492857Y-77877200D02*
X69445238Y-77781961D01*
X69445238Y-77781961D02*
X69445238Y-77401009D01*
X69445238Y-77401009D02*
X69492857Y-77305771D01*
X69492857Y-77305771D02*
X69588095Y-77258152D01*
X69588095Y-77258152D02*
X69778571Y-77258152D01*
X69778571Y-77258152D02*
X69873809Y-77305771D01*
X69873809Y-77305771D02*
X69921428Y-77401009D01*
X69921428Y-77401009D02*
X69921428Y-77496247D01*
X69921428Y-77496247D02*
X69445238Y-77591485D01*
X70350000Y-77258152D02*
X70350000Y-78258152D01*
X70350000Y-77305771D02*
X70445238Y-77258152D01*
X70445238Y-77258152D02*
X70635714Y-77258152D01*
X70635714Y-77258152D02*
X70730952Y-77305771D01*
X70730952Y-77305771D02*
X70778571Y-77353390D01*
X70778571Y-77353390D02*
X70826190Y-77448628D01*
X70826190Y-77448628D02*
X70826190Y-77734342D01*
X70826190Y-77734342D02*
X70778571Y-77829580D01*
X70778571Y-77829580D02*
X70730952Y-77877200D01*
X70730952Y-77877200D02*
X70635714Y-77924819D01*
X70635714Y-77924819D02*
X70445238Y-77924819D01*
X70445238Y-77924819D02*
X70350000Y-77877200D01*
X71683333Y-76924819D02*
X71492857Y-76924819D01*
X71492857Y-76924819D02*
X71397619Y-76972438D01*
X71397619Y-76972438D02*
X71350000Y-77020057D01*
X71350000Y-77020057D02*
X71254762Y-77162914D01*
X71254762Y-77162914D02*
X71207143Y-77353390D01*
X71207143Y-77353390D02*
X71207143Y-77734342D01*
X71207143Y-77734342D02*
X71254762Y-77829580D01*
X71254762Y-77829580D02*
X71302381Y-77877200D01*
X71302381Y-77877200D02*
X71397619Y-77924819D01*
X71397619Y-77924819D02*
X71588095Y-77924819D01*
X71588095Y-77924819D02*
X71683333Y-77877200D01*
X71683333Y-77877200D02*
X71730952Y-77829580D01*
X71730952Y-77829580D02*
X71778571Y-77734342D01*
X71778571Y-77734342D02*
X71778571Y-77496247D01*
X71778571Y-77496247D02*
X71730952Y-77401009D01*
X71730952Y-77401009D02*
X71683333Y-77353390D01*
X71683333Y-77353390D02*
X71588095Y-77305771D01*
X71588095Y-77305771D02*
X71397619Y-77305771D01*
X71397619Y-77305771D02*
X71302381Y-77353390D01*
X71302381Y-77353390D02*
X71254762Y-77401009D01*
X71254762Y-77401009D02*
X71207143Y-77496247D01*
X34901428Y-94387200D02*
X35044285Y-94434819D01*
X35044285Y-94434819D02*
X35282380Y-94434819D01*
X35282380Y-94434819D02*
X35377618Y-94387200D01*
X35377618Y-94387200D02*
X35425237Y-94339580D01*
X35425237Y-94339580D02*
X35472856Y-94244342D01*
X35472856Y-94244342D02*
X35472856Y-94149104D01*
X35472856Y-94149104D02*
X35425237Y-94053866D01*
X35425237Y-94053866D02*
X35377618Y-94006247D01*
X35377618Y-94006247D02*
X35282380Y-93958628D01*
X35282380Y-93958628D02*
X35091904Y-93911009D01*
X35091904Y-93911009D02*
X34996666Y-93863390D01*
X34996666Y-93863390D02*
X34949047Y-93815771D01*
X34949047Y-93815771D02*
X34901428Y-93720533D01*
X34901428Y-93720533D02*
X34901428Y-93625295D01*
X34901428Y-93625295D02*
X34949047Y-93530057D01*
X34949047Y-93530057D02*
X34996666Y-93482438D01*
X34996666Y-93482438D02*
X35091904Y-93434819D01*
X35091904Y-93434819D02*
X35329999Y-93434819D01*
X35329999Y-93434819D02*
X35472856Y-93482438D01*
X35758571Y-93768152D02*
X36139523Y-93768152D01*
X35901428Y-93434819D02*
X35901428Y-94291961D01*
X35901428Y-94291961D02*
X35949047Y-94387200D01*
X35949047Y-94387200D02*
X36044285Y-94434819D01*
X36044285Y-94434819D02*
X36139523Y-94434819D01*
X36853809Y-94387200D02*
X36758571Y-94434819D01*
X36758571Y-94434819D02*
X36568095Y-94434819D01*
X36568095Y-94434819D02*
X36472857Y-94387200D01*
X36472857Y-94387200D02*
X36425238Y-94291961D01*
X36425238Y-94291961D02*
X36425238Y-93911009D01*
X36425238Y-93911009D02*
X36472857Y-93815771D01*
X36472857Y-93815771D02*
X36568095Y-93768152D01*
X36568095Y-93768152D02*
X36758571Y-93768152D01*
X36758571Y-93768152D02*
X36853809Y-93815771D01*
X36853809Y-93815771D02*
X36901428Y-93911009D01*
X36901428Y-93911009D02*
X36901428Y-94006247D01*
X36901428Y-94006247D02*
X36425238Y-94101485D01*
X37330000Y-93768152D02*
X37330000Y-94768152D01*
X37330000Y-93815771D02*
X37425238Y-93768152D01*
X37425238Y-93768152D02*
X37615714Y-93768152D01*
X37615714Y-93768152D02*
X37710952Y-93815771D01*
X37710952Y-93815771D02*
X37758571Y-93863390D01*
X37758571Y-93863390D02*
X37806190Y-93958628D01*
X37806190Y-93958628D02*
X37806190Y-94244342D01*
X37806190Y-94244342D02*
X37758571Y-94339580D01*
X37758571Y-94339580D02*
X37710952Y-94387200D01*
X37710952Y-94387200D02*
X37615714Y-94434819D01*
X37615714Y-94434819D02*
X37425238Y-94434819D01*
X37425238Y-94434819D02*
X37330000Y-94387200D01*
X38139524Y-93434819D02*
X38758571Y-93434819D01*
X38758571Y-93434819D02*
X38425238Y-93815771D01*
X38425238Y-93815771D02*
X38568095Y-93815771D01*
X38568095Y-93815771D02*
X38663333Y-93863390D01*
X38663333Y-93863390D02*
X38710952Y-93911009D01*
X38710952Y-93911009D02*
X38758571Y-94006247D01*
X38758571Y-94006247D02*
X38758571Y-94244342D01*
X38758571Y-94244342D02*
X38710952Y-94339580D01*
X38710952Y-94339580D02*
X38663333Y-94387200D01*
X38663333Y-94387200D02*
X38568095Y-94434819D01*
X38568095Y-94434819D02*
X38282381Y-94434819D01*
X38282381Y-94434819D02*
X38187143Y-94387200D01*
X38187143Y-94387200D02*
X38139524Y-94339580D01*
X67921428Y-110897200D02*
X68064285Y-110944819D01*
X68064285Y-110944819D02*
X68302380Y-110944819D01*
X68302380Y-110944819D02*
X68397618Y-110897200D01*
X68397618Y-110897200D02*
X68445237Y-110849580D01*
X68445237Y-110849580D02*
X68492856Y-110754342D01*
X68492856Y-110754342D02*
X68492856Y-110659104D01*
X68492856Y-110659104D02*
X68445237Y-110563866D01*
X68445237Y-110563866D02*
X68397618Y-110516247D01*
X68397618Y-110516247D02*
X68302380Y-110468628D01*
X68302380Y-110468628D02*
X68111904Y-110421009D01*
X68111904Y-110421009D02*
X68016666Y-110373390D01*
X68016666Y-110373390D02*
X67969047Y-110325771D01*
X67969047Y-110325771D02*
X67921428Y-110230533D01*
X67921428Y-110230533D02*
X67921428Y-110135295D01*
X67921428Y-110135295D02*
X67969047Y-110040057D01*
X67969047Y-110040057D02*
X68016666Y-109992438D01*
X68016666Y-109992438D02*
X68111904Y-109944819D01*
X68111904Y-109944819D02*
X68349999Y-109944819D01*
X68349999Y-109944819D02*
X68492856Y-109992438D01*
X68778571Y-110278152D02*
X69159523Y-110278152D01*
X68921428Y-109944819D02*
X68921428Y-110801961D01*
X68921428Y-110801961D02*
X68969047Y-110897200D01*
X68969047Y-110897200D02*
X69064285Y-110944819D01*
X69064285Y-110944819D02*
X69159523Y-110944819D01*
X69873809Y-110897200D02*
X69778571Y-110944819D01*
X69778571Y-110944819D02*
X69588095Y-110944819D01*
X69588095Y-110944819D02*
X69492857Y-110897200D01*
X69492857Y-110897200D02*
X69445238Y-110801961D01*
X69445238Y-110801961D02*
X69445238Y-110421009D01*
X69445238Y-110421009D02*
X69492857Y-110325771D01*
X69492857Y-110325771D02*
X69588095Y-110278152D01*
X69588095Y-110278152D02*
X69778571Y-110278152D01*
X69778571Y-110278152D02*
X69873809Y-110325771D01*
X69873809Y-110325771D02*
X69921428Y-110421009D01*
X69921428Y-110421009D02*
X69921428Y-110516247D01*
X69921428Y-110516247D02*
X69445238Y-110611485D01*
X70350000Y-110278152D02*
X70350000Y-111278152D01*
X70350000Y-110325771D02*
X70445238Y-110278152D01*
X70445238Y-110278152D02*
X70635714Y-110278152D01*
X70635714Y-110278152D02*
X70730952Y-110325771D01*
X70730952Y-110325771D02*
X70778571Y-110373390D01*
X70778571Y-110373390D02*
X70826190Y-110468628D01*
X70826190Y-110468628D02*
X70826190Y-110754342D01*
X70826190Y-110754342D02*
X70778571Y-110849580D01*
X70778571Y-110849580D02*
X70730952Y-110897200D01*
X70730952Y-110897200D02*
X70635714Y-110944819D01*
X70635714Y-110944819D02*
X70445238Y-110944819D01*
X70445238Y-110944819D02*
X70350000Y-110897200D01*
X71397619Y-110373390D02*
X71302381Y-110325771D01*
X71302381Y-110325771D02*
X71254762Y-110278152D01*
X71254762Y-110278152D02*
X71207143Y-110182914D01*
X71207143Y-110182914D02*
X71207143Y-110135295D01*
X71207143Y-110135295D02*
X71254762Y-110040057D01*
X71254762Y-110040057D02*
X71302381Y-109992438D01*
X71302381Y-109992438D02*
X71397619Y-109944819D01*
X71397619Y-109944819D02*
X71588095Y-109944819D01*
X71588095Y-109944819D02*
X71683333Y-109992438D01*
X71683333Y-109992438D02*
X71730952Y-110040057D01*
X71730952Y-110040057D02*
X71778571Y-110135295D01*
X71778571Y-110135295D02*
X71778571Y-110182914D01*
X71778571Y-110182914D02*
X71730952Y-110278152D01*
X71730952Y-110278152D02*
X71683333Y-110325771D01*
X71683333Y-110325771D02*
X71588095Y-110373390D01*
X71588095Y-110373390D02*
X71397619Y-110373390D01*
X71397619Y-110373390D02*
X71302381Y-110421009D01*
X71302381Y-110421009D02*
X71254762Y-110468628D01*
X71254762Y-110468628D02*
X71207143Y-110563866D01*
X71207143Y-110563866D02*
X71207143Y-110754342D01*
X71207143Y-110754342D02*
X71254762Y-110849580D01*
X71254762Y-110849580D02*
X71302381Y-110897200D01*
X71302381Y-110897200D02*
X71397619Y-110944819D01*
X71397619Y-110944819D02*
X71588095Y-110944819D01*
X71588095Y-110944819D02*
X71683333Y-110897200D01*
X71683333Y-110897200D02*
X71730952Y-110849580D01*
X71730952Y-110849580D02*
X71778571Y-110754342D01*
X71778571Y-110754342D02*
X71778571Y-110563866D01*
X71778571Y-110563866D02*
X71730952Y-110468628D01*
X71730952Y-110468628D02*
X71683333Y-110421009D01*
X71683333Y-110421009D02*
X71588095Y-110373390D01*
X34901428Y-110897200D02*
X35044285Y-110944819D01*
X35044285Y-110944819D02*
X35282380Y-110944819D01*
X35282380Y-110944819D02*
X35377618Y-110897200D01*
X35377618Y-110897200D02*
X35425237Y-110849580D01*
X35425237Y-110849580D02*
X35472856Y-110754342D01*
X35472856Y-110754342D02*
X35472856Y-110659104D01*
X35472856Y-110659104D02*
X35425237Y-110563866D01*
X35425237Y-110563866D02*
X35377618Y-110516247D01*
X35377618Y-110516247D02*
X35282380Y-110468628D01*
X35282380Y-110468628D02*
X35091904Y-110421009D01*
X35091904Y-110421009D02*
X34996666Y-110373390D01*
X34996666Y-110373390D02*
X34949047Y-110325771D01*
X34949047Y-110325771D02*
X34901428Y-110230533D01*
X34901428Y-110230533D02*
X34901428Y-110135295D01*
X34901428Y-110135295D02*
X34949047Y-110040057D01*
X34949047Y-110040057D02*
X34996666Y-109992438D01*
X34996666Y-109992438D02*
X35091904Y-109944819D01*
X35091904Y-109944819D02*
X35329999Y-109944819D01*
X35329999Y-109944819D02*
X35472856Y-109992438D01*
X35758571Y-110278152D02*
X36139523Y-110278152D01*
X35901428Y-109944819D02*
X35901428Y-110801961D01*
X35901428Y-110801961D02*
X35949047Y-110897200D01*
X35949047Y-110897200D02*
X36044285Y-110944819D01*
X36044285Y-110944819D02*
X36139523Y-110944819D01*
X36853809Y-110897200D02*
X36758571Y-110944819D01*
X36758571Y-110944819D02*
X36568095Y-110944819D01*
X36568095Y-110944819D02*
X36472857Y-110897200D01*
X36472857Y-110897200D02*
X36425238Y-110801961D01*
X36425238Y-110801961D02*
X36425238Y-110421009D01*
X36425238Y-110421009D02*
X36472857Y-110325771D01*
X36472857Y-110325771D02*
X36568095Y-110278152D01*
X36568095Y-110278152D02*
X36758571Y-110278152D01*
X36758571Y-110278152D02*
X36853809Y-110325771D01*
X36853809Y-110325771D02*
X36901428Y-110421009D01*
X36901428Y-110421009D02*
X36901428Y-110516247D01*
X36901428Y-110516247D02*
X36425238Y-110611485D01*
X37330000Y-110278152D02*
X37330000Y-111278152D01*
X37330000Y-110325771D02*
X37425238Y-110278152D01*
X37425238Y-110278152D02*
X37615714Y-110278152D01*
X37615714Y-110278152D02*
X37710952Y-110325771D01*
X37710952Y-110325771D02*
X37758571Y-110373390D01*
X37758571Y-110373390D02*
X37806190Y-110468628D01*
X37806190Y-110468628D02*
X37806190Y-110754342D01*
X37806190Y-110754342D02*
X37758571Y-110849580D01*
X37758571Y-110849580D02*
X37710952Y-110897200D01*
X37710952Y-110897200D02*
X37615714Y-110944819D01*
X37615714Y-110944819D02*
X37425238Y-110944819D01*
X37425238Y-110944819D02*
X37330000Y-110897200D01*
X38663333Y-110278152D02*
X38663333Y-110944819D01*
X38425238Y-109897200D02*
X38187143Y-110611485D01*
X38187143Y-110611485D02*
X38806190Y-110611485D01*
X67921428Y-94387200D02*
X68064285Y-94434819D01*
X68064285Y-94434819D02*
X68302380Y-94434819D01*
X68302380Y-94434819D02*
X68397618Y-94387200D01*
X68397618Y-94387200D02*
X68445237Y-94339580D01*
X68445237Y-94339580D02*
X68492856Y-94244342D01*
X68492856Y-94244342D02*
X68492856Y-94149104D01*
X68492856Y-94149104D02*
X68445237Y-94053866D01*
X68445237Y-94053866D02*
X68397618Y-94006247D01*
X68397618Y-94006247D02*
X68302380Y-93958628D01*
X68302380Y-93958628D02*
X68111904Y-93911009D01*
X68111904Y-93911009D02*
X68016666Y-93863390D01*
X68016666Y-93863390D02*
X67969047Y-93815771D01*
X67969047Y-93815771D02*
X67921428Y-93720533D01*
X67921428Y-93720533D02*
X67921428Y-93625295D01*
X67921428Y-93625295D02*
X67969047Y-93530057D01*
X67969047Y-93530057D02*
X68016666Y-93482438D01*
X68016666Y-93482438D02*
X68111904Y-93434819D01*
X68111904Y-93434819D02*
X68349999Y-93434819D01*
X68349999Y-93434819D02*
X68492856Y-93482438D01*
X68778571Y-93768152D02*
X69159523Y-93768152D01*
X68921428Y-93434819D02*
X68921428Y-94291961D01*
X68921428Y-94291961D02*
X68969047Y-94387200D01*
X68969047Y-94387200D02*
X69064285Y-94434819D01*
X69064285Y-94434819D02*
X69159523Y-94434819D01*
X69873809Y-94387200D02*
X69778571Y-94434819D01*
X69778571Y-94434819D02*
X69588095Y-94434819D01*
X69588095Y-94434819D02*
X69492857Y-94387200D01*
X69492857Y-94387200D02*
X69445238Y-94291961D01*
X69445238Y-94291961D02*
X69445238Y-93911009D01*
X69445238Y-93911009D02*
X69492857Y-93815771D01*
X69492857Y-93815771D02*
X69588095Y-93768152D01*
X69588095Y-93768152D02*
X69778571Y-93768152D01*
X69778571Y-93768152D02*
X69873809Y-93815771D01*
X69873809Y-93815771D02*
X69921428Y-93911009D01*
X69921428Y-93911009D02*
X69921428Y-94006247D01*
X69921428Y-94006247D02*
X69445238Y-94101485D01*
X70350000Y-93768152D02*
X70350000Y-94768152D01*
X70350000Y-93815771D02*
X70445238Y-93768152D01*
X70445238Y-93768152D02*
X70635714Y-93768152D01*
X70635714Y-93768152D02*
X70730952Y-93815771D01*
X70730952Y-93815771D02*
X70778571Y-93863390D01*
X70778571Y-93863390D02*
X70826190Y-93958628D01*
X70826190Y-93958628D02*
X70826190Y-94244342D01*
X70826190Y-94244342D02*
X70778571Y-94339580D01*
X70778571Y-94339580D02*
X70730952Y-94387200D01*
X70730952Y-94387200D02*
X70635714Y-94434819D01*
X70635714Y-94434819D02*
X70445238Y-94434819D01*
X70445238Y-94434819D02*
X70350000Y-94387200D01*
X71159524Y-93434819D02*
X71826190Y-93434819D01*
X71826190Y-93434819D02*
X71397619Y-94434819D01*
X67897618Y-29294819D02*
X67564285Y-28818628D01*
X67326190Y-29294819D02*
X67326190Y-28294819D01*
X67326190Y-28294819D02*
X67707142Y-28294819D01*
X67707142Y-28294819D02*
X67802380Y-28342438D01*
X67802380Y-28342438D02*
X67849999Y-28390057D01*
X67849999Y-28390057D02*
X67897618Y-28485295D01*
X67897618Y-28485295D02*
X67897618Y-28628152D01*
X67897618Y-28628152D02*
X67849999Y-28723390D01*
X67849999Y-28723390D02*
X67802380Y-28771009D01*
X67802380Y-28771009D02*
X67707142Y-28818628D01*
X67707142Y-28818628D02*
X67326190Y-28818628D01*
X68754761Y-29294819D02*
X68754761Y-28771009D01*
X68754761Y-28771009D02*
X68707142Y-28675771D01*
X68707142Y-28675771D02*
X68611904Y-28628152D01*
X68611904Y-28628152D02*
X68421428Y-28628152D01*
X68421428Y-28628152D02*
X68326190Y-28675771D01*
X68754761Y-29247200D02*
X68659523Y-29294819D01*
X68659523Y-29294819D02*
X68421428Y-29294819D01*
X68421428Y-29294819D02*
X68326190Y-29247200D01*
X68326190Y-29247200D02*
X68278571Y-29151961D01*
X68278571Y-29151961D02*
X68278571Y-29056723D01*
X68278571Y-29056723D02*
X68326190Y-28961485D01*
X68326190Y-28961485D02*
X68421428Y-28913866D01*
X68421428Y-28913866D02*
X68659523Y-28913866D01*
X68659523Y-28913866D02*
X68754761Y-28866247D01*
X69230952Y-28628152D02*
X69230952Y-29294819D01*
X69230952Y-28723390D02*
X69278571Y-28675771D01*
X69278571Y-28675771D02*
X69373809Y-28628152D01*
X69373809Y-28628152D02*
X69516666Y-28628152D01*
X69516666Y-28628152D02*
X69611904Y-28675771D01*
X69611904Y-28675771D02*
X69659523Y-28771009D01*
X69659523Y-28771009D02*
X69659523Y-29294819D01*
X70564285Y-28628152D02*
X70564285Y-29437676D01*
X70564285Y-29437676D02*
X70516666Y-29532914D01*
X70516666Y-29532914D02*
X70469047Y-29580533D01*
X70469047Y-29580533D02*
X70373809Y-29628152D01*
X70373809Y-29628152D02*
X70230952Y-29628152D01*
X70230952Y-29628152D02*
X70135714Y-29580533D01*
X70564285Y-29247200D02*
X70469047Y-29294819D01*
X70469047Y-29294819D02*
X70278571Y-29294819D01*
X70278571Y-29294819D02*
X70183333Y-29247200D01*
X70183333Y-29247200D02*
X70135714Y-29199580D01*
X70135714Y-29199580D02*
X70088095Y-29104342D01*
X70088095Y-29104342D02*
X70088095Y-28818628D01*
X70088095Y-28818628D02*
X70135714Y-28723390D01*
X70135714Y-28723390D02*
X70183333Y-28675771D01*
X70183333Y-28675771D02*
X70278571Y-28628152D01*
X70278571Y-28628152D02*
X70469047Y-28628152D01*
X70469047Y-28628152D02*
X70564285Y-28675771D01*
X71421428Y-29247200D02*
X71326190Y-29294819D01*
X71326190Y-29294819D02*
X71135714Y-29294819D01*
X71135714Y-29294819D02*
X71040476Y-29247200D01*
X71040476Y-29247200D02*
X70992857Y-29151961D01*
X70992857Y-29151961D02*
X70992857Y-28771009D01*
X70992857Y-28771009D02*
X71040476Y-28675771D01*
X71040476Y-28675771D02*
X71135714Y-28628152D01*
X71135714Y-28628152D02*
X71326190Y-28628152D01*
X71326190Y-28628152D02*
X71421428Y-28675771D01*
X71421428Y-28675771D02*
X71469047Y-28771009D01*
X71469047Y-28771009D02*
X71469047Y-28866247D01*
X71469047Y-28866247D02*
X70992857Y-28961485D01*
X72421428Y-29294819D02*
X71850000Y-29294819D01*
X72135714Y-29294819D02*
X72135714Y-28294819D01*
X72135714Y-28294819D02*
X72040476Y-28437676D01*
X72040476Y-28437676D02*
X71945238Y-28532914D01*
X71945238Y-28532914D02*
X71850000Y-28580533D01*
X34901428Y-77877200D02*
X35044285Y-77924819D01*
X35044285Y-77924819D02*
X35282380Y-77924819D01*
X35282380Y-77924819D02*
X35377618Y-77877200D01*
X35377618Y-77877200D02*
X35425237Y-77829580D01*
X35425237Y-77829580D02*
X35472856Y-77734342D01*
X35472856Y-77734342D02*
X35472856Y-77639104D01*
X35472856Y-77639104D02*
X35425237Y-77543866D01*
X35425237Y-77543866D02*
X35377618Y-77496247D01*
X35377618Y-77496247D02*
X35282380Y-77448628D01*
X35282380Y-77448628D02*
X35091904Y-77401009D01*
X35091904Y-77401009D02*
X34996666Y-77353390D01*
X34996666Y-77353390D02*
X34949047Y-77305771D01*
X34949047Y-77305771D02*
X34901428Y-77210533D01*
X34901428Y-77210533D02*
X34901428Y-77115295D01*
X34901428Y-77115295D02*
X34949047Y-77020057D01*
X34949047Y-77020057D02*
X34996666Y-76972438D01*
X34996666Y-76972438D02*
X35091904Y-76924819D01*
X35091904Y-76924819D02*
X35329999Y-76924819D01*
X35329999Y-76924819D02*
X35472856Y-76972438D01*
X35758571Y-77258152D02*
X36139523Y-77258152D01*
X35901428Y-76924819D02*
X35901428Y-77781961D01*
X35901428Y-77781961D02*
X35949047Y-77877200D01*
X35949047Y-77877200D02*
X36044285Y-77924819D01*
X36044285Y-77924819D02*
X36139523Y-77924819D01*
X36853809Y-77877200D02*
X36758571Y-77924819D01*
X36758571Y-77924819D02*
X36568095Y-77924819D01*
X36568095Y-77924819D02*
X36472857Y-77877200D01*
X36472857Y-77877200D02*
X36425238Y-77781961D01*
X36425238Y-77781961D02*
X36425238Y-77401009D01*
X36425238Y-77401009D02*
X36472857Y-77305771D01*
X36472857Y-77305771D02*
X36568095Y-77258152D01*
X36568095Y-77258152D02*
X36758571Y-77258152D01*
X36758571Y-77258152D02*
X36853809Y-77305771D01*
X36853809Y-77305771D02*
X36901428Y-77401009D01*
X36901428Y-77401009D02*
X36901428Y-77496247D01*
X36901428Y-77496247D02*
X36425238Y-77591485D01*
X37330000Y-77258152D02*
X37330000Y-78258152D01*
X37330000Y-77305771D02*
X37425238Y-77258152D01*
X37425238Y-77258152D02*
X37615714Y-77258152D01*
X37615714Y-77258152D02*
X37710952Y-77305771D01*
X37710952Y-77305771D02*
X37758571Y-77353390D01*
X37758571Y-77353390D02*
X37806190Y-77448628D01*
X37806190Y-77448628D02*
X37806190Y-77734342D01*
X37806190Y-77734342D02*
X37758571Y-77829580D01*
X37758571Y-77829580D02*
X37710952Y-77877200D01*
X37710952Y-77877200D02*
X37615714Y-77924819D01*
X37615714Y-77924819D02*
X37425238Y-77924819D01*
X37425238Y-77924819D02*
X37330000Y-77877200D01*
X38187143Y-77020057D02*
X38234762Y-76972438D01*
X38234762Y-76972438D02*
X38330000Y-76924819D01*
X38330000Y-76924819D02*
X38568095Y-76924819D01*
X38568095Y-76924819D02*
X38663333Y-76972438D01*
X38663333Y-76972438D02*
X38710952Y-77020057D01*
X38710952Y-77020057D02*
X38758571Y-77115295D01*
X38758571Y-77115295D02*
X38758571Y-77210533D01*
X38758571Y-77210533D02*
X38710952Y-77353390D01*
X38710952Y-77353390D02*
X38139524Y-77924819D01*
X38139524Y-77924819D02*
X38758571Y-77924819D01*
X67921428Y-61367200D02*
X68064285Y-61414819D01*
X68064285Y-61414819D02*
X68302380Y-61414819D01*
X68302380Y-61414819D02*
X68397618Y-61367200D01*
X68397618Y-61367200D02*
X68445237Y-61319580D01*
X68445237Y-61319580D02*
X68492856Y-61224342D01*
X68492856Y-61224342D02*
X68492856Y-61129104D01*
X68492856Y-61129104D02*
X68445237Y-61033866D01*
X68445237Y-61033866D02*
X68397618Y-60986247D01*
X68397618Y-60986247D02*
X68302380Y-60938628D01*
X68302380Y-60938628D02*
X68111904Y-60891009D01*
X68111904Y-60891009D02*
X68016666Y-60843390D01*
X68016666Y-60843390D02*
X67969047Y-60795771D01*
X67969047Y-60795771D02*
X67921428Y-60700533D01*
X67921428Y-60700533D02*
X67921428Y-60605295D01*
X67921428Y-60605295D02*
X67969047Y-60510057D01*
X67969047Y-60510057D02*
X68016666Y-60462438D01*
X68016666Y-60462438D02*
X68111904Y-60414819D01*
X68111904Y-60414819D02*
X68349999Y-60414819D01*
X68349999Y-60414819D02*
X68492856Y-60462438D01*
X68778571Y-60748152D02*
X69159523Y-60748152D01*
X68921428Y-60414819D02*
X68921428Y-61271961D01*
X68921428Y-61271961D02*
X68969047Y-61367200D01*
X68969047Y-61367200D02*
X69064285Y-61414819D01*
X69064285Y-61414819D02*
X69159523Y-61414819D01*
X69873809Y-61367200D02*
X69778571Y-61414819D01*
X69778571Y-61414819D02*
X69588095Y-61414819D01*
X69588095Y-61414819D02*
X69492857Y-61367200D01*
X69492857Y-61367200D02*
X69445238Y-61271961D01*
X69445238Y-61271961D02*
X69445238Y-60891009D01*
X69445238Y-60891009D02*
X69492857Y-60795771D01*
X69492857Y-60795771D02*
X69588095Y-60748152D01*
X69588095Y-60748152D02*
X69778571Y-60748152D01*
X69778571Y-60748152D02*
X69873809Y-60795771D01*
X69873809Y-60795771D02*
X69921428Y-60891009D01*
X69921428Y-60891009D02*
X69921428Y-60986247D01*
X69921428Y-60986247D02*
X69445238Y-61081485D01*
X70350000Y-60748152D02*
X70350000Y-61748152D01*
X70350000Y-60795771D02*
X70445238Y-60748152D01*
X70445238Y-60748152D02*
X70635714Y-60748152D01*
X70635714Y-60748152D02*
X70730952Y-60795771D01*
X70730952Y-60795771D02*
X70778571Y-60843390D01*
X70778571Y-60843390D02*
X70826190Y-60938628D01*
X70826190Y-60938628D02*
X70826190Y-61224342D01*
X70826190Y-61224342D02*
X70778571Y-61319580D01*
X70778571Y-61319580D02*
X70730952Y-61367200D01*
X70730952Y-61367200D02*
X70635714Y-61414819D01*
X70635714Y-61414819D02*
X70445238Y-61414819D01*
X70445238Y-61414819D02*
X70350000Y-61367200D01*
X71730952Y-60414819D02*
X71254762Y-60414819D01*
X71254762Y-60414819D02*
X71207143Y-60891009D01*
X71207143Y-60891009D02*
X71254762Y-60843390D01*
X71254762Y-60843390D02*
X71350000Y-60795771D01*
X71350000Y-60795771D02*
X71588095Y-60795771D01*
X71588095Y-60795771D02*
X71683333Y-60843390D01*
X71683333Y-60843390D02*
X71730952Y-60891009D01*
X71730952Y-60891009D02*
X71778571Y-60986247D01*
X71778571Y-60986247D02*
X71778571Y-61224342D01*
X71778571Y-61224342D02*
X71730952Y-61319580D01*
X71730952Y-61319580D02*
X71683333Y-61367200D01*
X71683333Y-61367200D02*
X71588095Y-61414819D01*
X71588095Y-61414819D02*
X71350000Y-61414819D01*
X71350000Y-61414819D02*
X71254762Y-61367200D01*
X71254762Y-61367200D02*
X71207143Y-61319580D01*
X89259580Y-50966666D02*
X89307200Y-51014285D01*
X89307200Y-51014285D02*
X89354819Y-51157142D01*
X89354819Y-51157142D02*
X89354819Y-51252380D01*
X89354819Y-51252380D02*
X89307200Y-51395237D01*
X89307200Y-51395237D02*
X89211961Y-51490475D01*
X89211961Y-51490475D02*
X89116723Y-51538094D01*
X89116723Y-51538094D02*
X88926247Y-51585713D01*
X88926247Y-51585713D02*
X88783390Y-51585713D01*
X88783390Y-51585713D02*
X88592914Y-51538094D01*
X88592914Y-51538094D02*
X88497676Y-51490475D01*
X88497676Y-51490475D02*
X88402438Y-51395237D01*
X88402438Y-51395237D02*
X88354819Y-51252380D01*
X88354819Y-51252380D02*
X88354819Y-51157142D01*
X88354819Y-51157142D02*
X88402438Y-51014285D01*
X88402438Y-51014285D02*
X88450057Y-50966666D01*
X88354819Y-50109523D02*
X88354819Y-50299999D01*
X88354819Y-50299999D02*
X88402438Y-50395237D01*
X88402438Y-50395237D02*
X88450057Y-50442856D01*
X88450057Y-50442856D02*
X88592914Y-50538094D01*
X88592914Y-50538094D02*
X88783390Y-50585713D01*
X88783390Y-50585713D02*
X89164342Y-50585713D01*
X89164342Y-50585713D02*
X89259580Y-50538094D01*
X89259580Y-50538094D02*
X89307200Y-50490475D01*
X89307200Y-50490475D02*
X89354819Y-50395237D01*
X89354819Y-50395237D02*
X89354819Y-50204761D01*
X89354819Y-50204761D02*
X89307200Y-50109523D01*
X89307200Y-50109523D02*
X89259580Y-50061904D01*
X89259580Y-50061904D02*
X89164342Y-50014285D01*
X89164342Y-50014285D02*
X88926247Y-50014285D01*
X88926247Y-50014285D02*
X88831009Y-50061904D01*
X88831009Y-50061904D02*
X88783390Y-50109523D01*
X88783390Y-50109523D02*
X88735771Y-50204761D01*
X88735771Y-50204761D02*
X88735771Y-50395237D01*
X88735771Y-50395237D02*
X88783390Y-50490475D01*
X88783390Y-50490475D02*
X88831009Y-50538094D01*
X88831009Y-50538094D02*
X88926247Y-50585713D01*
X91913961Y-32109580D02*
X91866342Y-32157200D01*
X91866342Y-32157200D02*
X91723485Y-32204819D01*
X91723485Y-32204819D02*
X91628247Y-32204819D01*
X91628247Y-32204819D02*
X91485390Y-32157200D01*
X91485390Y-32157200D02*
X91390152Y-32061961D01*
X91390152Y-32061961D02*
X91342533Y-31966723D01*
X91342533Y-31966723D02*
X91294914Y-31776247D01*
X91294914Y-31776247D02*
X91294914Y-31633390D01*
X91294914Y-31633390D02*
X91342533Y-31442914D01*
X91342533Y-31442914D02*
X91390152Y-31347676D01*
X91390152Y-31347676D02*
X91485390Y-31252438D01*
X91485390Y-31252438D02*
X91628247Y-31204819D01*
X91628247Y-31204819D02*
X91723485Y-31204819D01*
X91723485Y-31204819D02*
X91866342Y-31252438D01*
X91866342Y-31252438D02*
X91913961Y-31300057D01*
X92247295Y-31204819D02*
X92866342Y-31204819D01*
X92866342Y-31204819D02*
X92533009Y-31585771D01*
X92533009Y-31585771D02*
X92675866Y-31585771D01*
X92675866Y-31585771D02*
X92771104Y-31633390D01*
X92771104Y-31633390D02*
X92818723Y-31681009D01*
X92818723Y-31681009D02*
X92866342Y-31776247D01*
X92866342Y-31776247D02*
X92866342Y-32014342D01*
X92866342Y-32014342D02*
X92818723Y-32109580D01*
X92818723Y-32109580D02*
X92771104Y-32157200D01*
X92771104Y-32157200D02*
X92675866Y-32204819D01*
X92675866Y-32204819D02*
X92390152Y-32204819D01*
X92390152Y-32204819D02*
X92294914Y-32157200D01*
X92294914Y-32157200D02*
X92247295Y-32109580D01*
X96353333Y-36554580D02*
X96305714Y-36602200D01*
X96305714Y-36602200D02*
X96162857Y-36649819D01*
X96162857Y-36649819D02*
X96067619Y-36649819D01*
X96067619Y-36649819D02*
X95924762Y-36602200D01*
X95924762Y-36602200D02*
X95829524Y-36506961D01*
X95829524Y-36506961D02*
X95781905Y-36411723D01*
X95781905Y-36411723D02*
X95734286Y-36221247D01*
X95734286Y-36221247D02*
X95734286Y-36078390D01*
X95734286Y-36078390D02*
X95781905Y-35887914D01*
X95781905Y-35887914D02*
X95829524Y-35792676D01*
X95829524Y-35792676D02*
X95924762Y-35697438D01*
X95924762Y-35697438D02*
X96067619Y-35649819D01*
X96067619Y-35649819D02*
X96162857Y-35649819D01*
X96162857Y-35649819D02*
X96305714Y-35697438D01*
X96305714Y-35697438D02*
X96353333Y-35745057D01*
X97305714Y-36649819D02*
X96734286Y-36649819D01*
X97020000Y-36649819D02*
X97020000Y-35649819D01*
X97020000Y-35649819D02*
X96924762Y-35792676D01*
X96924762Y-35792676D02*
X96829524Y-35887914D01*
X96829524Y-35887914D02*
X96734286Y-35935533D01*
X84288333Y-32109580D02*
X84240714Y-32157200D01*
X84240714Y-32157200D02*
X84097857Y-32204819D01*
X84097857Y-32204819D02*
X84002619Y-32204819D01*
X84002619Y-32204819D02*
X83859762Y-32157200D01*
X83859762Y-32157200D02*
X83764524Y-32061961D01*
X83764524Y-32061961D02*
X83716905Y-31966723D01*
X83716905Y-31966723D02*
X83669286Y-31776247D01*
X83669286Y-31776247D02*
X83669286Y-31633390D01*
X83669286Y-31633390D02*
X83716905Y-31442914D01*
X83716905Y-31442914D02*
X83764524Y-31347676D01*
X83764524Y-31347676D02*
X83859762Y-31252438D01*
X83859762Y-31252438D02*
X84002619Y-31204819D01*
X84002619Y-31204819D02*
X84097857Y-31204819D01*
X84097857Y-31204819D02*
X84240714Y-31252438D01*
X84240714Y-31252438D02*
X84288333Y-31300057D01*
X85145476Y-31538152D02*
X85145476Y-32204819D01*
X84907381Y-31157200D02*
X84669286Y-31871485D01*
X84669286Y-31871485D02*
X85288333Y-31871485D01*
X85875905Y-22258448D02*
X85875905Y-21258448D01*
X85875905Y-21258448D02*
X86114000Y-21258448D01*
X86114000Y-21258448D02*
X86256857Y-21306067D01*
X86256857Y-21306067D02*
X86352095Y-21401305D01*
X86352095Y-21401305D02*
X86399714Y-21496543D01*
X86399714Y-21496543D02*
X86447333Y-21687019D01*
X86447333Y-21687019D02*
X86447333Y-21829876D01*
X86447333Y-21829876D02*
X86399714Y-22020352D01*
X86399714Y-22020352D02*
X86352095Y-22115590D01*
X86352095Y-22115590D02*
X86256857Y-22210829D01*
X86256857Y-22210829D02*
X86114000Y-22258448D01*
X86114000Y-22258448D02*
X85875905Y-22258448D01*
X86828286Y-21353686D02*
X86875905Y-21306067D01*
X86875905Y-21306067D02*
X86971143Y-21258448D01*
X86971143Y-21258448D02*
X87209238Y-21258448D01*
X87209238Y-21258448D02*
X87304476Y-21306067D01*
X87304476Y-21306067D02*
X87352095Y-21353686D01*
X87352095Y-21353686D02*
X87399714Y-21448924D01*
X87399714Y-21448924D02*
X87399714Y-21544162D01*
X87399714Y-21544162D02*
X87352095Y-21687019D01*
X87352095Y-21687019D02*
X86780667Y-22258448D01*
X86780667Y-22258448D02*
X87399714Y-22258448D01*
X81113333Y-91254819D02*
X80637143Y-91254819D01*
X80637143Y-91254819D02*
X80637143Y-90254819D01*
X81351429Y-90254819D02*
X82018095Y-90254819D01*
X82018095Y-90254819D02*
X81589524Y-91254819D01*
X80976667Y-74999819D02*
X80500477Y-74999819D01*
X80500477Y-74999819D02*
X80500477Y-73999819D01*
X81738572Y-73999819D02*
X81548096Y-73999819D01*
X81548096Y-73999819D02*
X81452858Y-74047438D01*
X81452858Y-74047438D02*
X81405239Y-74095057D01*
X81405239Y-74095057D02*
X81310001Y-74237914D01*
X81310001Y-74237914D02*
X81262382Y-74428390D01*
X81262382Y-74428390D02*
X81262382Y-74809342D01*
X81262382Y-74809342D02*
X81310001Y-74904580D01*
X81310001Y-74904580D02*
X81357620Y-74952200D01*
X81357620Y-74952200D02*
X81452858Y-74999819D01*
X81452858Y-74999819D02*
X81643334Y-74999819D01*
X81643334Y-74999819D02*
X81738572Y-74952200D01*
X81738572Y-74952200D02*
X81786191Y-74904580D01*
X81786191Y-74904580D02*
X81833810Y-74809342D01*
X81833810Y-74809342D02*
X81833810Y-74571247D01*
X81833810Y-74571247D02*
X81786191Y-74476009D01*
X81786191Y-74476009D02*
X81738572Y-74428390D01*
X81738572Y-74428390D02*
X81643334Y-74380771D01*
X81643334Y-74380771D02*
X81452858Y-74380771D01*
X81452858Y-74380771D02*
X81357620Y-74428390D01*
X81357620Y-74428390D02*
X81310001Y-74476009D01*
X81310001Y-74476009D02*
X81262382Y-74571247D01*
X81113333Y-107764819D02*
X80637143Y-107764819D01*
X80637143Y-107764819D02*
X80637143Y-106764819D01*
X81589524Y-107193390D02*
X81494286Y-107145771D01*
X81494286Y-107145771D02*
X81446667Y-107098152D01*
X81446667Y-107098152D02*
X81399048Y-107002914D01*
X81399048Y-107002914D02*
X81399048Y-106955295D01*
X81399048Y-106955295D02*
X81446667Y-106860057D01*
X81446667Y-106860057D02*
X81494286Y-106812438D01*
X81494286Y-106812438D02*
X81589524Y-106764819D01*
X81589524Y-106764819D02*
X81780000Y-106764819D01*
X81780000Y-106764819D02*
X81875238Y-106812438D01*
X81875238Y-106812438D02*
X81922857Y-106860057D01*
X81922857Y-106860057D02*
X81970476Y-106955295D01*
X81970476Y-106955295D02*
X81970476Y-107002914D01*
X81970476Y-107002914D02*
X81922857Y-107098152D01*
X81922857Y-107098152D02*
X81875238Y-107145771D01*
X81875238Y-107145771D02*
X81780000Y-107193390D01*
X81780000Y-107193390D02*
X81589524Y-107193390D01*
X81589524Y-107193390D02*
X81494286Y-107241009D01*
X81494286Y-107241009D02*
X81446667Y-107288628D01*
X81446667Y-107288628D02*
X81399048Y-107383866D01*
X81399048Y-107383866D02*
X81399048Y-107574342D01*
X81399048Y-107574342D02*
X81446667Y-107669580D01*
X81446667Y-107669580D02*
X81494286Y-107717200D01*
X81494286Y-107717200D02*
X81589524Y-107764819D01*
X81589524Y-107764819D02*
X81780000Y-107764819D01*
X81780000Y-107764819D02*
X81875238Y-107717200D01*
X81875238Y-107717200D02*
X81922857Y-107669580D01*
X81922857Y-107669580D02*
X81970476Y-107574342D01*
X81970476Y-107574342D02*
X81970476Y-107383866D01*
X81970476Y-107383866D02*
X81922857Y-107288628D01*
X81922857Y-107288628D02*
X81875238Y-107241009D01*
X81875238Y-107241009D02*
X81780000Y-107193390D01*
X93353095Y-66386819D02*
X93924523Y-66386819D01*
X93638809Y-67386819D02*
X93638809Y-66386819D01*
X94257857Y-67386819D02*
X94257857Y-66386819D01*
X94257857Y-66386819D02*
X94638809Y-66386819D01*
X94638809Y-66386819D02*
X94734047Y-66434438D01*
X94734047Y-66434438D02*
X94781666Y-66482057D01*
X94781666Y-66482057D02*
X94829285Y-66577295D01*
X94829285Y-66577295D02*
X94829285Y-66720152D01*
X94829285Y-66720152D02*
X94781666Y-66815390D01*
X94781666Y-66815390D02*
X94734047Y-66863009D01*
X94734047Y-66863009D02*
X94638809Y-66910628D01*
X94638809Y-66910628D02*
X94257857Y-66910628D01*
X95686428Y-66386819D02*
X95495952Y-66386819D01*
X95495952Y-66386819D02*
X95400714Y-66434438D01*
X95400714Y-66434438D02*
X95353095Y-66482057D01*
X95353095Y-66482057D02*
X95257857Y-66624914D01*
X95257857Y-66624914D02*
X95210238Y-66815390D01*
X95210238Y-66815390D02*
X95210238Y-67196342D01*
X95210238Y-67196342D02*
X95257857Y-67291580D01*
X95257857Y-67291580D02*
X95305476Y-67339200D01*
X95305476Y-67339200D02*
X95400714Y-67386819D01*
X95400714Y-67386819D02*
X95591190Y-67386819D01*
X95591190Y-67386819D02*
X95686428Y-67339200D01*
X95686428Y-67339200D02*
X95734047Y-67291580D01*
X95734047Y-67291580D02*
X95781666Y-67196342D01*
X95781666Y-67196342D02*
X95781666Y-66958247D01*
X95781666Y-66958247D02*
X95734047Y-66863009D01*
X95734047Y-66863009D02*
X95686428Y-66815390D01*
X95686428Y-66815390D02*
X95591190Y-66767771D01*
X95591190Y-66767771D02*
X95400714Y-66767771D01*
X95400714Y-66767771D02*
X95305476Y-66815390D01*
X95305476Y-66815390D02*
X95257857Y-66863009D01*
X95257857Y-66863009D02*
X95210238Y-66958247D01*
X100319819Y-40422857D02*
X99843628Y-40756190D01*
X100319819Y-40994285D02*
X99319819Y-40994285D01*
X99319819Y-40994285D02*
X99319819Y-40613333D01*
X99319819Y-40613333D02*
X99367438Y-40518095D01*
X99367438Y-40518095D02*
X99415057Y-40470476D01*
X99415057Y-40470476D02*
X99510295Y-40422857D01*
X99510295Y-40422857D02*
X99653152Y-40422857D01*
X99653152Y-40422857D02*
X99748390Y-40470476D01*
X99748390Y-40470476D02*
X99796009Y-40518095D01*
X99796009Y-40518095D02*
X99843628Y-40613333D01*
X99843628Y-40613333D02*
X99843628Y-40994285D01*
X99415057Y-40041904D02*
X99367438Y-39994285D01*
X99367438Y-39994285D02*
X99319819Y-39899047D01*
X99319819Y-39899047D02*
X99319819Y-39660952D01*
X99319819Y-39660952D02*
X99367438Y-39565714D01*
X99367438Y-39565714D02*
X99415057Y-39518095D01*
X99415057Y-39518095D02*
X99510295Y-39470476D01*
X99510295Y-39470476D02*
X99605533Y-39470476D01*
X99605533Y-39470476D02*
X99748390Y-39518095D01*
X99748390Y-39518095D02*
X100319819Y-40089523D01*
X100319819Y-40089523D02*
X100319819Y-39470476D01*
X100319819Y-38994285D02*
X100319819Y-38803809D01*
X100319819Y-38803809D02*
X100272200Y-38708571D01*
X100272200Y-38708571D02*
X100224580Y-38660952D01*
X100224580Y-38660952D02*
X100081723Y-38565714D01*
X100081723Y-38565714D02*
X99891247Y-38518095D01*
X99891247Y-38518095D02*
X99510295Y-38518095D01*
X99510295Y-38518095D02*
X99415057Y-38565714D01*
X99415057Y-38565714D02*
X99367438Y-38613333D01*
X99367438Y-38613333D02*
X99319819Y-38708571D01*
X99319819Y-38708571D02*
X99319819Y-38899047D01*
X99319819Y-38899047D02*
X99367438Y-38994285D01*
X99367438Y-38994285D02*
X99415057Y-39041904D01*
X99415057Y-39041904D02*
X99510295Y-39089523D01*
X99510295Y-39089523D02*
X99748390Y-39089523D01*
X99748390Y-39089523D02*
X99843628Y-39041904D01*
X99843628Y-39041904D02*
X99891247Y-38994285D01*
X99891247Y-38994285D02*
X99938866Y-38899047D01*
X99938866Y-38899047D02*
X99938866Y-38708571D01*
X99938866Y-38708571D02*
X99891247Y-38613333D01*
X99891247Y-38613333D02*
X99843628Y-38565714D01*
X99843628Y-38565714D02*
X99748390Y-38518095D01*
X101536667Y-55017200D02*
X101679524Y-55064819D01*
X101679524Y-55064819D02*
X101917619Y-55064819D01*
X101917619Y-55064819D02*
X102012857Y-55017200D01*
X102012857Y-55017200D02*
X102060476Y-54969580D01*
X102060476Y-54969580D02*
X102108095Y-54874342D01*
X102108095Y-54874342D02*
X102108095Y-54779104D01*
X102108095Y-54779104D02*
X102060476Y-54683866D01*
X102060476Y-54683866D02*
X102012857Y-54636247D01*
X102012857Y-54636247D02*
X101917619Y-54588628D01*
X101917619Y-54588628D02*
X101727143Y-54541009D01*
X101727143Y-54541009D02*
X101631905Y-54493390D01*
X101631905Y-54493390D02*
X101584286Y-54445771D01*
X101584286Y-54445771D02*
X101536667Y-54350533D01*
X101536667Y-54350533D02*
X101536667Y-54255295D01*
X101536667Y-54255295D02*
X101584286Y-54160057D01*
X101584286Y-54160057D02*
X101631905Y-54112438D01*
X101631905Y-54112438D02*
X101727143Y-54064819D01*
X101727143Y-54064819D02*
X101965238Y-54064819D01*
X101965238Y-54064819D02*
X102108095Y-54112438D01*
X102441429Y-54064819D02*
X102679524Y-55064819D01*
X102679524Y-55064819D02*
X102870000Y-54350533D01*
X102870000Y-54350533D02*
X103060476Y-55064819D01*
X103060476Y-55064819D02*
X103298572Y-54064819D01*
X103727143Y-55064819D02*
X103917619Y-55064819D01*
X103917619Y-55064819D02*
X104012857Y-55017200D01*
X104012857Y-55017200D02*
X104060476Y-54969580D01*
X104060476Y-54969580D02*
X104155714Y-54826723D01*
X104155714Y-54826723D02*
X104203333Y-54636247D01*
X104203333Y-54636247D02*
X104203333Y-54255295D01*
X104203333Y-54255295D02*
X104155714Y-54160057D01*
X104155714Y-54160057D02*
X104108095Y-54112438D01*
X104108095Y-54112438D02*
X104012857Y-54064819D01*
X104012857Y-54064819D02*
X103822381Y-54064819D01*
X103822381Y-54064819D02*
X103727143Y-54112438D01*
X103727143Y-54112438D02*
X103679524Y-54160057D01*
X103679524Y-54160057D02*
X103631905Y-54255295D01*
X103631905Y-54255295D02*
X103631905Y-54493390D01*
X103631905Y-54493390D02*
X103679524Y-54588628D01*
X103679524Y-54588628D02*
X103727143Y-54636247D01*
X103727143Y-54636247D02*
X103822381Y-54683866D01*
X103822381Y-54683866D02*
X104012857Y-54683866D01*
X104012857Y-54683866D02*
X104108095Y-54636247D01*
X104108095Y-54636247D02*
X104155714Y-54588628D01*
X104155714Y-54588628D02*
X104203333Y-54493390D01*
X106447142Y-40629819D02*
X106113809Y-40153628D01*
X105875714Y-40629819D02*
X105875714Y-39629819D01*
X105875714Y-39629819D02*
X106256666Y-39629819D01*
X106256666Y-39629819D02*
X106351904Y-39677438D01*
X106351904Y-39677438D02*
X106399523Y-39725057D01*
X106399523Y-39725057D02*
X106447142Y-39820295D01*
X106447142Y-39820295D02*
X106447142Y-39963152D01*
X106447142Y-39963152D02*
X106399523Y-40058390D01*
X106399523Y-40058390D02*
X106351904Y-40106009D01*
X106351904Y-40106009D02*
X106256666Y-40153628D01*
X106256666Y-40153628D02*
X105875714Y-40153628D01*
X106780476Y-39629819D02*
X107399523Y-39629819D01*
X107399523Y-39629819D02*
X107066190Y-40010771D01*
X107066190Y-40010771D02*
X107209047Y-40010771D01*
X107209047Y-40010771D02*
X107304285Y-40058390D01*
X107304285Y-40058390D02*
X107351904Y-40106009D01*
X107351904Y-40106009D02*
X107399523Y-40201247D01*
X107399523Y-40201247D02*
X107399523Y-40439342D01*
X107399523Y-40439342D02*
X107351904Y-40534580D01*
X107351904Y-40534580D02*
X107304285Y-40582200D01*
X107304285Y-40582200D02*
X107209047Y-40629819D01*
X107209047Y-40629819D02*
X106923333Y-40629819D01*
X106923333Y-40629819D02*
X106828095Y-40582200D01*
X106828095Y-40582200D02*
X106780476Y-40534580D01*
X108018571Y-39629819D02*
X108113809Y-39629819D01*
X108113809Y-39629819D02*
X108209047Y-39677438D01*
X108209047Y-39677438D02*
X108256666Y-39725057D01*
X108256666Y-39725057D02*
X108304285Y-39820295D01*
X108304285Y-39820295D02*
X108351904Y-40010771D01*
X108351904Y-40010771D02*
X108351904Y-40248866D01*
X108351904Y-40248866D02*
X108304285Y-40439342D01*
X108304285Y-40439342D02*
X108256666Y-40534580D01*
X108256666Y-40534580D02*
X108209047Y-40582200D01*
X108209047Y-40582200D02*
X108113809Y-40629819D01*
X108113809Y-40629819D02*
X108018571Y-40629819D01*
X108018571Y-40629819D02*
X107923333Y-40582200D01*
X107923333Y-40582200D02*
X107875714Y-40534580D01*
X107875714Y-40534580D02*
X107828095Y-40439342D01*
X107828095Y-40439342D02*
X107780476Y-40248866D01*
X107780476Y-40248866D02*
X107780476Y-40010771D01*
X107780476Y-40010771D02*
X107828095Y-39820295D01*
X107828095Y-39820295D02*
X107875714Y-39725057D01*
X107875714Y-39725057D02*
X107923333Y-39677438D01*
X107923333Y-39677438D02*
X108018571Y-39629819D01*
X20527601Y-49876819D02*
X21099029Y-49876819D01*
X20813315Y-50876819D02*
X20813315Y-49876819D01*
X21432363Y-50876819D02*
X21432363Y-49876819D01*
X21432363Y-49876819D02*
X21813315Y-49876819D01*
X21813315Y-49876819D02*
X21908553Y-49924438D01*
X21908553Y-49924438D02*
X21956172Y-49972057D01*
X21956172Y-49972057D02*
X22003791Y-50067295D01*
X22003791Y-50067295D02*
X22003791Y-50210152D01*
X22003791Y-50210152D02*
X21956172Y-50305390D01*
X21956172Y-50305390D02*
X21908553Y-50353009D01*
X21908553Y-50353009D02*
X21813315Y-50400628D01*
X21813315Y-50400628D02*
X21432363Y-50400628D01*
X22337125Y-49876819D02*
X22956172Y-49876819D01*
X22956172Y-49876819D02*
X22622839Y-50257771D01*
X22622839Y-50257771D02*
X22765696Y-50257771D01*
X22765696Y-50257771D02*
X22860934Y-50305390D01*
X22860934Y-50305390D02*
X22908553Y-50353009D01*
X22908553Y-50353009D02*
X22956172Y-50448247D01*
X22956172Y-50448247D02*
X22956172Y-50686342D01*
X22956172Y-50686342D02*
X22908553Y-50781580D01*
X22908553Y-50781580D02*
X22860934Y-50829200D01*
X22860934Y-50829200D02*
X22765696Y-50876819D01*
X22765696Y-50876819D02*
X22479982Y-50876819D01*
X22479982Y-50876819D02*
X22384744Y-50829200D01*
X22384744Y-50829200D02*
X22337125Y-50781580D01*
X105402142Y-46174819D02*
X105068809Y-45698628D01*
X104830714Y-46174819D02*
X104830714Y-45174819D01*
X104830714Y-45174819D02*
X105211666Y-45174819D01*
X105211666Y-45174819D02*
X105306904Y-45222438D01*
X105306904Y-45222438D02*
X105354523Y-45270057D01*
X105354523Y-45270057D02*
X105402142Y-45365295D01*
X105402142Y-45365295D02*
X105402142Y-45508152D01*
X105402142Y-45508152D02*
X105354523Y-45603390D01*
X105354523Y-45603390D02*
X105306904Y-45651009D01*
X105306904Y-45651009D02*
X105211666Y-45698628D01*
X105211666Y-45698628D02*
X104830714Y-45698628D01*
X105783095Y-45270057D02*
X105830714Y-45222438D01*
X105830714Y-45222438D02*
X105925952Y-45174819D01*
X105925952Y-45174819D02*
X106164047Y-45174819D01*
X106164047Y-45174819D02*
X106259285Y-45222438D01*
X106259285Y-45222438D02*
X106306904Y-45270057D01*
X106306904Y-45270057D02*
X106354523Y-45365295D01*
X106354523Y-45365295D02*
X106354523Y-45460533D01*
X106354523Y-45460533D02*
X106306904Y-45603390D01*
X106306904Y-45603390D02*
X105735476Y-46174819D01*
X105735476Y-46174819D02*
X106354523Y-46174819D01*
X106925952Y-45603390D02*
X106830714Y-45555771D01*
X106830714Y-45555771D02*
X106783095Y-45508152D01*
X106783095Y-45508152D02*
X106735476Y-45412914D01*
X106735476Y-45412914D02*
X106735476Y-45365295D01*
X106735476Y-45365295D02*
X106783095Y-45270057D01*
X106783095Y-45270057D02*
X106830714Y-45222438D01*
X106830714Y-45222438D02*
X106925952Y-45174819D01*
X106925952Y-45174819D02*
X107116428Y-45174819D01*
X107116428Y-45174819D02*
X107211666Y-45222438D01*
X107211666Y-45222438D02*
X107259285Y-45270057D01*
X107259285Y-45270057D02*
X107306904Y-45365295D01*
X107306904Y-45365295D02*
X107306904Y-45412914D01*
X107306904Y-45412914D02*
X107259285Y-45508152D01*
X107259285Y-45508152D02*
X107211666Y-45555771D01*
X107211666Y-45555771D02*
X107116428Y-45603390D01*
X107116428Y-45603390D02*
X106925952Y-45603390D01*
X106925952Y-45603390D02*
X106830714Y-45651009D01*
X106830714Y-45651009D02*
X106783095Y-45698628D01*
X106783095Y-45698628D02*
X106735476Y-45793866D01*
X106735476Y-45793866D02*
X106735476Y-45984342D01*
X106735476Y-45984342D02*
X106783095Y-46079580D01*
X106783095Y-46079580D02*
X106830714Y-46127200D01*
X106830714Y-46127200D02*
X106925952Y-46174819D01*
X106925952Y-46174819D02*
X107116428Y-46174819D01*
X107116428Y-46174819D02*
X107211666Y-46127200D01*
X107211666Y-46127200D02*
X107259285Y-46079580D01*
X107259285Y-46079580D02*
X107306904Y-45984342D01*
X107306904Y-45984342D02*
X107306904Y-45793866D01*
X107306904Y-45793866D02*
X107259285Y-45698628D01*
X107259285Y-45698628D02*
X107211666Y-45651009D01*
X107211666Y-45651009D02*
X107116428Y-45603390D01*
X103145419Y-111053809D02*
X103097800Y-111006190D01*
X103097800Y-111006190D02*
X103050180Y-110863333D01*
X103050180Y-110863333D02*
X103050180Y-110768095D01*
X103050180Y-110768095D02*
X103097800Y-110625238D01*
X103097800Y-110625238D02*
X103193038Y-110530000D01*
X103193038Y-110530000D02*
X103288276Y-110482381D01*
X103288276Y-110482381D02*
X103478752Y-110434762D01*
X103478752Y-110434762D02*
X103621609Y-110434762D01*
X103621609Y-110434762D02*
X103812085Y-110482381D01*
X103812085Y-110482381D02*
X103907323Y-110530000D01*
X103907323Y-110530000D02*
X104002561Y-110625238D01*
X104002561Y-110625238D02*
X104050180Y-110768095D01*
X104050180Y-110768095D02*
X104050180Y-110863333D01*
X104050180Y-110863333D02*
X104002561Y-111006190D01*
X104002561Y-111006190D02*
X103954942Y-111053809D01*
X103050180Y-111958571D02*
X103050180Y-111482381D01*
X103050180Y-111482381D02*
X104050180Y-111482381D01*
X103050180Y-112291905D02*
X104050180Y-112291905D01*
X103050180Y-112863333D02*
X103621609Y-112434762D01*
X104050180Y-112863333D02*
X103478752Y-112291905D01*
X102954942Y-113053810D02*
X102954942Y-113815714D01*
X104050180Y-114244286D02*
X104050180Y-114434762D01*
X104050180Y-114434762D02*
X104002561Y-114530000D01*
X104002561Y-114530000D02*
X103907323Y-114625238D01*
X103907323Y-114625238D02*
X103716847Y-114672857D01*
X103716847Y-114672857D02*
X103383514Y-114672857D01*
X103383514Y-114672857D02*
X103193038Y-114625238D01*
X103193038Y-114625238D02*
X103097800Y-114530000D01*
X103097800Y-114530000D02*
X103050180Y-114434762D01*
X103050180Y-114434762D02*
X103050180Y-114244286D01*
X103050180Y-114244286D02*
X103097800Y-114149048D01*
X103097800Y-114149048D02*
X103193038Y-114053810D01*
X103193038Y-114053810D02*
X103383514Y-114006191D01*
X103383514Y-114006191D02*
X103716847Y-114006191D01*
X103716847Y-114006191D02*
X103907323Y-114053810D01*
X103907323Y-114053810D02*
X104002561Y-114149048D01*
X104002561Y-114149048D02*
X104050180Y-114244286D01*
X103050180Y-115625238D02*
X103050180Y-115053810D01*
X103050180Y-115339524D02*
X104050180Y-115339524D01*
X104050180Y-115339524D02*
X103907323Y-115244286D01*
X103907323Y-115244286D02*
X103812085Y-115149048D01*
X103812085Y-115149048D02*
X103764466Y-115053810D01*
X107148333Y-36014819D02*
X106815000Y-35538628D01*
X106576905Y-36014819D02*
X106576905Y-35014819D01*
X106576905Y-35014819D02*
X106957857Y-35014819D01*
X106957857Y-35014819D02*
X107053095Y-35062438D01*
X107053095Y-35062438D02*
X107100714Y-35110057D01*
X107100714Y-35110057D02*
X107148333Y-35205295D01*
X107148333Y-35205295D02*
X107148333Y-35348152D01*
X107148333Y-35348152D02*
X107100714Y-35443390D01*
X107100714Y-35443390D02*
X107053095Y-35491009D01*
X107053095Y-35491009D02*
X106957857Y-35538628D01*
X106957857Y-35538628D02*
X106576905Y-35538628D01*
X108100714Y-36014819D02*
X107529286Y-36014819D01*
X107815000Y-36014819D02*
X107815000Y-35014819D01*
X107815000Y-35014819D02*
X107719762Y-35157676D01*
X107719762Y-35157676D02*
X107624524Y-35252914D01*
X107624524Y-35252914D02*
X107529286Y-35300533D01*
X29718095Y-33427200D02*
X29860952Y-33474819D01*
X29860952Y-33474819D02*
X30099047Y-33474819D01*
X30099047Y-33474819D02*
X30194285Y-33427200D01*
X30194285Y-33427200D02*
X30241904Y-33379580D01*
X30241904Y-33379580D02*
X30289523Y-33284342D01*
X30289523Y-33284342D02*
X30289523Y-33189104D01*
X30289523Y-33189104D02*
X30241904Y-33093866D01*
X30241904Y-33093866D02*
X30194285Y-33046247D01*
X30194285Y-33046247D02*
X30099047Y-32998628D01*
X30099047Y-32998628D02*
X29908571Y-32951009D01*
X29908571Y-32951009D02*
X29813333Y-32903390D01*
X29813333Y-32903390D02*
X29765714Y-32855771D01*
X29765714Y-32855771D02*
X29718095Y-32760533D01*
X29718095Y-32760533D02*
X29718095Y-32665295D01*
X29718095Y-32665295D02*
X29765714Y-32570057D01*
X29765714Y-32570057D02*
X29813333Y-32522438D01*
X29813333Y-32522438D02*
X29908571Y-32474819D01*
X29908571Y-32474819D02*
X30146666Y-32474819D01*
X30146666Y-32474819D02*
X30289523Y-32522438D01*
X31241904Y-33474819D02*
X30670476Y-33474819D01*
X30956190Y-33474819D02*
X30956190Y-32474819D01*
X30956190Y-32474819D02*
X30860952Y-32617676D01*
X30860952Y-32617676D02*
X30765714Y-32712914D01*
X30765714Y-32712914D02*
X30670476Y-32760533D01*
D12*
X28081283Y-35339247D02*
X27553352Y-35120571D01*
X27817317Y-35229909D02*
X28200001Y-34306029D01*
X28200001Y-34306029D02*
X28057343Y-34401566D01*
X28057343Y-34401566D02*
X27932909Y-34453109D01*
X27932909Y-34453109D02*
X27826697Y-34460657D01*
D11*
X48225833Y-58234819D02*
X47749643Y-58234819D01*
X47749643Y-58234819D02*
X47749643Y-57234819D01*
X49082976Y-58234819D02*
X48511548Y-58234819D01*
X48797262Y-58234819D02*
X48797262Y-57234819D01*
X48797262Y-57234819D02*
X48702024Y-57377676D01*
X48702024Y-57377676D02*
X48606786Y-57472914D01*
X48606786Y-57472914D02*
X48511548Y-57520533D01*
X48225833Y-107764819D02*
X47749643Y-107764819D01*
X47749643Y-107764819D02*
X47749643Y-106764819D01*
X48987738Y-107098152D02*
X48987738Y-107764819D01*
X48749643Y-106717200D02*
X48511548Y-107431485D01*
X48511548Y-107431485D02*
X49130595Y-107431485D01*
X48225833Y-74744819D02*
X47749643Y-74744819D01*
X47749643Y-74744819D02*
X47749643Y-73744819D01*
X48511548Y-73840057D02*
X48559167Y-73792438D01*
X48559167Y-73792438D02*
X48654405Y-73744819D01*
X48654405Y-73744819D02*
X48892500Y-73744819D01*
X48892500Y-73744819D02*
X48987738Y-73792438D01*
X48987738Y-73792438D02*
X49035357Y-73840057D01*
X49035357Y-73840057D02*
X49082976Y-73935295D01*
X49082976Y-73935295D02*
X49082976Y-74030533D01*
X49082976Y-74030533D02*
X49035357Y-74173390D01*
X49035357Y-74173390D02*
X48463929Y-74744819D01*
X48463929Y-74744819D02*
X49082976Y-74744819D01*
X107818219Y-32204819D02*
X107818219Y-31204819D01*
X107818219Y-31204819D02*
X108056314Y-31204819D01*
X108056314Y-31204819D02*
X108199171Y-31252438D01*
X108199171Y-31252438D02*
X108294409Y-31347676D01*
X108294409Y-31347676D02*
X108342028Y-31442914D01*
X108342028Y-31442914D02*
X108389647Y-31633390D01*
X108389647Y-31633390D02*
X108389647Y-31776247D01*
X108389647Y-31776247D02*
X108342028Y-31966723D01*
X108342028Y-31966723D02*
X108294409Y-32061961D01*
X108294409Y-32061961D02*
X108199171Y-32157200D01*
X108199171Y-32157200D02*
X108056314Y-32204819D01*
X108056314Y-32204819D02*
X107818219Y-32204819D01*
X109342028Y-32204819D02*
X108770600Y-32204819D01*
X109056314Y-32204819D02*
X109056314Y-31204819D01*
X109056314Y-31204819D02*
X108961076Y-31347676D01*
X108961076Y-31347676D02*
X108865838Y-31442914D01*
X108865838Y-31442914D02*
X108770600Y-31490533D01*
X86193333Y-27124819D02*
X85860000Y-26648628D01*
X85621905Y-27124819D02*
X85621905Y-26124819D01*
X85621905Y-26124819D02*
X86002857Y-26124819D01*
X86002857Y-26124819D02*
X86098095Y-26172438D01*
X86098095Y-26172438D02*
X86145714Y-26220057D01*
X86145714Y-26220057D02*
X86193333Y-26315295D01*
X86193333Y-26315295D02*
X86193333Y-26458152D01*
X86193333Y-26458152D02*
X86145714Y-26553390D01*
X86145714Y-26553390D02*
X86098095Y-26601009D01*
X86098095Y-26601009D02*
X86002857Y-26648628D01*
X86002857Y-26648628D02*
X85621905Y-26648628D01*
X86574286Y-26220057D02*
X86621905Y-26172438D01*
X86621905Y-26172438D02*
X86717143Y-26124819D01*
X86717143Y-26124819D02*
X86955238Y-26124819D01*
X86955238Y-26124819D02*
X87050476Y-26172438D01*
X87050476Y-26172438D02*
X87098095Y-26220057D01*
X87098095Y-26220057D02*
X87145714Y-26315295D01*
X87145714Y-26315295D02*
X87145714Y-26410533D01*
X87145714Y-26410533D02*
X87098095Y-26553390D01*
X87098095Y-26553390D02*
X86526667Y-27124819D01*
X86526667Y-27124819D02*
X87145714Y-27124819D01*
X75446095Y-32982819D02*
X76017523Y-32982819D01*
X75731809Y-33982819D02*
X75731809Y-32982819D01*
X76350857Y-33982819D02*
X76350857Y-32982819D01*
X76350857Y-32982819D02*
X76731809Y-32982819D01*
X76731809Y-32982819D02*
X76827047Y-33030438D01*
X76827047Y-33030438D02*
X76874666Y-33078057D01*
X76874666Y-33078057D02*
X76922285Y-33173295D01*
X76922285Y-33173295D02*
X76922285Y-33316152D01*
X76922285Y-33316152D02*
X76874666Y-33411390D01*
X76874666Y-33411390D02*
X76827047Y-33459009D01*
X76827047Y-33459009D02*
X76731809Y-33506628D01*
X76731809Y-33506628D02*
X76350857Y-33506628D01*
X77303238Y-33078057D02*
X77350857Y-33030438D01*
X77350857Y-33030438D02*
X77446095Y-32982819D01*
X77446095Y-32982819D02*
X77684190Y-32982819D01*
X77684190Y-32982819D02*
X77779428Y-33030438D01*
X77779428Y-33030438D02*
X77827047Y-33078057D01*
X77827047Y-33078057D02*
X77874666Y-33173295D01*
X77874666Y-33173295D02*
X77874666Y-33268533D01*
X77874666Y-33268533D02*
X77827047Y-33411390D01*
X77827047Y-33411390D02*
X77255619Y-33982819D01*
X77255619Y-33982819D02*
X77874666Y-33982819D01*
X48225833Y-91259819D02*
X47749643Y-91259819D01*
X47749643Y-91259819D02*
X47749643Y-90259819D01*
X48463929Y-90259819D02*
X49082976Y-90259819D01*
X49082976Y-90259819D02*
X48749643Y-90640771D01*
X48749643Y-90640771D02*
X48892500Y-90640771D01*
X48892500Y-90640771D02*
X48987738Y-90688390D01*
X48987738Y-90688390D02*
X49035357Y-90736009D01*
X49035357Y-90736009D02*
X49082976Y-90831247D01*
X49082976Y-90831247D02*
X49082976Y-91069342D01*
X49082976Y-91069342D02*
X49035357Y-91164580D01*
X49035357Y-91164580D02*
X48987738Y-91212200D01*
X48987738Y-91212200D02*
X48892500Y-91259819D01*
X48892500Y-91259819D02*
X48606786Y-91259819D01*
X48606786Y-91259819D02*
X48511548Y-91212200D01*
X48511548Y-91212200D02*
X48463929Y-91164580D01*
X81288095Y-34716819D02*
X81859523Y-34716819D01*
X81573809Y-35716819D02*
X81573809Y-34716819D01*
X82192857Y-35716819D02*
X82192857Y-34716819D01*
X82192857Y-34716819D02*
X82573809Y-34716819D01*
X82573809Y-34716819D02*
X82669047Y-34764438D01*
X82669047Y-34764438D02*
X82716666Y-34812057D01*
X82716666Y-34812057D02*
X82764285Y-34907295D01*
X82764285Y-34907295D02*
X82764285Y-35050152D01*
X82764285Y-35050152D02*
X82716666Y-35145390D01*
X82716666Y-35145390D02*
X82669047Y-35193009D01*
X82669047Y-35193009D02*
X82573809Y-35240628D01*
X82573809Y-35240628D02*
X82192857Y-35240628D01*
X83621428Y-35050152D02*
X83621428Y-35716819D01*
X83383333Y-34669200D02*
X83145238Y-35383485D01*
X83145238Y-35383485D02*
X83764285Y-35383485D01*
X94644819Y-116843094D02*
X94644819Y-116271666D01*
X95644819Y-116557380D02*
X94644819Y-116557380D01*
X95644819Y-115938332D02*
X94644819Y-115938332D01*
X94644819Y-115938332D02*
X94644819Y-115557380D01*
X94644819Y-115557380D02*
X94692438Y-115462142D01*
X94692438Y-115462142D02*
X94740057Y-115414523D01*
X94740057Y-115414523D02*
X94835295Y-115366904D01*
X94835295Y-115366904D02*
X94978152Y-115366904D01*
X94978152Y-115366904D02*
X95073390Y-115414523D01*
X95073390Y-115414523D02*
X95121009Y-115462142D01*
X95121009Y-115462142D02*
X95168628Y-115557380D01*
X95168628Y-115557380D02*
X95168628Y-115938332D01*
X95644819Y-114414523D02*
X95644819Y-114985951D01*
X95644819Y-114700237D02*
X94644819Y-114700237D01*
X94644819Y-114700237D02*
X94787676Y-114795475D01*
X94787676Y-114795475D02*
X94882914Y-114890713D01*
X94882914Y-114890713D02*
X94930533Y-114985951D01*
X94644819Y-113795475D02*
X94644819Y-113700237D01*
X94644819Y-113700237D02*
X94692438Y-113604999D01*
X94692438Y-113604999D02*
X94740057Y-113557380D01*
X94740057Y-113557380D02*
X94835295Y-113509761D01*
X94835295Y-113509761D02*
X95025771Y-113462142D01*
X95025771Y-113462142D02*
X95263866Y-113462142D01*
X95263866Y-113462142D02*
X95454342Y-113509761D01*
X95454342Y-113509761D02*
X95549580Y-113557380D01*
X95549580Y-113557380D02*
X95597200Y-113604999D01*
X95597200Y-113604999D02*
X95644819Y-113700237D01*
X95644819Y-113700237D02*
X95644819Y-113795475D01*
X95644819Y-113795475D02*
X95597200Y-113890713D01*
X95597200Y-113890713D02*
X95549580Y-113938332D01*
X95549580Y-113938332D02*
X95454342Y-113985951D01*
X95454342Y-113985951D02*
X95263866Y-114033570D01*
X95263866Y-114033570D02*
X95025771Y-114033570D01*
X95025771Y-114033570D02*
X94835295Y-113985951D01*
X94835295Y-113985951D02*
X94740057Y-113938332D01*
X94740057Y-113938332D02*
X94692438Y-113890713D01*
X94692438Y-113890713D02*
X94644819Y-113795475D01*
X58682095Y-37430819D02*
X59253523Y-37430819D01*
X58967809Y-38430819D02*
X58967809Y-37430819D01*
X59586857Y-38430819D02*
X59586857Y-37430819D01*
X59586857Y-37430819D02*
X59967809Y-37430819D01*
X59967809Y-37430819D02*
X60063047Y-37478438D01*
X60063047Y-37478438D02*
X60110666Y-37526057D01*
X60110666Y-37526057D02*
X60158285Y-37621295D01*
X60158285Y-37621295D02*
X60158285Y-37764152D01*
X60158285Y-37764152D02*
X60110666Y-37859390D01*
X60110666Y-37859390D02*
X60063047Y-37907009D01*
X60063047Y-37907009D02*
X59967809Y-37954628D01*
X59967809Y-37954628D02*
X59586857Y-37954628D01*
X61063047Y-37430819D02*
X60586857Y-37430819D01*
X60586857Y-37430819D02*
X60539238Y-37907009D01*
X60539238Y-37907009D02*
X60586857Y-37859390D01*
X60586857Y-37859390D02*
X60682095Y-37811771D01*
X60682095Y-37811771D02*
X60920190Y-37811771D01*
X60920190Y-37811771D02*
X61015428Y-37859390D01*
X61015428Y-37859390D02*
X61063047Y-37907009D01*
X61063047Y-37907009D02*
X61110666Y-38002247D01*
X61110666Y-38002247D02*
X61110666Y-38240342D01*
X61110666Y-38240342D02*
X61063047Y-38335580D01*
X61063047Y-38335580D02*
X61015428Y-38383200D01*
X61015428Y-38383200D02*
X60920190Y-38430819D01*
X60920190Y-38430819D02*
X60682095Y-38430819D01*
X60682095Y-38430819D02*
X60586857Y-38383200D01*
X60586857Y-38383200D02*
X60539238Y-38335580D01*
X80976667Y-58489819D02*
X80500477Y-58489819D01*
X80500477Y-58489819D02*
X80500477Y-57489819D01*
X81786191Y-57489819D02*
X81310001Y-57489819D01*
X81310001Y-57489819D02*
X81262382Y-57966009D01*
X81262382Y-57966009D02*
X81310001Y-57918390D01*
X81310001Y-57918390D02*
X81405239Y-57870771D01*
X81405239Y-57870771D02*
X81643334Y-57870771D01*
X81643334Y-57870771D02*
X81738572Y-57918390D01*
X81738572Y-57918390D02*
X81786191Y-57966009D01*
X81786191Y-57966009D02*
X81833810Y-58061247D01*
X81833810Y-58061247D02*
X81833810Y-58299342D01*
X81833810Y-58299342D02*
X81786191Y-58394580D01*
X81786191Y-58394580D02*
X81738572Y-58442200D01*
X81738572Y-58442200D02*
X81643334Y-58489819D01*
X81643334Y-58489819D02*
X81405239Y-58489819D01*
X81405239Y-58489819D02*
X81310001Y-58442200D01*
X81310001Y-58442200D02*
X81262382Y-58394580D01*
X104330419Y-86764999D02*
X104282800Y-86717380D01*
X104282800Y-86717380D02*
X104235180Y-86574523D01*
X104235180Y-86574523D02*
X104235180Y-86479285D01*
X104235180Y-86479285D02*
X104282800Y-86336428D01*
X104282800Y-86336428D02*
X104378038Y-86241190D01*
X104378038Y-86241190D02*
X104473276Y-86193571D01*
X104473276Y-86193571D02*
X104663752Y-86145952D01*
X104663752Y-86145952D02*
X104806609Y-86145952D01*
X104806609Y-86145952D02*
X104997085Y-86193571D01*
X104997085Y-86193571D02*
X105092323Y-86241190D01*
X105092323Y-86241190D02*
X105187561Y-86336428D01*
X105187561Y-86336428D02*
X105235180Y-86479285D01*
X105235180Y-86479285D02*
X105235180Y-86574523D01*
X105235180Y-86574523D02*
X105187561Y-86717380D01*
X105187561Y-86717380D02*
X105139942Y-86764999D01*
X105235180Y-87050714D02*
X104235180Y-87384047D01*
X104235180Y-87384047D02*
X105235180Y-87717380D01*
X104139942Y-87812619D02*
X104139942Y-88574523D01*
X105235180Y-89003095D02*
X105235180Y-89193571D01*
X105235180Y-89193571D02*
X105187561Y-89288809D01*
X105187561Y-89288809D02*
X105092323Y-89384047D01*
X105092323Y-89384047D02*
X104901847Y-89431666D01*
X104901847Y-89431666D02*
X104568514Y-89431666D01*
X104568514Y-89431666D02*
X104378038Y-89384047D01*
X104378038Y-89384047D02*
X104282800Y-89288809D01*
X104282800Y-89288809D02*
X104235180Y-89193571D01*
X104235180Y-89193571D02*
X104235180Y-89003095D01*
X104235180Y-89003095D02*
X104282800Y-88907857D01*
X104282800Y-88907857D02*
X104378038Y-88812619D01*
X104378038Y-88812619D02*
X104568514Y-88765000D01*
X104568514Y-88765000D02*
X104901847Y-88765000D01*
X104901847Y-88765000D02*
X105092323Y-88812619D01*
X105092323Y-88812619D02*
X105187561Y-88907857D01*
X105187561Y-88907857D02*
X105235180Y-89003095D01*
X104235180Y-90384047D02*
X104235180Y-89812619D01*
X104235180Y-90098333D02*
X105235180Y-90098333D01*
X105235180Y-90098333D02*
X105092323Y-90003095D01*
X105092323Y-90003095D02*
X104997085Y-89907857D01*
X104997085Y-89907857D02*
X104949466Y-89812619D01*
X104030419Y-61809523D02*
X103982800Y-61761904D01*
X103982800Y-61761904D02*
X103935180Y-61619047D01*
X103935180Y-61619047D02*
X103935180Y-61523809D01*
X103935180Y-61523809D02*
X103982800Y-61380952D01*
X103982800Y-61380952D02*
X104078038Y-61285714D01*
X104078038Y-61285714D02*
X104173276Y-61238095D01*
X104173276Y-61238095D02*
X104363752Y-61190476D01*
X104363752Y-61190476D02*
X104506609Y-61190476D01*
X104506609Y-61190476D02*
X104697085Y-61238095D01*
X104697085Y-61238095D02*
X104792323Y-61285714D01*
X104792323Y-61285714D02*
X104887561Y-61380952D01*
X104887561Y-61380952D02*
X104935180Y-61523809D01*
X104935180Y-61523809D02*
X104935180Y-61619047D01*
X104935180Y-61619047D02*
X104887561Y-61761904D01*
X104887561Y-61761904D02*
X104839942Y-61809523D01*
X103935180Y-62714285D02*
X103935180Y-62238095D01*
X103935180Y-62238095D02*
X104935180Y-62238095D01*
X103935180Y-63047619D02*
X104935180Y-63047619D01*
X103935180Y-63619047D02*
X104506609Y-63190476D01*
X104935180Y-63619047D02*
X104363752Y-63047619D01*
X103839942Y-63809524D02*
X103839942Y-64571428D01*
X103935180Y-64809524D02*
X104935180Y-64809524D01*
X103935180Y-65809523D02*
X103935180Y-65238095D01*
X103935180Y-65523809D02*
X104935180Y-65523809D01*
X104935180Y-65523809D02*
X104792323Y-65428571D01*
X104792323Y-65428571D02*
X104697085Y-65333333D01*
X104697085Y-65333333D02*
X104649466Y-65238095D01*
X102481190Y-76337319D02*
X102147857Y-75861128D01*
X101909762Y-76337319D02*
X101909762Y-75337319D01*
X101909762Y-75337319D02*
X102290714Y-75337319D01*
X102290714Y-75337319D02*
X102385952Y-75384938D01*
X102385952Y-75384938D02*
X102433571Y-75432557D01*
X102433571Y-75432557D02*
X102481190Y-75527795D01*
X102481190Y-75527795D02*
X102481190Y-75670652D01*
X102481190Y-75670652D02*
X102433571Y-75765890D01*
X102433571Y-75765890D02*
X102385952Y-75813509D01*
X102385952Y-75813509D02*
X102290714Y-75861128D01*
X102290714Y-75861128D02*
X101909762Y-75861128D01*
X102862143Y-76289700D02*
X103005000Y-76337319D01*
X103005000Y-76337319D02*
X103243095Y-76337319D01*
X103243095Y-76337319D02*
X103338333Y-76289700D01*
X103338333Y-76289700D02*
X103385952Y-76242080D01*
X103385952Y-76242080D02*
X103433571Y-76146842D01*
X103433571Y-76146842D02*
X103433571Y-76051604D01*
X103433571Y-76051604D02*
X103385952Y-75956366D01*
X103385952Y-75956366D02*
X103338333Y-75908747D01*
X103338333Y-75908747D02*
X103243095Y-75861128D01*
X103243095Y-75861128D02*
X103052619Y-75813509D01*
X103052619Y-75813509D02*
X102957381Y-75765890D01*
X102957381Y-75765890D02*
X102909762Y-75718271D01*
X102909762Y-75718271D02*
X102862143Y-75623033D01*
X102862143Y-75623033D02*
X102862143Y-75527795D01*
X102862143Y-75527795D02*
X102909762Y-75432557D01*
X102909762Y-75432557D02*
X102957381Y-75384938D01*
X102957381Y-75384938D02*
X103052619Y-75337319D01*
X103052619Y-75337319D02*
X103290714Y-75337319D01*
X103290714Y-75337319D02*
X103433571Y-75384938D01*
X103719286Y-75337319D02*
X104290714Y-75337319D01*
X104005000Y-76337319D02*
X104005000Y-75337319D01*
X105147857Y-76337319D02*
X104576429Y-76337319D01*
X104862143Y-76337319D02*
X104862143Y-75337319D01*
X104862143Y-75337319D02*
X104766905Y-75480176D01*
X104766905Y-75480176D02*
X104671667Y-75575414D01*
X104671667Y-75575414D02*
X104576429Y-75623033D01*
X80478333Y-23854580D02*
X80430714Y-23902200D01*
X80430714Y-23902200D02*
X80287857Y-23949819D01*
X80287857Y-23949819D02*
X80192619Y-23949819D01*
X80192619Y-23949819D02*
X80049762Y-23902200D01*
X80049762Y-23902200D02*
X79954524Y-23806961D01*
X79954524Y-23806961D02*
X79906905Y-23711723D01*
X79906905Y-23711723D02*
X79859286Y-23521247D01*
X79859286Y-23521247D02*
X79859286Y-23378390D01*
X79859286Y-23378390D02*
X79906905Y-23187914D01*
X79906905Y-23187914D02*
X79954524Y-23092676D01*
X79954524Y-23092676D02*
X80049762Y-22997438D01*
X80049762Y-22997438D02*
X80192619Y-22949819D01*
X80192619Y-22949819D02*
X80287857Y-22949819D01*
X80287857Y-22949819D02*
X80430714Y-22997438D01*
X80430714Y-22997438D02*
X80478333Y-23045057D01*
X80859286Y-23045057D02*
X80906905Y-22997438D01*
X80906905Y-22997438D02*
X81002143Y-22949819D01*
X81002143Y-22949819D02*
X81240238Y-22949819D01*
X81240238Y-22949819D02*
X81335476Y-22997438D01*
X81335476Y-22997438D02*
X81383095Y-23045057D01*
X81383095Y-23045057D02*
X81430714Y-23140295D01*
X81430714Y-23140295D02*
X81430714Y-23235533D01*
X81430714Y-23235533D02*
X81383095Y-23378390D01*
X81383095Y-23378390D02*
X80811667Y-23949819D01*
X80811667Y-23949819D02*
X81430714Y-23949819D01*
X104887561Y-99147499D02*
X104935180Y-99052261D01*
X104935180Y-99052261D02*
X104935180Y-98909404D01*
X104935180Y-98909404D02*
X104887561Y-98766547D01*
X104887561Y-98766547D02*
X104792323Y-98671309D01*
X104792323Y-98671309D02*
X104697085Y-98623690D01*
X104697085Y-98623690D02*
X104506609Y-98576071D01*
X104506609Y-98576071D02*
X104363752Y-98576071D01*
X104363752Y-98576071D02*
X104173276Y-98623690D01*
X104173276Y-98623690D02*
X104078038Y-98671309D01*
X104078038Y-98671309D02*
X103982800Y-98766547D01*
X103982800Y-98766547D02*
X103935180Y-98909404D01*
X103935180Y-98909404D02*
X103935180Y-99004642D01*
X103935180Y-99004642D02*
X103982800Y-99147499D01*
X103982800Y-99147499D02*
X104030419Y-99195118D01*
X104030419Y-99195118D02*
X104363752Y-99195118D01*
X104363752Y-99195118D02*
X104363752Y-99004642D01*
X104935180Y-99480833D02*
X104935180Y-100052261D01*
X103935180Y-99766547D02*
X104935180Y-99766547D01*
X103839942Y-100147500D02*
X103839942Y-100909404D01*
X104935180Y-101337976D02*
X104935180Y-101528452D01*
X104935180Y-101528452D02*
X104887561Y-101623690D01*
X104887561Y-101623690D02*
X104792323Y-101718928D01*
X104792323Y-101718928D02*
X104601847Y-101766547D01*
X104601847Y-101766547D02*
X104268514Y-101766547D01*
X104268514Y-101766547D02*
X104078038Y-101718928D01*
X104078038Y-101718928D02*
X103982800Y-101623690D01*
X103982800Y-101623690D02*
X103935180Y-101528452D01*
X103935180Y-101528452D02*
X103935180Y-101337976D01*
X103935180Y-101337976D02*
X103982800Y-101242738D01*
X103982800Y-101242738D02*
X104078038Y-101147500D01*
X104078038Y-101147500D02*
X104268514Y-101099881D01*
X104268514Y-101099881D02*
X104601847Y-101099881D01*
X104601847Y-101099881D02*
X104792323Y-101147500D01*
X104792323Y-101147500D02*
X104887561Y-101242738D01*
X104887561Y-101242738D02*
X104935180Y-101337976D01*
X103935180Y-102718928D02*
X103935180Y-102147500D01*
X103935180Y-102433214D02*
X104935180Y-102433214D01*
X104935180Y-102433214D02*
X104792323Y-102337976D01*
X104792323Y-102337976D02*
X104697085Y-102242738D01*
X104697085Y-102242738D02*
X104649466Y-102147500D01*
D13*
X53698334Y-117090000D02*
X61598334Y-117090000D01*
X61598334Y-117090000D02*
X61598334Y-103890000D01*
X61598334Y-103890000D02*
X53698334Y-103890000D01*
X53698334Y-103890000D02*
X53698334Y-117090000D01*
X53698334Y-84070000D02*
X61598334Y-84070000D01*
X61598334Y-84070000D02*
X61598334Y-70870000D01*
X61598334Y-70870000D02*
X53698334Y-70870000D01*
X53698334Y-70870000D02*
X53698334Y-84070000D01*
X20678334Y-117090000D02*
X28578334Y-117090000D01*
X28578334Y-117090000D02*
X28578334Y-103890000D01*
X28578334Y-103890000D02*
X20678334Y-103890000D01*
X20678334Y-103890000D02*
X20678334Y-117090000D01*
X53698334Y-67560000D02*
X61598334Y-67560000D01*
X61598334Y-67560000D02*
X61598334Y-54360000D01*
X61598334Y-54360000D02*
X53698334Y-54360000D01*
X53698334Y-54360000D02*
X53698334Y-67560000D01*
X20678334Y-100580000D02*
X28578334Y-100580000D01*
X28578334Y-100580000D02*
X28578334Y-87380000D01*
X28578334Y-87380000D02*
X20678334Y-87380000D01*
X20678334Y-87380000D02*
X20678334Y-100580000D01*
X20678334Y-67560000D02*
X28578334Y-67560000D01*
X28578334Y-67560000D02*
X28578334Y-54360000D01*
X28578334Y-54360000D02*
X20678334Y-54360000D01*
X20678334Y-54360000D02*
X20678334Y-67560000D01*
X20678334Y-84070000D02*
X28578334Y-84070000D01*
X28578334Y-84070000D02*
X28578334Y-70870000D01*
X28578334Y-70870000D02*
X20678334Y-70870000D01*
X20678334Y-70870000D02*
X20678334Y-84070000D01*
X53698334Y-100580000D02*
X61598334Y-100580000D01*
X61598334Y-100580000D02*
X61598334Y-87380000D01*
X61598334Y-87380000D02*
X53698334Y-87380000D01*
X53698334Y-87380000D02*
X53698334Y-100580000D01*
D14*
X45285000Y-35327500D02*
X45285000Y-30607500D01*
X46475000Y-35327500D02*
X45295000Y-35327500D01*
X49375000Y-35327500D02*
X48845000Y-35327500D01*
X51825000Y-35327500D02*
X50995000Y-35327500D01*
X55035000Y-35327500D02*
X53545000Y-35327500D01*
X55035000Y-35327500D02*
X55035000Y-30607500D01*
X45295000Y-26797500D02*
X45295000Y-23737500D01*
X55035000Y-26797500D02*
X55035000Y-23737500D01*
X55035000Y-23737500D02*
X45295000Y-23737500D01*
X43582500Y-65840000D02*
X38862500Y-65840000D01*
X43582500Y-64650000D02*
X43582500Y-65830000D01*
X43582500Y-61750000D02*
X43582500Y-62280000D01*
X43582500Y-59300000D02*
X43582500Y-60130000D01*
X43582500Y-56090000D02*
X43582500Y-57580000D01*
X43582500Y-56090000D02*
X38862500Y-56090000D01*
X35052500Y-65830000D02*
X31992500Y-65830000D01*
X35052500Y-56090000D02*
X31992500Y-56090000D01*
X31992500Y-56090000D02*
X31992500Y-65830000D01*
X76602500Y-82350000D02*
X71882500Y-82350000D01*
X76602500Y-81160000D02*
X76602500Y-82340000D01*
X76602500Y-78260000D02*
X76602500Y-78790000D01*
X76602500Y-75810000D02*
X76602500Y-76640000D01*
X76602500Y-72600000D02*
X76602500Y-74090000D01*
X76602500Y-72600000D02*
X71882500Y-72600000D01*
X68072500Y-82340000D02*
X65012500Y-82340000D01*
X68072500Y-72600000D02*
X65012500Y-72600000D01*
X65012500Y-72600000D02*
X65012500Y-82340000D01*
X43582500Y-98860000D02*
X38862500Y-98860000D01*
X43582500Y-97670000D02*
X43582500Y-98850000D01*
X43582500Y-94770000D02*
X43582500Y-95300000D01*
X43582500Y-92320000D02*
X43582500Y-93150000D01*
X43582500Y-89110000D02*
X43582500Y-90600000D01*
X43582500Y-89110000D02*
X38862500Y-89110000D01*
X35052500Y-98850000D02*
X31992500Y-98850000D01*
X35052500Y-89110000D02*
X31992500Y-89110000D01*
X31992500Y-89110000D02*
X31992500Y-98850000D01*
X76602500Y-115370000D02*
X71882500Y-115370000D01*
X76602500Y-114180000D02*
X76602500Y-115360000D01*
X76602500Y-111280000D02*
X76602500Y-111810000D01*
X76602500Y-108830000D02*
X76602500Y-109660000D01*
X76602500Y-105620000D02*
X76602500Y-107110000D01*
X76602500Y-105620000D02*
X71882500Y-105620000D01*
X68072500Y-115360000D02*
X65012500Y-115360000D01*
X68072500Y-105620000D02*
X65012500Y-105620000D01*
X65012500Y-105620000D02*
X65012500Y-115360000D01*
X43582500Y-115370000D02*
X38862500Y-115370000D01*
X43582500Y-114180000D02*
X43582500Y-115360000D01*
X43582500Y-111280000D02*
X43582500Y-111810000D01*
X43582500Y-108830000D02*
X43582500Y-109660000D01*
X43582500Y-105620000D02*
X43582500Y-107110000D01*
X43582500Y-105620000D02*
X38862500Y-105620000D01*
X35052500Y-115360000D02*
X31992500Y-115360000D01*
X35052500Y-105620000D02*
X31992500Y-105620000D01*
X31992500Y-105620000D02*
X31992500Y-115360000D01*
X76602500Y-98860000D02*
X71882500Y-98860000D01*
X76602500Y-97670000D02*
X76602500Y-98850000D01*
X76602500Y-94770000D02*
X76602500Y-95300000D01*
X76602500Y-92320000D02*
X76602500Y-93150000D01*
X76602500Y-89110000D02*
X76602500Y-90600000D01*
X76602500Y-89110000D02*
X71882500Y-89110000D01*
X68072500Y-98850000D02*
X65012500Y-98850000D01*
X68072500Y-89110000D02*
X65012500Y-89110000D01*
X65012500Y-89110000D02*
X65012500Y-98850000D01*
X64970000Y-35327500D02*
X64970000Y-30607500D01*
X66160000Y-35327500D02*
X64980000Y-35327500D01*
X69060000Y-35327500D02*
X68530000Y-35327500D01*
X71510000Y-35327500D02*
X70680000Y-35327500D01*
X74720000Y-35327500D02*
X73230000Y-35327500D01*
X74720000Y-35327500D02*
X74720000Y-30607500D01*
X64980000Y-26797500D02*
X64980000Y-23737500D01*
X74720000Y-26797500D02*
X74720000Y-23737500D01*
X74720000Y-23737500D02*
X64980000Y-23737500D01*
X43582500Y-82350000D02*
X38862500Y-82350000D01*
X43582500Y-81160000D02*
X43582500Y-82340000D01*
X43582500Y-78260000D02*
X43582500Y-78790000D01*
X43582500Y-75810000D02*
X43582500Y-76640000D01*
X43582500Y-72600000D02*
X43582500Y-74090000D01*
X43582500Y-72600000D02*
X38862500Y-72600000D01*
X35052500Y-82340000D02*
X31992500Y-82340000D01*
X35052500Y-72600000D02*
X31992500Y-72600000D01*
X31992500Y-72600000D02*
X31992500Y-82340000D01*
X76602500Y-65840000D02*
X71882500Y-65840000D01*
X76602500Y-64650000D02*
X76602500Y-65830000D01*
X76602500Y-61750000D02*
X76602500Y-62280000D01*
X76602500Y-59300000D02*
X76602500Y-60130000D01*
X76602500Y-56090000D02*
X76602500Y-57580000D01*
X76602500Y-56090000D02*
X71882500Y-56090000D01*
X68072500Y-65830000D02*
X65012500Y-65830000D01*
X68072500Y-56090000D02*
X65012500Y-56090000D01*
X65012500Y-56090000D02*
X65012500Y-65830000D01*
X91270000Y-47180000D02*
X86530000Y-47180000D01*
X91270000Y-47180000D02*
X91270000Y-54420000D01*
X86530000Y-47180000D02*
X86530000Y-54420000D01*
X91270000Y-54420000D02*
X86530000Y-54420000D01*
X95200628Y-33099054D02*
X95200628Y-32654054D01*
X95200628Y-33099054D02*
X88960628Y-33099054D01*
X95200628Y-30804054D02*
X95200628Y-30359054D01*
X95200628Y-30359054D02*
X88960628Y-30359054D01*
X88960628Y-33099054D02*
X88960628Y-32654054D01*
X88960628Y-30804054D02*
X88960628Y-30359054D01*
X99900000Y-30195225D02*
X99900000Y-30695225D01*
X100150000Y-30445225D02*
X99650000Y-30445225D01*
X101005000Y-33000000D02*
X95845000Y-33000000D01*
X101005000Y-33040000D02*
X95845000Y-33040000D01*
X101004000Y-33080000D02*
X95846000Y-33080000D01*
X101003000Y-33120000D02*
X95847000Y-33120000D01*
X101001000Y-33160000D02*
X95849000Y-33160000D01*
X100998000Y-33200000D02*
X95852000Y-33200000D01*
X100994000Y-33240000D02*
X99465000Y-33240000D01*
X97385000Y-33240000D02*
X95856000Y-33240000D01*
X100990000Y-33280000D02*
X99465000Y-33280000D01*
X97385000Y-33280000D02*
X95860000Y-33280000D01*
X100986000Y-33320000D02*
X99465000Y-33320000D01*
X97385000Y-33320000D02*
X95864000Y-33320000D01*
X100981000Y-33360000D02*
X99465000Y-33360000D01*
X97385000Y-33360000D02*
X95869000Y-33360000D01*
X100975000Y-33400000D02*
X99465000Y-33400000D01*
X97385000Y-33400000D02*
X95875000Y-33400000D01*
X100968000Y-33440000D02*
X99465000Y-33440000D01*
X97385000Y-33440000D02*
X95882000Y-33440000D01*
X100961000Y-33480000D02*
X99465000Y-33480000D01*
X97385000Y-33480000D02*
X95889000Y-33480000D01*
X100953000Y-33520000D02*
X99465000Y-33520000D01*
X97385000Y-33520000D02*
X95897000Y-33520000D01*
X100945000Y-33560000D02*
X99465000Y-33560000D01*
X97385000Y-33560000D02*
X95905000Y-33560000D01*
X100936000Y-33600000D02*
X99465000Y-33600000D01*
X97385000Y-33600000D02*
X95914000Y-33600000D01*
X100926000Y-33640000D02*
X99465000Y-33640000D01*
X97385000Y-33640000D02*
X95924000Y-33640000D01*
X100916000Y-33680000D02*
X99465000Y-33680000D01*
X97385000Y-33680000D02*
X95934000Y-33680000D01*
X100905000Y-33721000D02*
X99465000Y-33721000D01*
X97385000Y-33721000D02*
X95945000Y-33721000D01*
X100893000Y-33761000D02*
X99465000Y-33761000D01*
X97385000Y-33761000D02*
X95957000Y-33761000D01*
X100880000Y-33801000D02*
X99465000Y-33801000D01*
X97385000Y-33801000D02*
X95970000Y-33801000D01*
X100867000Y-33841000D02*
X99465000Y-33841000D01*
X97385000Y-33841000D02*
X95983000Y-33841000D01*
X100853000Y-33881000D02*
X99465000Y-33881000D01*
X97385000Y-33881000D02*
X95997000Y-33881000D01*
X100839000Y-33921000D02*
X99465000Y-33921000D01*
X97385000Y-33921000D02*
X96011000Y-33921000D01*
X100823000Y-33961000D02*
X99465000Y-33961000D01*
X97385000Y-33961000D02*
X96027000Y-33961000D01*
X100807000Y-34001000D02*
X99465000Y-34001000D01*
X97385000Y-34001000D02*
X96043000Y-34001000D01*
X100790000Y-34041000D02*
X99465000Y-34041000D01*
X97385000Y-34041000D02*
X96060000Y-34041000D01*
X100773000Y-34081000D02*
X99465000Y-34081000D01*
X97385000Y-34081000D02*
X96077000Y-34081000D01*
X100754000Y-34121000D02*
X99465000Y-34121000D01*
X97385000Y-34121000D02*
X96096000Y-34121000D01*
X100735000Y-34161000D02*
X99465000Y-34161000D01*
X97385000Y-34161000D02*
X96115000Y-34161000D01*
X100715000Y-34201000D02*
X99465000Y-34201000D01*
X97385000Y-34201000D02*
X96135000Y-34201000D01*
X100693000Y-34241000D02*
X99465000Y-34241000D01*
X97385000Y-34241000D02*
X96157000Y-34241000D01*
X100672000Y-34281000D02*
X99465000Y-34281000D01*
X97385000Y-34281000D02*
X96178000Y-34281000D01*
X100649000Y-34321000D02*
X99465000Y-34321000D01*
X97385000Y-34321000D02*
X96201000Y-34321000D01*
X100625000Y-34361000D02*
X99465000Y-34361000D01*
X97385000Y-34361000D02*
X96225000Y-34361000D01*
X100600000Y-34401000D02*
X99465000Y-34401000D01*
X97385000Y-34401000D02*
X96250000Y-34401000D01*
X100574000Y-34441000D02*
X99465000Y-34441000D01*
X97385000Y-34441000D02*
X96276000Y-34441000D01*
X100547000Y-34481000D02*
X99465000Y-34481000D01*
X97385000Y-34481000D02*
X96303000Y-34481000D01*
X100520000Y-34521000D02*
X99465000Y-34521000D01*
X97385000Y-34521000D02*
X96330000Y-34521000D01*
X100490000Y-34561000D02*
X99465000Y-34561000D01*
X97385000Y-34561000D02*
X96360000Y-34561000D01*
X100460000Y-34601000D02*
X99465000Y-34601000D01*
X97385000Y-34601000D02*
X96390000Y-34601000D01*
X100429000Y-34641000D02*
X99465000Y-34641000D01*
X97385000Y-34641000D02*
X96421000Y-34641000D01*
X100396000Y-34681000D02*
X99465000Y-34681000D01*
X97385000Y-34681000D02*
X96454000Y-34681000D01*
X100362000Y-34721000D02*
X99465000Y-34721000D01*
X97385000Y-34721000D02*
X96488000Y-34721000D01*
X100326000Y-34761000D02*
X99465000Y-34761000D01*
X97385000Y-34761000D02*
X96524000Y-34761000D01*
X100289000Y-34801000D02*
X99465000Y-34801000D01*
X97385000Y-34801000D02*
X96561000Y-34801000D01*
X100251000Y-34841000D02*
X99465000Y-34841000D01*
X97385000Y-34841000D02*
X96599000Y-34841000D01*
X100210000Y-34881000D02*
X99465000Y-34881000D01*
X97385000Y-34881000D02*
X96640000Y-34881000D01*
X100168000Y-34921000D02*
X99465000Y-34921000D01*
X97385000Y-34921000D02*
X96682000Y-34921000D01*
X100124000Y-34961000D02*
X99465000Y-34961000D01*
X97385000Y-34961000D02*
X96726000Y-34961000D01*
X100078000Y-35001000D02*
X99465000Y-35001000D01*
X97385000Y-35001000D02*
X96772000Y-35001000D01*
X100030000Y-35041000D02*
X99465000Y-35041000D01*
X97385000Y-35041000D02*
X96820000Y-35041000D01*
X99979000Y-35081000D02*
X99465000Y-35081000D01*
X97385000Y-35081000D02*
X96871000Y-35081000D01*
X99925000Y-35121000D02*
X99465000Y-35121000D01*
X97385000Y-35121000D02*
X96925000Y-35121000D01*
X99868000Y-35161000D02*
X99465000Y-35161000D01*
X97385000Y-35161000D02*
X96982000Y-35161000D01*
X99808000Y-35201000D02*
X99465000Y-35201000D01*
X97385000Y-35201000D02*
X97042000Y-35201000D01*
X99744000Y-35241000D02*
X99465000Y-35241000D01*
X97385000Y-35241000D02*
X97106000Y-35241000D01*
X99676000Y-35281000D02*
X99465000Y-35281000D01*
X97385000Y-35281000D02*
X97174000Y-35281000D01*
X99603000Y-35321000D02*
X97247000Y-35321000D01*
X99523000Y-35361000D02*
X97327000Y-35361000D01*
X99436000Y-35401000D02*
X97414000Y-35401000D01*
X99340000Y-35441000D02*
X97510000Y-35441000D01*
X99230000Y-35481000D02*
X97620000Y-35481000D01*
X99102000Y-35521000D02*
X97748000Y-35521000D01*
X98943000Y-35561000D02*
X97907000Y-35561000D01*
X98709000Y-35601000D02*
X98141000Y-35601000D01*
X101045000Y-33000000D02*
G75*
G03*
X95805000Y-33000000I-2620000J0D01*
G01*
X95805000Y-33000000D02*
G75*
G03*
X101045000Y-33000000I2620000J0D01*
G01*
X87575000Y-33120000D02*
X87575000Y-32675000D01*
X87575000Y-33120000D02*
X81335000Y-33120000D01*
X87575000Y-30825000D02*
X87575000Y-30380000D01*
X87575000Y-30380000D02*
X81335000Y-30380000D01*
X81335000Y-33120000D02*
X81335000Y-32675000D01*
X81335000Y-30825000D02*
X81335000Y-30380000D01*
D13*
X84074000Y-23495000D02*
X84074000Y-24765000D01*
D14*
X86557629Y-24130000D02*
X86444000Y-24130000D01*
X89210371Y-24130000D02*
G75*
G03*
X86557629Y-24130000I-1326371J0D01*
G01*
X86557629Y-24130000D02*
G75*
G03*
X89210371Y-24130000I1326371J0D01*
G01*
X82516000Y-92415000D02*
X82360000Y-92415000D01*
X80200000Y-92415000D02*
X80044000Y-92415000D01*
X82358608Y-95647334D02*
G75*
G03*
X82515515Y-92415001I-1078608J1672334D01*
G01*
X82359836Y-95016129D02*
G75*
G03*
X82359999Y-92934040I-1079836J1041129D01*
G01*
X80200001Y-92934040D02*
G75*
G03*
X80200164Y-95016129I1079999J-1040960D01*
G01*
X80044485Y-92415001D02*
G75*
G03*
X80201392Y-95647334I1235515J-1559999D01*
G01*
X82516000Y-75905000D02*
X82360000Y-75905000D01*
X80200000Y-75905000D02*
X80044000Y-75905000D01*
X82358608Y-79137334D02*
G75*
G03*
X82515515Y-75905001I-1078608J1672334D01*
G01*
X82359836Y-78506129D02*
G75*
G03*
X82359999Y-76424040I-1079836J1041129D01*
G01*
X80200001Y-76424040D02*
G75*
G03*
X80200164Y-78506129I1079999J-1040960D01*
G01*
X80044485Y-75905001D02*
G75*
G03*
X80201392Y-79137334I1235515J-1559999D01*
G01*
X82516000Y-108925000D02*
X82360000Y-108925000D01*
X80200000Y-108925000D02*
X80044000Y-108925000D01*
X82358608Y-112157334D02*
G75*
G03*
X82515515Y-108925001I-1078608J1672334D01*
G01*
X82359836Y-111526129D02*
G75*
G03*
X82359999Y-109444040I-1079836J1041129D01*
G01*
X80200001Y-109444040D02*
G75*
G03*
X80200164Y-111526129I1079999J-1040960D01*
G01*
X80044485Y-108925001D02*
G75*
G03*
X80201392Y-112157334I1235515J-1559999D01*
G01*
X95565000Y-68580000D02*
G75*
G03*
X93665000Y-68580000I-950000J0D01*
G01*
X93665000Y-68580000D02*
G75*
G03*
X95565000Y-68580000I950000J0D01*
G01*
X102235000Y-39680000D02*
X102235000Y-39610000D01*
X103605000Y-41050000D02*
G75*
G03*
X100865000Y-41050000I-1370000J0D01*
G01*
X100865000Y-41050000D02*
G75*
G03*
X103605000Y-41050000I1370000J0D01*
G01*
D13*
X109370000Y-56070000D02*
X96370000Y-56070000D01*
X96370000Y-56070000D02*
X96370000Y-48070000D01*
X96370000Y-48070000D02*
X109370000Y-48070000D01*
X109370000Y-48070000D02*
X109370000Y-56070000D01*
D14*
X107190000Y-42545000D02*
X107260000Y-42545000D01*
X107190000Y-42545000D02*
G75*
G03*
X104450000Y-42545000I-1370000J0D01*
G01*
X104450000Y-42545000D02*
G75*
G03*
X107190000Y-42545000I1370000J0D01*
G01*
X22739506Y-52070000D02*
G75*
G03*
X20839506Y-52070000I-950000J0D01*
G01*
X20839506Y-52070000D02*
G75*
G03*
X22739506Y-52070000I950000J0D01*
G01*
X102560000Y-45720000D02*
X102630000Y-45720000D01*
X102560000Y-45720000D02*
G75*
G03*
X99820000Y-45720000I-1370000J0D01*
G01*
X99820000Y-45720000D02*
G75*
G03*
X102560000Y-45720000I1370000J0D01*
G01*
D13*
X108890000Y-108530000D02*
X98390000Y-108530000D01*
X98390000Y-108530000D02*
X98390000Y-117530000D01*
X98390000Y-117530000D02*
X108890000Y-117530000D01*
X108890000Y-117530000D02*
X108890000Y-108530000D01*
D14*
X103405000Y-35620000D02*
X103335000Y-35620000D01*
X106145000Y-35620000D02*
G75*
G03*
X103405000Y-35620000I-1370000J0D01*
G01*
X103405000Y-35620000D02*
G75*
G03*
X106145000Y-35620000I1370000J0D01*
G01*
D13*
X39157789Y-28575000D02*
G75*
G03*
X21802211Y-28575000I-8677789J0D01*
G01*
X21802211Y-28575000D02*
G75*
G03*
X39157789Y-28575000I8677789J0D01*
G01*
D14*
X49628500Y-59395000D02*
X49472500Y-59395000D01*
X47312500Y-59395000D02*
X47156500Y-59395000D01*
X49471108Y-62627334D02*
G75*
G03*
X49628015Y-59395001I-1078608J1672334D01*
G01*
X49472336Y-61996129D02*
G75*
G03*
X49472499Y-59914040I-1079836J1041129D01*
G01*
X47312501Y-59914040D02*
G75*
G03*
X47312664Y-61996129I1079999J-1040960D01*
G01*
X47156985Y-59395001D02*
G75*
G03*
X47313892Y-62627334I1235515J-1559999D01*
G01*
X49628500Y-108925000D02*
X49472500Y-108925000D01*
X47312500Y-108925000D02*
X47156500Y-108925000D01*
X49471108Y-112157334D02*
G75*
G03*
X49628015Y-108925001I-1078608J1672334D01*
G01*
X49472336Y-111526129D02*
G75*
G03*
X49472499Y-109444040I-1079836J1041129D01*
G01*
X47312501Y-109444040D02*
G75*
G03*
X47312664Y-111526129I1079999J-1040960D01*
G01*
X47156985Y-108925001D02*
G75*
G03*
X47313892Y-112157334I1235515J-1559999D01*
G01*
X49628500Y-75905000D02*
X49472500Y-75905000D01*
X47312500Y-75905000D02*
X47156500Y-75905000D01*
X49471108Y-79137334D02*
G75*
G03*
X49628015Y-75905001I-1078608J1672334D01*
G01*
X49472336Y-78506129D02*
G75*
G03*
X49472499Y-76424040I-1079836J1041129D01*
G01*
X47312501Y-76424040D02*
G75*
G03*
X47312664Y-78506129I1079999J-1040960D01*
G01*
X47156985Y-75905001D02*
G75*
G03*
X47313892Y-79137334I1235515J-1559999D01*
G01*
D13*
X107442000Y-32385000D02*
X107442000Y-31115000D01*
D14*
X104958371Y-31750000D02*
X105072000Y-31750000D01*
X104958371Y-31750000D02*
G75*
G03*
X102305629Y-31750000I-1326371J0D01*
G01*
X102305629Y-31750000D02*
G75*
G03*
X104958371Y-31750000I1326371J0D01*
G01*
X86260000Y-28575000D02*
X86190000Y-28575000D01*
X89000000Y-28575000D02*
G75*
G03*
X86260000Y-28575000I-1370000J0D01*
G01*
X86260000Y-28575000D02*
G75*
G03*
X89000000Y-28575000I1370000J0D01*
G01*
X79690000Y-32004000D02*
G75*
G03*
X77790000Y-32004000I-950000J0D01*
G01*
X77790000Y-32004000D02*
G75*
G03*
X79690000Y-32004000I950000J0D01*
G01*
X49628500Y-92415000D02*
X49472500Y-92415000D01*
X47312500Y-92415000D02*
X47156500Y-92415000D01*
X49471108Y-95647334D02*
G75*
G03*
X49628015Y-92415001I-1078608J1672334D01*
G01*
X49472336Y-95016129D02*
G75*
G03*
X49472499Y-92934040I-1079836J1041129D01*
G01*
X47312501Y-92934040D02*
G75*
G03*
X47312664Y-95016129I1079999J-1040960D01*
G01*
X47156985Y-92415001D02*
G75*
G03*
X47313892Y-95647334I1235515J-1559999D01*
G01*
X83500000Y-36910000D02*
G75*
G03*
X81600000Y-36910000I-950000J0D01*
G01*
X81600000Y-36910000D02*
G75*
G03*
X83500000Y-36910000I950000J0D01*
G01*
X91890000Y-117405000D02*
X94290000Y-117405000D01*
X94290000Y-117405000D02*
X94290000Y-112505000D01*
X91890000Y-112505000D02*
X91890000Y-117405000D01*
X94290000Y-112505000D02*
X91890000Y-112505000D01*
X60894000Y-39624000D02*
G75*
G03*
X58994000Y-39624000I-950000J0D01*
G01*
X58994000Y-39624000D02*
G75*
G03*
X60894000Y-39624000I950000J0D01*
G01*
X82516000Y-59395000D02*
X82360000Y-59395000D01*
X80200000Y-59395000D02*
X80044000Y-59395000D01*
X82358608Y-62627334D02*
G75*
G03*
X82515515Y-59395001I-1078608J1672334D01*
G01*
X82359836Y-61996129D02*
G75*
G03*
X82359999Y-59914040I-1079836J1041129D01*
G01*
X80200001Y-59914040D02*
G75*
G03*
X80200164Y-61996129I1079999J-1040960D01*
G01*
X80044485Y-59395001D02*
G75*
G03*
X80201392Y-62627334I1235515J-1559999D01*
G01*
D13*
X108890000Y-83765000D02*
X98390000Y-83765000D01*
X98390000Y-83765000D02*
X98390000Y-92765000D01*
X98390000Y-92765000D02*
X108890000Y-92765000D01*
X108890000Y-92765000D02*
X108890000Y-83765000D01*
X108890000Y-59000000D02*
X98390000Y-59000000D01*
X98390000Y-59000000D02*
X98390000Y-68000000D01*
X98390000Y-68000000D02*
X108890000Y-68000000D01*
X108890000Y-68000000D02*
X108890000Y-59000000D01*
X108890000Y-71382500D02*
X98390000Y-71382500D01*
X98390000Y-71382500D02*
X98390000Y-80382500D01*
X98390000Y-80382500D02*
X108890000Y-80382500D01*
X108890000Y-80382500D02*
X108890000Y-71382500D01*
D14*
X83469775Y-28780000D02*
X82969775Y-28780000D01*
X83219775Y-29030000D02*
X83219775Y-28530000D01*
X80665000Y-29885000D02*
X80665000Y-24725000D01*
X80625000Y-29885000D02*
X80625000Y-24725000D01*
X80585000Y-29884000D02*
X80585000Y-24726000D01*
X80545000Y-29883000D02*
X80545000Y-24727000D01*
X80505000Y-29881000D02*
X80505000Y-24729000D01*
X80465000Y-29878000D02*
X80465000Y-24732000D01*
X80425000Y-29874000D02*
X80425000Y-28345000D01*
X80425000Y-26265000D02*
X80425000Y-24736000D01*
X80385000Y-29870000D02*
X80385000Y-28345000D01*
X80385000Y-26265000D02*
X80385000Y-24740000D01*
X80345000Y-29866000D02*
X80345000Y-28345000D01*
X80345000Y-26265000D02*
X80345000Y-24744000D01*
X80305000Y-29861000D02*
X80305000Y-28345000D01*
X80305000Y-26265000D02*
X80305000Y-24749000D01*
X80265000Y-29855000D02*
X80265000Y-28345000D01*
X80265000Y-26265000D02*
X80265000Y-24755000D01*
X80225000Y-29848000D02*
X80225000Y-28345000D01*
X80225000Y-26265000D02*
X80225000Y-24762000D01*
X80185000Y-29841000D02*
X80185000Y-28345000D01*
X80185000Y-26265000D02*
X80185000Y-24769000D01*
X80145000Y-29833000D02*
X80145000Y-28345000D01*
X80145000Y-26265000D02*
X80145000Y-24777000D01*
X80105000Y-29825000D02*
X80105000Y-28345000D01*
X80105000Y-26265000D02*
X80105000Y-24785000D01*
X80065000Y-29816000D02*
X80065000Y-28345000D01*
X80065000Y-26265000D02*
X80065000Y-24794000D01*
X80025000Y-29806000D02*
X80025000Y-28345000D01*
X80025000Y-26265000D02*
X80025000Y-24804000D01*
X79985000Y-29796000D02*
X79985000Y-28345000D01*
X79985000Y-26265000D02*
X79985000Y-24814000D01*
X79944000Y-29785000D02*
X79944000Y-28345000D01*
X79944000Y-26265000D02*
X79944000Y-24825000D01*
X79904000Y-29773000D02*
X79904000Y-28345000D01*
X79904000Y-26265000D02*
X79904000Y-24837000D01*
X79864000Y-29760000D02*
X79864000Y-28345000D01*
X79864000Y-26265000D02*
X79864000Y-24850000D01*
X79824000Y-29747000D02*
X79824000Y-28345000D01*
X79824000Y-26265000D02*
X79824000Y-24863000D01*
X79784000Y-29733000D02*
X79784000Y-28345000D01*
X79784000Y-26265000D02*
X79784000Y-24877000D01*
X79744000Y-29719000D02*
X79744000Y-28345000D01*
X79744000Y-26265000D02*
X79744000Y-24891000D01*
X79704000Y-29703000D02*
X79704000Y-28345000D01*
X79704000Y-26265000D02*
X79704000Y-24907000D01*
X79664000Y-29687000D02*
X79664000Y-28345000D01*
X79664000Y-26265000D02*
X79664000Y-24923000D01*
X79624000Y-29670000D02*
X79624000Y-28345000D01*
X79624000Y-26265000D02*
X79624000Y-24940000D01*
X79584000Y-29653000D02*
X79584000Y-28345000D01*
X79584000Y-26265000D02*
X79584000Y-24957000D01*
X79544000Y-29634000D02*
X79544000Y-28345000D01*
X79544000Y-26265000D02*
X79544000Y-24976000D01*
X79504000Y-29615000D02*
X79504000Y-28345000D01*
X79504000Y-26265000D02*
X79504000Y-24995000D01*
X79464000Y-29595000D02*
X79464000Y-28345000D01*
X79464000Y-26265000D02*
X79464000Y-25015000D01*
X79424000Y-29573000D02*
X79424000Y-28345000D01*
X79424000Y-26265000D02*
X79424000Y-25037000D01*
X79384000Y-29552000D02*
X79384000Y-28345000D01*
X79384000Y-26265000D02*
X79384000Y-25058000D01*
X79344000Y-29529000D02*
X79344000Y-28345000D01*
X79344000Y-26265000D02*
X79344000Y-25081000D01*
X79304000Y-29505000D02*
X79304000Y-28345000D01*
X79304000Y-26265000D02*
X79304000Y-25105000D01*
X79264000Y-29480000D02*
X79264000Y-28345000D01*
X79264000Y-26265000D02*
X79264000Y-25130000D01*
X79224000Y-29454000D02*
X79224000Y-28345000D01*
X79224000Y-26265000D02*
X79224000Y-25156000D01*
X79184000Y-29427000D02*
X79184000Y-28345000D01*
X79184000Y-26265000D02*
X79184000Y-25183000D01*
X79144000Y-29400000D02*
X79144000Y-28345000D01*
X79144000Y-26265000D02*
X79144000Y-25210000D01*
X79104000Y-29370000D02*
X79104000Y-28345000D01*
X79104000Y-26265000D02*
X79104000Y-25240000D01*
X79064000Y-29340000D02*
X79064000Y-28345000D01*
X79064000Y-26265000D02*
X79064000Y-25270000D01*
X79024000Y-29309000D02*
X79024000Y-28345000D01*
X79024000Y-26265000D02*
X79024000Y-25301000D01*
X78984000Y-29276000D02*
X78984000Y-28345000D01*
X78984000Y-26265000D02*
X78984000Y-25334000D01*
X78944000Y-29242000D02*
X78944000Y-28345000D01*
X78944000Y-26265000D02*
X78944000Y-25368000D01*
X78904000Y-29206000D02*
X78904000Y-28345000D01*
X78904000Y-26265000D02*
X78904000Y-25404000D01*
X78864000Y-29169000D02*
X78864000Y-28345000D01*
X78864000Y-26265000D02*
X78864000Y-25441000D01*
X78824000Y-29131000D02*
X78824000Y-28345000D01*
X78824000Y-26265000D02*
X78824000Y-25479000D01*
X78784000Y-29090000D02*
X78784000Y-28345000D01*
X78784000Y-26265000D02*
X78784000Y-25520000D01*
X78744000Y-29048000D02*
X78744000Y-28345000D01*
X78744000Y-26265000D02*
X78744000Y-25562000D01*
X78704000Y-29004000D02*
X78704000Y-28345000D01*
X78704000Y-26265000D02*
X78704000Y-25606000D01*
X78664000Y-28958000D02*
X78664000Y-28345000D01*
X78664000Y-26265000D02*
X78664000Y-25652000D01*
X78624000Y-28910000D02*
X78624000Y-28345000D01*
X78624000Y-26265000D02*
X78624000Y-25700000D01*
X78584000Y-28859000D02*
X78584000Y-28345000D01*
X78584000Y-26265000D02*
X78584000Y-25751000D01*
X78544000Y-28805000D02*
X78544000Y-28345000D01*
X78544000Y-26265000D02*
X78544000Y-25805000D01*
X78504000Y-28748000D02*
X78504000Y-28345000D01*
X78504000Y-26265000D02*
X78504000Y-25862000D01*
X78464000Y-28688000D02*
X78464000Y-28345000D01*
X78464000Y-26265000D02*
X78464000Y-25922000D01*
X78424000Y-28624000D02*
X78424000Y-28345000D01*
X78424000Y-26265000D02*
X78424000Y-25986000D01*
X78384000Y-28556000D02*
X78384000Y-28345000D01*
X78384000Y-26265000D02*
X78384000Y-26054000D01*
X78344000Y-28483000D02*
X78344000Y-26127000D01*
X78304000Y-28403000D02*
X78304000Y-26207000D01*
X78264000Y-28316000D02*
X78264000Y-26294000D01*
X78224000Y-28220000D02*
X78224000Y-26390000D01*
X78184000Y-28110000D02*
X78184000Y-26500000D01*
X78144000Y-27982000D02*
X78144000Y-26628000D01*
X78104000Y-27823000D02*
X78104000Y-26787000D01*
X78064000Y-27589000D02*
X78064000Y-27021000D01*
X83285000Y-27305000D02*
G75*
G03*
X78045000Y-27305000I-2620000J0D01*
G01*
X78045000Y-27305000D02*
G75*
G03*
X83285000Y-27305000I2620000J0D01*
G01*
D13*
X108890000Y-96147500D02*
X98390000Y-96147500D01*
X98390000Y-96147500D02*
X98390000Y-105147500D01*
X98390000Y-105147500D02*
X108890000Y-105147500D01*
X108890000Y-105147500D02*
X108890000Y-96147500D01*
%LPC*%
D12*
X19685000Y-23495000D02*
X19685000Y-19685000D01*
X23495000Y-19685000D01*
X19685000Y-23495000D01*
G36*
X19685000Y-23495000D02*
G01*
X19685000Y-19685000D01*
X23495000Y-19685000D01*
X19685000Y-23495000D01*
G37*
D15*
X57647609Y-115201275D03*
X57648334Y-110490000D03*
X57648394Y-105788334D03*
X57647609Y-82181275D03*
X57648334Y-77470000D03*
X57648394Y-72768334D03*
X24627609Y-115201275D03*
X24628334Y-110490000D03*
X24628394Y-105788334D03*
X57647609Y-65671275D03*
X57648334Y-60960000D03*
X57648394Y-56258334D03*
X24627609Y-98691275D03*
X24628334Y-93980000D03*
X24628394Y-89278334D03*
X24627609Y-65671275D03*
X24628334Y-60960000D03*
X24628394Y-56258334D03*
X24627609Y-82181275D03*
X24628334Y-77470000D03*
X24628394Y-72768334D03*
X57647609Y-98691275D03*
X57648334Y-93980000D03*
X57648394Y-89278334D03*
D16*
X45365000Y-28707500D03*
X54965000Y-28707500D03*
D17*
X47665000Y-36207500D03*
D18*
X50165000Y-36207500D03*
X52665000Y-36207500D03*
D19*
X36962500Y-65760000D03*
X36962500Y-56160000D03*
D20*
X44462500Y-63460000D03*
D18*
X44462500Y-60960000D03*
X44462500Y-58460000D03*
D19*
X69982500Y-82270000D03*
X69982500Y-72670000D03*
D20*
X77482500Y-79970000D03*
D18*
X77482500Y-77470000D03*
X77482500Y-74970000D03*
D19*
X36962500Y-98780000D03*
X36962500Y-89180000D03*
D20*
X44462500Y-96480000D03*
D18*
X44462500Y-93980000D03*
X44462500Y-91480000D03*
D19*
X69982500Y-115290000D03*
X69982500Y-105690000D03*
D20*
X77482500Y-112990000D03*
D18*
X77482500Y-110490000D03*
X77482500Y-107990000D03*
D19*
X36962500Y-115290000D03*
X36962500Y-105690000D03*
D20*
X44462500Y-112990000D03*
D18*
X44462500Y-110490000D03*
X44462500Y-107990000D03*
D19*
X69982500Y-98780000D03*
X69982500Y-89180000D03*
D20*
X77482500Y-96480000D03*
D18*
X77482500Y-93980000D03*
X77482500Y-91480000D03*
D16*
X65050000Y-28707500D03*
X74650000Y-28707500D03*
D17*
X67350000Y-36207500D03*
D18*
X69850000Y-36207500D03*
X72350000Y-36207500D03*
D19*
X36962500Y-82270000D03*
X36962500Y-72670000D03*
D20*
X44462500Y-79970000D03*
D18*
X44462500Y-77470000D03*
X44462500Y-74970000D03*
D19*
X69982500Y-65760000D03*
X69982500Y-56160000D03*
D20*
X77482500Y-63460000D03*
D18*
X77482500Y-60960000D03*
X77482500Y-58460000D03*
D21*
X88900000Y-48300000D03*
X88900000Y-53300000D03*
X94580628Y-31729054D03*
X89580628Y-31729054D03*
D22*
X98425000Y-31750000D03*
D21*
X98425000Y-34250000D03*
X86955000Y-31750000D03*
X81955000Y-31750000D03*
D22*
X85344000Y-24130000D03*
D23*
X87884000Y-24130000D03*
D24*
X81280000Y-92705000D03*
D18*
X81280000Y-95245000D03*
D24*
X81280000Y-76195000D03*
D18*
X81280000Y-78735000D03*
D24*
X81280000Y-109215000D03*
D18*
X81280000Y-111755000D03*
D25*
X94615000Y-68580000D03*
D21*
X102235000Y-41050000D03*
D23*
X102235000Y-38510000D03*
D26*
X107570000Y-52070000D03*
X102870000Y-52070000D03*
X98170000Y-52070000D03*
D21*
X105820000Y-42545000D03*
D23*
X108360000Y-42545000D03*
D25*
X21789506Y-52070000D03*
D21*
X101190000Y-45720000D03*
D23*
X103730000Y-45720000D03*
D27*
X97340000Y-113030000D03*
X99540000Y-113030000D03*
X107740000Y-113030000D03*
D21*
X104775000Y-35620000D03*
D23*
X102235000Y-35620000D03*
D28*
X27415857Y-35956707D03*
D29*
X23103953Y-31623520D03*
D30*
X23105544Y-25516624D03*
D31*
X27419240Y-21184483D03*
D32*
X33542801Y-21184338D03*
D29*
X37869460Y-25516938D03*
D33*
X37864640Y-31636947D03*
D34*
X33538310Y-35967950D03*
D35*
X33230000Y-28566605D03*
D24*
X48392500Y-59685000D03*
D18*
X48392500Y-62225000D03*
D24*
X48392500Y-109215000D03*
D18*
X48392500Y-111755000D03*
D24*
X48392500Y-76195000D03*
D18*
X48392500Y-78735000D03*
D22*
X106172000Y-31750000D03*
D23*
X103632000Y-31750000D03*
D21*
X87630000Y-28575000D03*
D23*
X85090000Y-28575000D03*
D25*
X78740000Y-32004000D03*
D24*
X48392500Y-92705000D03*
D18*
X48392500Y-95245000D03*
D25*
X82550000Y-36910000D03*
D36*
X93090000Y-116205000D03*
X93090000Y-113665000D03*
D25*
X59944000Y-39624000D03*
D24*
X81280000Y-59685000D03*
D18*
X81280000Y-62225000D03*
D27*
X97340000Y-88265000D03*
X99540000Y-88265000D03*
X107740000Y-88265000D03*
X97340000Y-63500000D03*
X99540000Y-63500000D03*
X107740000Y-63500000D03*
X97340000Y-75882500D03*
X99540000Y-75882500D03*
X107740000Y-75882500D03*
D22*
X81915000Y-27305000D03*
D21*
X79415000Y-27305000D03*
D27*
X97340000Y-100647500D03*
X99540000Y-100647500D03*
X107740000Y-100647500D03*
D21*
X48323328Y-100082892D03*
D23*
X48323328Y-97542892D03*
D21*
X105156000Y-49530000D03*
D23*
X102616000Y-49530000D03*
D37*
X33020000Y-58895583D03*
D38*
X33020000Y-56895225D03*
X33020000Y-54895225D03*
D39*
X64135000Y-22860000D03*
X61595000Y-22860000D03*
X59055000Y-22860000D03*
D40*
X93629642Y-107586480D03*
D41*
X95630000Y-107586480D03*
X97630000Y-107586480D03*
D37*
X66040000Y-75659583D03*
D38*
X66040000Y-73659225D03*
X66040000Y-71659225D03*
D21*
X81280000Y-83820000D03*
D23*
X81280000Y-81280000D03*
D22*
X21792598Y-72238074D03*
D23*
X21792598Y-74778074D03*
D21*
X98552000Y-47071613D03*
D23*
X96012000Y-47071613D03*
D22*
X43468144Y-104395877D03*
D23*
X40928144Y-104395877D03*
D22*
X75184000Y-55047539D03*
D23*
X75184000Y-57587539D03*
D21*
X81280000Y-100330000D03*
D23*
X81280000Y-97790000D03*
D21*
X100710000Y-106680000D03*
D23*
X100710000Y-104140000D03*
D22*
X44271780Y-71241941D03*
D23*
X41731780Y-71241941D03*
D21*
X60586657Y-74668408D03*
D23*
X60586657Y-72128408D03*
D22*
X54710357Y-105145489D03*
D23*
X54710357Y-107685489D03*
D22*
X21691299Y-105146453D03*
D23*
X21691299Y-107686453D03*
D21*
X68580000Y-33049000D03*
D23*
X68580000Y-30509000D03*
D22*
X76355686Y-104140000D03*
D23*
X73815686Y-104140000D03*
D39*
X78105000Y-22860000D03*
X75565000Y-22860000D03*
X73025000Y-22860000D03*
D22*
X54706649Y-55613605D03*
D23*
X54706649Y-58153605D03*
D22*
X54711299Y-88659898D03*
D23*
X54711299Y-91199898D03*
D21*
X47665000Y-41275000D03*
X52665000Y-41275000D03*
D37*
X66040000Y-92170358D03*
D38*
X66040000Y-90170000D03*
X66040000Y-88170000D03*
D37*
X66040000Y-108679583D03*
D38*
X66040000Y-106679225D03*
X66040000Y-104679225D03*
D21*
X81280000Y-116865000D03*
D23*
X81280000Y-114325000D03*
D22*
X43970686Y-87630000D03*
D23*
X41430686Y-87630000D03*
D21*
X27492562Y-74660905D03*
D23*
X27492562Y-72120905D03*
D24*
X94610000Y-94615000D03*
D42*
X104770000Y-94615000D03*
D22*
X54756321Y-72160197D03*
D23*
X54756321Y-74700197D03*
D37*
X33020000Y-108679583D03*
D38*
X33020000Y-106679225D03*
X33020000Y-104679225D03*
D21*
X94585000Y-103505000D03*
D23*
X97125000Y-103505000D03*
D21*
X53877000Y-33528000D03*
D23*
X51337000Y-33528000D03*
D21*
X81280000Y-67560000D03*
D23*
X81280000Y-65020000D03*
D21*
X103885000Y-104140000D03*
D23*
X103885000Y-106680000D03*
D21*
X68580000Y-27715000D03*
D23*
X68580000Y-25175000D03*
D21*
X60578212Y-107668708D03*
D23*
X60578212Y-105128708D03*
D21*
X75184000Y-51816000D03*
D23*
X75184000Y-36576000D03*
D21*
X94840000Y-85090000D03*
D23*
X97380000Y-85090000D03*
D21*
X58420000Y-34925000D03*
D23*
X60960000Y-34925000D03*
D21*
X27340613Y-58258806D03*
D23*
X27340613Y-55718806D03*
D22*
X63500000Y-33020000D03*
D23*
X63500000Y-35560000D03*
D37*
X33020000Y-75406358D03*
D38*
X33020000Y-73406000D03*
X33020000Y-71406000D03*
D21*
X102460000Y-78740000D03*
D23*
X105000000Y-78740000D03*
D21*
X58420000Y-31115000D03*
D23*
X60960000Y-31115000D03*
D22*
X21695992Y-88635517D03*
D23*
X21695992Y-91175517D03*
D22*
X85100000Y-52075000D03*
D23*
X85100000Y-49535000D03*
X85100000Y-46995000D03*
X85100000Y-44455000D03*
X85100000Y-41915000D03*
X85100000Y-39375000D03*
X85100000Y-36835000D03*
X92720000Y-36835000D03*
X92720000Y-39375000D03*
X92720000Y-41915000D03*
X92720000Y-44455000D03*
X92720000Y-46995000D03*
X92720000Y-49535000D03*
X92720000Y-52075000D03*
D22*
X64925686Y-52070000D03*
D23*
X62385686Y-52070000D03*
D22*
X44450000Y-54610000D03*
D23*
X41910000Y-54610000D03*
D21*
X47488334Y-83845000D03*
D23*
X47488334Y-81305000D03*
D21*
X105380000Y-110490000D03*
D23*
X107920000Y-110490000D03*
D21*
X60624204Y-58051503D03*
D23*
X60624204Y-55511503D03*
D21*
X95353553Y-44478006D03*
X95353553Y-39478006D03*
D22*
X100075000Y-70329314D03*
D23*
X100075000Y-72869314D03*
D21*
X47625000Y-67560000D03*
D23*
X47625000Y-65020000D03*
D22*
X76990686Y-87630000D03*
D23*
X74450686Y-87630000D03*
D22*
X76618321Y-71518635D03*
D23*
X74078321Y-71518635D03*
D21*
X82407680Y-44436832D03*
X82407680Y-39436832D03*
X107695000Y-69850000D03*
X102695000Y-69850000D03*
D37*
X66040000Y-59150358D03*
D38*
X66040000Y-57150000D03*
X66040000Y-55150000D03*
D22*
X44435000Y-48897500D03*
D23*
X41895000Y-48897500D03*
X39355000Y-48897500D03*
X36815000Y-48897500D03*
X34275000Y-48897500D03*
X31735000Y-48897500D03*
X29195000Y-48897500D03*
X26655000Y-48897500D03*
X26655000Y-41277500D03*
X29195000Y-41277500D03*
X31735000Y-41277500D03*
X34275000Y-41277500D03*
X36815000Y-41277500D03*
X39355000Y-41277500D03*
X41895000Y-41277500D03*
X44435000Y-41277500D03*
D37*
X33020000Y-91915583D03*
D38*
X33020000Y-89915225D03*
X33020000Y-87915225D03*
D21*
X27487912Y-91251569D03*
D23*
X27487912Y-88711569D03*
D43*
X93985628Y-24109054D03*
D44*
X93985628Y-26649054D03*
X96525628Y-24109054D03*
X96525628Y-26649054D03*
X99065628Y-24109054D03*
X99065628Y-26649054D03*
X101605628Y-24109054D03*
X101605628Y-26649054D03*
X104145628Y-24109054D03*
X104145628Y-26649054D03*
D22*
X21794478Y-55788121D03*
D23*
X21794478Y-58328121D03*
D22*
X28419314Y-28575000D03*
D23*
X30959314Y-28575000D03*
D21*
X51058886Y-109346624D03*
D23*
X51058886Y-111886624D03*
D21*
X96900000Y-72800000D03*
D23*
X96900000Y-70260000D03*
D21*
X60588569Y-91185926D03*
D23*
X60588569Y-88645926D03*
D21*
X59055000Y-50165000D03*
D23*
X59055000Y-52705000D03*
D21*
X26895000Y-108204000D03*
D23*
X29435000Y-108204000D03*
%LPD*%
M02*
