G04 #@! TF.GenerationSoftware,KiCad,Pcbnew,7.0.10*
G04 #@! TF.CreationDate,2024-08-03T17:22:43+10:00*
G04 #@! TF.ProjectId,MK_Seq take 2,4d4b5f53-6571-4207-9461-6b6520322e6b,rev?*
G04 #@! TF.SameCoordinates,Original*
G04 #@! TF.FileFunction,Soldermask,Top*
G04 #@! TF.FilePolarity,Negative*
%FSLAX46Y46*%
G04 Gerber Fmt 4.6, Leading zero omitted, Abs format (unit mm)*
G04 Created by KiCad (PCBNEW 7.0.10) date 2024-08-03 17:22:43*
%MOMM*%
%LPD*%
G01*
G04 APERTURE LIST*
G04 Aperture macros list*
%AMRoundRect*
0 Rectangle with rounded corners*
0 $1 Rounding radius*
0 $2 $3 $4 $5 $6 $7 $8 $9 X,Y pos of 4 corners*
0 Add a 4 corners polygon primitive as box body*
4,1,4,$2,$3,$4,$5,$6,$7,$8,$9,$2,$3,0*
0 Add four circle primitives for the rounded corners*
1,1,$1+$1,$2,$3*
1,1,$1+$1,$4,$5*
1,1,$1+$1,$6,$7*
1,1,$1+$1,$8,$9*
0 Add four rect primitives between the rounded corners*
20,1,$1+$1,$2,$3,$4,$5,0*
20,1,$1+$1,$4,$5,$6,$7,0*
20,1,$1+$1,$6,$7,$8,$9,0*
20,1,$1+$1,$8,$9,$2,$3,0*%
%AMHorizOval*
0 Thick line with rounded ends*
0 $1 width*
0 $2 $3 position (X,Y) of the first rounded end (center of the circle)*
0 $4 $5 position (X,Y) of the second rounded end (center of the circle)*
0 Add line between two ends*
20,1,$1,$2,$3,$4,$5,0*
0 Add two circle primitives to create the rounded ends*
1,1,$1,$2,$3*
1,1,$1,$4,$5*%
G04 Aperture macros list end*
%ADD10C,0.200000*%
%ADD11O,3.000000X1.800000*%
%ADD12O,2.750000X3.500000*%
%ADD13RoundRect,0.450000X0.450000X0.450000X-0.450000X0.450000X-0.450000X-0.450000X0.450000X-0.450000X0*%
%ADD14C,1.800000*%
%ADD15O,3.500000X2.750000*%
%ADD16RoundRect,0.450000X-0.450000X0.450000X-0.450000X-0.450000X0.450000X-0.450000X0.450000X0.450000X0*%
%ADD17C,1.600000*%
%ADD18R,1.600000X1.600000*%
%ADD19O,1.600000X1.600000*%
%ADD20R,1.800000X1.800000*%
%ADD21C,1.500000*%
%ADD22O,1.800000X2.500000*%
%ADD23O,1.500000X2.500000*%
%ADD24RoundRect,0.250000X0.366269X-0.422312X0.557611X0.039628X-0.366269X0.422312X-0.557611X-0.039628X0*%
%ADD25HorizOval,1.000000X-0.095671X0.230970X0.095671X-0.230970X0*%
%ADD26HorizOval,1.000000X0.095671X0.230970X-0.095671X-0.230970X0*%
%ADD27HorizOval,1.000000X0.230970X0.095671X-0.230970X-0.095671X0*%
%ADD28HorizOval,1.000000X-0.230970X0.095671X0.230970X-0.095671X0*%
%ADD29HorizOval,1.000000X-0.095671X-0.230970X0.095671X0.230970X0*%
%ADD30HorizOval,1.000000X-0.230970X-0.095671X0.230970X0.095671X0*%
%ADD31O,1.000000X1.500000*%
%ADD32C,2.000000*%
%ADD33RoundRect,0.150000X0.600000X-0.400000X0.600000X0.400000X-0.600000X0.400000X-0.600000X-0.400000X0*%
%ADD34O,1.540000X1.100000*%
%ADD35C,1.440000*%
%ADD36RoundRect,0.150000X-0.400000X-0.600000X0.400000X-0.600000X0.400000X0.600000X-0.400000X0.600000X0*%
%ADD37O,1.100000X1.540000*%
%ADD38O,1.800000X1.800000*%
%ADD39RoundRect,0.425000X0.425000X-0.425000X0.425000X0.425000X-0.425000X0.425000X-0.425000X-0.425000X0*%
%ADD40C,1.700000*%
G04 APERTURE END LIST*
D10*
X19685000Y-23495000D02*
X19685000Y-19685000D01*
X23495000Y-19685000D01*
X19685000Y-23495000D01*
G36*
X19685000Y-23495000D02*
G01*
X19685000Y-19685000D01*
X23495000Y-19685000D01*
X19685000Y-23495000D01*
G37*
D11*
X57647609Y-115201275D03*
X57648334Y-110490000D03*
X57648394Y-105788334D03*
X57647609Y-82181275D03*
X57648334Y-77470000D03*
X57648394Y-72768334D03*
X24627609Y-115201275D03*
X24628334Y-110490000D03*
X24628394Y-105788334D03*
X57647609Y-65671275D03*
X57648334Y-60960000D03*
X57648394Y-56258334D03*
X24627609Y-98691275D03*
X24628334Y-93980000D03*
X24628394Y-89278334D03*
X24627609Y-65671275D03*
X24628334Y-60960000D03*
X24628394Y-56258334D03*
X24627609Y-82181275D03*
X24628334Y-77470000D03*
X24628394Y-72768334D03*
X57647609Y-98691275D03*
X57648334Y-93980000D03*
X57648394Y-89278334D03*
D12*
X45365000Y-28707500D03*
X54965000Y-28707500D03*
D13*
X47665000Y-36207500D03*
D14*
X50165000Y-36207500D03*
X52665000Y-36207500D03*
D15*
X36962500Y-65760000D03*
X36962500Y-56160000D03*
D16*
X44462500Y-63460000D03*
D14*
X44462500Y-60960000D03*
X44462500Y-58460000D03*
D15*
X69982500Y-82270000D03*
X69982500Y-72670000D03*
D16*
X77482500Y-79970000D03*
D14*
X77482500Y-77470000D03*
X77482500Y-74970000D03*
D15*
X36962500Y-98780000D03*
X36962500Y-89180000D03*
D16*
X44462500Y-96480000D03*
D14*
X44462500Y-93980000D03*
X44462500Y-91480000D03*
D15*
X69982500Y-115290000D03*
X69982500Y-105690000D03*
D16*
X77482500Y-112990000D03*
D14*
X77482500Y-110490000D03*
X77482500Y-107990000D03*
D15*
X36962500Y-115290000D03*
X36962500Y-105690000D03*
D16*
X44462500Y-112990000D03*
D14*
X44462500Y-110490000D03*
X44462500Y-107990000D03*
D15*
X69982500Y-98780000D03*
X69982500Y-89180000D03*
D16*
X77482500Y-96480000D03*
D14*
X77482500Y-93980000D03*
X77482500Y-91480000D03*
D12*
X65050000Y-28707500D03*
X74650000Y-28707500D03*
D13*
X67350000Y-36207500D03*
D14*
X69850000Y-36207500D03*
X72350000Y-36207500D03*
D15*
X36962500Y-82270000D03*
X36962500Y-72670000D03*
D16*
X44462500Y-79970000D03*
D14*
X44462500Y-77470000D03*
X44462500Y-74970000D03*
D15*
X69982500Y-65760000D03*
X69982500Y-56160000D03*
D16*
X77482500Y-63460000D03*
D14*
X77482500Y-60960000D03*
X77482500Y-58460000D03*
D17*
X88900000Y-48300000D03*
X88900000Y-53300000D03*
X94580628Y-31729054D03*
X89580628Y-31729054D03*
D18*
X98425000Y-31750000D03*
D17*
X98425000Y-34250000D03*
X86955000Y-31750000D03*
X81955000Y-31750000D03*
D18*
X85344000Y-24130000D03*
D19*
X87884000Y-24130000D03*
D20*
X81280000Y-92705000D03*
D14*
X81280000Y-95245000D03*
D20*
X81280000Y-76195000D03*
D14*
X81280000Y-78735000D03*
D20*
X81280000Y-109215000D03*
D14*
X81280000Y-111755000D03*
D21*
X94615000Y-68580000D03*
D17*
X102235000Y-41050000D03*
D19*
X102235000Y-38510000D03*
D22*
X107570000Y-52070000D03*
X102870000Y-52070000D03*
X98170000Y-52070000D03*
D17*
X105820000Y-42545000D03*
D19*
X108360000Y-42545000D03*
D21*
X21789506Y-52070000D03*
D17*
X101190000Y-45720000D03*
D19*
X103730000Y-45720000D03*
D23*
X97340000Y-113030000D03*
X99540000Y-113030000D03*
X107740000Y-113030000D03*
D17*
X104775000Y-35620000D03*
D19*
X102235000Y-35620000D03*
D24*
X27415857Y-35956707D03*
D25*
X23103953Y-31623520D03*
D26*
X23105544Y-25516624D03*
D27*
X27419240Y-21184483D03*
D28*
X33542801Y-21184338D03*
D25*
X37869460Y-25516938D03*
D29*
X37864640Y-31636947D03*
D30*
X33538310Y-35967950D03*
D31*
X33230000Y-28566605D03*
D20*
X48392500Y-59685000D03*
D14*
X48392500Y-62225000D03*
D20*
X48392500Y-109215000D03*
D14*
X48392500Y-111755000D03*
D20*
X48392500Y-76195000D03*
D14*
X48392500Y-78735000D03*
D18*
X106172000Y-31750000D03*
D19*
X103632000Y-31750000D03*
D17*
X87630000Y-28575000D03*
D19*
X85090000Y-28575000D03*
D21*
X78740000Y-32004000D03*
D20*
X48392500Y-92705000D03*
D14*
X48392500Y-95245000D03*
D21*
X82550000Y-36910000D03*
D32*
X93090000Y-116205000D03*
X93090000Y-113665000D03*
D21*
X59944000Y-39624000D03*
D20*
X81280000Y-59685000D03*
D14*
X81280000Y-62225000D03*
D23*
X97340000Y-88265000D03*
X99540000Y-88265000D03*
X107740000Y-88265000D03*
X97340000Y-63500000D03*
X99540000Y-63500000D03*
X107740000Y-63500000D03*
X97340000Y-75882500D03*
X99540000Y-75882500D03*
X107740000Y-75882500D03*
D18*
X81915000Y-27305000D03*
D17*
X79415000Y-27305000D03*
D23*
X97340000Y-100647500D03*
X99540000Y-100647500D03*
X107740000Y-100647500D03*
D17*
X48323328Y-100082892D03*
D19*
X48323328Y-97542892D03*
D17*
X105156000Y-49530000D03*
D19*
X102616000Y-49530000D03*
D33*
X33020000Y-58895583D03*
D34*
X33020000Y-56895225D03*
X33020000Y-54895225D03*
D35*
X64135000Y-22860000D03*
X61595000Y-22860000D03*
X59055000Y-22860000D03*
D36*
X93629642Y-107586480D03*
D37*
X95630000Y-107586480D03*
X97630000Y-107586480D03*
D33*
X66040000Y-75659583D03*
D34*
X66040000Y-73659225D03*
X66040000Y-71659225D03*
D17*
X81280000Y-83820000D03*
D19*
X81280000Y-81280000D03*
D18*
X21792598Y-72238074D03*
D19*
X21792598Y-74778074D03*
D17*
X98552000Y-47071613D03*
D19*
X96012000Y-47071613D03*
D18*
X43468144Y-104395877D03*
D19*
X40928144Y-104395877D03*
D18*
X75184000Y-55047539D03*
D19*
X75184000Y-57587539D03*
D17*
X81280000Y-100330000D03*
D19*
X81280000Y-97790000D03*
D17*
X100710000Y-106680000D03*
D19*
X100710000Y-104140000D03*
D18*
X44271780Y-71241941D03*
D19*
X41731780Y-71241941D03*
D17*
X60586657Y-74668408D03*
D19*
X60586657Y-72128408D03*
D18*
X54710357Y-105145489D03*
D19*
X54710357Y-107685489D03*
D18*
X21691299Y-105146453D03*
D19*
X21691299Y-107686453D03*
D17*
X68580000Y-33049000D03*
D19*
X68580000Y-30509000D03*
D18*
X76355686Y-104140000D03*
D19*
X73815686Y-104140000D03*
D35*
X78105000Y-22860000D03*
X75565000Y-22860000D03*
X73025000Y-22860000D03*
D18*
X54706649Y-55613605D03*
D19*
X54706649Y-58153605D03*
D18*
X54711299Y-88659898D03*
D19*
X54711299Y-91199898D03*
D17*
X47665000Y-41275000D03*
X52665000Y-41275000D03*
D33*
X66040000Y-92170358D03*
D34*
X66040000Y-90170000D03*
X66040000Y-88170000D03*
D33*
X66040000Y-108679583D03*
D34*
X66040000Y-106679225D03*
X66040000Y-104679225D03*
D17*
X81280000Y-116865000D03*
D19*
X81280000Y-114325000D03*
D18*
X43970686Y-87630000D03*
D19*
X41430686Y-87630000D03*
D17*
X27492562Y-74660905D03*
D19*
X27492562Y-72120905D03*
D20*
X94610000Y-94615000D03*
D38*
X104770000Y-94615000D03*
D18*
X54756321Y-72160197D03*
D19*
X54756321Y-74700197D03*
D33*
X33020000Y-108679583D03*
D34*
X33020000Y-106679225D03*
X33020000Y-104679225D03*
D17*
X94585000Y-103505000D03*
D19*
X97125000Y-103505000D03*
D17*
X53877000Y-33528000D03*
D19*
X51337000Y-33528000D03*
D17*
X81280000Y-67560000D03*
D19*
X81280000Y-65020000D03*
D17*
X103885000Y-104140000D03*
D19*
X103885000Y-106680000D03*
D17*
X68580000Y-27715000D03*
D19*
X68580000Y-25175000D03*
D17*
X60578212Y-107668708D03*
D19*
X60578212Y-105128708D03*
D17*
X75184000Y-51816000D03*
D19*
X75184000Y-36576000D03*
D17*
X94840000Y-85090000D03*
D19*
X97380000Y-85090000D03*
D17*
X58420000Y-34925000D03*
D19*
X60960000Y-34925000D03*
D17*
X27340613Y-58258806D03*
D19*
X27340613Y-55718806D03*
D18*
X63500000Y-33020000D03*
D19*
X63500000Y-35560000D03*
D33*
X33020000Y-75406358D03*
D34*
X33020000Y-73406000D03*
X33020000Y-71406000D03*
D17*
X102460000Y-78740000D03*
D19*
X105000000Y-78740000D03*
D17*
X58420000Y-31115000D03*
D19*
X60960000Y-31115000D03*
D18*
X21695992Y-88635517D03*
D19*
X21695992Y-91175517D03*
D18*
X85100000Y-52075000D03*
D19*
X85100000Y-49535000D03*
X85100000Y-46995000D03*
X85100000Y-44455000D03*
X85100000Y-41915000D03*
X85100000Y-39375000D03*
X85100000Y-36835000D03*
X92720000Y-36835000D03*
X92720000Y-39375000D03*
X92720000Y-41915000D03*
X92720000Y-44455000D03*
X92720000Y-46995000D03*
X92720000Y-49535000D03*
X92720000Y-52075000D03*
D18*
X64925686Y-52070000D03*
D19*
X62385686Y-52070000D03*
D18*
X44450000Y-54610000D03*
D19*
X41910000Y-54610000D03*
D17*
X47488334Y-83845000D03*
D19*
X47488334Y-81305000D03*
D17*
X105380000Y-110490000D03*
D19*
X107920000Y-110490000D03*
D17*
X60624204Y-58051503D03*
D19*
X60624204Y-55511503D03*
D17*
X95353553Y-44478006D03*
X95353553Y-39478006D03*
D18*
X100075000Y-70329314D03*
D19*
X100075000Y-72869314D03*
D17*
X47625000Y-67560000D03*
D19*
X47625000Y-65020000D03*
D18*
X76990686Y-87630000D03*
D19*
X74450686Y-87630000D03*
D18*
X76618321Y-71518635D03*
D19*
X74078321Y-71518635D03*
D17*
X82407680Y-44436832D03*
X82407680Y-39436832D03*
X107695000Y-69850000D03*
X102695000Y-69850000D03*
D33*
X66040000Y-59150358D03*
D34*
X66040000Y-57150000D03*
X66040000Y-55150000D03*
D18*
X44435000Y-48897500D03*
D19*
X41895000Y-48897500D03*
X39355000Y-48897500D03*
X36815000Y-48897500D03*
X34275000Y-48897500D03*
X31735000Y-48897500D03*
X29195000Y-48897500D03*
X26655000Y-48897500D03*
X26655000Y-41277500D03*
X29195000Y-41277500D03*
X31735000Y-41277500D03*
X34275000Y-41277500D03*
X36815000Y-41277500D03*
X39355000Y-41277500D03*
X41895000Y-41277500D03*
X44435000Y-41277500D03*
D33*
X33020000Y-91915583D03*
D34*
X33020000Y-89915225D03*
X33020000Y-87915225D03*
D17*
X27487912Y-91251569D03*
D19*
X27487912Y-88711569D03*
D39*
X93985628Y-24109054D03*
D40*
X93985628Y-26649054D03*
X96525628Y-24109054D03*
X96525628Y-26649054D03*
X99065628Y-24109054D03*
X99065628Y-26649054D03*
X101605628Y-24109054D03*
X101605628Y-26649054D03*
X104145628Y-24109054D03*
X104145628Y-26649054D03*
D18*
X21794478Y-55788121D03*
D19*
X21794478Y-58328121D03*
D18*
X28419314Y-28575000D03*
D19*
X30959314Y-28575000D03*
D17*
X51058886Y-109346624D03*
D19*
X51058886Y-111886624D03*
D17*
X96900000Y-72800000D03*
D19*
X96900000Y-70260000D03*
D17*
X60588569Y-91185926D03*
D19*
X60588569Y-88645926D03*
D17*
X59055000Y-50165000D03*
D19*
X59055000Y-52705000D03*
D17*
X26895000Y-108204000D03*
D19*
X29435000Y-108204000D03*
M02*
