  0
SECTION
  2
HEADER
  9
$ANGBASE
  50
0.0
  9
$ANGDIR
  70
1
  9
$MEASUREMENT
  70
1
  0
ENDSEC
  0
SECTION
  2
TABLES
  0
TABLE
  2
LTYPE
  70
4
  0
LTYPE
  5
40F
  2
CONTINUOUS
  70
0
  3
Solid line
  72
65
  73
0
  40
0.0
  0
LTYPE
  5
410
  2
DASHDOT
 70
0
  3
Dash Dot ____ _ ____ _
 72
65
 73
4
 40
2.0
 49
1.25
 49
-0.25
 49
0.25
 49
-0.25
  0
LTYPE
  5
411
  2
DASHED
 70
0
  3
Dashed __ __ __ __ __
 72
65
 73
2
 40
0.75
 49
0.5
 49
-0.25
  0
LTYPE
  5
43B
  2
DOTTED
 70
0
  3
Dotted .  .  .  .
 72
65
 73
2
 40
0.2
 49
0.0
 49
-0.2
  0
ENDTAB
  0
TABLE
  2
STYLE
  70
4
  0
STYLE
  2
KICAD
  70
0
  40
0
  41
1
  42
1
  50
0
  71
0
  3
isocp.shx
  0
STYLE
  2
KICADB
  70
0
  40
0
  41
1
  42
1
  50
0
  71
0
  3
isocp.shx
  0
STYLE
  2
KICADI
  70
0
  40
0
  41
1
  42
1
  50
15
  71
0
  3
isocp.shx
  0
STYLE
  2
KICADBI
  70
0
  40
0
  41
1
  42
1
  50
15
  71
0
  3
isocp.shx
  0
ENDTAB
  0
TABLE
  2
LAYER
  70
1
  0
LAYER
  2
BLACK
  70
0
  62
7
  6
CONTINUOUS
  0
ENDTAB
  0
ENDSEC
  0
SECTION
  2
ENTITIES
0
LINE
8
BLACK
6
CONTINUOUS
10
177.0021999999999878
20
-166.0071999999999832
11
285.0021999999999593
21
-166.0071999999999832
0
LINE
8
BLACK
6
CONTINUOUS
10
285.0021999999999593
20
-166.0071999999999832
11
285.0021999999999593
21
-198.0071999999999832
0
LINE
8
BLACK
6
CONTINUOUS
10
285.0021999999999593
20
-198.0071999999999832
11
177.0021999999999878
21
-198.0071999999999832
0
LINE
8
BLACK
6
CONTINUOUS
10
177.0021999999999878
20
-198.0071999999999832
11
177.0021999999999878
21
-166.0071999999999832
0
LINE
8
BLACK
6
CONTINUOUS
10
10.
20
-10.
11
287.0021999999999593
21
-10.
0
LINE
8
BLACK
6
CONTINUOUS
10
287.0021999999999593
20
-10.
11
287.0021999999999593
21
-200.0071999999999832
0
LINE
8
BLACK
6
CONTINUOUS
10
287.0021999999999593
20
-200.0071999999999832
11
10.
21
-200.0071999999999832
0
LINE
8
BLACK
6
CONTINUOUS
10
10.
20
-200.0071999999999832
11
10.
21
-10.
0
LINE
8
BLACK
6
CONTINUOUS
10
12.
20
-12.
11
285.0021999999999593
21
-12.
0
LINE
8
BLACK
6
CONTINUOUS
10
285.0021999999999593
20
-12.
11
285.0021999999999593
21
-198.0071999999999832
0
LINE
8
BLACK
6
CONTINUOUS
10
285.0021999999999593
20
-198.0071999999999832
11
12.
21
-198.0071999999999832
0
LINE
8
BLACK
6
CONTINUOUS
10
12.
20
-198.0071999999999832
11
12.
21
-12.
0
LINE
8
BLACK
6
CONTINUOUS
10
60.
20
-12.
11
60.
21
-10.
0
LINE
8
BLACK
6
CONTINUOUS
10
110.
20
-12.
11
110.
21
-10.
0
LINE
8
BLACK
6
CONTINUOUS
10
160.
20
-12.
11
160.
21
-10.
0
LINE
8
BLACK
6
CONTINUOUS
10
210.
20
-12.
11
210.
21
-10.
0
LINE
8
BLACK
6
CONTINUOUS
10
260.
20
-12.
11
260.
21
-10.
0
LINE
8
BLACK
6
CONTINUOUS
10
36.0891599999999997
20
-11.5936039999999991
11
35.3463029999999989
21
-11.5936039999999991
0
LINE
8
BLACK
6
CONTINUOUS
10
35.7177310000000006
20
-11.5936039999999991
11
35.7177310000000006
21
-10.2936040000000002
0
LINE
8
BLACK
6
CONTINUOUS
10
35.7177310000000006
20
-10.2936040000000002
11
35.5939219999999992
21
-10.4793190000000003
0
LINE
8
BLACK
6
CONTINUOUS
10
35.5939219999999992
20
-10.4793190000000003
11
35.4701120000000003
21
-10.6031279999999999
0
LINE
8
BLACK
6
CONTINUOUS
10
35.4701120000000003
20
-10.6031279999999999
11
35.3463029999999989
21
-10.6650329999999993
0
LINE
8
BLACK
6
CONTINUOUS
10
85.3463029999999918
20
-10.4174139999999991
11
85.4082069999999902
21
-10.3555089999999996
0
LINE
8
BLACK
6
CONTINUOUS
10
85.4082069999999902
20
-10.3555089999999996
11
85.5320169999999962
21
-10.2936040000000002
0
LINE
8
BLACK
6
CONTINUOUS
10
85.5320169999999962
20
-10.2936040000000002
11
85.8415409999999923
21
-10.2936040000000002
0
LINE
8
BLACK
6
CONTINUOUS
10
85.8415409999999923
20
-10.2936040000000002
11
85.9653500000000008
21
-10.3555089999999996
0
LINE
8
BLACK
6
CONTINUOUS
10
85.9653500000000008
20
-10.3555089999999996
11
86.0272549999999967
21
-10.4174139999999991
0
LINE
8
BLACK
6
CONTINUOUS
10
86.0272549999999967
20
-10.4174139999999991
11
86.0891599999999926
21
-10.5412229999999987
0
LINE
8
BLACK
6
CONTINUOUS
10
86.0891599999999926
20
-10.5412229999999987
11
86.0891599999999926
21
-10.6650329999999993
0
LINE
8
BLACK
6
CONTINUOUS
10
86.0891599999999926
20
-10.6650329999999993
11
86.0272549999999967
21
-10.8507470000000001
0
LINE
8
BLACK
6
CONTINUOUS
10
86.0272549999999967
20
-10.8507470000000001
11
85.2843979999999959
21
-11.5936039999999991
0
LINE
8
BLACK
6
CONTINUOUS
10
85.2843979999999959
20
-11.5936039999999991
11
86.0891599999999926
21
-11.5936039999999991
0
LINE
8
BLACK
6
CONTINUOUS
10
135.2843979999999817
20
-10.2936040000000002
11
136.0891599999999926
21
-10.2936040000000002
0
LINE
8
BLACK
6
CONTINUOUS
10
136.0891599999999926
20
-10.2936040000000002
11
135.6558259999999905
21
-10.7888419999999989
0
LINE
8
BLACK
6
CONTINUOUS
10
135.6558259999999905
20
-10.7888419999999989
11
135.8415410000000065
21
-10.7888419999999989
0
LINE
8
BLACK
6
CONTINUOUS
10
135.8415410000000065
20
-10.7888419999999989
11
135.9653500000000008
21
-10.8507470000000001
0
LINE
8
BLACK
6
CONTINUOUS
10
135.9653500000000008
20
-10.8507470000000001
11
136.0272549999999967
21
-10.9126519999999996
0
LINE
8
BLACK
6
CONTINUOUS
10
136.0272549999999967
20
-10.9126519999999996
11
136.0891599999999926
21
-11.0364609999999992
0
LINE
8
BLACK
6
CONTINUOUS
10
136.0891599999999926
20
-11.0364609999999992
11
136.0891599999999926
21
-11.3459849999999989
0
LINE
8
BLACK
6
CONTINUOUS
10
136.0891599999999926
20
-11.3459849999999989
11
136.0272549999999967
21
-11.4697949999999995
0
LINE
8
BLACK
6
CONTINUOUS
10
136.0272549999999967
20
-11.4697949999999995
11
135.9653500000000008
21
-11.531699999999999
0
LINE
8
BLACK
6
CONTINUOUS
10
135.9653500000000008
20
-11.531699999999999
11
135.8415410000000065
21
-11.5936039999999991
0
LINE
8
BLACK
6
CONTINUOUS
10
135.8415410000000065
20
-11.5936039999999991
11
135.4701120000000003
21
-11.5936039999999991
0
LINE
8
BLACK
6
CONTINUOUS
10
135.4701120000000003
20
-11.5936039999999991
11
135.346303000000006
21
-11.531699999999999
0
LINE
8
BLACK
6
CONTINUOUS
10
135.346303000000006
20
-11.531699999999999
11
135.2843979999999817
21
-11.4697949999999995
0
LINE
8
BLACK
6
CONTINUOUS
10
185.9653500000000008
20
-10.7269379999999988
11
185.9653500000000008
21
-11.5936039999999991
0
LINE
8
BLACK
6
CONTINUOUS
10
185.6558259999999905
20
-10.2317
11
185.3463029999999776
21
-11.1602709999999998
0
LINE
8
BLACK
6
CONTINUOUS
10
185.3463029999999776
20
-11.1602709999999998
11
186.151063999999991
21
-11.1602709999999998
0
LINE
8
BLACK
6
CONTINUOUS
10
236.0272549999999967
20
-10.2936040000000002
11
235.408206999999976
21
-10.2936040000000002
0
LINE
8
BLACK
6
CONTINUOUS
10
235.408206999999976
20
-10.2936040000000002
11
235.3463029999999776
21
-10.9126519999999996
0
LINE
8
BLACK
6
CONTINUOUS
10
235.3463029999999776
20
-10.9126519999999996
11
235.408206999999976
21
-10.8507470000000001
0
LINE
8
BLACK
6
CONTINUOUS
10
235.408206999999976
20
-10.8507470000000001
11
235.5320169999999962
21
-10.7888419999999989
0
LINE
8
BLACK
6
CONTINUOUS
10
235.5320169999999962
20
-10.7888419999999989
11
235.8415409999999781
21
-10.7888419999999989
0
LINE
8
BLACK
6
CONTINUOUS
10
235.8415409999999781
20
-10.7888419999999989
11
235.9653500000000008
21
-10.8507470000000001
0
LINE
8
BLACK
6
CONTINUOUS
10
235.9653500000000008
20
-10.8507470000000001
11
236.0272549999999967
21
-10.9126519999999996
0
LINE
8
BLACK
6
CONTINUOUS
10
236.0272549999999967
20
-10.9126519999999996
11
236.0891599999999926
21
-11.0364609999999992
0
LINE
8
BLACK
6
CONTINUOUS
10
236.0891599999999926
20
-11.0364609999999992
11
236.0891599999999926
21
-11.3459849999999989
0
LINE
8
BLACK
6
CONTINUOUS
10
236.0891599999999926
20
-11.3459849999999989
11
236.0272549999999967
21
-11.4697949999999995
0
LINE
8
BLACK
6
CONTINUOUS
10
236.0272549999999967
20
-11.4697949999999995
11
235.9653500000000008
21
-11.531699999999999
0
LINE
8
BLACK
6
CONTINUOUS
10
235.9653500000000008
20
-11.531699999999999
11
235.8415409999999781
21
-11.5936039999999991
0
LINE
8
BLACK
6
CONTINUOUS
10
235.8415409999999781
20
-11.5936039999999991
11
235.5320169999999962
21
-11.5936039999999991
0
LINE
8
BLACK
6
CONTINUOUS
10
235.5320169999999962
20
-11.5936039999999991
11
235.408206999999976
21
-11.531699999999999
0
LINE
8
BLACK
6
CONTINUOUS
10
235.408206999999976
20
-11.531699999999999
11
235.3463029999999776
21
-11.4697949999999995
0
LINE
8
BLACK
6
CONTINUOUS
10
285.9653500000000008
20
-10.2936040000000002
11
285.7177310000000148
21
-10.2936040000000002
0
LINE
8
BLACK
6
CONTINUOUS
10
285.7177310000000148
20
-10.2936040000000002
11
285.5939219999999636
21
-10.3555089999999996
0
LINE
8
BLACK
6
CONTINUOUS
10
285.5939219999999636
20
-10.3555089999999996
11
285.5320169999999962
21
-10.4174139999999991
0
LINE
8
BLACK
6
CONTINUOUS
10
285.5320169999999962
20
-10.4174139999999991
11
285.4082070000000044
21
-10.6031279999999999
0
LINE
8
BLACK
6
CONTINUOUS
10
285.4082070000000044
20
-10.6031279999999999
11
285.3463029999999776
21
-10.8507470000000001
0
LINE
8
BLACK
6
CONTINUOUS
10
285.3463029999999776
20
-10.8507470000000001
11
285.3463029999999776
21
-11.3459849999999989
0
LINE
8
BLACK
6
CONTINUOUS
10
285.3463029999999776
20
-11.3459849999999989
11
285.4082070000000044
21
-11.4697949999999995
0
LINE
8
BLACK
6
CONTINUOUS
10
285.4082070000000044
20
-11.4697949999999995
11
285.4701119999999719
21
-11.531699999999999
0
LINE
8
BLACK
6
CONTINUOUS
10
285.4701119999999719
20
-11.531699999999999
11
285.5939219999999636
21
-11.5936039999999991
0
LINE
8
BLACK
6
CONTINUOUS
10
285.5939219999999636
20
-11.5936039999999991
11
285.8415410000000065
21
-11.5936039999999991
0
LINE
8
BLACK
6
CONTINUOUS
10
285.8415410000000065
20
-11.5936039999999991
11
285.9653500000000008
21
-11.531699999999999
0
LINE
8
BLACK
6
CONTINUOUS
10
285.9653500000000008
20
-11.531699999999999
11
286.0272549999999683
21
-11.4697949999999995
0
LINE
8
BLACK
6
CONTINUOUS
10
286.0272549999999683
20
-11.4697949999999995
11
286.0891599999999926
21
-11.3459849999999989
0
LINE
8
BLACK
6
CONTINUOUS
10
286.0891599999999926
20
-11.3459849999999989
11
286.0891599999999926
21
-11.0364609999999992
0
LINE
8
BLACK
6
CONTINUOUS
10
286.0891599999999926
20
-11.0364609999999992
11
286.0272549999999683
21
-10.9126519999999996
0
LINE
8
BLACK
6
CONTINUOUS
10
286.0272549999999683
20
-10.9126519999999996
11
285.9653500000000008
21
-10.8507470000000001
0
LINE
8
BLACK
6
CONTINUOUS
10
285.9653500000000008
20
-10.8507470000000001
11
285.8415410000000065
21
-10.7888419999999989
0
LINE
8
BLACK
6
CONTINUOUS
10
285.8415410000000065
20
-10.7888419999999989
11
285.5939219999999636
21
-10.7888419999999989
0
LINE
8
BLACK
6
CONTINUOUS
10
285.5939219999999636
20
-10.7888419999999989
11
285.4701119999999719
21
-10.8507470000000001
0
LINE
8
BLACK
6
CONTINUOUS
10
285.4701119999999719
20
-10.8507470000000001
11
285.4082070000000044
21
-10.9126519999999996
0
LINE
8
BLACK
6
CONTINUOUS
10
285.4082070000000044
20
-10.9126519999999996
11
285.3463029999999776
21
-11.0364609999999992
0
LINE
8
BLACK
6
CONTINUOUS
10
60.
20
-198.0071999999999832
11
60.
21
-200.0071999999999832
0
LINE
8
BLACK
6
CONTINUOUS
10
110.
20
-198.0071999999999832
11
110.
21
-200.0071999999999832
0
LINE
8
BLACK
6
CONTINUOUS
10
160.
20
-198.0071999999999832
11
160.
21
-200.0071999999999832
0
LINE
8
BLACK
6
CONTINUOUS
10
210.
20
-198.0071999999999832
11
210.
21
-200.0071999999999832
0
LINE
8
BLACK
6
CONTINUOUS
10
260.
20
-198.0071999999999832
11
260.
21
-200.0071999999999832
0
LINE
8
BLACK
6
CONTINUOUS
10
36.0891599999999997
20
-199.6008039999999824
11
35.3463029999999989
21
-199.6008039999999824
0
LINE
8
BLACK
6
CONTINUOUS
10
35.7177310000000006
20
-199.6008039999999824
11
35.7177310000000006
21
-198.3008039999999994
0
LINE
8
BLACK
6
CONTINUOUS
10
35.7177310000000006
20
-198.3008039999999994
11
35.5939219999999992
21
-198.486518999999987
0
LINE
8
BLACK
6
CONTINUOUS
10
35.5939219999999992
20
-198.486518999999987
11
35.4701120000000003
21
-198.6103279999999813
0
LINE
8
BLACK
6
CONTINUOUS
10
35.4701120000000003
20
-198.6103279999999813
11
35.3463029999999989
21
-198.6722329999999772
0
LINE
8
BLACK
6
CONTINUOUS
10
85.3463029999999918
20
-198.4246139999999912
11
85.4082069999999902
21
-198.3627089999999953
0
LINE
8
BLACK
6
CONTINUOUS
10
85.4082069999999902
20
-198.3627089999999953
11
85.5320169999999962
21
-198.3008039999999994
0
LINE
8
BLACK
6
CONTINUOUS
10
85.5320169999999962
20
-198.3008039999999994
11
85.8415409999999923
21
-198.3008039999999994
0
LINE
8
BLACK
6
CONTINUOUS
10
85.8415409999999923
20
-198.3008039999999994
11
85.9653500000000008
21
-198.3627089999999953
0
LINE
8
BLACK
6
CONTINUOUS
10
85.9653500000000008
20
-198.3627089999999953
11
86.0272549999999967
21
-198.4246139999999912
0
LINE
8
BLACK
6
CONTINUOUS
10
86.0272549999999967
20
-198.4246139999999912
11
86.0891599999999926
21
-198.5484229999999854
0
LINE
8
BLACK
6
CONTINUOUS
10
86.0891599999999926
20
-198.5484229999999854
11
86.0891599999999926
21
-198.6722329999999772
0
LINE
8
BLACK
6
CONTINUOUS
10
86.0891599999999926
20
-198.6722329999999772
11
86.0272549999999967
21
-198.8579469999999958
0
LINE
8
BLACK
6
CONTINUOUS
10
86.0272549999999967
20
-198.8579469999999958
11
85.2843979999999959
21
-199.6008039999999824
0
LINE
8
BLACK
6
CONTINUOUS
10
85.2843979999999959
20
-199.6008039999999824
11
86.0891599999999926
21
-199.6008039999999824
0
LINE
8
BLACK
6
CONTINUOUS
10
135.2843979999999817
20
-198.3008039999999994
11
136.0891599999999926
21
-198.3008039999999994
0
LINE
8
BLACK
6
CONTINUOUS
10
136.0891599999999926
20
-198.3008039999999994
11
135.6558259999999905
21
-198.7960419999999999
0
LINE
8
BLACK
6
CONTINUOUS
10
135.6558259999999905
20
-198.7960419999999999
11
135.8415410000000065
21
-198.7960419999999999
0
LINE
8
BLACK
6
CONTINUOUS
10
135.8415410000000065
20
-198.7960419999999999
11
135.9653500000000008
21
-198.8579469999999958
0
LINE
8
BLACK
6
CONTINUOUS
10
135.9653500000000008
20
-198.8579469999999958
11
136.0272549999999967
21
-198.9198519999999917
0
LINE
8
BLACK
6
CONTINUOUS
10
136.0272549999999967
20
-198.9198519999999917
11
136.0891599999999926
21
-199.043660999999986
0
LINE
8
BLACK
6
CONTINUOUS
10
136.0891599999999926
20
-199.043660999999986
11
136.0891599999999926
21
-199.3531849999999963
0
LINE
8
BLACK
6
CONTINUOUS
10
136.0891599999999926
20
-199.3531849999999963
11
136.0272549999999967
21
-199.4769949999999881
0
LINE
8
BLACK
6
CONTINUOUS
10
136.0272549999999967
20
-199.4769949999999881
11
135.9653500000000008
21
-199.5388999999999839
0
LINE
8
BLACK
6
CONTINUOUS
10
135.9653500000000008
20
-199.5388999999999839
11
135.8415410000000065
21
-199.6008039999999824
0
LINE
8
BLACK
6
CONTINUOUS
10
135.8415410000000065
20
-199.6008039999999824
11
135.4701120000000003
21
-199.6008039999999824
0
LINE
8
BLACK
6
CONTINUOUS
10
135.4701120000000003
20
-199.6008039999999824
11
135.346303000000006
21
-199.5388999999999839
0
LINE
8
BLACK
6
CONTINUOUS
10
135.346303000000006
20
-199.5388999999999839
11
135.2843979999999817
21
-199.4769949999999881
0
LINE
8
BLACK
6
CONTINUOUS
10
185.9653500000000008
20
-198.7341380000000015
11
185.9653500000000008
21
-199.6008039999999824
0
LINE
8
BLACK
6
CONTINUOUS
10
185.6558259999999905
20
-198.238900000000001
11
185.3463029999999776
21
-199.1674709999999777
0
LINE
8
BLACK
6
CONTINUOUS
10
185.3463029999999776
20
-199.1674709999999777
11
186.151063999999991
21
-199.1674709999999777
0
LINE
8
BLACK
6
CONTINUOUS
10
236.0272549999999967
20
-198.3008039999999994
11
235.408206999999976
21
-198.3008039999999994
0
LINE
8
BLACK
6
CONTINUOUS
10
235.408206999999976
20
-198.3008039999999994
11
235.3463029999999776
21
-198.9198519999999917
0
LINE
8
BLACK
6
CONTINUOUS
10
235.3463029999999776
20
-198.9198519999999917
11
235.408206999999976
21
-198.8579469999999958
0
LINE
8
BLACK
6
CONTINUOUS
10
235.408206999999976
20
-198.8579469999999958
11
235.5320169999999962
21
-198.7960419999999999
0
LINE
8
BLACK
6
CONTINUOUS
10
235.5320169999999962
20
-198.7960419999999999
11
235.8415409999999781
21
-198.7960419999999999
0
LINE
8
BLACK
6
CONTINUOUS
10
235.8415409999999781
20
-198.7960419999999999
11
235.9653500000000008
21
-198.8579469999999958
0
LINE
8
BLACK
6
CONTINUOUS
10
235.9653500000000008
20
-198.8579469999999958
11
236.0272549999999967
21
-198.9198519999999917
0
LINE
8
BLACK
6
CONTINUOUS
10
236.0272549999999967
20
-198.9198519999999917
11
236.0891599999999926
21
-199.043660999999986
0
LINE
8
BLACK
6
CONTINUOUS
10
236.0891599999999926
20
-199.043660999999986
11
236.0891599999999926
21
-199.3531849999999963
0
LINE
8
BLACK
6
CONTINUOUS
10
236.0891599999999926
20
-199.3531849999999963
11
236.0272549999999967
21
-199.4769949999999881
0
LINE
8
BLACK
6
CONTINUOUS
10
236.0272549999999967
20
-199.4769949999999881
11
235.9653500000000008
21
-199.5388999999999839
0
LINE
8
BLACK
6
CONTINUOUS
10
235.9653500000000008
20
-199.5388999999999839
11
235.8415409999999781
21
-199.6008039999999824
0
LINE
8
BLACK
6
CONTINUOUS
10
235.8415409999999781
20
-199.6008039999999824
11
235.5320169999999962
21
-199.6008039999999824
0
LINE
8
BLACK
6
CONTINUOUS
10
235.5320169999999962
20
-199.6008039999999824
11
235.408206999999976
21
-199.5388999999999839
0
LINE
8
BLACK
6
CONTINUOUS
10
235.408206999999976
20
-199.5388999999999839
11
235.3463029999999776
21
-199.4769949999999881
0
LINE
8
BLACK
6
CONTINUOUS
10
285.9653500000000008
20
-198.3008039999999994
11
285.7177310000000148
21
-198.3008039999999994
0
LINE
8
BLACK
6
CONTINUOUS
10
285.7177310000000148
20
-198.3008039999999994
11
285.5939219999999636
21
-198.3627089999999953
0
LINE
8
BLACK
6
CONTINUOUS
10
285.5939219999999636
20
-198.3627089999999953
11
285.5320169999999962
21
-198.4246139999999912
0
LINE
8
BLACK
6
CONTINUOUS
10
285.5320169999999962
20
-198.4246139999999912
11
285.4082070000000044
21
-198.6103279999999813
0
LINE
8
BLACK
6
CONTINUOUS
10
285.4082070000000044
20
-198.6103279999999813
11
285.3463029999999776
21
-198.8579469999999958
0
LINE
8
BLACK
6
CONTINUOUS
10
285.3463029999999776
20
-198.8579469999999958
11
285.3463029999999776
21
-199.3531849999999963
0
LINE
8
BLACK
6
CONTINUOUS
10
285.3463029999999776
20
-199.3531849999999963
11
285.4082070000000044
21
-199.4769949999999881
0
LINE
8
BLACK
6
CONTINUOUS
10
285.4082070000000044
20
-199.4769949999999881
11
285.4701119999999719
21
-199.5388999999999839
0
LINE
8
BLACK
6
CONTINUOUS
10
285.4701119999999719
20
-199.5388999999999839
11
285.5939219999999636
21
-199.6008039999999824
0
LINE
8
BLACK
6
CONTINUOUS
10
285.5939219999999636
20
-199.6008039999999824
11
285.8415410000000065
21
-199.6008039999999824
0
LINE
8
BLACK
6
CONTINUOUS
10
285.8415410000000065
20
-199.6008039999999824
11
285.9653500000000008
21
-199.5388999999999839
0
LINE
8
BLACK
6
CONTINUOUS
10
285.9653500000000008
20
-199.5388999999999839
11
286.0272549999999683
21
-199.4769949999999881
0
LINE
8
BLACK
6
CONTINUOUS
10
286.0272549999999683
20
-199.4769949999999881
11
286.0891599999999926
21
-199.3531849999999963
0
LINE
8
BLACK
6
CONTINUOUS
10
286.0891599999999926
20
-199.3531849999999963
11
286.0891599999999926
21
-199.043660999999986
0
LINE
8
BLACK
6
CONTINUOUS
10
286.0891599999999926
20
-199.043660999999986
11
286.0272549999999683
21
-198.9198519999999917
0
LINE
8
BLACK
6
CONTINUOUS
10
286.0272549999999683
20
-198.9198519999999917
11
285.9653500000000008
21
-198.8579469999999958
0
LINE
8
BLACK
6
CONTINUOUS
10
285.9653500000000008
20
-198.8579469999999958
11
285.8415410000000065
21
-198.7960419999999999
0
LINE
8
BLACK
6
CONTINUOUS
10
285.8415410000000065
20
-198.7960419999999999
11
285.5939219999999636
21
-198.7960419999999999
0
LINE
8
BLACK
6
CONTINUOUS
10
285.5939219999999636
20
-198.7960419999999999
11
285.4701119999999719
21
-198.8579469999999958
0
LINE
8
BLACK
6
CONTINUOUS
10
285.4701119999999719
20
-198.8579469999999958
11
285.4082070000000044
21
-198.9198519999999917
0
LINE
8
BLACK
6
CONTINUOUS
10
285.4082070000000044
20
-198.9198519999999917
11
285.3463029999999776
21
-199.043660999999986
0
LINE
8
BLACK
6
CONTINUOUS
10
10.
20
-60.
11
12.
21
-60.
0
LINE
8
BLACK
6
CONTINUOUS
10
10.
20
-110.
11
12.
21
-110.
0
LINE
8
BLACK
6
CONTINUOUS
10
10.
20
-160.
11
12.
21
-160.
0
LINE
8
BLACK
6
CONTINUOUS
10
10.6904760000000003
20
-35.2221759999999975
11
11.3095229999999987
21
-35.2221759999999975
0
LINE
8
BLACK
6
CONTINUOUS
10
10.5666659999999997
20
-35.5936039999999991
11
10.999998999999999
21
-34.293604000000002
0
LINE
8
BLACK
6
CONTINUOUS
10
10.999998999999999
20
-34.293604000000002
11
11.4333329999999993
21
-35.5936039999999991
0
LINE
8
BLACK
6
CONTINUOUS
10
11.0928569999999986
20
-84.9126519999999942
11
11.2785709999999995
21
-84.9745569999999901
0
LINE
8
BLACK
6
CONTINUOUS
10
11.2785709999999995
20
-84.9745569999999901
11
11.3404759999999989
21
-85.0364610000000027
0
LINE
8
BLACK
6
CONTINUOUS
10
11.3404759999999989
20
-85.0364610000000027
11
11.4023799999999991
21
-85.1602709999999945
0
LINE
8
BLACK
6
CONTINUOUS
10
11.4023799999999991
20
-85.1602709999999945
11
11.4023799999999991
21
-85.3459849999999989
0
LINE
8
BLACK
6
CONTINUOUS
10
11.4023799999999991
20
-85.3459849999999989
11
11.3404759999999989
21
-85.4697949999999906
0
LINE
8
BLACK
6
CONTINUOUS
10
11.3404759999999989
20
-85.4697949999999906
11
11.2785709999999995
21
-85.5317000000000007
0
LINE
8
BLACK
6
CONTINUOUS
10
11.2785709999999995
20
-85.5317000000000007
11
11.1547609999999988
21
-85.5936039999999991
0
LINE
8
BLACK
6
CONTINUOUS
10
11.1547609999999988
20
-85.5936039999999991
11
10.6595230000000001
21
-85.5936039999999991
0
LINE
8
BLACK
6
CONTINUOUS
10
10.6595230000000001
20
-85.5936039999999991
11
10.6595230000000001
21
-84.293604000000002
0
LINE
8
BLACK
6
CONTINUOUS
10
10.6595230000000001
20
-84.293604000000002
11
11.0928569999999986
21
-84.293604000000002
0
LINE
8
BLACK
6
CONTINUOUS
10
11.0928569999999986
20
-84.293604000000002
11
11.216666
21
-84.3555089999999979
0
LINE
8
BLACK
6
CONTINUOUS
10
11.216666
20
-84.3555089999999979
11
11.2785709999999995
21
-84.4174139999999937
0
LINE
8
BLACK
6
CONTINUOUS
10
11.2785709999999995
20
-84.4174139999999937
11
11.3404759999999989
21
-84.5412230000000022
0
LINE
8
BLACK
6
CONTINUOUS
10
11.3404759999999989
20
-84.5412230000000022
11
11.3404759999999989
21
-84.665032999999994
0
LINE
8
BLACK
6
CONTINUOUS
10
11.3404759999999989
20
-84.665032999999994
11
11.2785709999999995
21
-84.7888420000000025
0
LINE
8
BLACK
6
CONTINUOUS
10
11.2785709999999995
20
-84.7888420000000025
11
11.216666
21
-84.8507469999999984
0
LINE
8
BLACK
6
CONTINUOUS
10
11.216666
20
-84.8507469999999984
11
11.0928569999999986
21
-84.9126519999999942
0
LINE
8
BLACK
6
CONTINUOUS
10
11.0928569999999986
20
-84.9126519999999942
11
10.6595230000000001
21
-84.9126519999999942
0
LINE
8
BLACK
6
CONTINUOUS
10
11.4023799999999991
20
-135.4697950000000048
11
11.3404759999999989
21
-135.5317000000000007
0
LINE
8
BLACK
6
CONTINUOUS
10
11.3404759999999989
20
-135.5317000000000007
11
11.1547609999999988
21
-135.5936039999999991
0
LINE
8
BLACK
6
CONTINUOUS
10
11.1547609999999988
20
-135.5936039999999991
11
11.0309519999999992
21
-135.5936039999999991
0
LINE
8
BLACK
6
CONTINUOUS
10
11.0309519999999992
20
-135.5936039999999991
11
10.8452380000000002
21
-135.5317000000000007
0
LINE
8
BLACK
6
CONTINUOUS
10
10.8452380000000002
20
-135.5317000000000007
11
10.7214279999999995
21
-135.4078899999999805
0
LINE
8
BLACK
6
CONTINUOUS
10
10.7214279999999995
20
-135.4078899999999805
11
10.6595230000000001
21
-135.2840799999999888
0
LINE
8
BLACK
6
CONTINUOUS
10
10.6595230000000001
20
-135.2840799999999888
11
10.5976189999999999
21
-135.0364610000000027
0
LINE
8
BLACK
6
CONTINUOUS
10
10.5976189999999999
20
-135.0364610000000027
11
10.5976189999999999
21
-134.8507469999999842
0
LINE
8
BLACK
6
CONTINUOUS
10
10.5976189999999999
20
-134.8507469999999842
11
10.6595230000000001
21
-134.6031279999999981
0
LINE
8
BLACK
6
CONTINUOUS
10
10.6595230000000001
20
-134.6031279999999981
11
10.7214279999999995
21
-134.4793190000000038
0
LINE
8
BLACK
6
CONTINUOUS
10
10.7214279999999995
20
-134.4793190000000038
11
10.8452380000000002
21
-134.3555089999999836
0
LINE
8
BLACK
6
CONTINUOUS
10
10.8452380000000002
20
-134.3555089999999836
11
11.0309519999999992
21
-134.2936039999999878
0
LINE
8
BLACK
6
CONTINUOUS
10
11.0309519999999992
20
-134.2936039999999878
11
11.1547609999999988
21
-134.2936039999999878
0
LINE
8
BLACK
6
CONTINUOUS
10
11.1547609999999988
20
-134.2936039999999878
11
11.3404759999999989
21
-134.3555089999999836
0
LINE
8
BLACK
6
CONTINUOUS
10
11.3404759999999989
20
-134.3555089999999836
11
11.4023799999999991
21
-134.4174140000000079
0
LINE
8
BLACK
6
CONTINUOUS
10
10.6595230000000001
20
-185.5936039999999991
11
10.6595230000000001
21
-184.2936039999999878
0
LINE
8
BLACK
6
CONTINUOUS
10
10.6595230000000001
20
-184.2936039999999878
11
10.9690469999999998
21
-184.2936039999999878
0
LINE
8
BLACK
6
CONTINUOUS
10
10.9690469999999998
20
-184.2936039999999878
11
11.1547609999999988
21
-184.3555089999999836
0
LINE
8
BLACK
6
CONTINUOUS
10
11.1547609999999988
20
-184.3555089999999836
11
11.2785709999999995
21
-184.4793190000000038
0
LINE
8
BLACK
6
CONTINUOUS
10
11.2785709999999995
20
-184.4793190000000038
11
11.3404759999999989
21
-184.6031279999999981
0
LINE
8
BLACK
6
CONTINUOUS
10
11.3404759999999989
20
-184.6031279999999981
11
11.4023799999999991
21
-184.8507469999999842
0
LINE
8
BLACK
6
CONTINUOUS
10
11.4023799999999991
20
-184.8507469999999842
11
11.4023799999999991
21
-185.0364610000000027
0
LINE
8
BLACK
6
CONTINUOUS
10
11.4023799999999991
20
-185.0364610000000027
11
11.3404759999999989
21
-185.2840799999999888
0
LINE
8
BLACK
6
CONTINUOUS
10
11.3404759999999989
20
-185.2840799999999888
11
11.2785709999999995
21
-185.4078899999999805
0
LINE
8
BLACK
6
CONTINUOUS
10
11.2785709999999995
20
-185.4078899999999805
11
11.1547609999999988
21
-185.5317000000000007
0
LINE
8
BLACK
6
CONTINUOUS
10
11.1547609999999988
20
-185.5317000000000007
11
10.9690469999999998
21
-185.5936039999999991
0
LINE
8
BLACK
6
CONTINUOUS
10
10.9690469999999998
20
-185.5936039999999991
11
10.6595230000000001
21
-185.5936039999999991
0
LINE
8
BLACK
6
CONTINUOUS
10
287.0021999999999593
20
-60.
11
285.0021999999999593
21
-60.
0
LINE
8
BLACK
6
CONTINUOUS
10
287.0021999999999593
20
-110.
11
285.0021999999999593
21
-110.
0
LINE
8
BLACK
6
CONTINUOUS
10
287.0021999999999593
20
-160.
11
285.0021999999999593
21
-160.
0
LINE
8
BLACK
6
CONTINUOUS
10
285.6926760000000058
20
-35.2221759999999975
11
286.3117229999999722
21
-35.2221759999999975
0
LINE
8
BLACK
6
CONTINUOUS
10
285.5688660000000141
20
-35.5936039999999991
11
286.0021989999999619
21
-34.293604000000002
0
LINE
8
BLACK
6
CONTINUOUS
10
286.0021989999999619
20
-34.293604000000002
11
286.435532999999964
21
-35.5936039999999991
0
LINE
8
BLACK
6
CONTINUOUS
10
286.0950569999999971
20
-84.9126519999999942
11
286.2807709999999588
21
-84.9745569999999901
0
LINE
8
BLACK
6
CONTINUOUS
10
286.2807709999999588
20
-84.9745569999999901
11
286.3426759999999831
21
-85.0364610000000027
0
LINE
8
BLACK
6
CONTINUOUS
10
286.3426759999999831
20
-85.0364610000000027
11
286.4045800000000099
21
-85.1602709999999945
0
LINE
8
BLACK
6
CONTINUOUS
10
286.4045800000000099
20
-85.1602709999999945
11
286.4045800000000099
21
-85.3459849999999989
0
LINE
8
BLACK
6
CONTINUOUS
10
286.4045800000000099
20
-85.3459849999999989
11
286.3426759999999831
21
-85.4697949999999906
0
LINE
8
BLACK
6
CONTINUOUS
10
286.3426759999999831
20
-85.4697949999999906
11
286.2807709999999588
21
-85.5317000000000007
0
LINE
8
BLACK
6
CONTINUOUS
10
286.2807709999999588
20
-85.5317000000000007
11
286.156960999999967
21
-85.5936039999999991
0
LINE
8
BLACK
6
CONTINUOUS
10
286.156960999999967
20
-85.5936039999999991
11
285.661722999999995
21
-85.5936039999999991
0
LINE
8
BLACK
6
CONTINUOUS
10
285.661722999999995
20
-85.5936039999999991
11
285.661722999999995
21
-84.293604000000002
0
LINE
8
BLACK
6
CONTINUOUS
10
285.661722999999995
20
-84.293604000000002
11
286.0950569999999971
21
-84.293604000000002
0
LINE
8
BLACK
6
CONTINUOUS
10
286.0950569999999971
20
-84.293604000000002
11
286.2188659999999913
21
-84.3555089999999979
0
LINE
8
BLACK
6
CONTINUOUS
10
286.2188659999999913
20
-84.3555089999999979
11
286.2807709999999588
21
-84.4174139999999937
0
LINE
8
BLACK
6
CONTINUOUS
10
286.2807709999999588
20
-84.4174139999999937
11
286.3426759999999831
21
-84.5412230000000022
0
LINE
8
BLACK
6
CONTINUOUS
10
286.3426759999999831
20
-84.5412230000000022
11
286.3426759999999831
21
-84.665032999999994
0
LINE
8
BLACK
6
CONTINUOUS
10
286.3426759999999831
20
-84.665032999999994
11
286.2807709999999588
21
-84.7888420000000025
0
LINE
8
BLACK
6
CONTINUOUS
10
286.2807709999999588
20
-84.7888420000000025
11
286.2188659999999913
21
-84.8507469999999984
0
LINE
8
BLACK
6
CONTINUOUS
10
286.2188659999999913
20
-84.8507469999999984
11
286.0950569999999971
21
-84.9126519999999942
0
LINE
8
BLACK
6
CONTINUOUS
10
286.0950569999999971
20
-84.9126519999999942
11
285.661722999999995
21
-84.9126519999999942
0
LINE
8
BLACK
6
CONTINUOUS
10
286.4045800000000099
20
-135.4697950000000048
11
286.3426759999999831
21
-135.5317000000000007
0
LINE
8
BLACK
6
CONTINUOUS
10
286.3426759999999831
20
-135.5317000000000007
11
286.156960999999967
21
-135.5936039999999991
0
LINE
8
BLACK
6
CONTINUOUS
10
286.156960999999967
20
-135.5936039999999991
11
286.0331519999999728
21
-135.5936039999999991
0
LINE
8
BLACK
6
CONTINUOUS
10
286.0331519999999728
20
-135.5936039999999991
11
285.847438000000011
21
-135.5317000000000007
0
LINE
8
BLACK
6
CONTINUOUS
10
285.847438000000011
20
-135.5317000000000007
11
285.7236279999999624
21
-135.4078899999999805
0
LINE
8
BLACK
6
CONTINUOUS
10
285.7236279999999624
20
-135.4078899999999805
11
285.661722999999995
21
-135.2840799999999888
0
LINE
8
BLACK
6
CONTINUOUS
10
285.661722999999995
20
-135.2840799999999888
11
285.5998189999999681
21
-135.0364610000000027
0
LINE
8
BLACK
6
CONTINUOUS
10
285.5998189999999681
20
-135.0364610000000027
11
285.5998189999999681
21
-134.8507469999999842
0
LINE
8
BLACK
6
CONTINUOUS
10
285.5998189999999681
20
-134.8507469999999842
11
285.661722999999995
21
-134.6031279999999981
0
LINE
8
BLACK
6
CONTINUOUS
10
285.661722999999995
20
-134.6031279999999981
11
285.7236279999999624
21
-134.4793190000000038
0
LINE
8
BLACK
6
CONTINUOUS
10
285.7236279999999624
20
-134.4793190000000038
11
285.847438000000011
21
-134.3555089999999836
0
LINE
8
BLACK
6
CONTINUOUS
10
285.847438000000011
20
-134.3555089999999836
11
286.0331519999999728
21
-134.2936039999999878
0
LINE
8
BLACK
6
CONTINUOUS
10
286.0331519999999728
20
-134.2936039999999878
11
286.156960999999967
21
-134.2936039999999878
0
LINE
8
BLACK
6
CONTINUOUS
10
286.156960999999967
20
-134.2936039999999878
11
286.3426759999999831
21
-134.3555089999999836
0
LINE
8
BLACK
6
CONTINUOUS
10
286.3426759999999831
20
-134.3555089999999836
11
286.4045800000000099
21
-134.4174140000000079
0
LINE
8
BLACK
6
CONTINUOUS
10
285.661722999999995
20
-185.5936039999999991
11
285.661722999999995
21
-184.2936039999999878
0
LINE
8
BLACK
6
CONTINUOUS
10
285.661722999999995
20
-184.2936039999999878
11
285.9712470000000053
21
-184.2936039999999878
0
LINE
8
BLACK
6
CONTINUOUS
10
285.9712470000000053
20
-184.2936039999999878
11
286.156960999999967
21
-184.3555089999999836
0
LINE
8
BLACK
6
CONTINUOUS
10
286.156960999999967
20
-184.3555089999999836
11
286.2807709999999588
21
-184.4793190000000038
0
LINE
8
BLACK
6
CONTINUOUS
10
286.2807709999999588
20
-184.4793190000000038
11
286.3426759999999831
21
-184.6031279999999981
0
LINE
8
BLACK
6
CONTINUOUS
10
286.3426759999999831
20
-184.6031279999999981
11
286.4045800000000099
21
-184.8507469999999842
0
LINE
8
BLACK
6
CONTINUOUS
10
286.4045800000000099
20
-184.8507469999999842
11
286.4045800000000099
21
-185.0364610000000027
0
LINE
8
BLACK
6
CONTINUOUS
10
286.4045800000000099
20
-185.0364610000000027
11
286.3426759999999831
21
-185.2840799999999888
0
LINE
8
BLACK
6
CONTINUOUS
10
286.3426759999999831
20
-185.2840799999999888
11
286.2807709999999588
21
-185.4078899999999805
0
LINE
8
BLACK
6
CONTINUOUS
10
286.2807709999999588
20
-185.4078899999999805
11
286.156960999999967
21
-185.5317000000000007
0
LINE
8
BLACK
6
CONTINUOUS
10
286.156960999999967
20
-185.5317000000000007
11
285.9712470000000053
21
-185.5936039999999991
0
LINE
8
BLACK
6
CONTINUOUS
10
285.9712470000000053
20
-185.5936039999999991
11
285.661722999999995
21
-185.5936039999999991
0
LINE
8
BLACK
6
CONTINUOUS
10
200.4580259999999896
20
-193.7933280000000025
11
200.4580259999999896
21
-192.2933280000000025
0
LINE
8
BLACK
6
CONTINUOUS
10
200.4580259999999896
20
-192.2933280000000025
11
200.8151689999999974
21
-192.2933280000000025
0
LINE
8
BLACK
6
CONTINUOUS
10
200.8151689999999974
20
-192.2933280000000025
11
201.0294549999999845
21
-192.3647569999999973
0
LINE
8
BLACK
6
CONTINUOUS
10
201.0294549999999845
20
-192.3647569999999973
11
201.1723119999999767
21
-192.5076139999999896
0
LINE
8
BLACK
6
CONTINUOUS
10
201.1723119999999767
20
-192.5076139999999896
11
201.243741
21
-192.6504709999999818
0
LINE
8
BLACK
6
CONTINUOUS
10
201.243741
20
-192.6504709999999818
11
201.3151689999999974
21
-192.9361849999999947
0
LINE
8
BLACK
6
CONTINUOUS
10
201.3151689999999974
20
-192.9361849999999947
11
201.3151689999999974
21
-193.1504709999999818
0
LINE
8
BLACK
6
CONTINUOUS
10
201.3151689999999974
20
-193.1504709999999818
11
201.243741
21
-193.4361849999999947
0
LINE
8
BLACK
6
CONTINUOUS
10
201.243741
20
-193.4361849999999947
11
201.1723119999999767
21
-193.579041999999987
0
LINE
8
BLACK
6
CONTINUOUS
10
201.1723119999999767
20
-193.579041999999987
11
201.0294549999999845
21
-193.7219000000000051
0
LINE
8
BLACK
6
CONTINUOUS
10
201.0294549999999845
20
-193.7219000000000051
11
200.8151689999999974
21
-193.7933280000000025
0
LINE
8
BLACK
6
CONTINUOUS
10
200.8151689999999974
20
-193.7933280000000025
11
200.4580259999999896
21
-193.7933280000000025
0
LINE
8
BLACK
6
CONTINUOUS
10
202.6008839999999793
20
-193.7933280000000025
11
202.6008839999999793
21
-193.0076139999999896
0
LINE
8
BLACK
6
CONTINUOUS
10
202.6008839999999793
20
-193.0076139999999896
11
202.5294549999999845
21
-192.8647569999999973
0
LINE
8
BLACK
6
CONTINUOUS
10
202.5294549999999845
20
-192.8647569999999973
11
202.3865979999999922
21
-192.7933280000000025
0
LINE
8
BLACK
6
CONTINUOUS
10
202.3865979999999922
20
-192.7933280000000025
11
202.1008839999999793
21
-192.7933280000000025
0
LINE
8
BLACK
6
CONTINUOUS
10
202.1008839999999793
20
-192.7933280000000025
11
201.9580259999999896
21
-192.8647569999999973
0
LINE
8
BLACK
6
CONTINUOUS
10
202.6008839999999793
20
-193.7219000000000051
11
202.4580259999999896
21
-193.7933280000000025
0
LINE
8
BLACK
6
CONTINUOUS
10
202.4580259999999896
20
-193.7933280000000025
11
202.1008839999999793
21
-193.7933280000000025
0
LINE
8
BLACK
6
CONTINUOUS
10
202.1008839999999793
20
-193.7933280000000025
11
201.9580259999999896
21
-193.7219000000000051
0
LINE
8
BLACK
6
CONTINUOUS
10
201.9580259999999896
20
-193.7219000000000051
11
201.8865979999999922
21
-193.579041999999987
0
LINE
8
BLACK
6
CONTINUOUS
10
201.8865979999999922
20
-193.579041999999987
11
201.8865979999999922
21
-193.4361849999999947
0
LINE
8
BLACK
6
CONTINUOUS
10
201.8865979999999922
20
-193.4361849999999947
11
201.9580259999999896
21
-193.2933280000000025
0
LINE
8
BLACK
6
CONTINUOUS
10
201.9580259999999896
20
-193.2933280000000025
11
202.1008839999999793
21
-193.2219000000000051
0
LINE
8
BLACK
6
CONTINUOUS
10
202.1008839999999793
20
-193.2219000000000051
11
202.4580259999999896
21
-193.2219000000000051
0
LINE
8
BLACK
6
CONTINUOUS
10
202.4580259999999896
20
-193.2219000000000051
11
202.6008839999999793
21
-193.1504709999999818
0
LINE
8
BLACK
6
CONTINUOUS
10
203.1008839999999793
20
-192.7933280000000025
11
203.6723119999999767
21
-192.7933280000000025
0
LINE
8
BLACK
6
CONTINUOUS
10
203.3151689999999974
20
-192.2933280000000025
11
203.3151689999999974
21
-193.579041999999987
0
LINE
8
BLACK
6
CONTINUOUS
10
203.3151689999999974
20
-193.579041999999987
11
203.3865979999999922
21
-193.7219000000000051
0
LINE
8
BLACK
6
CONTINUOUS
10
203.3865979999999922
20
-193.7219000000000051
11
203.5294549999999845
21
-193.7933280000000025
0
LINE
8
BLACK
6
CONTINUOUS
10
203.5294549999999845
20
-193.7933280000000025
11
203.6723119999999767
21
-193.7933280000000025
0
LINE
8
BLACK
6
CONTINUOUS
10
204.743741
20
-193.7219000000000051
11
204.6008839999999793
21
-193.7933280000000025
0
LINE
8
BLACK
6
CONTINUOUS
10
204.6008839999999793
20
-193.7933280000000025
11
204.3151699999999948
21
-193.7933280000000025
0
LINE
8
BLACK
6
CONTINUOUS
10
204.3151699999999948
20
-193.7933280000000025
11
204.1723119999999767
21
-193.7219000000000051
0
LINE
8
BLACK
6
CONTINUOUS
10
204.1723119999999767
20
-193.7219000000000051
11
204.1008839999999793
21
-193.579041999999987
0
LINE
8
BLACK
6
CONTINUOUS
10
204.1008839999999793
20
-193.579041999999987
11
204.1008839999999793
21
-193.0076139999999896
0
LINE
8
BLACK
6
CONTINUOUS
10
204.1008839999999793
20
-193.0076139999999896
11
204.1723119999999767
21
-192.8647569999999973
0
LINE
8
BLACK
6
CONTINUOUS
10
204.1723119999999767
20
-192.8647569999999973
11
204.3151699999999948
21
-192.7933280000000025
0
LINE
8
BLACK
6
CONTINUOUS
10
204.3151699999999948
20
-192.7933280000000025
11
204.6008839999999793
21
-192.7933280000000025
0
LINE
8
BLACK
6
CONTINUOUS
10
204.6008839999999793
20
-192.7933280000000025
11
204.743741
21
-192.8647569999999973
0
LINE
8
BLACK
6
CONTINUOUS
10
204.743741
20
-192.8647569999999973
11
204.8151699999999948
21
-193.0076139999999896
0
LINE
8
BLACK
6
CONTINUOUS
10
204.8151699999999948
20
-193.0076139999999896
11
204.8151699999999948
21
-193.1504709999999818
0
LINE
8
BLACK
6
CONTINUOUS
10
204.8151699999999948
20
-193.1504709999999818
11
204.1008839999999793
21
-193.2933280000000025
0
LINE
8
BLACK
6
CONTINUOUS
10
205.4580259999999896
20
-193.6504709999999818
11
205.5294549999999845
21
-193.7219000000000051
0
LINE
8
BLACK
6
CONTINUOUS
10
205.5294549999999845
20
-193.7219000000000051
11
205.4580259999999896
21
-193.7933280000000025
0
LINE
8
BLACK
6
CONTINUOUS
10
205.4580259999999896
20
-193.7933280000000025
11
205.3865979999999922
21
-193.7219000000000051
0
LINE
8
BLACK
6
CONTINUOUS
10
205.3865979999999922
20
-193.7219000000000051
11
205.4580259999999896
21
-193.6504709999999818
0
LINE
8
BLACK
6
CONTINUOUS
10
205.4580259999999896
20
-193.6504709999999818
11
205.4580259999999896
21
-193.7933280000000025
0
LINE
8
BLACK
6
CONTINUOUS
10
205.4580259999999896
20
-192.8647569999999973
11
205.5294549999999845
21
-192.9361849999999947
0
LINE
8
BLACK
6
CONTINUOUS
10
205.5294549999999845
20
-192.9361849999999947
11
205.4580259999999896
21
-193.0076139999999896
0
LINE
8
BLACK
6
CONTINUOUS
10
205.4580259999999896
20
-193.0076139999999896
11
205.3865979999999922
21
-192.9361849999999947
0
LINE
8
BLACK
6
CONTINUOUS
10
205.3865979999999922
20
-192.9361849999999947
11
205.4580259999999896
21
-192.8647569999999973
0
LINE
8
BLACK
6
CONTINUOUS
10
205.4580259999999896
20
-192.8647569999999973
11
205.4580259999999896
21
-193.0076139999999896
0
LINE
8
BLACK
6
CONTINUOUS
10
177.0021999999999878
20
-194.5071999999999832
11
285.0021999999999593
21
-194.5071999999999832
0
LINE
8
BLACK
6
CONTINUOUS
10
178.4580259999999896
20
-196.5933279999999854
11
178.4580259999999896
21
-195.0933279999999854
0
LINE
8
BLACK
6
CONTINUOUS
10
179.3151689999999974
20
-196.5933279999999854
11
178.6723120000000051
21
-195.7361849999999777
0
LINE
8
BLACK
6
CONTINUOUS
10
179.3151689999999974
20
-195.0933279999999854
11
178.4580259999999896
21
-195.9504709999999932
0
LINE
8
BLACK
6
CONTINUOUS
10
179.9580259999999896
20
-196.5933279999999854
11
179.9580259999999896
21
-195.5933279999999854
0
LINE
8
BLACK
6
CONTINUOUS
10
179.9580259999999896
20
-195.0933279999999854
11
179.8865979999999922
21
-195.1647569999999803
0
LINE
8
BLACK
6
CONTINUOUS
10
179.8865979999999922
20
-195.1647569999999803
11
179.9580259999999896
21
-195.2361849999999777
0
LINE
8
BLACK
6
CONTINUOUS
10
179.9580259999999896
20
-195.2361849999999777
11
180.0294549999999845
21
-195.1647569999999803
0
LINE
8
BLACK
6
CONTINUOUS
10
180.0294549999999845
20
-195.1647569999999803
11
179.9580259999999896
21
-195.0933279999999854
0
LINE
8
BLACK
6
CONTINUOUS
10
179.9580259999999896
20
-195.0933279999999854
11
179.9580259999999896
21
-195.2361849999999777
0
LINE
8
BLACK
6
CONTINUOUS
10
181.5294549999999845
20
-196.4504709999999932
11
181.4580269999999871
21
-196.521899999999988
0
LINE
8
BLACK
6
CONTINUOUS
10
181.4580269999999871
20
-196.521899999999988
11
181.243741
21
-196.5933279999999854
0
LINE
8
BLACK
6
CONTINUOUS
10
181.243741
20
-196.5933279999999854
11
181.1008839999999793
21
-196.5933279999999854
0
LINE
8
BLACK
6
CONTINUOUS
10
181.1008839999999793
20
-196.5933279999999854
11
180.8865979999999922
21
-196.521899999999988
0
LINE
8
BLACK
6
CONTINUOUS
10
180.8865979999999922
20
-196.521899999999988
11
180.743741
21
-196.3790419999999983
0
LINE
8
BLACK
6
CONTINUOUS
10
180.743741
20
-196.3790419999999983
11
180.6723120000000051
21
-196.2361849999999777
0
LINE
8
BLACK
6
CONTINUOUS
10
180.6723120000000051
20
-196.2361849999999777
11
180.6008839999999793
21
-195.9504709999999932
0
LINE
8
BLACK
6
CONTINUOUS
10
180.6008839999999793
20
-195.9504709999999932
11
180.6008839999999793
21
-195.7361849999999777
0
LINE
8
BLACK
6
CONTINUOUS
10
180.6008839999999793
20
-195.7361849999999777
11
180.6723120000000051
21
-195.4504709999999932
0
LINE
8
BLACK
6
CONTINUOUS
10
180.6723120000000051
20
-195.4504709999999932
11
180.743741
21
-195.3076140000000009
0
LINE
8
BLACK
6
CONTINUOUS
10
180.743741
20
-195.3076140000000009
11
180.8865979999999922
21
-195.1647569999999803
0
LINE
8
BLACK
6
CONTINUOUS
10
180.8865979999999922
20
-195.1647569999999803
11
181.1008839999999793
21
-195.0933279999999854
0
LINE
8
BLACK
6
CONTINUOUS
10
181.1008839999999793
20
-195.0933279999999854
11
181.243741
21
-195.0933279999999854
0
LINE
8
BLACK
6
CONTINUOUS
10
181.243741
20
-195.0933279999999854
11
181.4580269999999871
21
-195.1647569999999803
0
LINE
8
BLACK
6
CONTINUOUS
10
181.4580269999999871
20
-195.1647569999999803
11
181.5294549999999845
21
-195.2361849999999777
0
LINE
8
BLACK
6
CONTINUOUS
10
182.8151699999999948
20
-196.5933279999999854
11
182.8151699999999948
21
-195.8076140000000009
0
LINE
8
BLACK
6
CONTINUOUS
10
182.8151699999999948
20
-195.8076140000000009
11
182.743741
21
-195.6647569999999803
0
LINE
8
BLACK
6
CONTINUOUS
10
182.743741
20
-195.6647569999999803
11
182.6008839999999793
21
-195.5933279999999854
0
LINE
8
BLACK
6
CONTINUOUS
10
182.6008839999999793
20
-195.5933279999999854
11
182.3151699999999948
21
-195.5933279999999854
0
LINE
8
BLACK
6
CONTINUOUS
10
182.3151699999999948
20
-195.5933279999999854
11
182.1723120000000051
21
-195.6647569999999803
0
LINE
8
BLACK
6
CONTINUOUS
10
182.8151699999999948
20
-196.521899999999988
11
182.6723120000000051
21
-196.5933279999999854
0
LINE
8
BLACK
6
CONTINUOUS
10
182.6723120000000051
20
-196.5933279999999854
11
182.3151699999999948
21
-196.5933279999999854
0
LINE
8
BLACK
6
CONTINUOUS
10
182.3151699999999948
20
-196.5933279999999854
11
182.1723120000000051
21
-196.521899999999988
0
LINE
8
BLACK
6
CONTINUOUS
10
182.1723120000000051
20
-196.521899999999988
11
182.1008839999999793
21
-196.3790419999999983
0
LINE
8
BLACK
6
CONTINUOUS
10
182.1008839999999793
20
-196.3790419999999983
11
182.1008839999999793
21
-196.2361849999999777
0
LINE
8
BLACK
6
CONTINUOUS
10
182.1008839999999793
20
-196.2361849999999777
11
182.1723120000000051
21
-196.0933279999999854
0
LINE
8
BLACK
6
CONTINUOUS
10
182.1723120000000051
20
-196.0933279999999854
11
182.3151699999999948
21
-196.021899999999988
0
LINE
8
BLACK
6
CONTINUOUS
10
182.3151699999999948
20
-196.021899999999988
11
182.6723120000000051
21
-196.021899999999988
0
LINE
8
BLACK
6
CONTINUOUS
10
182.6723120000000051
20
-196.021899999999988
11
182.8151699999999948
21
-195.9504709999999932
0
LINE
8
BLACK
6
CONTINUOUS
10
184.1723130000000026
20
-196.5933279999999854
11
184.1723130000000026
21
-195.0933279999999854
0
LINE
8
BLACK
6
CONTINUOUS
10
184.1723130000000026
20
-196.521899999999988
11
184.0294549999999845
21
-196.5933279999999854
0
LINE
8
BLACK
6
CONTINUOUS
10
184.0294549999999845
20
-196.5933279999999854
11
183.743741
21
-196.5933279999999854
0
LINE
8
BLACK
6
CONTINUOUS
10
183.743741
20
-196.5933279999999854
11
183.6008839999999793
21
-196.521899999999988
0
LINE
8
BLACK
6
CONTINUOUS
10
183.6008839999999793
20
-196.521899999999988
11
183.5294549999999845
21
-196.4504709999999932
0
LINE
8
BLACK
6
CONTINUOUS
10
183.5294549999999845
20
-196.4504709999999932
11
183.4580269999999871
21
-196.3076140000000009
0
LINE
8
BLACK
6
CONTINUOUS
10
183.4580269999999871
20
-196.3076140000000009
11
183.4580269999999871
21
-195.8790419999999983
0
LINE
8
BLACK
6
CONTINUOUS
10
183.4580269999999871
20
-195.8790419999999983
11
183.5294549999999845
21
-195.7361849999999777
0
LINE
8
BLACK
6
CONTINUOUS
10
183.5294549999999845
20
-195.7361849999999777
11
183.6008839999999793
21
-195.6647569999999803
0
LINE
8
BLACK
6
CONTINUOUS
10
183.6008839999999793
20
-195.6647569999999803
11
183.743741
21
-195.5933279999999854
0
LINE
8
BLACK
6
CONTINUOUS
10
183.743741
20
-195.5933279999999854
11
184.0294549999999845
21
-195.5933279999999854
0
LINE
8
BLACK
6
CONTINUOUS
10
184.0294549999999845
20
-195.5933279999999854
11
184.1723130000000026
21
-195.6647569999999803
0
LINE
8
BLACK
6
CONTINUOUS
10
186.0294549999999845
20
-195.8076140000000009
11
186.5294549999999845
21
-195.8076140000000009
0
LINE
8
BLACK
6
CONTINUOUS
10
186.743741
20
-196.5933279999999854
11
186.0294549999999845
21
-196.5933279999999854
0
LINE
8
BLACK
6
CONTINUOUS
10
186.0294549999999845
20
-196.5933279999999854
11
186.0294549999999845
21
-195.0933279999999854
0
LINE
8
BLACK
6
CONTINUOUS
10
186.0294549999999845
20
-195.0933279999999854
11
186.743741
21
-195.0933279999999854
0
LINE
8
BLACK
6
CONTINUOUS
10
187.3865979999999922
20
-196.4504709999999932
11
187.4580269999999871
21
-196.521899999999988
0
LINE
8
BLACK
6
CONTINUOUS
10
187.4580269999999871
20
-196.521899999999988
11
187.3865979999999922
21
-196.5933279999999854
0
LINE
8
BLACK
6
CONTINUOUS
10
187.3865979999999922
20
-196.5933279999999854
11
187.3151699999999948
21
-196.521899999999988
0
LINE
8
BLACK
6
CONTINUOUS
10
187.3151699999999948
20
-196.521899999999988
11
187.3865979999999922
21
-196.4504709999999932
0
LINE
8
BLACK
6
CONTINUOUS
10
187.3865979999999922
20
-196.4504709999999932
11
187.3865979999999922
21
-196.5933279999999854
0
LINE
8
BLACK
6
CONTINUOUS
10
188.1008839999999793
20
-196.5933279999999854
11
188.1008839999999793
21
-195.0933279999999854
0
LINE
8
BLACK
6
CONTINUOUS
10
188.1008839999999793
20
-195.0933279999999854
11
188.4580269999999871
21
-195.0933279999999854
0
LINE
8
BLACK
6
CONTINUOUS
10
188.4580269999999871
20
-195.0933279999999854
11
188.6723130000000026
21
-195.1647569999999803
0
LINE
8
BLACK
6
CONTINUOUS
10
188.6723130000000026
20
-195.1647569999999803
11
188.8151699999999948
21
-195.3076140000000009
0
LINE
8
BLACK
6
CONTINUOUS
10
188.8151699999999948
20
-195.3076140000000009
11
188.8865989999999897
21
-195.4504709999999932
0
LINE
8
BLACK
6
CONTINUOUS
10
188.8865989999999897
20
-195.4504709999999932
11
188.9580269999999871
21
-195.7361849999999777
0
LINE
8
BLACK
6
CONTINUOUS
10
188.9580269999999871
20
-195.7361849999999777
11
188.9580269999999871
21
-195.9504709999999932
0
LINE
8
BLACK
6
CONTINUOUS
10
188.9580269999999871
20
-195.9504709999999932
11
188.8865989999999897
21
-196.2361849999999777
0
LINE
8
BLACK
6
CONTINUOUS
10
188.8865989999999897
20
-196.2361849999999777
11
188.8151699999999948
21
-196.3790419999999983
0
LINE
8
BLACK
6
CONTINUOUS
10
188.8151699999999948
20
-196.3790419999999983
11
188.6723130000000026
21
-196.521899999999988
0
LINE
8
BLACK
6
CONTINUOUS
10
188.6723130000000026
20
-196.521899999999988
11
188.4580269999999871
21
-196.5933279999999854
0
LINE
8
BLACK
6
CONTINUOUS
10
188.4580269999999871
20
-196.5933279999999854
11
188.1008839999999793
21
-196.5933279999999854
0
LINE
8
BLACK
6
CONTINUOUS
10
189.6008839999999793
20
-196.4504709999999932
11
189.6723130000000026
21
-196.521899999999988
0
LINE
8
BLACK
6
CONTINUOUS
10
189.6723130000000026
20
-196.521899999999988
11
189.6008839999999793
21
-196.5933279999999854
0
LINE
8
BLACK
6
CONTINUOUS
10
189.6008839999999793
20
-196.5933279999999854
11
189.5294559999999819
21
-196.521899999999988
0
LINE
8
BLACK
6
CONTINUOUS
10
189.5294559999999819
20
-196.521899999999988
11
189.6008839999999793
21
-196.4504709999999932
0
LINE
8
BLACK
6
CONTINUOUS
10
189.6008839999999793
20
-196.4504709999999932
11
189.6008839999999793
21
-196.5933279999999854
0
LINE
8
BLACK
6
CONTINUOUS
10
190.2437419999999975
20
-196.1647569999999803
11
190.9580279999999846
21
-196.1647569999999803
0
LINE
8
BLACK
6
CONTINUOUS
10
190.1008850000000052
20
-196.5933279999999854
11
190.6008850000000052
21
-195.0933279999999854
0
LINE
8
BLACK
6
CONTINUOUS
10
190.6008850000000052
20
-195.0933279999999854
11
191.1008850000000052
21
-196.5933279999999854
0
LINE
8
BLACK
6
CONTINUOUS
10
191.6008839999999793
20
-196.4504709999999932
11
191.6723130000000026
21
-196.521899999999988
0
LINE
8
BLACK
6
CONTINUOUS
10
191.6723130000000026
20
-196.521899999999988
11
191.6008839999999793
21
-196.5933279999999854
0
LINE
8
BLACK
6
CONTINUOUS
10
191.6008839999999793
20
-196.5933279999999854
11
191.5294559999999819
21
-196.521899999999988
0
LINE
8
BLACK
6
CONTINUOUS
10
191.5294559999999819
20
-196.521899999999988
11
191.6008839999999793
21
-196.4504709999999932
0
LINE
8
BLACK
6
CONTINUOUS
10
191.6008839999999793
20
-196.4504709999999932
11
191.6008839999999793
21
-196.5933279999999854
0
LINE
8
BLACK
6
CONTINUOUS
10
194.6008839999999793
20
-196.5933279999999854
11
194.6008839999999793
21
-195.0933279999999854
0
LINE
8
BLACK
6
CONTINUOUS
10
194.7437419999999975
20
-196.021899999999988
11
195.1723130000000026
21
-196.5933279999999854
0
LINE
8
BLACK
6
CONTINUOUS
10
195.1723130000000026
20
-195.5933279999999854
11
194.6008839999999793
21
-196.1647569999999803
0
LINE
8
BLACK
6
CONTINUOUS
10
195.8151699999999948
20
-196.5933279999999854
11
195.8151699999999948
21
-195.5933279999999854
0
LINE
8
BLACK
6
CONTINUOUS
10
195.8151699999999948
20
-195.0933279999999854
11
195.7437419999999975
21
-195.1647569999999803
0
LINE
8
BLACK
6
CONTINUOUS
10
195.7437419999999975
20
-195.1647569999999803
11
195.8151699999999948
21
-195.2361849999999777
0
LINE
8
BLACK
6
CONTINUOUS
10
195.8151699999999948
20
-195.2361849999999777
11
195.8865989999999897
21
-195.1647569999999803
0
LINE
8
BLACK
6
CONTINUOUS
10
195.8865989999999897
20
-195.1647569999999803
11
195.8151699999999948
21
-195.0933279999999854
0
LINE
8
BLACK
6
CONTINUOUS
10
195.8151699999999948
20
-195.0933279999999854
11
195.8151699999999948
21
-195.2361849999999777
0
LINE
8
BLACK
6
CONTINUOUS
10
197.1723140000000001
20
-196.521899999999988
11
197.0294559999999819
21
-196.5933279999999854
0
LINE
8
BLACK
6
CONTINUOUS
10
197.0294559999999819
20
-196.5933279999999854
11
196.7437419999999975
21
-196.5933279999999854
0
LINE
8
BLACK
6
CONTINUOUS
10
196.7437419999999975
20
-196.5933279999999854
11
196.6008850000000052
21
-196.521899999999988
0
LINE
8
BLACK
6
CONTINUOUS
10
196.6008850000000052
20
-196.521899999999988
11
196.5294559999999819
21
-196.4504709999999932
0
LINE
8
BLACK
6
CONTINUOUS
10
196.5294559999999819
20
-196.4504709999999932
11
196.4580279999999846
21
-196.3076140000000009
0
LINE
8
BLACK
6
CONTINUOUS
10
196.4580279999999846
20
-196.3076140000000009
11
196.4580279999999846
21
-195.8790419999999983
0
LINE
8
BLACK
6
CONTINUOUS
10
196.4580279999999846
20
-195.8790419999999983
11
196.5294559999999819
21
-195.7361849999999777
0
LINE
8
BLACK
6
CONTINUOUS
10
196.5294559999999819
20
-195.7361849999999777
11
196.6008850000000052
21
-195.6647569999999803
0
LINE
8
BLACK
6
CONTINUOUS
10
196.6008850000000052
20
-195.6647569999999803
11
196.7437419999999975
21
-195.5933279999999854
0
LINE
8
BLACK
6
CONTINUOUS
10
196.7437419999999975
20
-195.5933279999999854
11
197.0294559999999819
21
-195.5933279999999854
0
LINE
8
BLACK
6
CONTINUOUS
10
197.0294559999999819
20
-195.5933279999999854
11
197.1723140000000001
21
-195.6647569999999803
0
LINE
8
BLACK
6
CONTINUOUS
10
198.4580279999999846
20
-196.5933279999999854
11
198.4580279999999846
21
-195.8076140000000009
0
LINE
8
BLACK
6
CONTINUOUS
10
198.4580279999999846
20
-195.8076140000000009
11
198.3865989999999897
21
-195.6647569999999803
0
LINE
8
BLACK
6
CONTINUOUS
10
198.3865989999999897
20
-195.6647569999999803
11
198.2437419999999975
21
-195.5933279999999854
0
LINE
8
BLACK
6
CONTINUOUS
10
198.2437419999999975
20
-195.5933279999999854
11
197.9580279999999846
21
-195.5933279999999854
0
LINE
8
BLACK
6
CONTINUOUS
10
197.9580279999999846
20
-195.5933279999999854
11
197.8151699999999948
21
-195.6647569999999803
0
LINE
8
BLACK
6
CONTINUOUS
10
198.4580279999999846
20
-196.521899999999988
11
198.3151699999999948
21
-196.5933279999999854
0
LINE
8
BLACK
6
CONTINUOUS
10
198.3151699999999948
20
-196.5933279999999854
11
197.9580279999999846
21
-196.5933279999999854
0
LINE
8
BLACK
6
CONTINUOUS
10
197.9580279999999846
20
-196.5933279999999854
11
197.8151699999999948
21
-196.521899999999988
0
LINE
8
BLACK
6
CONTINUOUS
10
197.8151699999999948
20
-196.521899999999988
11
197.7437419999999975
21
-196.3790419999999983
0
LINE
8
BLACK
6
CONTINUOUS
10
197.7437419999999975
20
-196.3790419999999983
11
197.7437419999999975
21
-196.2361849999999777
0
LINE
8
BLACK
6
CONTINUOUS
10
197.7437419999999975
20
-196.2361849999999777
11
197.8151699999999948
21
-196.0933279999999854
0
LINE
8
BLACK
6
CONTINUOUS
10
197.8151699999999948
20
-196.0933279999999854
11
197.9580279999999846
21
-196.021899999999988
0
LINE
8
BLACK
6
CONTINUOUS
10
197.9580279999999846
20
-196.021899999999988
11
198.3151699999999948
21
-196.021899999999988
0
LINE
8
BLACK
6
CONTINUOUS
10
198.3151699999999948
20
-196.021899999999988
11
198.4580279999999846
21
-195.9504709999999932
0
LINE
8
BLACK
6
CONTINUOUS
10
199.8151709999999923
20
-196.5933279999999854
11
199.8151709999999923
21
-195.0933279999999854
0
LINE
8
BLACK
6
CONTINUOUS
10
199.8151709999999923
20
-196.521899999999988
11
199.6723130000000026
21
-196.5933279999999854
0
LINE
8
BLACK
6
CONTINUOUS
10
199.6723130000000026
20
-196.5933279999999854
11
199.3865989999999897
21
-196.5933279999999854
0
LINE
8
BLACK
6
CONTINUOUS
10
199.3865989999999897
20
-196.5933279999999854
11
199.2437419999999975
21
-196.521899999999988
0
LINE
8
BLACK
6
CONTINUOUS
10
199.2437419999999975
20
-196.521899999999988
11
199.1723130000000026
21
-196.4504709999999932
0
LINE
8
BLACK
6
CONTINUOUS
10
199.1723130000000026
20
-196.4504709999999932
11
199.1008849999999768
21
-196.3076140000000009
0
LINE
8
BLACK
6
CONTINUOUS
10
199.1008849999999768
20
-196.3076140000000009
11
199.1008849999999768
21
-195.8790419999999983
0
LINE
8
BLACK
6
CONTINUOUS
10
199.1008849999999768
20
-195.8790419999999983
11
199.1723130000000026
21
-195.7361849999999777
0
LINE
8
BLACK
6
CONTINUOUS
10
199.1723130000000026
20
-195.7361849999999777
11
199.2437419999999975
21
-195.6647569999999803
0
LINE
8
BLACK
6
CONTINUOUS
10
199.2437419999999975
20
-195.6647569999999803
11
199.3865989999999897
21
-195.5933279999999854
0
LINE
8
BLACK
6
CONTINUOUS
10
199.3865989999999897
20
-195.5933279999999854
11
199.6723130000000026
21
-195.5933279999999854
0
LINE
8
BLACK
6
CONTINUOUS
10
199.6723130000000026
20
-195.5933279999999854
11
199.8151709999999923
21
-195.6647569999999803
0
LINE
8
BLACK
6
CONTINUOUS
10
201.5294559999999819
20
-195.0933279999999854
11
202.5294559999999819
21
-195.0933279999999854
0
LINE
8
BLACK
6
CONTINUOUS
10
202.5294559999999819
20
-195.0933279999999854
11
201.8865989999999897
21
-196.5933279999999854
0
LINE
8
BLACK
6
CONTINUOUS
10
203.1008839999999793
20
-196.4504709999999932
11
203.1723130000000026
21
-196.521899999999988
0
LINE
8
BLACK
6
CONTINUOUS
10
203.1723130000000026
20
-196.521899999999988
11
203.1008839999999793
21
-196.5933279999999854
0
LINE
8
BLACK
6
CONTINUOUS
10
203.1008839999999793
20
-196.5933279999999854
11
203.0294559999999819
21
-196.521899999999988
0
LINE
8
BLACK
6
CONTINUOUS
10
203.0294559999999819
20
-196.521899999999988
11
203.1008839999999793
21
-196.4504709999999932
0
LINE
8
BLACK
6
CONTINUOUS
10
203.1008839999999793
20
-196.4504709999999932
11
203.1008839999999793
21
-196.5933279999999854
0
LINE
8
BLACK
6
CONTINUOUS
10
204.1008849999999768
20
-195.0933279999999854
11
204.2437419999999975
21
-195.0933279999999854
0
LINE
8
BLACK
6
CONTINUOUS
10
204.2437419999999975
20
-195.0933279999999854
11
204.3865989999999897
21
-195.1647569999999803
0
LINE
8
BLACK
6
CONTINUOUS
10
204.3865989999999897
20
-195.1647569999999803
11
204.4580279999999846
21
-195.2361849999999777
0
LINE
8
BLACK
6
CONTINUOUS
10
204.4580279999999846
20
-195.2361849999999777
11
204.5294559999999819
21
-195.3790419999999983
0
LINE
8
BLACK
6
CONTINUOUS
10
204.5294559999999819
20
-195.3790419999999983
11
204.6008849999999768
21
-195.6647569999999803
0
LINE
8
BLACK
6
CONTINUOUS
10
204.6008849999999768
20
-195.6647569999999803
11
204.6008849999999768
21
-196.021899999999988
0
LINE
8
BLACK
6
CONTINUOUS
10
204.6008849999999768
20
-196.021899999999988
11
204.5294559999999819
21
-196.3076140000000009
0
LINE
8
BLACK
6
CONTINUOUS
10
204.5294559999999819
20
-196.3076140000000009
11
204.4580279999999846
21
-196.4504709999999932
0
LINE
8
BLACK
6
CONTINUOUS
10
204.4580279999999846
20
-196.4504709999999932
11
204.3865989999999897
21
-196.521899999999988
0
LINE
8
BLACK
6
CONTINUOUS
10
204.3865989999999897
20
-196.521899999999988
11
204.2437419999999975
21
-196.5933279999999854
0
LINE
8
BLACK
6
CONTINUOUS
10
204.2437419999999975
20
-196.5933279999999854
11
204.1008849999999768
21
-196.5933279999999854
0
LINE
8
BLACK
6
CONTINUOUS
10
204.1008849999999768
20
-196.5933279999999854
11
203.9580279999999846
21
-196.521899999999988
0
LINE
8
BLACK
6
CONTINUOUS
10
203.9580279999999846
20
-196.521899999999988
11
203.8865989999999897
21
-196.4504709999999932
0
LINE
8
BLACK
6
CONTINUOUS
10
203.8865989999999897
20
-196.4504709999999932
11
203.8151699999999948
21
-196.3076140000000009
0
LINE
8
BLACK
6
CONTINUOUS
10
203.8151699999999948
20
-196.3076140000000009
11
203.7437419999999975
21
-196.021899999999988
0
LINE
8
BLACK
6
CONTINUOUS
10
203.7437419999999975
20
-196.021899999999988
11
203.7437419999999975
21
-195.6647569999999803
0
LINE
8
BLACK
6
CONTINUOUS
10
203.7437419999999975
20
-195.6647569999999803
11
203.8151699999999948
21
-195.3790419999999983
0
LINE
8
BLACK
6
CONTINUOUS
10
203.8151699999999948
20
-195.3790419999999983
11
203.8865989999999897
21
-195.2361849999999777
0
LINE
8
BLACK
6
CONTINUOUS
10
203.8865989999999897
20
-195.2361849999999777
11
203.9580279999999846
21
-195.1647569999999803
0
LINE
8
BLACK
6
CONTINUOUS
10
203.9580279999999846
20
-195.1647569999999803
11
204.1008849999999768
21
-195.0933279999999854
0
LINE
8
BLACK
6
CONTINUOUS
10
205.243741
20
-196.4504709999999932
11
205.3151699999999948
21
-196.521899999999988
0
LINE
8
BLACK
6
CONTINUOUS
10
205.3151699999999948
20
-196.521899999999988
11
205.243741
21
-196.5933279999999854
0
LINE
8
BLACK
6
CONTINUOUS
10
205.243741
20
-196.5933279999999854
11
205.1723130000000026
21
-196.521899999999988
0
LINE
8
BLACK
6
CONTINUOUS
10
205.1723130000000026
20
-196.521899999999988
11
205.243741
21
-196.4504709999999932
0
LINE
8
BLACK
6
CONTINUOUS
10
205.243741
20
-196.4504709999999932
11
205.243741
21
-196.5933279999999854
0
LINE
8
BLACK
6
CONTINUOUS
10
206.7437419999999975
20
-196.5933279999999854
11
205.8865989999999897
21
-196.5933279999999854
0
LINE
8
BLACK
6
CONTINUOUS
10
206.3151699999999948
20
-196.5933279999999854
11
206.3151699999999948
21
-195.0933279999999854
0
LINE
8
BLACK
6
CONTINUOUS
10
206.3151699999999948
20
-195.0933279999999854
11
206.1723130000000026
21
-195.3076140000000009
0
LINE
8
BLACK
6
CONTINUOUS
10
206.1723130000000026
20
-195.3076140000000009
11
206.0294559999999819
21
-195.4504709999999932
0
LINE
8
BLACK
6
CONTINUOUS
10
206.0294559999999819
20
-195.4504709999999932
11
205.8865989999999897
21
-195.521899999999988
0
LINE
8
BLACK
6
CONTINUOUS
10
207.6723130000000026
20
-195.0933279999999854
11
207.8151699999999948
21
-195.0933279999999854
0
LINE
8
BLACK
6
CONTINUOUS
10
207.8151699999999948
20
-195.0933279999999854
11
207.9580269999999871
21
-195.1647569999999803
0
LINE
8
BLACK
6
CONTINUOUS
10
207.9580269999999871
20
-195.1647569999999803
11
208.0294559999999819
21
-195.2361849999999777
0
LINE
8
BLACK
6
CONTINUOUS
10
208.0294559999999819
20
-195.2361849999999777
11
208.1008839999999793
21
-195.3790419999999983
0
LINE
8
BLACK
6
CONTINUOUS
10
208.1008839999999793
20
-195.3790419999999983
11
208.1723130000000026
21
-195.6647569999999803
0
LINE
8
BLACK
6
CONTINUOUS
10
208.1723130000000026
20
-195.6647569999999803
11
208.1723130000000026
21
-196.021899999999988
0
LINE
8
BLACK
6
CONTINUOUS
10
208.1723130000000026
20
-196.021899999999988
11
208.1008839999999793
21
-196.3076140000000009
0
LINE
8
BLACK
6
CONTINUOUS
10
208.1008839999999793
20
-196.3076140000000009
11
208.0294559999999819
21
-196.4504709999999932
0
LINE
8
BLACK
6
CONTINUOUS
10
208.0294559999999819
20
-196.4504709999999932
11
207.9580269999999871
21
-196.521899999999988
0
LINE
8
BLACK
6
CONTINUOUS
10
207.9580269999999871
20
-196.521899999999988
11
207.8151699999999948
21
-196.5933279999999854
0
LINE
8
BLACK
6
CONTINUOUS
10
207.8151699999999948
20
-196.5933279999999854
11
207.6723130000000026
21
-196.5933279999999854
0
LINE
8
BLACK
6
CONTINUOUS
10
207.6723130000000026
20
-196.5933279999999854
11
207.5294559999999819
21
-196.521899999999988
0
LINE
8
BLACK
6
CONTINUOUS
10
207.5294559999999819
20
-196.521899999999988
11
207.4580269999999871
21
-196.4504709999999932
0
LINE
8
BLACK
6
CONTINUOUS
10
207.4580269999999871
20
-196.4504709999999932
11
207.3865979999999922
21
-196.3076140000000009
0
LINE
8
BLACK
6
CONTINUOUS
10
207.3865979999999922
20
-196.3076140000000009
11
207.3151699999999948
21
-196.021899999999988
0
LINE
8
BLACK
6
CONTINUOUS
10
207.3151699999999948
20
-196.021899999999988
11
207.3151699999999948
21
-195.6647569999999803
0
LINE
8
BLACK
6
CONTINUOUS
10
207.3151699999999948
20
-195.6647569999999803
11
207.3865979999999922
21
-195.3790419999999983
0
LINE
8
BLACK
6
CONTINUOUS
10
207.3865979999999922
20
-195.3790419999999983
11
207.4580269999999871
21
-195.2361849999999777
0
LINE
8
BLACK
6
CONTINUOUS
10
207.4580269999999871
20
-195.2361849999999777
11
207.5294559999999819
21
-195.1647569999999803
0
LINE
8
BLACK
6
CONTINUOUS
10
207.5294559999999819
20
-195.1647569999999803
11
207.6723130000000026
21
-195.0933279999999854
0
LINE
8
BLACK
6
CONTINUOUS
10
177.0021999999999878
20
-191.5071999999999832
11
285.0021999999999593
21
-191.5071999999999832
0
LINE
8
BLACK
6
CONTINUOUS
10
264.4138529999999605
20
-193.7855279999999993
11
263.9138529999999605
21
-193.0712419999999838
0
LINE
8
BLACK
6
CONTINUOUS
10
263.5567100000000096
20
-193.7855279999999993
11
263.5567100000000096
21
-192.2855279999999993
0
LINE
8
BLACK
6
CONTINUOUS
10
263.5567100000000096
20
-192.2855279999999993
11
264.128138999999976
21
-192.2855279999999993
0
LINE
8
BLACK
6
CONTINUOUS
10
264.128138999999976
20
-192.2855279999999993
11
264.2709959999999683
21
-192.3569569999999942
0
LINE
8
BLACK
6
CONTINUOUS
10
264.2709959999999683
20
-192.3569569999999942
11
264.3424249999999915
21
-192.4283849999999916
0
LINE
8
BLACK
6
CONTINUOUS
10
264.3424249999999915
20
-192.4283849999999916
11
264.4138529999999605
21
-192.5712419999999838
0
LINE
8
BLACK
6
CONTINUOUS
10
264.4138529999999605
20
-192.5712419999999838
11
264.4138529999999605
21
-192.7855279999999993
0
LINE
8
BLACK
6
CONTINUOUS
10
264.4138529999999605
20
-192.7855279999999993
11
264.3424249999999915
21
-192.9283849999999916
0
LINE
8
BLACK
6
CONTINUOUS
10
264.3424249999999915
20
-192.9283849999999916
11
264.2709959999999683
21
-192.9998139999999864
0
LINE
8
BLACK
6
CONTINUOUS
10
264.2709959999999683
20
-192.9998139999999864
11
264.128138999999976
21
-193.0712419999999838
0
LINE
8
BLACK
6
CONTINUOUS
10
264.128138999999976
20
-193.0712419999999838
11
263.5567100000000096
21
-193.0712419999999838
0
LINE
8
BLACK
6
CONTINUOUS
10
265.628138999999976
20
-193.714100000000002
11
265.4852819999999838
21
-193.7855279999999993
0
LINE
8
BLACK
6
CONTINUOUS
10
265.4852819999999838
20
-193.7855279999999993
11
265.1995679999999993
21
-193.7855279999999993
0
LINE
8
BLACK
6
CONTINUOUS
10
265.1995679999999993
20
-193.7855279999999993
11
265.0567100000000096
21
-193.714100000000002
0
LINE
8
BLACK
6
CONTINUOUS
10
265.0567100000000096
20
-193.714100000000002
11
264.9852819999999838
21
-193.5712419999999838
0
LINE
8
BLACK
6
CONTINUOUS
10
264.9852819999999838
20
-193.5712419999999838
11
264.9852819999999838
21
-192.9998139999999864
0
LINE
8
BLACK
6
CONTINUOUS
10
264.9852819999999838
20
-192.9998139999999864
11
265.0567100000000096
21
-192.8569569999999942
0
LINE
8
BLACK
6
CONTINUOUS
10
265.0567100000000096
20
-192.8569569999999942
11
265.1995679999999993
21
-192.7855279999999993
0
LINE
8
BLACK
6
CONTINUOUS
10
265.1995679999999993
20
-192.7855279999999993
11
265.4852819999999838
21
-192.7855279999999993
0
LINE
8
BLACK
6
CONTINUOUS
10
265.4852819999999838
20
-192.7855279999999993
11
265.628138999999976
21
-192.8569569999999942
0
LINE
8
BLACK
6
CONTINUOUS
10
265.628138999999976
20
-192.8569569999999942
11
265.6995679999999993
21
-192.9998139999999864
0
LINE
8
BLACK
6
CONTINUOUS
10
265.6995679999999993
20
-192.9998139999999864
11
265.6995679999999993
21
-193.1426709999999787
0
LINE
8
BLACK
6
CONTINUOUS
10
265.6995679999999993
20
-193.1426709999999787
11
264.9852819999999838
21
-193.2855279999999993
0
LINE
8
BLACK
6
CONTINUOUS
10
266.1995670000000018
20
-192.7855279999999993
11
266.5567100000000096
21
-193.7855279999999993
0
LINE
8
BLACK
6
CONTINUOUS
10
266.5567100000000096
20
-193.7855279999999993
11
266.9138529999999605
21
-192.7855279999999993
0
LINE
8
BLACK
6
CONTINUOUS
10
267.4852809999999863
20
-193.6426709999999787
11
267.5567100000000096
21
-193.714100000000002
0
LINE
8
BLACK
6
CONTINUOUS
10
267.5567100000000096
20
-193.714100000000002
11
267.4852809999999863
21
-193.7855279999999993
0
LINE
8
BLACK
6
CONTINUOUS
10
267.4852809999999863
20
-193.7855279999999993
11
267.4138529999999605
21
-193.714100000000002
0
LINE
8
BLACK
6
CONTINUOUS
10
267.4138529999999605
20
-193.714100000000002
11
267.4852809999999863
21
-193.6426709999999787
0
LINE
8
BLACK
6
CONTINUOUS
10
267.4852809999999863
20
-193.6426709999999787
11
267.4852809999999863
21
-193.7855279999999993
0
LINE
8
BLACK
6
CONTINUOUS
10
267.4852809999999863
20
-192.8569569999999942
11
267.5567100000000096
21
-192.9283849999999916
0
LINE
8
BLACK
6
CONTINUOUS
10
267.5567100000000096
20
-192.9283849999999916
11
267.4852809999999863
21
-192.9998139999999864
0
LINE
8
BLACK
6
CONTINUOUS
10
267.4852809999999863
20
-192.9998139999999864
11
267.4138529999999605
21
-192.9283849999999916
0
LINE
8
BLACK
6
CONTINUOUS
10
267.4138529999999605
20
-192.9283849999999916
11
267.4852809999999863
21
-192.8569569999999942
0
LINE
8
BLACK
6
CONTINUOUS
10
267.4852809999999863
20
-192.8569569999999942
11
267.4852809999999863
21
-192.9998139999999864
0
LINE
8
BLACK
6
CONTINUOUS
10
178.3865979999999922
20
-193.7219000000000051
11
178.6008839999999793
21
-193.7933280000000025
0
LINE
8
BLACK
6
CONTINUOUS
10
178.6008839999999793
20
-193.7933280000000025
11
178.9580259999999896
21
-193.7933280000000025
0
LINE
8
BLACK
6
CONTINUOUS
10
178.9580259999999896
20
-193.7933280000000025
11
179.1008839999999793
21
-193.7219000000000051
0
LINE
8
BLACK
6
CONTINUOUS
10
179.1008839999999793
20
-193.7219000000000051
11
179.1723120000000051
21
-193.6504709999999818
0
LINE
8
BLACK
6
CONTINUOUS
10
179.1723120000000051
20
-193.6504709999999818
11
179.243741
21
-193.5076139999999896
0
LINE
8
BLACK
6
CONTINUOUS
10
179.243741
20
-193.5076139999999896
11
179.243741
21
-193.3647569999999973
0
LINE
8
BLACK
6
CONTINUOUS
10
179.243741
20
-193.3647569999999973
11
179.1723120000000051
21
-193.2219000000000051
0
LINE
8
BLACK
6
CONTINUOUS
10
179.1723120000000051
20
-193.2219000000000051
11
179.1008839999999793
21
-193.1504709999999818
0
LINE
8
BLACK
6
CONTINUOUS
10
179.1008839999999793
20
-193.1504709999999818
11
178.9580259999999896
21
-193.079041999999987
0
LINE
8
BLACK
6
CONTINUOUS
10
178.9580259999999896
20
-193.079041999999987
11
178.6723120000000051
21
-193.0076139999999896
0
LINE
8
BLACK
6
CONTINUOUS
10
178.6723120000000051
20
-193.0076139999999896
11
178.5294549999999845
21
-192.9361849999999947
0
LINE
8
BLACK
6
CONTINUOUS
10
178.5294549999999845
20
-192.9361849999999947
11
178.4580259999999896
21
-192.8647569999999973
0
LINE
8
BLACK
6
CONTINUOUS
10
178.4580259999999896
20
-192.8647569999999973
11
178.3865979999999922
21
-192.7219000000000051
0
LINE
8
BLACK
6
CONTINUOUS
10
178.3865979999999922
20
-192.7219000000000051
11
178.3865979999999922
21
-192.579041999999987
0
LINE
8
BLACK
6
CONTINUOUS
10
178.3865979999999922
20
-192.579041999999987
11
178.4580259999999896
21
-192.4361849999999947
0
LINE
8
BLACK
6
CONTINUOUS
10
178.4580259999999896
20
-192.4361849999999947
11
178.5294549999999845
21
-192.3647569999999973
0
LINE
8
BLACK
6
CONTINUOUS
10
178.5294549999999845
20
-192.3647569999999973
11
178.6723120000000051
21
-192.2933280000000025
0
LINE
8
BLACK
6
CONTINUOUS
10
178.6723120000000051
20
-192.2933280000000025
11
179.0294549999999845
21
-192.2933280000000025
0
LINE
8
BLACK
6
CONTINUOUS
10
179.0294549999999845
20
-192.2933280000000025
11
179.243741
21
-192.3647569999999973
0
LINE
8
BLACK
6
CONTINUOUS
10
179.8865969999999948
20
-193.7933280000000025
11
179.8865969999999948
21
-192.7933280000000025
0
LINE
8
BLACK
6
CONTINUOUS
10
179.8865969999999948
20
-192.2933280000000025
11
179.8151689999999974
21
-192.3647569999999973
0
LINE
8
BLACK
6
CONTINUOUS
10
179.8151689999999974
20
-192.3647569999999973
11
179.8865969999999948
21
-192.4361849999999947
0
LINE
8
BLACK
6
CONTINUOUS
10
179.8865969999999948
20
-192.4361849999999947
11
179.9580259999999896
21
-192.3647569999999973
0
LINE
8
BLACK
6
CONTINUOUS
10
179.9580259999999896
20
-192.3647569999999973
11
179.8865969999999948
21
-192.2933280000000025
0
LINE
8
BLACK
6
CONTINUOUS
10
179.8865969999999948
20
-192.2933280000000025
11
179.8865969999999948
21
-192.4361849999999947
0
LINE
8
BLACK
6
CONTINUOUS
10
180.4580259999999896
20
-192.7933280000000025
11
181.243741
21
-192.7933280000000025
0
LINE
8
BLACK
6
CONTINUOUS
10
181.243741
20
-192.7933280000000025
11
180.4580259999999896
21
-193.7933280000000025
0
LINE
8
BLACK
6
CONTINUOUS
10
180.4580259999999896
20
-193.7933280000000025
11
181.243741
21
-193.7933280000000025
0
LINE
8
BLACK
6
CONTINUOUS
10
182.3865979999999922
20
-193.7219000000000051
11
182.243741
21
-193.7933280000000025
0
LINE
8
BLACK
6
CONTINUOUS
10
182.243741
20
-193.7933280000000025
11
181.9580269999999871
21
-193.7933280000000025
0
LINE
8
BLACK
6
CONTINUOUS
10
181.9580269999999871
20
-193.7933280000000025
11
181.8151689999999974
21
-193.7219000000000051
0
LINE
8
BLACK
6
CONTINUOUS
10
181.8151689999999974
20
-193.7219000000000051
11
181.743741
21
-193.579041999999987
0
LINE
8
BLACK
6
CONTINUOUS
10
181.743741
20
-193.579041999999987
11
181.743741
21
-193.0076139999999896
0
LINE
8
BLACK
6
CONTINUOUS
10
181.743741
20
-193.0076139999999896
11
181.8151689999999974
21
-192.8647569999999973
0
LINE
8
BLACK
6
CONTINUOUS
10
181.8151689999999974
20
-192.8647569999999973
11
181.9580269999999871
21
-192.7933280000000025
0
LINE
8
BLACK
6
CONTINUOUS
10
181.9580269999999871
20
-192.7933280000000025
11
182.243741
21
-192.7933280000000025
0
LINE
8
BLACK
6
CONTINUOUS
10
182.243741
20
-192.7933280000000025
11
182.3865979999999922
21
-192.8647569999999973
0
LINE
8
BLACK
6
CONTINUOUS
10
182.3865979999999922
20
-192.8647569999999973
11
182.4580269999999871
21
-193.0076139999999896
0
LINE
8
BLACK
6
CONTINUOUS
10
182.4580269999999871
20
-193.0076139999999896
11
182.4580269999999871
21
-193.1504709999999818
0
LINE
8
BLACK
6
CONTINUOUS
10
182.4580269999999871
20
-193.1504709999999818
11
181.743741
21
-193.2933280000000025
0
LINE
8
BLACK
6
CONTINUOUS
10
183.1008829999999818
20
-193.6504709999999818
11
183.1723120000000051
21
-193.7219000000000051
0
LINE
8
BLACK
6
CONTINUOUS
10
183.1723120000000051
20
-193.7219000000000051
11
183.1008829999999818
21
-193.7933280000000025
0
LINE
8
BLACK
6
CONTINUOUS
10
183.1008829999999818
20
-193.7933280000000025
11
183.0294549999999845
21
-193.7219000000000051
0
LINE
8
BLACK
6
CONTINUOUS
10
183.0294549999999845
20
-193.7219000000000051
11
183.1008829999999818
21
-193.6504709999999818
0
LINE
8
BLACK
6
CONTINUOUS
10
183.1008829999999818
20
-193.6504709999999818
11
183.1008829999999818
21
-193.7933280000000025
0
LINE
8
BLACK
6
CONTINUOUS
10
183.1008829999999818
20
-192.8647569999999973
11
183.1723120000000051
21
-192.9361849999999947
0
LINE
8
BLACK
6
CONTINUOUS
10
183.1723120000000051
20
-192.9361849999999947
11
183.1008829999999818
21
-193.0076139999999896
0
LINE
8
BLACK
6
CONTINUOUS
10
183.1008829999999818
20
-193.0076139999999896
11
183.0294549999999845
21
-192.9361849999999947
0
LINE
8
BLACK
6
CONTINUOUS
10
183.0294549999999845
20
-192.9361849999999947
11
183.1008829999999818
21
-192.8647569999999973
0
LINE
8
BLACK
6
CONTINUOUS
10
183.1008829999999818
20
-192.8647569999999973
11
183.1008829999999818
21
-193.0076139999999896
0
LINE
8
BLACK
6
CONTINUOUS
10
184.8865979999999922
20
-193.3647569999999973
11
185.6008839999999793
21
-193.3647569999999973
0
LINE
8
BLACK
6
CONTINUOUS
10
184.743741
20
-193.7933280000000025
11
185.243741
21
-192.2933280000000025
0
LINE
8
BLACK
6
CONTINUOUS
10
185.243741
20
-192.2933280000000025
11
185.743741
21
-193.7933280000000025
0
LINE
8
BLACK
6
CONTINUOUS
10
186.8865979999999922
20
-192.7933280000000025
11
186.8865979999999922
21
-193.7933280000000025
0
LINE
8
BLACK
6
CONTINUOUS
10
186.5294549999999845
20
-192.2219000000000051
11
186.1723120000000051
21
-193.2933280000000025
0
LINE
8
BLACK
6
CONTINUOUS
10
186.1723120000000051
20
-193.2933280000000025
11
187.1008829999999818
21
-193.2933280000000025
0
LINE
8
BLACK
6
CONTINUOUS
10
263.4580259999999612
20
-196.5933279999999854
11
263.4580259999999612
21
-195.0933279999999854
0
LINE
8
BLACK
6
CONTINUOUS
10
264.8151699999999664
20
-196.5933279999999854
11
264.8151699999999664
21
-195.0933279999999854
0
LINE
8
BLACK
6
CONTINUOUS
10
264.8151699999999664
20
-196.521899999999988
11
264.6723119999999767
21
-196.5933279999999854
0
LINE
8
BLACK
6
CONTINUOUS
10
264.6723119999999767
20
-196.5933279999999854
11
264.3865979999999922
21
-196.5933279999999854
0
LINE
8
BLACK
6
CONTINUOUS
10
264.3865979999999922
20
-196.5933279999999854
11
264.243741
21
-196.521899999999988
0
LINE
8
BLACK
6
CONTINUOUS
10
264.243741
20
-196.521899999999988
11
264.1723119999999767
21
-196.4504709999999932
0
LINE
8
BLACK
6
CONTINUOUS
10
264.1723119999999767
20
-196.4504709999999932
11
264.1008840000000077
21
-196.3076140000000009
0
LINE
8
BLACK
6
CONTINUOUS
10
264.1008840000000077
20
-196.3076140000000009
11
264.1008840000000077
21
-195.8790419999999983
0
LINE
8
BLACK
6
CONTINUOUS
10
264.1008840000000077
20
-195.8790419999999983
11
264.1723119999999767
21
-195.7361849999999777
0
LINE
8
BLACK
6
CONTINUOUS
10
264.1723119999999767
20
-195.7361849999999777
11
264.243741
21
-195.6647569999999803
0
LINE
8
BLACK
6
CONTINUOUS
10
264.243741
20
-195.6647569999999803
11
264.3865979999999922
21
-195.5933279999999854
0
LINE
8
BLACK
6
CONTINUOUS
10
264.3865979999999922
20
-195.5933279999999854
11
264.6723119999999767
21
-195.5933279999999854
0
LINE
8
BLACK
6
CONTINUOUS
10
264.6723119999999767
20
-195.5933279999999854
11
264.8151699999999664
21
-195.6647569999999803
0
LINE
8
BLACK
6
CONTINUOUS
10
265.5294549999999845
20
-196.4504709999999932
11
265.6008840000000077
21
-196.521899999999988
0
LINE
8
BLACK
6
CONTINUOUS
10
265.6008840000000077
20
-196.521899999999988
11
265.5294549999999845
21
-196.5933279999999854
0
LINE
8
BLACK
6
CONTINUOUS
10
265.5294549999999845
20
-196.5933279999999854
11
265.4580270000000155
21
-196.521899999999988
0
LINE
8
BLACK
6
CONTINUOUS
10
265.4580270000000155
20
-196.521899999999988
11
265.5294549999999845
21
-196.4504709999999932
0
LINE
8
BLACK
6
CONTINUOUS
10
265.5294549999999845
20
-196.4504709999999932
11
265.5294549999999845
21
-196.5933279999999854
0
LINE
8
BLACK
6
CONTINUOUS
10
265.5294549999999845
20
-195.6647569999999803
11
265.6008840000000077
21
-195.7361849999999777
0
LINE
8
BLACK
6
CONTINUOUS
10
265.6008840000000077
20
-195.7361849999999777
11
265.5294549999999845
21
-195.8076140000000009
0
LINE
8
BLACK
6
CONTINUOUS
10
265.5294549999999845
20
-195.8076140000000009
11
265.4580270000000155
21
-195.7361849999999777
0
LINE
8
BLACK
6
CONTINUOUS
10
265.4580270000000155
20
-195.7361849999999777
11
265.5294549999999845
21
-195.6647569999999803
0
LINE
8
BLACK
6
CONTINUOUS
10
265.5294549999999845
20
-195.6647569999999803
11
265.5294549999999845
21
-195.8076140000000009
0
LINE
8
BLACK
6
CONTINUOUS
10
268.1723129999999742
20
-196.5933279999999854
11
267.3151699999999664
21
-196.5933279999999854
0
LINE
8
BLACK
6
CONTINUOUS
10
267.743741
20
-196.5933279999999854
11
267.743741
21
-195.0933279999999854
0
LINE
8
BLACK
6
CONTINUOUS
10
267.743741
20
-195.0933279999999854
11
267.6008840000000077
21
-195.3076140000000009
0
LINE
8
BLACK
6
CONTINUOUS
10
267.6008840000000077
20
-195.3076140000000009
11
267.4580270000000155
21
-195.4504709999999932
0
LINE
8
BLACK
6
CONTINUOUS
10
267.4580270000000155
20
-195.4504709999999932
11
267.3151699999999664
21
-195.521899999999988
0
LINE
8
BLACK
6
CONTINUOUS
10
269.8865979999999922
20
-195.021899999999988
11
268.6008840000000077
21
-196.9504709999999932
0
LINE
8
BLACK
6
CONTINUOUS
10
271.1723129999999742
20
-196.5933279999999854
11
270.3151699999999664
21
-196.5933279999999854
0
LINE
8
BLACK
6
CONTINUOUS
10
270.743741
20
-196.5933279999999854
11
270.743741
21
-195.0933279999999854
0
LINE
8
BLACK
6
CONTINUOUS
10
270.743741
20
-195.0933279999999854
11
270.6008840000000077
21
-195.3076140000000009
0
LINE
8
BLACK
6
CONTINUOUS
10
270.6008840000000077
20
-195.3076140000000009
11
270.4580270000000155
21
-195.4504709999999932
0
LINE
8
BLACK
6
CONTINUOUS
10
270.4580270000000155
20
-195.4504709999999932
11
270.3151699999999664
21
-195.521899999999988
0
LINE
8
BLACK
6
CONTINUOUS
10
177.0021999999999878
20
-187.5071999999999832
11
285.0021999999999593
21
-187.5071999999999832
0
LINE
8
BLACK
6
CONTINUOUS
10
178.6939279999999997
20
-188.2116379999999936
11
179.8367849999999919
21
-188.2116379999999936
0
LINE
8
BLACK
6
CONTINUOUS
10
179.0153569999999945
20
-190.2116379999999936
11
179.2653569999999945
21
-188.2116379999999936
0
LINE
8
BLACK
6
CONTINUOUS
10
180.2534519999999816
20
-190.2116379999999936
11
180.4201189999999997
21
-188.8783039999999858
0
LINE
8
BLACK
6
CONTINUOUS
10
180.5034519999999816
20
-188.2116379999999936
11
180.3963090000000022
21
-188.3068759999999884
0
LINE
8
BLACK
6
CONTINUOUS
10
180.3963090000000022
20
-188.3068759999999884
11
180.4796429999999816
21
-188.4021139999999832
0
LINE
8
BLACK
6
CONTINUOUS
10
180.4796429999999816
20
-188.4021139999999832
11
180.5867859999999894
21
-188.3068759999999884
0
LINE
8
BLACK
6
CONTINUOUS
10
180.5867859999999894
20
-188.3068759999999884
11
180.5034519999999816
21
-188.2116379999999936
0
LINE
8
BLACK
6
CONTINUOUS
10
180.5034519999999816
20
-188.2116379999999936
11
180.4796429999999816
21
-188.4021139999999832
0
LINE
8
BLACK
6
CONTINUOUS
10
181.0867859999999894
20
-188.8783039999999858
11
181.8486900000000048
21
-188.8783039999999858
0
LINE
8
BLACK
6
CONTINUOUS
10
181.4558329999999842
20
-188.2116379999999936
11
181.2415479999999945
21
-189.9259229999999832
0
LINE
8
BLACK
6
CONTINUOUS
10
181.2415479999999945
20
-189.9259229999999832
11
181.3129759999999919
21
-190.1163999999999987
0
LINE
8
BLACK
6
CONTINUOUS
10
181.3129759999999919
20
-190.1163999999999987
11
181.4915479999999945
21
-190.2116379999999936
0
LINE
8
BLACK
6
CONTINUOUS
10
181.4915479999999945
20
-190.2116379999999936
11
181.6820239999999842
21
-190.2116379999999936
0
LINE
8
BLACK
6
CONTINUOUS
10
182.6344049999999868
20
-190.2116379999999936
11
182.4558329999999842
21
-190.1163999999999987
0
LINE
8
BLACK
6
CONTINUOUS
10
182.4558329999999842
20
-190.1163999999999987
11
182.3844049999999868
21
-189.9259229999999832
0
LINE
8
BLACK
6
CONTINUOUS
10
182.3844049999999868
20
-189.9259229999999832
11
182.5986900000000048
21
-188.2116379999999936
0
LINE
8
BLACK
6
CONTINUOUS
10
184.1701189999999997
20
-190.1163999999999987
11
183.9677379999999971
21
-190.2116379999999936
0
LINE
8
BLACK
6
CONTINUOUS
10
183.9677379999999971
20
-190.2116379999999936
11
183.5867849999999919
21
-190.2116379999999936
0
LINE
8
BLACK
6
CONTINUOUS
10
183.5867849999999919
20
-190.2116379999999936
11
183.4082139999999868
21
-190.1163999999999987
0
LINE
8
BLACK
6
CONTINUOUS
10
183.4082139999999868
20
-190.1163999999999987
11
183.3367849999999919
21
-189.9259229999999832
0
LINE
8
BLACK
6
CONTINUOUS
10
183.3367849999999919
20
-189.9259229999999832
11
183.4320239999999842
21
-189.1640189999999961
0
LINE
8
BLACK
6
CONTINUOUS
10
183.4320239999999842
20
-189.1640189999999961
11
183.551070999999979
21
-188.9735419999999806
0
LINE
8
BLACK
6
CONTINUOUS
10
183.551070999999979
20
-188.9735419999999806
11
183.7534519999999816
21
-188.8783039999999858
0
LINE
8
BLACK
6
CONTINUOUS
10
183.7534519999999816
20
-188.8783039999999858
11
184.1344039999999893
21
-188.8783039999999858
0
LINE
8
BLACK
6
CONTINUOUS
10
184.1344039999999893
20
-188.8783039999999858
11
184.3129759999999919
21
-188.9735419999999806
0
LINE
8
BLACK
6
CONTINUOUS
10
184.3129759999999919
20
-188.9735419999999806
11
184.3844039999999893
21
-189.1640189999999961
0
LINE
8
BLACK
6
CONTINUOUS
10
184.3844039999999893
20
-189.1640189999999961
11
184.3605949999999893
21
-189.3544949999999858
0
LINE
8
BLACK
6
CONTINUOUS
10
184.3605949999999893
20
-189.3544949999999858
11
183.3844039999999893
21
-189.5449710000000039
0
LINE
8
BLACK
6
CONTINUOUS
10
185.1344049999999868
20
-190.021160999999978
11
185.2177379999999971
21
-190.1163999999999987
0
LINE
8
BLACK
6
CONTINUOUS
10
185.2177379999999971
20
-190.1163999999999987
11
185.1105949999999893
21
-190.2116379999999936
0
LINE
8
BLACK
6
CONTINUOUS
10
185.1105949999999893
20
-190.2116379999999936
11
185.027261999999979
21
-190.1163999999999987
0
LINE
8
BLACK
6
CONTINUOUS
10
185.027261999999979
20
-190.1163999999999987
11
185.1344049999999868
21
-190.021160999999978
0
LINE
8
BLACK
6
CONTINUOUS
10
185.1344049999999868
20
-190.021160999999978
11
185.1105949999999893
21
-190.2116379999999936
0
LINE
8
BLACK
6
CONTINUOUS
10
185.2653569999999945
20
-188.9735419999999806
11
185.3486900000000048
21
-189.0687800000000038
0
LINE
8
BLACK
6
CONTINUOUS
10
185.3486900000000048
20
-189.0687800000000038
11
185.2415479999999945
21
-189.1640189999999961
0
LINE
8
BLACK
6
CONTINUOUS
10
185.2415479999999945
20
-189.1640189999999961
11
185.1582139999999868
21
-189.0687800000000038
0
LINE
8
BLACK
6
CONTINUOUS
10
185.1582139999999868
20
-189.0687800000000038
11
185.2653569999999945
21
-188.9735419999999806
0
LINE
8
BLACK
6
CONTINUOUS
10
185.2653569999999945
20
-188.9735419999999806
11
185.2415479999999945
21
-189.1640189999999961
0
LINE
8
BLACK
6
CONTINUOUS
10
178.9580259999999896
20
-185.6076139999999839
11
178.4580259999999896
21
-185.6076139999999839
0
LINE
8
BLACK
6
CONTINUOUS
10
178.4580259999999896
20
-186.3933279999999968
11
178.4580259999999896
21
-184.8933279999999968
0
LINE
8
BLACK
6
CONTINUOUS
10
178.4580259999999896
20
-184.8933279999999968
11
179.1723120000000051
21
-184.8933279999999968
0
LINE
8
BLACK
6
CONTINUOUS
10
179.7437400000000025
20
-186.3933279999999968
11
179.7437400000000025
21
-185.3933279999999968
0
LINE
8
BLACK
6
CONTINUOUS
10
179.7437400000000025
20
-184.8933279999999968
11
179.6723120000000051
21
-184.9647569999999916
0
LINE
8
BLACK
6
CONTINUOUS
10
179.6723120000000051
20
-184.9647569999999916
11
179.7437400000000025
21
-185.036184999999989
0
LINE
8
BLACK
6
CONTINUOUS
10
179.7437400000000025
20
-185.036184999999989
11
179.8151689999999974
21
-184.9647569999999916
0
LINE
8
BLACK
6
CONTINUOUS
10
179.8151689999999974
20
-184.9647569999999916
11
179.7437400000000025
21
-184.8933279999999968
0
LINE
8
BLACK
6
CONTINUOUS
10
179.7437400000000025
20
-184.8933279999999968
11
179.7437400000000025
21
-185.036184999999989
0
LINE
8
BLACK
6
CONTINUOUS
10
180.6723120000000051
20
-186.3933279999999968
11
180.5294549999999845
21
-186.3218999999999994
0
LINE
8
BLACK
6
CONTINUOUS
10
180.5294549999999845
20
-186.3218999999999994
11
180.4580259999999896
21
-186.1790419999999813
0
LINE
8
BLACK
6
CONTINUOUS
10
180.4580259999999896
20
-186.1790419999999813
11
180.4580259999999896
21
-184.8933279999999968
0
LINE
8
BLACK
6
CONTINUOUS
10
181.8151689999999974
20
-186.3218999999999994
11
181.6723120000000051
21
-186.3933279999999968
0
LINE
8
BLACK
6
CONTINUOUS
10
181.6723120000000051
20
-186.3933279999999968
11
181.3865979999999922
21
-186.3933279999999968
0
LINE
8
BLACK
6
CONTINUOUS
10
181.3865979999999922
20
-186.3933279999999968
11
181.2437400000000025
21
-186.3218999999999994
0
LINE
8
BLACK
6
CONTINUOUS
10
181.2437400000000025
20
-186.3218999999999994
11
181.1723120000000051
21
-186.1790419999999813
0
LINE
8
BLACK
6
CONTINUOUS
10
181.1723120000000051
20
-186.1790419999999813
11
181.1723120000000051
21
-185.6076139999999839
0
LINE
8
BLACK
6
CONTINUOUS
10
181.1723120000000051
20
-185.6076139999999839
11
181.2437400000000025
21
-185.4647569999999916
0
LINE
8
BLACK
6
CONTINUOUS
10
181.2437400000000025
20
-185.4647569999999916
11
181.3865979999999922
21
-185.3933279999999968
0
LINE
8
BLACK
6
CONTINUOUS
10
181.3865979999999922
20
-185.3933279999999968
11
181.6723120000000051
21
-185.3933279999999968
0
LINE
8
BLACK
6
CONTINUOUS
10
181.6723120000000051
20
-185.3933279999999968
11
181.8151689999999974
21
-185.4647569999999916
0
LINE
8
BLACK
6
CONTINUOUS
10
181.8151689999999974
20
-185.4647569999999916
11
181.8865979999999922
21
-185.6076139999999839
0
LINE
8
BLACK
6
CONTINUOUS
10
181.8865979999999922
20
-185.6076139999999839
11
181.8865979999999922
21
-185.7504710000000046
0
LINE
8
BLACK
6
CONTINUOUS
10
181.8865979999999922
20
-185.7504710000000046
11
181.1723120000000051
21
-185.8933279999999968
0
LINE
8
BLACK
6
CONTINUOUS
10
182.529453999999987
20
-186.2504710000000046
11
182.6008829999999818
21
-186.3218999999999994
0
LINE
8
BLACK
6
CONTINUOUS
10
182.6008829999999818
20
-186.3218999999999994
11
182.529453999999987
21
-186.3933279999999968
0
LINE
8
BLACK
6
CONTINUOUS
10
182.529453999999987
20
-186.3933279999999968
11
182.4580259999999896
21
-186.3218999999999994
0
LINE
8
BLACK
6
CONTINUOUS
10
182.4580259999999896
20
-186.3218999999999994
11
182.529453999999987
21
-186.2504710000000046
0
LINE
8
BLACK
6
CONTINUOUS
10
182.529453999999987
20
-186.2504710000000046
11
182.529453999999987
21
-186.3933279999999968
0
LINE
8
BLACK
6
CONTINUOUS
10
182.529453999999987
20
-185.4647569999999916
11
182.6008829999999818
21
-185.536184999999989
0
LINE
8
BLACK
6
CONTINUOUS
10
182.6008829999999818
20
-185.536184999999989
11
182.529453999999987
21
-185.6076139999999839
0
LINE
8
BLACK
6
CONTINUOUS
10
182.529453999999987
20
-185.6076139999999839
11
182.4580259999999896
21
-185.536184999999989
0
LINE
8
BLACK
6
CONTINUOUS
10
182.4580259999999896
20
-185.536184999999989
11
182.529453999999987
21
-185.4647569999999916
0
LINE
8
BLACK
6
CONTINUOUS
10
182.529453999999987
20
-185.4647569999999916
11
182.529453999999987
21
-185.6076139999999839
0
LINE
8
BLACK
6
CONTINUOUS
10
184.3865969999999948
20
-186.3933279999999968
11
184.3865969999999948
21
-184.8933279999999968
0
LINE
8
BLACK
6
CONTINUOUS
10
184.3865969999999948
20
-184.8933279999999968
11
184.8865969999999948
21
-185.9647569999999916
0
LINE
8
BLACK
6
CONTINUOUS
10
184.8865969999999948
20
-185.9647569999999916
11
185.3865969999999948
21
-184.8933279999999968
0
LINE
8
BLACK
6
CONTINUOUS
10
185.3865969999999948
20
-184.8933279999999968
11
185.3865969999999948
21
-186.3933279999999968
0
LINE
8
BLACK
6
CONTINUOUS
10
186.1008829999999818
20
-186.3933279999999968
11
186.1008829999999818
21
-184.8933279999999968
0
LINE
8
BLACK
6
CONTINUOUS
10
186.9580259999999896
20
-186.3933279999999968
11
186.3151689999999974
21
-185.536184999999989
0
LINE
8
BLACK
6
CONTINUOUS
10
186.9580259999999896
20
-184.8933279999999968
11
186.1008829999999818
21
-185.7504710000000046
0
LINE
8
BLACK
6
CONTINUOUS
10
187.243741
20
-186.536184999999989
11
188.3865979999999922
21
-186.536184999999989
0
LINE
8
BLACK
6
CONTINUOUS
10
188.6723120000000051
20
-186.3218999999999994
11
188.8865979999999922
21
-186.3933279999999968
0
LINE
8
BLACK
6
CONTINUOUS
10
188.8865979999999922
20
-186.3933279999999968
11
189.2437400000000025
21
-186.3933279999999968
0
LINE
8
BLACK
6
CONTINUOUS
10
189.2437400000000025
20
-186.3933279999999968
11
189.3865979999999922
21
-186.3218999999999994
0
LINE
8
BLACK
6
CONTINUOUS
10
189.3865979999999922
20
-186.3218999999999994
11
189.4580259999999896
21
-186.2504710000000046
0
LINE
8
BLACK
6
CONTINUOUS
10
189.4580259999999896
20
-186.2504710000000046
11
189.5294549999999845
21
-186.1076139999999839
0
LINE
8
BLACK
6
CONTINUOUS
10
189.5294549999999845
20
-186.1076139999999839
11
189.5294549999999845
21
-185.9647569999999916
0
LINE
8
BLACK
6
CONTINUOUS
10
189.5294549999999845
20
-185.9647569999999916
11
189.4580259999999896
21
-185.8218999999999994
0
LINE
8
BLACK
6
CONTINUOUS
10
189.4580259999999896
20
-185.8218999999999994
11
189.3865979999999922
21
-185.7504710000000046
0
LINE
8
BLACK
6
CONTINUOUS
10
189.3865979999999922
20
-185.7504710000000046
11
189.2437400000000025
21
-185.6790419999999813
0
LINE
8
BLACK
6
CONTINUOUS
10
189.2437400000000025
20
-185.6790419999999813
11
188.9580259999999896
21
-185.6076139999999839
0
LINE
8
BLACK
6
CONTINUOUS
10
188.9580259999999896
20
-185.6076139999999839
11
188.8151689999999974
21
-185.536184999999989
0
LINE
8
BLACK
6
CONTINUOUS
10
188.8151689999999974
20
-185.536184999999989
11
188.7437400000000025
21
-185.4647569999999916
0
LINE
8
BLACK
6
CONTINUOUS
10
188.7437400000000025
20
-185.4647569999999916
11
188.6723120000000051
21
-185.3218999999999994
0
LINE
8
BLACK
6
CONTINUOUS
10
188.6723120000000051
20
-185.3218999999999994
11
188.6723120000000051
21
-185.1790419999999813
0
LINE
8
BLACK
6
CONTINUOUS
10
188.6723120000000051
20
-185.1790419999999813
11
188.7437400000000025
21
-185.036184999999989
0
LINE
8
BLACK
6
CONTINUOUS
10
188.7437400000000025
20
-185.036184999999989
11
188.8151689999999974
21
-184.9647569999999916
0
LINE
8
BLACK
6
CONTINUOUS
10
188.8151689999999974
20
-184.9647569999999916
11
188.9580259999999896
21
-184.8933279999999968
0
LINE
8
BLACK
6
CONTINUOUS
10
188.9580259999999896
20
-184.8933279999999968
11
189.3151689999999974
21
-184.8933279999999968
0
LINE
8
BLACK
6
CONTINUOUS
10
189.3151689999999974
20
-184.8933279999999968
11
189.5294549999999845
21
-184.9647569999999916
0
LINE
8
BLACK
6
CONTINUOUS
10
190.7437400000000025
20
-186.3218999999999994
11
190.6008829999999818
21
-186.3933279999999968
0
LINE
8
BLACK
6
CONTINUOUS
10
190.6008829999999818
20
-186.3933279999999968
11
190.3151689999999974
21
-186.3933279999999968
0
LINE
8
BLACK
6
CONTINUOUS
10
190.3151689999999974
20
-186.3933279999999968
11
190.1723109999999792
21
-186.3218999999999994
0
LINE
8
BLACK
6
CONTINUOUS
10
190.1723109999999792
20
-186.3218999999999994
11
190.1008829999999818
21
-186.1790419999999813
0
LINE
8
BLACK
6
CONTINUOUS
10
190.1008829999999818
20
-186.1790419999999813
11
190.1008829999999818
21
-185.6076139999999839
0
LINE
8
BLACK
6
CONTINUOUS
10
190.1008829999999818
20
-185.6076139999999839
11
190.1723109999999792
21
-185.4647569999999916
0
LINE
8
BLACK
6
CONTINUOUS
10
190.1723109999999792
20
-185.4647569999999916
11
190.3151689999999974
21
-185.3933279999999968
0
LINE
8
BLACK
6
CONTINUOUS
10
190.3151689999999974
20
-185.3933279999999968
11
190.6008829999999818
21
-185.3933279999999968
0
LINE
8
BLACK
6
CONTINUOUS
10
190.6008829999999818
20
-185.3933279999999968
11
190.7437400000000025
21
-185.4647569999999916
0
LINE
8
BLACK
6
CONTINUOUS
10
190.7437400000000025
20
-185.4647569999999916
11
190.8151689999999974
21
-185.6076139999999839
0
LINE
8
BLACK
6
CONTINUOUS
10
190.8151689999999974
20
-185.6076139999999839
11
190.8151689999999974
21
-185.7504710000000046
0
LINE
8
BLACK
6
CONTINUOUS
10
190.8151689999999974
20
-185.7504710000000046
11
190.1008829999999818
21
-185.8933279999999968
0
LINE
8
BLACK
6
CONTINUOUS
10
192.1008829999999818
20
-185.3933279999999968
11
192.1008829999999818
21
-186.8933279999999968
0
LINE
8
BLACK
6
CONTINUOUS
10
192.1008829999999818
20
-186.3218999999999994
11
191.9580249999999921
21
-186.3933279999999968
0
LINE
8
BLACK
6
CONTINUOUS
10
191.9580249999999921
20
-186.3933279999999968
11
191.6723109999999792
21
-186.3933279999999968
0
LINE
8
BLACK
6
CONTINUOUS
10
191.6723109999999792
20
-186.3933279999999968
11
191.529453999999987
21
-186.3218999999999994
0
LINE
8
BLACK
6
CONTINUOUS
10
191.529453999999987
20
-186.3218999999999994
11
191.4580249999999921
21
-186.2504710000000046
0
LINE
8
BLACK
6
CONTINUOUS
10
191.4580249999999921
20
-186.2504710000000046
11
191.3865969999999948
21
-186.1076139999999839
0
LINE
8
BLACK
6
CONTINUOUS
10
191.3865969999999948
20
-186.1076139999999839
11
191.3865969999999948
21
-185.6790419999999813
0
LINE
8
BLACK
6
CONTINUOUS
10
191.3865969999999948
20
-185.6790419999999813
11
191.4580249999999921
21
-185.536184999999989
0
LINE
8
BLACK
6
CONTINUOUS
10
191.4580249999999921
20
-185.536184999999989
11
191.529453999999987
21
-185.4647569999999916
0
LINE
8
BLACK
6
CONTINUOUS
10
191.529453999999987
20
-185.4647569999999916
11
191.6723109999999792
21
-185.3933279999999968
0
LINE
8
BLACK
6
CONTINUOUS
10
191.6723109999999792
20
-185.3933279999999968
11
191.9580249999999921
21
-185.3933279999999968
0
LINE
8
BLACK
6
CONTINUOUS
10
191.9580249999999921
20
-185.3933279999999968
11
192.1008829999999818
21
-185.4647569999999916
0
LINE
8
BLACK
6
CONTINUOUS
10
193.7437400000000025
20
-185.3933279999999968
11
194.3151679999999999
21
-185.3933279999999968
0
LINE
8
BLACK
6
CONTINUOUS
10
193.9580249999999921
20
-184.8933279999999968
11
193.9580249999999921
21
-186.1790419999999813
0
LINE
8
BLACK
6
CONTINUOUS
10
193.9580249999999921
20
-186.1790419999999813
11
194.029453999999987
21
-186.3218999999999994
0
LINE
8
BLACK
6
CONTINUOUS
10
194.029453999999987
20
-186.3218999999999994
11
194.1723109999999792
21
-186.3933279999999968
0
LINE
8
BLACK
6
CONTINUOUS
10
194.1723109999999792
20
-186.3933279999999968
11
194.3151679999999999
21
-186.3933279999999968
0
LINE
8
BLACK
6
CONTINUOUS
10
195.4580259999999896
20
-186.3933279999999968
11
195.4580259999999896
21
-185.6076139999999839
0
LINE
8
BLACK
6
CONTINUOUS
10
195.4580259999999896
20
-185.6076139999999839
11
195.3865969999999948
21
-185.4647569999999916
0
LINE
8
BLACK
6
CONTINUOUS
10
195.3865969999999948
20
-185.4647569999999916
11
195.2437400000000025
21
-185.3933279999999968
0
LINE
8
BLACK
6
CONTINUOUS
10
195.2437400000000025
20
-185.3933279999999968
11
194.9580259999999896
21
-185.3933279999999968
0
LINE
8
BLACK
6
CONTINUOUS
10
194.9580259999999896
20
-185.3933279999999968
11
194.8151679999999999
21
-185.4647569999999916
0
LINE
8
BLACK
6
CONTINUOUS
10
195.4580259999999896
20
-186.3218999999999994
11
195.3151679999999999
21
-186.3933279999999968
0
LINE
8
BLACK
6
CONTINUOUS
10
195.3151679999999999
20
-186.3933279999999968
11
194.9580259999999896
21
-186.3933279999999968
0
LINE
8
BLACK
6
CONTINUOUS
10
194.9580259999999896
20
-186.3933279999999968
11
194.8151679999999999
21
-186.3218999999999994
0
LINE
8
BLACK
6
CONTINUOUS
10
194.8151679999999999
20
-186.3218999999999994
11
194.7437400000000025
21
-186.1790419999999813
0
LINE
8
BLACK
6
CONTINUOUS
10
194.7437400000000025
20
-186.1790419999999813
11
194.7437400000000025
21
-186.036184999999989
0
LINE
8
BLACK
6
CONTINUOUS
10
194.7437400000000025
20
-186.036184999999989
11
194.8151679999999999
21
-185.8933279999999968
0
LINE
8
BLACK
6
CONTINUOUS
10
194.8151679999999999
20
-185.8933279999999968
11
194.9580259999999896
21
-185.8218999999999994
0
LINE
8
BLACK
6
CONTINUOUS
10
194.9580259999999896
20
-185.8218999999999994
11
195.3151679999999999
21
-185.8218999999999994
0
LINE
8
BLACK
6
CONTINUOUS
10
195.3151679999999999
20
-185.8218999999999994
11
195.4580259999999896
21
-185.7504710000000046
0
LINE
8
BLACK
6
CONTINUOUS
10
196.1723109999999792
20
-186.3933279999999968
11
196.1723109999999792
21
-184.8933279999999968
0
LINE
8
BLACK
6
CONTINUOUS
10
196.3151689999999974
20
-185.8218999999999994
11
196.7437400000000025
21
-186.3933279999999968
0
LINE
8
BLACK
6
CONTINUOUS
10
196.7437400000000025
20
-185.3933279999999968
11
196.1723109999999792
21
-185.9647569999999916
0
LINE
8
BLACK
6
CONTINUOUS
10
197.9580259999999896
20
-186.3218999999999994
11
197.8151689999999974
21
-186.3933279999999968
0
LINE
8
BLACK
6
CONTINUOUS
10
197.8151689999999974
20
-186.3933279999999968
11
197.5294549999999845
21
-186.3933279999999968
0
LINE
8
BLACK
6
CONTINUOUS
10
197.5294549999999845
20
-186.3933279999999968
11
197.3865969999999948
21
-186.3218999999999994
0
LINE
8
BLACK
6
CONTINUOUS
10
197.3865969999999948
20
-186.3218999999999994
11
197.3151689999999974
21
-186.1790419999999813
0
LINE
8
BLACK
6
CONTINUOUS
10
197.3151689999999974
20
-186.1790419999999813
11
197.3151689999999974
21
-185.6076139999999839
0
LINE
8
BLACK
6
CONTINUOUS
10
197.3151689999999974
20
-185.6076139999999839
11
197.3865969999999948
21
-185.4647569999999916
0
LINE
8
BLACK
6
CONTINUOUS
10
197.3865969999999948
20
-185.4647569999999916
11
197.5294549999999845
21
-185.3933279999999968
0
LINE
8
BLACK
6
CONTINUOUS
10
197.5294549999999845
20
-185.3933279999999968
11
197.8151689999999974
21
-185.3933279999999968
0
LINE
8
BLACK
6
CONTINUOUS
10
197.8151689999999974
20
-185.3933279999999968
11
197.9580259999999896
21
-185.4647569999999916
0
LINE
8
BLACK
6
CONTINUOUS
10
197.9580259999999896
20
-185.4647569999999916
11
198.0294549999999845
21
-185.6076139999999839
0
LINE
8
BLACK
6
CONTINUOUS
10
198.0294549999999845
20
-185.6076139999999839
11
198.0294549999999845
21
-185.7504710000000046
0
LINE
8
BLACK
6
CONTINUOUS
10
198.0294549999999845
20
-185.7504710000000046
11
197.3151689999999974
21
-185.8933279999999968
0
LINE
8
BLACK
6
CONTINUOUS
10
199.7437400000000025
20
-185.036184999999989
11
199.8151679999999999
21
-184.9647569999999916
0
LINE
8
BLACK
6
CONTINUOUS
10
199.8151679999999999
20
-184.9647569999999916
11
199.9580259999999896
21
-184.8933279999999968
0
LINE
8
BLACK
6
CONTINUOUS
10
199.9580259999999896
20
-184.8933279999999968
11
200.3151679999999999
21
-184.8933279999999968
0
LINE
8
BLACK
6
CONTINUOUS
10
200.3151679999999999
20
-184.8933279999999968
11
200.4580259999999896
21
-184.9647569999999916
0
LINE
8
BLACK
6
CONTINUOUS
10
200.4580259999999896
20
-184.9647569999999916
11
200.529453999999987
21
-185.036184999999989
0
LINE
8
BLACK
6
CONTINUOUS
10
200.529453999999987
20
-185.036184999999989
11
200.6008829999999818
21
-185.1790419999999813
0
LINE
8
BLACK
6
CONTINUOUS
10
200.6008829999999818
20
-185.1790419999999813
11
200.6008829999999818
21
-185.3218999999999994
0
LINE
8
BLACK
6
CONTINUOUS
10
200.6008829999999818
20
-185.3218999999999994
11
200.529453999999987
21
-185.536184999999989
0
LINE
8
BLACK
6
CONTINUOUS
10
200.529453999999987
20
-185.536184999999989
11
199.6723109999999792
21
-186.3933279999999968
0
LINE
8
BLACK
6
CONTINUOUS
10
199.6723109999999792
20
-186.3933279999999968
11
200.6008829999999818
21
-186.3933279999999968
0
LINE
8
BLACK
6
CONTINUOUS
10
201.243739000000005
20
-186.2504710000000046
11
201.3151679999999999
21
-186.3218999999999994
0
LINE
8
BLACK
6
CONTINUOUS
10
201.3151679999999999
20
-186.3218999999999994
11
201.243739000000005
21
-186.3933279999999968
0
LINE
8
BLACK
6
CONTINUOUS
10
201.243739000000005
20
-186.3933279999999968
11
201.1723109999999792
21
-186.3218999999999994
0
LINE
8
BLACK
6
CONTINUOUS
10
201.1723109999999792
20
-186.3218999999999994
11
201.243739000000005
21
-186.2504710000000046
0
LINE
8
BLACK
6
CONTINUOUS
10
201.243739000000005
20
-186.2504710000000046
11
201.243739000000005
21
-186.3933279999999968
0
LINE
8
BLACK
6
CONTINUOUS
10
201.9580249999999921
20
-186.3933279999999968
11
201.9580249999999921
21
-184.8933279999999968
0
LINE
8
BLACK
6
CONTINUOUS
10
202.1008829999999818
20
-185.8218999999999994
11
202.529453999999987
21
-186.3933279999999968
0
LINE
8
BLACK
6
CONTINUOUS
10
202.529453999999987
20
-185.3933279999999968
11
201.9580249999999921
21
-185.9647569999999916
0
LINE
8
BLACK
6
CONTINUOUS
10
203.1723109999999792
20
-186.3933279999999968
11
203.1723109999999792
21
-185.3933279999999968
0
LINE
8
BLACK
6
CONTINUOUS
10
203.1723109999999792
20
-184.8933279999999968
11
203.1008829999999818
21
-184.9647569999999916
0
LINE
8
BLACK
6
CONTINUOUS
10
203.1008829999999818
20
-184.9647569999999916
11
203.1723109999999792
21
-185.036184999999989
0
LINE
8
BLACK
6
CONTINUOUS
10
203.1723109999999792
20
-185.036184999999989
11
203.2437400000000025
21
-184.9647569999999916
0
LINE
8
BLACK
6
CONTINUOUS
10
203.2437400000000025
20
-184.9647569999999916
11
203.1723109999999792
21
-184.8933279999999968
0
LINE
8
BLACK
6
CONTINUOUS
10
203.1723109999999792
20
-184.8933279999999968
11
203.1723109999999792
21
-185.036184999999989
0
LINE
8
BLACK
6
CONTINUOUS
10
204.5294549999999845
20
-186.3218999999999994
11
204.3865969999999948
21
-186.3933279999999968
0
LINE
8
BLACK
6
CONTINUOUS
10
204.3865969999999948
20
-186.3933279999999968
11
204.1008829999999818
21
-186.3933279999999968
0
LINE
8
BLACK
6
CONTINUOUS
10
204.1008829999999818
20
-186.3933279999999968
11
203.9580259999999896
21
-186.3218999999999994
0
LINE
8
BLACK
6
CONTINUOUS
10
203.9580259999999896
20
-186.3218999999999994
11
203.8865969999999948
21
-186.2504710000000046
0
LINE
8
BLACK
6
CONTINUOUS
10
203.8865969999999948
20
-186.2504710000000046
11
203.8151689999999974
21
-186.1076139999999839
0
LINE
8
BLACK
6
CONTINUOUS
10
203.8151689999999974
20
-186.1076139999999839
11
203.8151689999999974
21
-185.6790419999999813
0
LINE
8
BLACK
6
CONTINUOUS
10
203.8151689999999974
20
-185.6790419999999813
11
203.8865969999999948
21
-185.536184999999989
0
LINE
8
BLACK
6
CONTINUOUS
10
203.8865969999999948
20
-185.536184999999989
11
203.9580259999999896
21
-185.4647569999999916
0
LINE
8
BLACK
6
CONTINUOUS
10
203.9580259999999896
20
-185.4647569999999916
11
204.1008829999999818
21
-185.3933279999999968
0
LINE
8
BLACK
6
CONTINUOUS
10
204.1008829999999818
20
-185.3933279999999968
11
204.3865969999999948
21
-185.3933279999999968
0
LINE
8
BLACK
6
CONTINUOUS
10
204.3865969999999948
20
-185.3933279999999968
11
204.5294549999999845
21
-185.4647569999999916
0
LINE
8
BLACK
6
CONTINUOUS
10
205.8151689999999974
20
-186.3933279999999968
11
205.8151689999999974
21
-185.6076139999999839
0
LINE
8
BLACK
6
CONTINUOUS
10
205.8151689999999974
20
-185.6076139999999839
11
205.7437400000000025
21
-185.4647569999999916
0
LINE
8
BLACK
6
CONTINUOUS
10
205.7437400000000025
20
-185.4647569999999916
11
205.6008829999999818
21
-185.3933279999999968
0
LINE
8
BLACK
6
CONTINUOUS
10
205.6008829999999818
20
-185.3933279999999968
11
205.3151689999999974
21
-185.3933279999999968
0
LINE
8
BLACK
6
CONTINUOUS
10
205.3151689999999974
20
-185.3933279999999968
11
205.1723109999999792
21
-185.4647569999999916
0
LINE
8
BLACK
6
CONTINUOUS
10
205.8151689999999974
20
-186.3218999999999994
11
205.6723109999999792
21
-186.3933279999999968
0
LINE
8
BLACK
6
CONTINUOUS
10
205.6723109999999792
20
-186.3933279999999968
11
205.3151689999999974
21
-186.3933279999999968
0
LINE
8
BLACK
6
CONTINUOUS
10
205.3151689999999974
20
-186.3933279999999968
11
205.1723109999999792
21
-186.3218999999999994
0
LINE
8
BLACK
6
CONTINUOUS
10
205.1723109999999792
20
-186.3218999999999994
11
205.1008829999999818
21
-186.1790419999999813
0
LINE
8
BLACK
6
CONTINUOUS
10
205.1008829999999818
20
-186.1790419999999813
11
205.1008829999999818
21
-186.036184999999989
0
LINE
8
BLACK
6
CONTINUOUS
10
205.1008829999999818
20
-186.036184999999989
11
205.1723109999999792
21
-185.8933279999999968
0
LINE
8
BLACK
6
CONTINUOUS
10
205.1723109999999792
20
-185.8933279999999968
11
205.3151689999999974
21
-185.8218999999999994
0
LINE
8
BLACK
6
CONTINUOUS
10
205.3151689999999974
20
-185.8218999999999994
11
205.6723109999999792
21
-185.8218999999999994
0
LINE
8
BLACK
6
CONTINUOUS
10
205.6723109999999792
20
-185.8218999999999994
11
205.8151689999999974
21
-185.7504710000000046
0
LINE
8
BLACK
6
CONTINUOUS
10
207.1723119999999767
20
-186.3933279999999968
11
207.1723119999999767
21
-184.8933279999999968
0
LINE
8
BLACK
6
CONTINUOUS
10
207.1723119999999767
20
-186.3218999999999994
11
207.029453999999987
21
-186.3933279999999968
0
LINE
8
BLACK
6
CONTINUOUS
10
207.029453999999987
20
-186.3933279999999968
11
206.7437400000000025
21
-186.3933279999999968
0
LINE
8
BLACK
6
CONTINUOUS
10
206.7437400000000025
20
-186.3933279999999968
11
206.6008829999999818
21
-186.3218999999999994
0
LINE
8
BLACK
6
CONTINUOUS
10
206.6008829999999818
20
-186.3218999999999994
11
206.529453999999987
21
-186.2504710000000046
0
LINE
8
BLACK
6
CONTINUOUS
10
206.529453999999987
20
-186.2504710000000046
11
206.4580259999999896
21
-186.1076139999999839
0
LINE
8
BLACK
6
CONTINUOUS
10
206.4580259999999896
20
-186.1076139999999839
11
206.4580259999999896
21
-185.6790419999999813
0
LINE
8
BLACK
6
CONTINUOUS
10
206.4580259999999896
20
-185.6790419999999813
11
206.529453999999987
21
-185.536184999999989
0
LINE
8
BLACK
6
CONTINUOUS
10
206.529453999999987
20
-185.536184999999989
11
206.6008829999999818
21
-185.4647569999999916
0
LINE
8
BLACK
6
CONTINUOUS
10
206.6008829999999818
20
-185.4647569999999916
11
206.7437400000000025
21
-185.3933279999999968
0
LINE
8
BLACK
6
CONTINUOUS
10
206.7437400000000025
20
-185.3933279999999968
11
207.029453999999987
21
-185.3933279999999968
0
LINE
8
BLACK
6
CONTINUOUS
10
207.029453999999987
20
-185.3933279999999968
11
207.1723119999999767
21
-185.4647569999999916
0
LINE
8
BLACK
6
CONTINUOUS
10
207.5294549999999845
20
-186.536184999999989
11
208.6723119999999767
21
-186.536184999999989
0
LINE
8
BLACK
6
CONTINUOUS
10
209.029453999999987
20
-185.3933279999999968
11
209.029453999999987
21
-186.8933279999999968
0
LINE
8
BLACK
6
CONTINUOUS
10
209.029453999999987
20
-185.4647569999999916
11
209.1723119999999767
21
-185.3933279999999968
0
LINE
8
BLACK
6
CONTINUOUS
10
209.1723119999999767
20
-185.3933279999999968
11
209.4580259999999896
21
-185.3933279999999968
0
LINE
8
BLACK
6
CONTINUOUS
10
209.4580259999999896
20
-185.3933279999999968
11
209.6008829999999818
21
-185.4647569999999916
0
LINE
8
BLACK
6
CONTINUOUS
10
209.6008829999999818
20
-185.4647569999999916
11
209.6723119999999767
21
-185.536184999999989
0
LINE
8
BLACK
6
CONTINUOUS
10
209.6723119999999767
20
-185.536184999999989
11
209.7437400000000025
21
-185.6790419999999813
0
LINE
8
BLACK
6
CONTINUOUS
10
209.7437400000000025
20
-185.6790419999999813
11
209.7437400000000025
21
-186.1076139999999839
0
LINE
8
BLACK
6
CONTINUOUS
10
209.7437400000000025
20
-186.1076139999999839
11
209.6723119999999767
21
-186.2504710000000046
0
LINE
8
BLACK
6
CONTINUOUS
10
209.6723119999999767
20
-186.2504710000000046
11
209.6008829999999818
21
-186.3218999999999994
0
LINE
8
BLACK
6
CONTINUOUS
10
209.6008829999999818
20
-186.3218999999999994
11
209.4580259999999896
21
-186.3933279999999968
0
LINE
8
BLACK
6
CONTINUOUS
10
209.4580259999999896
20
-186.3933279999999968
11
209.1723119999999767
21
-186.3933279999999968
0
LINE
8
BLACK
6
CONTINUOUS
10
209.1723119999999767
20
-186.3933279999999968
11
209.029453999999987
21
-186.3218999999999994
0
LINE
8
BLACK
6
CONTINUOUS
10
211.0294549999999845
20
-186.3218999999999994
11
210.8865969999999948
21
-186.3933279999999968
0
LINE
8
BLACK
6
CONTINUOUS
10
210.8865969999999948
20
-186.3933279999999968
11
210.6008829999999818
21
-186.3933279999999968
0
LINE
8
BLACK
6
CONTINUOUS
10
210.6008829999999818
20
-186.3933279999999968
11
210.4580259999999896
21
-186.3218999999999994
0
LINE
8
BLACK
6
CONTINUOUS
10
210.4580259999999896
20
-186.3218999999999994
11
210.3865969999999948
21
-186.2504710000000046
0
LINE
8
BLACK
6
CONTINUOUS
10
210.3865969999999948
20
-186.2504710000000046
11
210.3151689999999974
21
-186.1076139999999839
0
LINE
8
BLACK
6
CONTINUOUS
10
210.3151689999999974
20
-186.1076139999999839
11
210.3151689999999974
21
-185.6790419999999813
0
LINE
8
BLACK
6
CONTINUOUS
10
210.3151689999999974
20
-185.6790419999999813
11
210.3865969999999948
21
-185.536184999999989
0
LINE
8
BLACK
6
CONTINUOUS
10
210.3865969999999948
20
-185.536184999999989
11
210.4580259999999896
21
-185.4647569999999916
0
LINE
8
BLACK
6
CONTINUOUS
10
210.4580259999999896
20
-185.4647569999999916
11
210.6008829999999818
21
-185.3933279999999968
0
LINE
8
BLACK
6
CONTINUOUS
10
210.6008829999999818
20
-185.3933279999999968
11
210.8865969999999948
21
-185.3933279999999968
0
LINE
8
BLACK
6
CONTINUOUS
10
210.8865969999999948
20
-185.3933279999999968
11
211.0294549999999845
21
-185.4647569999999916
0
LINE
8
BLACK
6
CONTINUOUS
10
211.6723109999999792
20
-186.3933279999999968
11
211.6723109999999792
21
-184.8933279999999968
0
LINE
8
BLACK
6
CONTINUOUS
10
211.6723109999999792
20
-185.4647569999999916
11
211.8151689999999974
21
-185.3933279999999968
0
LINE
8
BLACK
6
CONTINUOUS
10
211.8151689999999974
20
-185.3933279999999968
11
212.1008829999999818
21
-185.3933279999999968
0
LINE
8
BLACK
6
CONTINUOUS
10
212.1008829999999818
20
-185.3933279999999968
11
212.2437400000000025
21
-185.4647569999999916
0
LINE
8
BLACK
6
CONTINUOUS
10
212.2437400000000025
20
-185.4647569999999916
11
212.3151689999999974
21
-185.536184999999989
0
LINE
8
BLACK
6
CONTINUOUS
10
212.3151689999999974
20
-185.536184999999989
11
212.3865969999999948
21
-185.6790419999999813
0
LINE
8
BLACK
6
CONTINUOUS
10
212.3865969999999948
20
-185.6790419999999813
11
212.3865969999999948
21
-186.1076139999999839
0
LINE
8
BLACK
6
CONTINUOUS
10
212.3865969999999948
20
-186.1076139999999839
11
212.3151689999999974
21
-186.2504710000000046
0
LINE
8
BLACK
6
CONTINUOUS
10
212.3151689999999974
20
-186.2504710000000046
11
212.2437400000000025
21
-186.3218999999999994
0
LINE
8
BLACK
6
CONTINUOUS
10
212.2437400000000025
20
-186.3218999999999994
11
212.1008829999999818
21
-186.3933279999999968
0
LINE
8
BLACK
6
CONTINUOUS
10
212.1008829999999818
20
-186.3933279999999968
11
211.8151689999999974
21
-186.3933279999999968
0
LINE
8
BLACK
6
CONTINUOUS
10
211.8151689999999974
20
-186.3933279999999968
11
211.6723109999999792
21
-186.3218999999999994
0
LINE
8
BLACK
6
CONTINUOUS
10
177.0021999999999878
20
-181.5071999999999832
11
285.0021999999999593
21
-181.5071999999999832
0
LINE
8
BLACK
6
CONTINUOUS
10
178.3865979999999922
20
-183.6218999999999824
11
178.6008839999999793
21
-183.6933279999999797
0
LINE
8
BLACK
6
CONTINUOUS
10
178.6008839999999793
20
-183.6933279999999797
11
178.9580259999999896
21
-183.6933279999999797
0
LINE
8
BLACK
6
CONTINUOUS
10
178.9580259999999896
20
-183.6933279999999797
11
179.1008839999999793
21
-183.6218999999999824
0
LINE
8
BLACK
6
CONTINUOUS
10
179.1008839999999793
20
-183.6218999999999824
11
179.1723120000000051
21
-183.5504709999999875
0
LINE
8
BLACK
6
CONTINUOUS
10
179.1723120000000051
20
-183.5504709999999875
11
179.243741
21
-183.4076139999999953
0
LINE
8
BLACK
6
CONTINUOUS
10
179.243741
20
-183.4076139999999953
11
179.243741
21
-183.264757000000003
0
LINE
8
BLACK
6
CONTINUOUS
10
179.243741
20
-183.264757000000003
11
179.1723120000000051
21
-183.1218999999999824
0
LINE
8
BLACK
6
CONTINUOUS
10
179.1723120000000051
20
-183.1218999999999824
11
179.1008839999999793
21
-183.0504709999999875
0
LINE
8
BLACK
6
CONTINUOUS
10
179.1008839999999793
20
-183.0504709999999875
11
178.9580259999999896
21
-182.9790419999999926
0
LINE
8
BLACK
6
CONTINUOUS
10
178.9580259999999896
20
-182.9790419999999926
11
178.6723120000000051
21
-182.9076139999999953
0
LINE
8
BLACK
6
CONTINUOUS
10
178.6723120000000051
20
-182.9076139999999953
11
178.5294549999999845
21
-182.8361850000000004
0
LINE
8
BLACK
6
CONTINUOUS
10
178.5294549999999845
20
-182.8361850000000004
11
178.4580259999999896
21
-182.764757000000003
0
LINE
8
BLACK
6
CONTINUOUS
10
178.4580259999999896
20
-182.764757000000003
11
178.3865979999999922
21
-182.6218999999999824
0
LINE
8
BLACK
6
CONTINUOUS
10
178.3865979999999922
20
-182.6218999999999824
11
178.3865979999999922
21
-182.4790419999999926
0
LINE
8
BLACK
6
CONTINUOUS
10
178.3865979999999922
20
-182.4790419999999926
11
178.4580259999999896
21
-182.3361850000000004
0
LINE
8
BLACK
6
CONTINUOUS
10
178.4580259999999896
20
-182.3361850000000004
11
178.5294549999999845
21
-182.264757000000003
0
LINE
8
BLACK
6
CONTINUOUS
10
178.5294549999999845
20
-182.264757000000003
11
178.6723120000000051
21
-182.1933279999999797
0
LINE
8
BLACK
6
CONTINUOUS
10
178.6723120000000051
20
-182.1933279999999797
11
179.0294549999999845
21
-182.1933279999999797
0
LINE
8
BLACK
6
CONTINUOUS
10
179.0294549999999845
20
-182.1933279999999797
11
179.243741
21
-182.264757000000003
0
LINE
8
BLACK
6
CONTINUOUS
10
179.8865969999999948
20
-183.6933279999999797
11
179.8865969999999948
21
-182.1933279999999797
0
LINE
8
BLACK
6
CONTINUOUS
10
180.5294549999999845
20
-183.6933279999999797
11
180.5294549999999845
21
-182.9076139999999953
0
LINE
8
BLACK
6
CONTINUOUS
10
180.5294549999999845
20
-182.9076139999999953
11
180.4580259999999896
21
-182.764757000000003
0
LINE
8
BLACK
6
CONTINUOUS
10
180.4580259999999896
20
-182.764757000000003
11
180.3151689999999974
21
-182.6933279999999797
0
LINE
8
BLACK
6
CONTINUOUS
10
180.3151689999999974
20
-182.6933279999999797
11
180.1008829999999818
21
-182.6933279999999797
0
LINE
8
BLACK
6
CONTINUOUS
10
180.1008829999999818
20
-182.6933279999999797
11
179.9580259999999896
21
-182.764757000000003
0
LINE
8
BLACK
6
CONTINUOUS
10
179.9580259999999896
20
-182.764757000000003
11
179.8865969999999948
21
-182.8361850000000004
0
LINE
8
BLACK
6
CONTINUOUS
10
181.8151689999999974
20
-183.6218999999999824
11
181.6723120000000051
21
-183.6933279999999797
0
LINE
8
BLACK
6
CONTINUOUS
10
181.6723120000000051
20
-183.6933279999999797
11
181.3865979999999922
21
-183.6933279999999797
0
LINE
8
BLACK
6
CONTINUOUS
10
181.3865979999999922
20
-183.6933279999999797
11
181.2437400000000025
21
-183.6218999999999824
0
LINE
8
BLACK
6
CONTINUOUS
10
181.2437400000000025
20
-183.6218999999999824
11
181.1723120000000051
21
-183.4790419999999926
0
LINE
8
BLACK
6
CONTINUOUS
10
181.1723120000000051
20
-183.4790419999999926
11
181.1723120000000051
21
-182.9076139999999953
0
LINE
8
BLACK
6
CONTINUOUS
10
181.1723120000000051
20
-182.9076139999999953
11
181.2437400000000025
21
-182.764757000000003
0
LINE
8
BLACK
6
CONTINUOUS
10
181.2437400000000025
20
-182.764757000000003
11
181.3865979999999922
21
-182.6933279999999797
0
LINE
8
BLACK
6
CONTINUOUS
10
181.3865979999999922
20
-182.6933279999999797
11
181.6723120000000051
21
-182.6933279999999797
0
LINE
8
BLACK
6
CONTINUOUS
10
181.6723120000000051
20
-182.6933279999999797
11
181.8151689999999974
21
-182.764757000000003
0
LINE
8
BLACK
6
CONTINUOUS
10
181.8151689999999974
20
-182.764757000000003
11
181.8865979999999922
21
-182.9076139999999953
0
LINE
8
BLACK
6
CONTINUOUS
10
181.8865979999999922
20
-182.9076139999999953
11
181.8865979999999922
21
-183.0504709999999875
0
LINE
8
BLACK
6
CONTINUOUS
10
181.8865979999999922
20
-183.0504709999999875
11
181.1723120000000051
21
-183.1933279999999797
0
LINE
8
BLACK
6
CONTINUOUS
10
183.1008829999999818
20
-183.6218999999999824
11
182.9580259999999896
21
-183.6933279999999797
0
LINE
8
BLACK
6
CONTINUOUS
10
182.9580259999999896
20
-183.6933279999999797
11
182.6723120000000051
21
-183.6933279999999797
0
LINE
8
BLACK
6
CONTINUOUS
10
182.6723120000000051
20
-183.6933279999999797
11
182.529453999999987
21
-183.6218999999999824
0
LINE
8
BLACK
6
CONTINUOUS
10
182.529453999999987
20
-183.6218999999999824
11
182.4580259999999896
21
-183.4790419999999926
0
LINE
8
BLACK
6
CONTINUOUS
10
182.4580259999999896
20
-183.4790419999999926
11
182.4580259999999896
21
-182.9076139999999953
0
LINE
8
BLACK
6
CONTINUOUS
10
182.4580259999999896
20
-182.9076139999999953
11
182.529453999999987
21
-182.764757000000003
0
LINE
8
BLACK
6
CONTINUOUS
10
182.529453999999987
20
-182.764757000000003
11
182.6723120000000051
21
-182.6933279999999797
0
LINE
8
BLACK
6
CONTINUOUS
10
182.6723120000000051
20
-182.6933279999999797
11
182.9580259999999896
21
-182.6933279999999797
0
LINE
8
BLACK
6
CONTINUOUS
10
182.9580259999999896
20
-182.6933279999999797
11
183.1008829999999818
21
-182.764757000000003
0
LINE
8
BLACK
6
CONTINUOUS
10
183.1008829999999818
20
-182.764757000000003
11
183.1723120000000051
21
-182.9076139999999953
0
LINE
8
BLACK
6
CONTINUOUS
10
183.1723120000000051
20
-182.9076139999999953
11
183.1723120000000051
21
-183.0504709999999875
0
LINE
8
BLACK
6
CONTINUOUS
10
183.1723120000000051
20
-183.0504709999999875
11
182.4580259999999896
21
-183.1933279999999797
0
LINE
8
BLACK
6
CONTINUOUS
10
183.6008829999999818
20
-182.6933279999999797
11
184.1723109999999792
21
-182.6933279999999797
0
LINE
8
BLACK
6
CONTINUOUS
10
183.8151679999999999
20
-182.1933279999999797
11
183.8151679999999999
21
-183.4790419999999926
0
LINE
8
BLACK
6
CONTINUOUS
10
183.8151679999999999
20
-183.4790419999999926
11
183.8865969999999948
21
-183.6218999999999824
0
LINE
8
BLACK
6
CONTINUOUS
10
183.8865969999999948
20
-183.6218999999999824
11
184.029453999999987
21
-183.6933279999999797
0
LINE
8
BLACK
6
CONTINUOUS
10
184.029453999999987
20
-183.6933279999999797
11
184.1723109999999792
21
-183.6933279999999797
0
LINE
8
BLACK
6
CONTINUOUS
10
184.6723109999999792
20
-183.5504709999999875
11
184.7437400000000025
21
-183.6218999999999824
0
LINE
8
BLACK
6
CONTINUOUS
10
184.7437400000000025
20
-183.6218999999999824
11
184.6723109999999792
21
-183.6933279999999797
0
LINE
8
BLACK
6
CONTINUOUS
10
184.6723109999999792
20
-183.6933279999999797
11
184.6008829999999818
21
-183.6218999999999824
0
LINE
8
BLACK
6
CONTINUOUS
10
184.6008829999999818
20
-183.6218999999999824
11
184.6723109999999792
21
-183.5504709999999875
0
LINE
8
BLACK
6
CONTINUOUS
10
184.6723109999999792
20
-183.5504709999999875
11
184.6723109999999792
21
-183.6933279999999797
0
LINE
8
BLACK
6
CONTINUOUS
10
184.6723109999999792
20
-182.764757000000003
11
184.7437400000000025
21
-182.8361850000000004
0
LINE
8
BLACK
6
CONTINUOUS
10
184.7437400000000025
20
-182.8361850000000004
11
184.6723109999999792
21
-182.9076139999999953
0
LINE
8
BLACK
6
CONTINUOUS
10
184.6723109999999792
20
-182.9076139999999953
11
184.6008829999999818
21
-182.8361850000000004
0
LINE
8
BLACK
6
CONTINUOUS
10
184.6008829999999818
20
-182.8361850000000004
11
184.6723109999999792
21
-182.764757000000003
0
LINE
8
BLACK
6
CONTINUOUS
10
184.6723109999999792
20
-182.764757000000003
11
184.6723109999999792
21
-182.9076139999999953
0
LINE
8
BLACK
6
CONTINUOUS
10
197.0021999999999878
20
-191.5071999999999832
11
197.0021999999999878
21
-194.5071999999999832
0
LINE
8
BLACK
6
CONTINUOUS
10
261.0022000000000162
20
-191.5071999999999832
11
261.0022000000000162
21
-198.0071999999999832
0
LINE
8
BLACK
6
CONTINUOUS
10
91.1499999999999915
20
-47.2999999999999972
11
86.6499999999999915
21
-47.2999999999999972
0
LINE
8
BLACK
6
CONTINUOUS
10
86.6499999999999915
20
-47.2999999999999972
11
86.6499999999999915
21
-54.2999999999999972
0
LINE
8
BLACK
6
CONTINUOUS
10
91.1499999999999915
20
-54.2999999999999972
11
91.1499999999999915
21
-47.2999999999999972
0
LINE
8
BLACK
6
CONTINUOUS
10
86.6499999999999915
20
-54.2999999999999972
11
91.1499999999999915
21
-54.2999999999999972
0
LINE
8
BLACK
6
CONTINUOUS
10
95.0806279999999902
20
-32.9790539999999979
11
95.0806279999999902
21
-30.4790539999999979
0
LINE
8
BLACK
6
CONTINUOUS
10
95.0806279999999902
20
-30.4790539999999979
11
89.0806279999999902
21
-30.4790539999999979
0
LINE
8
BLACK
6
CONTINUOUS
10
89.0806279999999902
20
-32.9790539999999979
11
95.0806279999999902
21
-32.9790539999999979
0
LINE
8
BLACK
6
CONTINUOUS
10
89.0806279999999902
20
-30.4790539999999979
11
89.0806279999999902
21
-32.9790539999999979
0
LINE
8
BLACK
6
CONTINUOUS
10
99.5124999999999886
20
-30.8663949999999971
11
99.5124999999999886
21
-31.3663949999999971
0
LINE
8
BLACK
6
CONTINUOUS
10
99.7624999999999886
20
-31.1163949999999971
11
99.2624999999999886
21
-31.1163949999999971
0
CIRCLE
8
BLACK
10
98.4249999999999972
20
-33.
40
2.5
0
LINE
8
BLACK
6
CONTINUOUS
10
45.4149999999999991
20
-35.207499999999996
11
45.4149999999999991
21
-23.8574999999999982
0
LINE
8
BLACK
6
CONTINUOUS
10
54.9149999999999991
20
-35.207499999999996
11
45.4149999999999991
21
-35.207499999999996
0
LINE
8
BLACK
6
CONTINUOUS
10
54.9149999999999991
20
-35.207499999999996
11
54.9149999999999991
21
-23.8574999999999982
0
LINE
8
BLACK
6
CONTINUOUS
10
54.9149999999999991
20
-23.8574999999999982
11
45.4149999999999991
21
-23.8574999999999982
0
CIRCLE
8
BLACK
10
50.1649999999999991
20
-28.7074999999999996
40
3.5
0
LINE
8
BLACK
6
CONTINUOUS
10
87.4549999999999983
20
-33.
11
87.4549999999999983
21
-30.5
0
LINE
8
BLACK
6
CONTINUOUS
10
87.4549999999999983
20
-30.5
11
81.4549999999999983
21
-30.5
0
LINE
8
BLACK
6
CONTINUOUS
10
81.4549999999999983
20
-33.
11
87.4549999999999983
21
-33.
0
LINE
8
BLACK
6
CONTINUOUS
10
81.4549999999999983
20
-30.5
11
81.4549999999999983
21
-33.
0
LINE
8
BLACK
6
CONTINUOUS
10
85.3439999999999941
20
-24.129999999999999
11
87.8840000000000003
21
-24.129999999999999
0
CIRCLE
8
BLACK
10
87.8840000000000003
20
-24.129999999999999
40
1.
0
LINE
8
BLACK
6
CONTINUOUS
10
82.4461900000000014
20
-92.4749999999999943
11
80.1138100000000009
21
-92.4749999999999943
0
ARC
8
BLACK
10
81.2799989999999895
20
-93.9749989999999968
40
1.8999998329869592
50
-232.16363603
51
52.13636012
0
CIRCLE
8
BLACK
10
81.2800000000000011
20
-93.9749999999999943
40
1.5
0
LINE
8
BLACK
6
CONTINUOUS
10
82.4461900000000014
20
-75.9650000000000034
11
80.1138100000000009
21
-75.9650000000000034
0
ARC
8
BLACK
10
81.2799989999999895
20
-77.4649989999999917
40
1.8999998329869592
50
-232.16363603
51
52.13636012
0
CIRCLE
8
BLACK
10
81.2800000000000011
20
-77.4650000000000034
40
1.5
0
LINE
8
BLACK
6
CONTINUOUS
10
43.4624999999999986
20
-65.7099999999999937
11
32.1124999999999972
21
-65.7099999999999937
0
LINE
8
BLACK
6
CONTINUOUS
10
43.4624999999999986
20
-56.2100000000000009
11
43.4624999999999986
21
-65.7099999999999937
0
LINE
8
BLACK
6
CONTINUOUS
10
43.4624999999999986
20
-56.2100000000000009
11
32.1124999999999972
21
-56.2100000000000009
0
LINE
8
BLACK
6
CONTINUOUS
10
32.1124999999999972
20
-56.2100000000000009
11
32.1124999999999972
21
-65.7099999999999937
0
CIRCLE
8
BLACK
10
36.9624999999999986
20
-60.9599999999999937
40
3.5
0
LINE
8
BLACK
6
CONTINUOUS
10
76.4825000000000017
20
-82.2199999999999989
11
65.1324999999999932
21
-82.2199999999999989
0
LINE
8
BLACK
6
CONTINUOUS
10
76.4825000000000017
20
-72.7199999999999989
11
76.4825000000000017
21
-82.2199999999999989
0
LINE
8
BLACK
6
CONTINUOUS
10
76.4825000000000017
20
-72.7199999999999989
11
65.1324999999999932
21
-72.7199999999999989
0
LINE
8
BLACK
6
CONTINUOUS
10
65.1324999999999932
20
-72.7199999999999989
11
65.1324999999999932
21
-82.2199999999999989
0
CIRCLE
8
BLACK
10
69.9825000000000017
20
-77.4699999999999989
40
3.5
0
LINE
8
BLACK
6
CONTINUOUS
10
82.4461900000000014
20
-108.9849999999999994
11
80.1138100000000009
21
-108.9849999999999994
0
ARC
8
BLACK
10
81.2799989999999895
20
-110.484999000000002
40
1.8999998329869592
50
-232.16363603
51
52.13636012
0
CIRCLE
8
BLACK
10
81.2800000000000011
20
-110.4849999999999994
40
1.5
0
LINE
8
BLACK
6
CONTINUOUS
10
102.2349999999999994
20
-41.0499999999999972
11
102.2349999999999994
21
-38.509999999999998
0
CIRCLE
8
BLACK
10
102.2349999999999994
20
-41.0499999999999972
40
1.25
0
CIRCLE
8
BLACK
10
102.8699999999999903
20
-52.0700000000000003
40
3.
0
LINE
8
BLACK
6
CONTINUOUS
10
53.6983339999999956
20
-110.4899999999999949
11
61.5983339999999941
21
-110.4899999999999949
0
LINE
8
BLACK
6
CONTINUOUS
10
57.6483339999999984
20
-103.8900000000000006
11
57.6483339999999984
21
-117.0899999999999892
0
CIRCLE
8
BLACK
10
57.6483339999999984
20
-116.8900000000000006
40
1.2
0
CIRCLE
8
BLACK
10
57.6483339999999984
20
-110.4899999999999949
40
3.0499999999999998
0
LINE
8
BLACK
6
CONTINUOUS
10
105.8199999999999932
20
-42.5449999999999946
11
108.3599999999999994
21
-42.5449999999999946
0
CIRCLE
8
BLACK
10
105.8199999999999932
20
-42.5449999999999946
40
1.25
0
LINE
8
BLACK
6
CONTINUOUS
10
43.4624999999999986
20
-98.7299999999999898
11
32.1124999999999972
21
-98.7299999999999898
0
LINE
8
BLACK
6
CONTINUOUS
10
43.4624999999999986
20
-89.2299999999999898
11
43.4624999999999986
21
-98.7299999999999898
0
LINE
8
BLACK
6
CONTINUOUS
10
43.4624999999999986
20
-89.2299999999999898
11
32.1124999999999972
21
-89.2299999999999898
0
LINE
8
BLACK
6
CONTINUOUS
10
32.1124999999999972
20
-89.2299999999999898
11
32.1124999999999972
21
-98.7299999999999898
0
CIRCLE
8
BLACK
10
36.9624999999999986
20
-93.9799999999999898
40
3.5
0
LINE
8
BLACK
6
CONTINUOUS
10
101.1899999999999977
20
-45.7199999999999989
11
103.7299999999999898
21
-45.7199999999999989
0
CIRCLE
8
BLACK
10
101.1899999999999977
20
-45.7199999999999989
40
1.25
0
CIRCLE
8
BLACK
10
102.8900000000000006
20
-113.0300000000000011
40
1.7999999999999998
0
CIRCLE
8
BLACK
10
102.8900000000000006
20
-113.0300000000000011
40
3.
0
LINE
8
BLACK
6
CONTINUOUS
10
104.7749999999999915
20
-35.6199999999999974
11
102.2349999999999994
21
-35.6199999999999974
0
CIRCLE
8
BLACK
10
104.7749999999999915
20
-35.6199999999999974
40
1.25
0
LINE
8
BLACK
6
CONTINUOUS
10
53.6983339999999956
20
-77.4699999999999989
11
61.5983339999999941
21
-77.4699999999999989
0
LINE
8
BLACK
6
CONTINUOUS
10
57.6483339999999984
20
-70.8699999999999903
11
57.6483339999999984
21
-84.0699999999999932
0
CIRCLE
8
BLACK
10
57.6483339999999984
20
-83.8699999999999903
40
1.2
0
CIRCLE
8
BLACK
10
57.6483339999999984
20
-77.4699999999999989
40
3.0499999999999998
0
LINE
8
BLACK
6
CONTINUOUS
10
20.6783339999999995
20
-110.4899999999999949
11
28.5783339999999981
21
-110.4899999999999949
0
LINE
8
BLACK
6
CONTINUOUS
10
24.6283339999999988
20
-103.8900000000000006
11
24.6283339999999988
21
-117.0899999999999892
0
CIRCLE
8
BLACK
10
24.6283339999999988
20
-116.8900000000000006
40
1.2
0
CIRCLE
8
BLACK
10
24.6283339999999988
20
-110.4899999999999949
40
3.0499999999999998
0
LINE
8
BLACK
6
CONTINUOUS
10
76.4825000000000017
20
-115.2399999999999949
11
65.1324999999999932
21
-115.2399999999999949
0
LINE
8
BLACK
6
CONTINUOUS
10
76.4825000000000017
20
-105.7399999999999949
11
76.4825000000000017
21
-115.2399999999999949
0
LINE
8
BLACK
6
CONTINUOUS
10
76.4825000000000017
20
-105.7399999999999949
11
65.1324999999999932
21
-105.7399999999999949
0
LINE
8
BLACK
6
CONTINUOUS
10
65.1324999999999932
20
-105.7399999999999949
11
65.1324999999999932
21
-115.2399999999999949
0
CIRCLE
8
BLACK
10
69.9825000000000017
20
-110.4899999999999949
40
3.5
0
LINE
8
BLACK
6
CONTINUOUS
10
53.6983339999999956
20
-60.9599999999999937
11
61.5983339999999941
21
-60.9599999999999937
0
LINE
8
BLACK
6
CONTINUOUS
10
57.6483339999999984
20
-54.3599999999999994
11
57.6483339999999984
21
-67.5600000000000023
0
CIRCLE
8
BLACK
10
57.6483339999999984
20
-67.3599999999999994
40
1.2
0
CIRCLE
8
BLACK
10
57.6483339999999984
20
-60.9599999999999937
40
3.0499999999999998
0
CIRCLE
8
BLACK
10
22.9800629999999977
20
-28.5746649999999995
40
1.
0
LINE
8
BLACK
6
CONTINUOUS
10
33.4799999999999969
20
-28.5749999999999993
11
33.2805819999999954
21
-29.6505169999999971
0
LINE
8
BLACK
6
CONTINUOUS
10
33.1127469999999988
20
-30.0132759999999976
11
32.4221119999999985
21
-30.8615250000000003
0
LINE
8
BLACK
6
CONTINUOUS
10
32.1009060000000019
20
-31.0994119999999974
11
31.0881439999999998
21
-31.512712999999998
0
LINE
8
BLACK
6
CONTINUOUS
10
30.6922110000000004
20
-31.5674840000000003
11
29.605281999999999
21
-31.4446459999999988
0
LINE
8
BLACK
6
CONTINUOUS
10
29.2315589999999972
20
-31.3028919999999999
11
28.3365809999999989
21
-30.6739889999999988
0
LINE
8
BLACK
6
CONTINUOUS
10
28.0765689999999992
20
-30.3704159999999987
11
27.5926639999999992
21
-29.3894269999999977
0
LINE
8
BLACK
6
CONTINUOUS
10
27.5100219999999993
20
-28.9983599999999981
11
27.5556669999999997
21
-27.9054639999999985
0
LINE
8
BLACK
6
CONTINUOUS
10
27.6706289999999981
20
-27.5226499999999987
11
28.234648
21
-26.5854269999999993
0
LINE
8
BLACK
6
CONTINUOUS
10
28.5190689999999982
20
-26.3045919999999995
11
29.4633699999999976
21
-25.7525069999999978
0
LINE
8
BLACK
6
CONTINUOUS
10
29.847611999999998
20
-25.6424089999999971
11
30.9409989999999979
21
-25.6106309999999979
0
LINE
8
BLACK
6
CONTINUOUS
10
31.3309859999999993
20
-25.6982269999999993
11
32.3057579999999973
21
-26.1945359999999994
0
LINE
8
BLACK
6
CONTINUOUS
10
32.6060090000000002
20
-26.4583789999999972
11
33.2235079999999954
21
-27.361262
0
LINE
8
BLACK
6
CONTINUOUS
10
33.3605099999999979
20
-27.7367530000000002
11
33.4799999999999969
21
-28.5749999999999993
0
CIRCLE
8
BLACK
10
30.4799999999999969
20
-28.5749999999999993
40
4.5499999999999998
0
LINE
8
BLACK
6
CONTINUOUS
10
20.6783339999999995
20
-93.9799999999999898
11
28.5783339999999981
21
-93.9799999999999898
0
LINE
8
BLACK
6
CONTINUOUS
10
24.6283339999999988
20
-87.3799999999999955
11
24.6283339999999988
21
-100.5799999999999983
0
CIRCLE
8
BLACK
10
24.6283339999999988
20
-100.3799999999999955
40
1.2
0
CIRCLE
8
BLACK
10
24.6283339999999988
20
-93.9799999999999898
40
3.0499999999999998
0
LINE
8
BLACK
6
CONTINUOUS
10
49.5586899999999986
20
-59.4549999999999983
11
47.226309999999998
21
-59.4549999999999983
0
ARC
8
BLACK
10
48.3924990000000008
20
-60.9549989999999937
40
1.899999832986965
50
-232.16363603
51
52.13636012
0
CIRCLE
8
BLACK
10
48.3924999999999983
20
-60.9549999999999983
40
1.5
0
LINE
8
BLACK
6
CONTINUOUS
10
49.5586899999999986
20
-108.9849999999999994
11
47.226309999999998
21
-108.9849999999999994
0
ARC
8
BLACK
10
48.3924990000000008
20
-110.484999000000002
40
1.8999998329869592
50
-232.16363603
51
52.13636012
0
CIRCLE
8
BLACK
10
48.3924999999999983
20
-110.4849999999999994
40
1.5
0
LINE
8
BLACK
6
CONTINUOUS
10
20.6783339999999995
20
-60.9599999999999937
11
28.5783339999999981
21
-60.9599999999999937
0
LINE
8
BLACK
6
CONTINUOUS
10
24.6283339999999988
20
-54.3599999999999994
11
24.6283339999999988
21
-67.5600000000000023
0
CIRCLE
8
BLACK
10
24.6283339999999988
20
-67.3599999999999994
40
1.2
0
CIRCLE
8
BLACK
10
24.6283339999999988
20
-60.9599999999999937
40
3.0499999999999998
0
LINE
8
BLACK
6
CONTINUOUS
10
49.5586899999999986
20
-75.9650000000000034
11
47.226309999999998
21
-75.9650000000000034
0
ARC
8
BLACK
10
48.3924990000000008
20
-77.4649989999999917
40
1.8999998329869592
50
-232.16363603
51
52.13636012
0
CIRCLE
8
BLACK
10
48.3924999999999983
20
-77.4650000000000034
40
1.5
0
LINE
8
BLACK
6
CONTINUOUS
10
106.171999999999997
20
-31.75
11
103.6319999999999908
21
-31.75
0
CIRCLE
8
BLACK
10
103.6319999999999908
20
-31.75
40
1.
0
LINE
8
BLACK
6
CONTINUOUS
10
87.6299999999999955
20
-28.5749999999999993
11
85.0899999999999892
21
-28.5749999999999993
0
CIRCLE
8
BLACK
10
87.6299999999999955
20
-28.5749999999999993
40
1.25
0
LINE
8
BLACK
6
CONTINUOUS
10
43.4624999999999986
20
-115.2399999999999949
11
32.1124999999999972
21
-115.2399999999999949
0
LINE
8
BLACK
6
CONTINUOUS
10
43.4624999999999986
20
-105.7399999999999949
11
43.4624999999999986
21
-115.2399999999999949
0
LINE
8
BLACK
6
CONTINUOUS
10
43.4624999999999986
20
-105.7399999999999949
11
32.1124999999999972
21
-105.7399999999999949
0
LINE
8
BLACK
6
CONTINUOUS
10
32.1124999999999972
20
-105.7399999999999949
11
32.1124999999999972
21
-115.2399999999999949
0
CIRCLE
8
BLACK
10
36.9624999999999986
20
-110.4899999999999949
40
3.5
0
LINE
8
BLACK
6
CONTINUOUS
10
49.5586899999999986
20
-92.4749999999999943
11
47.226309999999998
21
-92.4749999999999943
0
ARC
8
BLACK
10
48.3924990000000008
20
-93.9749989999999968
40
1.8999998329869592
50
-232.16363603
51
52.13636012
0
CIRCLE
8
BLACK
10
48.3924999999999983
20
-93.9749999999999943
40
1.5
0
LINE
8
BLACK
6
CONTINUOUS
10
93.0899999999999892
20
-113.664999999999992
11
93.0899999999999892
21
-116.2049999999999983
0
LINE
8
BLACK
6
CONTINUOUS
10
20.6783339999999995
20
-77.4699999999999989
11
28.5783339999999981
21
-77.4699999999999989
0
LINE
8
BLACK
6
CONTINUOUS
10
24.6283339999999988
20
-70.8699999999999903
11
24.6283339999999988
21
-84.0699999999999932
0
CIRCLE
8
BLACK
10
24.6283339999999988
20
-83.8699999999999903
40
1.2
0
CIRCLE
8
BLACK
10
24.6283339999999988
20
-77.4699999999999989
40
3.0499999999999998
0
LINE
8
BLACK
6
CONTINUOUS
10
76.4825000000000017
20
-98.7299999999999898
11
65.1324999999999932
21
-98.7299999999999898
0
LINE
8
BLACK
6
CONTINUOUS
10
76.4825000000000017
20
-89.2299999999999898
11
76.4825000000000017
21
-98.7299999999999898
0
LINE
8
BLACK
6
CONTINUOUS
10
76.4825000000000017
20
-89.2299999999999898
11
65.1324999999999932
21
-89.2299999999999898
0
LINE
8
BLACK
6
CONTINUOUS
10
65.1324999999999932
20
-89.2299999999999898
11
65.1324999999999932
21
-98.7299999999999898
0
CIRCLE
8
BLACK
10
69.9825000000000017
20
-93.9799999999999898
40
3.5
0
LINE
8
BLACK
6
CONTINUOUS
10
82.4461900000000014
20
-59.4549999999999983
11
80.1138100000000009
21
-59.4549999999999983
0
ARC
8
BLACK
10
81.2799989999999895
20
-60.9549989999999937
40
1.899999832986965
50
-232.16363603
51
52.13636012
0
CIRCLE
8
BLACK
10
81.2800000000000011
20
-60.9549999999999983
40
1.5
0
CIRCLE
8
BLACK
10
102.8900000000000006
20
-88.2650000000000006
40
1.7999999999999998
0
CIRCLE
8
BLACK
10
102.8900000000000006
20
-88.2650000000000006
40
3.
0
LINE
8
BLACK
6
CONTINUOUS
10
65.0999999999999943
20
-35.207499999999996
11
65.0999999999999943
21
-23.8574999999999982
0
LINE
8
BLACK
6
CONTINUOUS
10
74.5999999999999943
20
-35.207499999999996
11
65.0999999999999943
21
-35.207499999999996
0
LINE
8
BLACK
6
CONTINUOUS
10
74.5999999999999943
20
-35.207499999999996
11
74.5999999999999943
21
-23.8574999999999982
0
LINE
8
BLACK
6
CONTINUOUS
10
74.5999999999999943
20
-23.8574999999999982
11
65.0999999999999943
21
-23.8574999999999982
0
CIRCLE
8
BLACK
10
69.8499999999999943
20
-28.7074999999999996
40
3.5
0
CIRCLE
8
BLACK
10
102.8900000000000006
20
-63.5
40
1.7999999999999998
0
CIRCLE
8
BLACK
10
102.8900000000000006
20
-63.5
40
3.
0
LINE
8
BLACK
6
CONTINUOUS
10
43.4624999999999986
20
-82.2199999999999989
11
32.1124999999999972
21
-82.2199999999999989
0
LINE
8
BLACK
6
CONTINUOUS
10
43.4624999999999986
20
-72.7199999999999989
11
43.4624999999999986
21
-82.2199999999999989
0
LINE
8
BLACK
6
CONTINUOUS
10
43.4624999999999986
20
-72.7199999999999989
11
32.1124999999999972
21
-72.7199999999999989
0
LINE
8
BLACK
6
CONTINUOUS
10
32.1124999999999972
20
-72.7199999999999989
11
32.1124999999999972
21
-82.2199999999999989
0
CIRCLE
8
BLACK
10
36.9624999999999986
20
-77.4699999999999989
40
3.5
0
CIRCLE
8
BLACK
10
102.8900000000000006
20
-75.8824999999999932
40
1.7999999999999998
0
CIRCLE
8
BLACK
10
102.8900000000000006
20
-75.8824999999999932
40
3.
0
LINE
8
BLACK
6
CONTINUOUS
10
82.7986049999999949
20
-28.3924999999999983
11
82.2986049999999949
21
-28.3924999999999983
0
LINE
8
BLACK
6
CONTINUOUS
10
82.5486049999999949
20
-28.6424999999999983
11
82.5486049999999949
21
-28.1424999999999983
0
CIRCLE
8
BLACK
10
80.664999999999992
20
-27.3049999999999997
40
2.5
0
LINE
8
BLACK
6
CONTINUOUS
10
53.6983339999999956
20
-93.9799999999999898
11
61.5983339999999941
21
-93.9799999999999898
0
LINE
8
BLACK
6
CONTINUOUS
10
57.6483339999999984
20
-87.3799999999999955
11
57.6483339999999984
21
-100.5799999999999983
0
CIRCLE
8
BLACK
10
57.6483339999999984
20
-100.3799999999999955
40
1.2
0
CIRCLE
8
BLACK
10
57.6483339999999984
20
-93.9799999999999898
40
3.0499999999999998
0
CIRCLE
8
BLACK
10
102.8900000000000006
20
-100.6474999999999937
40
1.7999999999999998
0
CIRCLE
8
BLACK
10
102.8900000000000006
20
-100.6474999999999937
40
3.
0
LINE
8
BLACK
6
CONTINUOUS
10
76.4825000000000017
20
-65.7099999999999937
11
65.1324999999999932
21
-65.7099999999999937
0
LINE
8
BLACK
6
CONTINUOUS
10
76.4825000000000017
20
-56.2100000000000009
11
76.4825000000000017
21
-65.7099999999999937
0
LINE
8
BLACK
6
CONTINUOUS
10
76.4825000000000017
20
-56.2100000000000009
11
65.1324999999999932
21
-56.2100000000000009
0
LINE
8
BLACK
6
CONTINUOUS
10
65.1324999999999932
20
-56.2100000000000009
11
65.1324999999999932
21
-65.7099999999999937
0
CIRCLE
8
BLACK
10
69.9825000000000017
20
-60.9599999999999937
40
3.5
0
LINE
8
BLACK
6
CONTINUOUS
10
19.6849999999999987
20
-19.6849999999999987
11
109.6849999999999881
21
-19.6849999999999987
0
LINE
8
BLACK
6
CONTINUOUS
10
109.6849999999999881
20
-19.6849999999999987
11
109.6849999999999881
21
-119.6849999999999881
0
LINE
8
BLACK
6
CONTINUOUS
10
109.6849999999999881
20
-119.6849999999999881
11
19.6849999999999987
21
-119.6849999999999881
0
LINE
8
BLACK
6
CONTINUOUS
10
19.6849999999999987
20
-119.6849999999999881
11
19.6849999999999987
21
-19.6849999999999987
  0
ENDSEC
  0
EOF
